<?xml version="1.0" encoding="utf-8" standalone="no"?>
<!DOCTYPE svg PUBLIC "-//W3C//DTD SVG 1.1//EN"
  "http://www.w3.org/Graphics/SVG/1.1/DTD/svg11.dtd">
<svg xmlns:xlink="http://www.w3.org/1999/xlink" width="864pt" height="864pt" viewBox="0 0 864 864" xmlns="http://www.w3.org/2000/svg" version="1.1">
 <metadata>
  <rdf:RDF xmlns:dc="http://purl.org/dc/elements/1.1/" xmlns:cc="http://creativecommons.org/ns#" xmlns:rdf="http://www.w3.org/1999/02/22-rdf-syntax-ns#">
   <cc:Work>
    <dc:type rdf:resource="http://purl.org/dc/dcmitype/StillImage"/>
    <dc:date>2026-03-27T19:18:44.206848</dc:date>
    <dc:format>image/svg+xml</dc:format>
    <dc:creator>
     <cc:Agent>
      <dc:title>Matplotlib v3.9.4, https://matplotlib.org/</dc:title>
     </cc:Agent>
    </dc:creator>
   </cc:Work>
  </rdf:RDF>
 </metadata>
 <defs>
  <style type="text/css">*{stroke-linejoin: round; stroke-linecap: butt}</style>
 </defs>
 <g id="figure_1">
  <g id="patch_1">
   <path d="M 0 864 
L 864 864 
L 864 0 
L 0 0 
z
" style="fill: #ffffff"/>
  </g>
  <g id="axes_1">
   <g id="patch_2">
    <path d="M 215.2224 156.658182 
L 365.2992 156.658182 
Q 373.6368 156.658182 373.6368 149.371636 
L 373.6368 98.365818 
Q 373.6368 91.079273 365.2992 91.079273 
L 215.2224 91.079273 
Q 206.8848 91.079273 206.8848 98.365818 
L 206.8848 149.371636 
Q 206.8848 156.658182 215.2224 156.658182 
z
" clip-path="url(#pf11325017e)" style="fill: #1f77b4; stroke: #333333; stroke-width: 1.5; stroke-linejoin: miter"/>
   </g>
   <g id="patch_3">
    <path d="M 498.7008 156.658182 
L 648.7776 156.658182 
Q 657.1152 156.658182 657.1152 149.371636 
L 657.1152 98.365818 
Q 657.1152 91.079273 648.7776 91.079273 
L 498.7008 91.079273 
Q 490.3632 91.079273 490.3632 98.365818 
L 490.3632 149.371636 
Q 490.3632 156.658182 498.7008 156.658182 
z
" clip-path="url(#pf11325017e)" style="fill: #ff7f0e; stroke: #333333; stroke-width: 1.5; stroke-linejoin: miter"/>
   </g>
   <g id="patch_4">
    <path d="M 215.2224 302.389091 
L 365.2992 302.389091 
Q 373.6368 302.389091 373.6368 295.102545 
L 373.6368 244.096727 
Q 373.6368 236.810182 365.2992 236.810182 
L 215.2224 236.810182 
Q 206.8848 236.810182 206.8848 244.096727 
L 206.8848 295.102545 
Q 206.8848 302.389091 215.2224 302.389091 
z
" clip-path="url(#pf11325017e)" style="fill: #2ca02c; stroke: #333333; stroke-width: 1.5; stroke-linejoin: miter"/>
   </g>
   <g id="patch_5">
    <path d="M 498.7008 302.389091 
L 648.7776 302.389091 
Q 657.1152 302.389091 657.1152 295.102545 
L 657.1152 244.096727 
Q 657.1152 236.810182 648.7776 236.810182 
L 498.7008 236.810182 
Q 490.3632 236.810182 490.3632 244.096727 
L 490.3632 295.102545 
Q 490.3632 302.389091 498.7008 302.389091 
z
" clip-path="url(#pf11325017e)" style="fill: #2ca02c; stroke: #333333; stroke-width: 1.5; stroke-linejoin: miter"/>
   </g>
   <g id="patch_6">
    <path d="M 215.2224 448.12 
L 365.2992 448.12 
Q 373.6368 448.12 373.6368 440.833455 
L 373.6368 389.827636 
Q 373.6368 382.541091 365.2992 382.541091 
L 215.2224 382.541091 
Q 206.8848 382.541091 206.8848 389.827636 
L 206.8848 440.833455 
Q 206.8848 448.12 215.2224 448.12 
z
" clip-path="url(#pf11325017e)" style="fill: #9467bd; stroke: #333333; stroke-width: 1.5; stroke-linejoin: miter"/>
   </g>
   <g id="patch_7">
    <path d="M 498.7008 448.12 
L 648.7776 448.12 
Q 657.1152 448.12 657.1152 440.833455 
L 657.1152 389.827636 
Q 657.1152 382.541091 648.7776 382.541091 
L 498.7008 382.541091 
Q 490.3632 382.541091 490.3632 389.827636 
L 490.3632 440.833455 
Q 490.3632 448.12 498.7008 448.12 
z
" clip-path="url(#pf11325017e)" style="fill: #8c564b; stroke: #333333; stroke-width: 1.5; stroke-linejoin: miter"/>
   </g>
   <g id="patch_8">
    <path d="M 356.9616 593.850909 
L 507.0384 593.850909 
Q 515.376 593.850909 515.376 586.564364 
L 515.376 535.558545 
Q 515.376 528.272 507.0384 528.272 
L 356.9616 528.272 
Q 348.624 528.272 348.624 535.558545 
L 348.624 586.564364 
Q 348.624 593.850909 356.9616 593.850909 
z
" clip-path="url(#pf11325017e)" style="fill: #e377c2; stroke: #333333; stroke-width: 1.5; stroke-linejoin: miter"/>
   </g>
   <g id="patch_9">
    <path d="M 215.2224 739.581818 
L 365.2992 739.581818 
Q 373.6368 739.581818 373.6368 732.295273 
L 373.6368 681.289455 
Q 373.6368 674.002909 365.2992 674.002909 
L 215.2224 674.002909 
Q 206.8848 674.002909 206.8848 681.289455 
L 206.8848 732.295273 
Q 206.8848 739.581818 215.2224 739.581818 
z
" clip-path="url(#pf11325017e)" style="fill: #7f7f7f; stroke: #333333; stroke-width: 1.5; stroke-linejoin: miter"/>
   </g>
   <g id="patch_10">
    <path d="M 498.7008 739.581818 
L 648.7776 739.581818 
Q 657.1152 739.581818 657.1152 732.295273 
L 657.1152 681.289455 
Q 657.1152 674.002909 648.7776 674.002909 
L 498.7008 674.002909 
Q 490.3632 674.002909 490.3632 681.289455 
L 490.3632 732.295273 
Q 490.3632 739.581818 498.7008 739.581818 
z
" clip-path="url(#pf11325017e)" style="fill: #bcbd22; stroke: #333333; stroke-width: 1.5; stroke-linejoin: miter"/>
   </g>
   <g id="text_1">
    <!-- Data Input -->
    <g style="fill: #808080" transform="translate(402.085156 64.968403) scale(0.11 -0.11)">
     <defs>
      <path id="DejaVuSerif-Italic-44" d="M 1194 331 
L 1775 331 
Q 2684 331 3271 850 
Q 3859 1369 4048 2337 
Q 4238 3306 3852 3818 
Q 3466 4331 2553 4331 
L 1972 4331 
L 1194 331 
z
M -97 0 
L -34 331 
L 559 331 
L 1338 4331 
L 744 4331 
L 809 4666 
L 2666 4666 
Q 3872 4666 4426 4050 
Q 4981 3434 4766 2338 
Q 4553 1238 3758 619 
Q 2963 0 1759 0 
L -97 0 
z
" transform="scale(0.015625)"/>
      <path id="DejaVuSerif-Italic-61" d="M 2325 519 
Q 1909 -91 1238 -91 
Q 688 -91 409 281 
Q 216 544 216 919 
Q 216 1078 250 1256 
Q 463 2359 1231 2928 
Q 1884 3413 2675 3413 
Q 3206 3413 3388 3322 
L 2806 331 
L 3300 331 
L 3238 0 
L 2225 0 
L 2325 519 
z
M 822 938 
Q 822 269 1469 269 
Q 1863 269 2130 583 
Q 2397 897 2516 1497 
L 2806 3003 
L 2806 3003 
Q 2806 3094 2556 3094 
Q 1956 3094 1491 2625 
Q 1028 2153 863 1297 
Q 822 1097 822 938 
z
" transform="scale(0.015625)"/>
      <path id="DejaVuSerif-Italic-74" d="M 856 2988 
L 350 2988 
L 416 3322 
L 922 3322 
L 1122 4353 
L 1700 4353 
L 1500 3322 
L 2581 3322 
L 2516 2988 
L 1434 2988 
L 1025 878 
Q 978 631 978 488 
Q 978 388 1000 338 
Q 1059 219 1278 219 
Q 1503 219 1633 351 
Q 1763 484 1825 781 
L 2259 781 
Q 2147 328 1884 118 
Q 1622 -91 1169 -91 
Q 672 -91 506 131 
Q 406 266 406 516 
Q 406 675 447 878 
L 856 2988 
z
" transform="scale(0.015625)"/>
      <path id="DejaVuSerif-Italic-20" transform="scale(0.015625)"/>
      <path id="DejaVuSerif-Italic-49" d="M 1194 331 
L 1788 331 
L 1725 0 
L -97 0 
L -34 331 
L 559 331 
L 1338 4331 
L 744 4331 
L 809 4666 
L 2631 4666 
L 2566 4331 
L 1972 4331 
L 1194 331 
z
" transform="scale(0.015625)"/>
      <path id="DejaVuSerif-Italic-6e" d="M 450 0 
L 1031 2988 
L 481 2988 
L 544 3322 
L 1669 3322 
L 1556 2731 
Q 1781 3069 2068 3241 
Q 2356 3413 2694 3413 
Q 3244 3413 3444 3097 
Q 3563 2906 3563 2588 
Q 3563 2378 3509 2113 
L 3163 331 
L 3675 331 
L 3613 0 
L 2522 0 
L 2897 1931 
Q 2959 2253 2959 2469 
Q 2959 2659 2909 2769 
Q 2803 2994 2425 2994 
Q 2025 2994 1759 2701 
Q 1494 2409 1384 1850 
L 1025 0 
L 450 0 
z
" transform="scale(0.015625)"/>
      <path id="DejaVuSerif-Italic-70" d="M 1466 1825 
L 1400 1497 
Q 1353 1250 1353 1053 
Q 1353 769 1453 581 
Q 1622 269 2059 269 
Q 2500 269 2795 622 
Q 3091 975 3225 1663 
Q 3284 1978 3284 2225 
Q 3284 2513 3200 2703 
Q 3041 3053 2600 3053 
Q 2163 3053 1872 2737 
Q 1581 2422 1466 1825 
z
M 1116 2988 
L 563 2988 
L 628 3322 
L 1756 3322 
L 1656 2803 
Q 1884 3116 2175 3264 
Q 2466 3413 2850 3413 
Q 3463 3413 3753 2928 
Q 3947 2609 3947 2163 
Q 3947 1928 3897 1663 
Q 3744 881 3262 395 
Q 2781 -91 2169 -91 
Q 1784 -91 1551 57 
Q 1319 206 1213 519 
L 850 -1331 
L 275 -1331 
L 1116 2988 
z
" transform="scale(0.015625)"/>
      <path id="DejaVuSerif-Italic-75" d="M 3097 3322 
L 3672 3322 
L 3091 331 
L 3634 331 
L 3572 0 
L 2453 0 
L 2566 588 
Q 2341 256 2055 82 
Q 1769 -91 1434 -91 
Q 881 -91 681 225 
Q 559 413 559 734 
Q 559 944 613 1209 
L 956 2988 
L 438 2988 
L 503 3322 
L 1600 3322 
L 1225 1388 
Q 1163 1066 1163 853 
Q 1163 663 1213 556 
Q 1316 331 1697 331 
Q 2097 331 2364 625 
Q 2631 919 2738 1478 
L 3097 3322 
z
" transform="scale(0.015625)"/>
     </defs>
     <use xlink:href="#DejaVuSerif-Italic-44"/>
     <use xlink:href="#DejaVuSerif-Italic-61" x="80.175781"/>
     <use xlink:href="#DejaVuSerif-Italic-74" x="139.794922"/>
     <use xlink:href="#DejaVuSerif-Italic-61" x="179.980469"/>
     <use xlink:href="#DejaVuSerif-Italic-20" x="239.599609"/>
     <use xlink:href="#DejaVuSerif-Italic-49" x="271.386719"/>
     <use xlink:href="#DejaVuSerif-Italic-6e" x="310.888672"/>
     <use xlink:href="#DejaVuSerif-Italic-70" x="375.292969"/>
     <use xlink:href="#DejaVuSerif-Italic-75" x="439.306641"/>
     <use xlink:href="#DejaVuSerif-Italic-74" x="503.710938"/>
    </g>
   </g>
   <g id="text_2">
    <!-- Mandarin ESG Disclosures -->
    <g style="fill: #ffffff" transform="translate(192.894863 123.812642) scale(0.13 -0.13)">
     <defs>
      <path id="DejaVuSerif-Bold-4d" d="M 269 0 
L 269 378 
L 863 378 
L 863 4288 
L 269 4288 
L 269 4666 
L 2194 4666 
L 3525 1672 
L 4863 4666 
L 6784 4666 
L 6784 4288 
L 6188 4288 
L 6188 378 
L 6784 378 
L 6784 0 
L 4384 0 
L 4384 378 
L 4978 378 
L 4978 3938 
L 3531 684 
L 2741 684 
L 1300 3938 
L 1300 378 
L 1894 378 
L 1894 0 
L 269 0 
z
" transform="scale(0.015625)"/>
      <path id="DejaVuSerif-Bold-61" d="M 3525 2041 
L 3525 378 
L 4000 378 
L 4000 0 
L 2419 0 
L 2419 422 
Q 2200 159 1931 34 
Q 1663 -91 1319 -91 
Q 809 -91 536 182 
Q 263 456 263 966 
Q 263 1525 655 1803 
Q 1047 2081 1838 2081 
L 2419 2081 
L 2419 2278 
Q 2419 2681 2228 2873 
Q 2038 3066 1638 3066 
Q 1306 3066 1126 2930 
Q 947 2794 872 2484 
L 519 2484 
L 519 3200 
Q 816 3306 1134 3359 
Q 1453 3413 1806 3413 
Q 2697 3413 3111 3081 
Q 3525 2750 3525 2041 
z
M 2419 1044 
L 2419 1709 
L 2003 1709 
Q 1694 1709 1528 1540 
Q 1363 1372 1363 1056 
Q 1363 741 1483 584 
Q 1603 428 1850 428 
Q 2106 428 2262 597 
Q 2419 766 2419 1044 
z
" transform="scale(0.015625)"/>
      <path id="DejaVuSerif-Bold-6e" d="M 219 0 
L 219 378 
L 691 378 
L 691 2944 
L 219 2944 
L 219 3322 
L 1797 3322 
L 1797 2853 
Q 1997 3150 2253 3281 
Q 2509 3413 2900 3413 
Q 3459 3413 3745 3083 
Q 4031 2753 4031 2113 
L 4031 378 
L 4506 378 
L 4506 0 
L 2522 0 
L 2522 378 
L 2925 378 
L 2925 2144 
Q 2925 2566 2817 2730 
Q 2709 2894 2444 2894 
Q 2109 2894 1953 2648 
Q 1797 2403 1797 1869 
L 1797 378 
L 2203 378 
L 2203 0 
L 219 0 
z
" transform="scale(0.015625)"/>
      <path id="DejaVuSerif-Bold-64" d="M 2747 1497 
L 2747 1825 
Q 2747 2406 2597 2665 
Q 2447 2925 2119 2925 
Q 1775 2925 1636 2651 
Q 1497 2378 1497 1663 
Q 1497 947 1637 672 
Q 1778 397 2119 397 
Q 2447 397 2597 656 
Q 2747 916 2747 1497 
z
M 3853 378 
L 4325 378 
L 4325 0 
L 2747 0 
L 2747 422 
Q 2606 163 2367 36 
Q 2128 -91 1778 -91 
Q 1072 -91 667 378 
Q 263 847 263 1663 
Q 263 2481 667 2947 
Q 1072 3413 1778 3413 
Q 2128 3413 2367 3286 
Q 2606 3159 2747 2900 
L 2747 4488 
L 2272 4488 
L 2272 4863 
L 3853 4863 
L 3853 378 
z
" transform="scale(0.015625)"/>
      <path id="DejaVuSerif-Bold-72" d="M 3438 3359 
L 3438 2369 
L 3084 2369 
Q 3066 2634 2941 2764 
Q 2816 2894 2578 2894 
Q 2216 2894 2006 2575 
Q 1797 2256 1797 1691 
L 1797 378 
L 2400 378 
L 2400 0 
L 219 0 
L 219 378 
L 691 378 
L 691 2944 
L 184 2944 
L 184 3322 
L 1797 3322 
L 1797 2731 
Q 1959 3078 2226 3245 
Q 2494 3413 2881 3413 
Q 2978 3413 3117 3398 
Q 3256 3384 3438 3359 
z
" transform="scale(0.015625)"/>
      <path id="DejaVuSerif-Bold-69" d="M 588 4263 
Q 588 4516 763 4689 
Q 938 4863 1191 4863 
Q 1438 4863 1611 4689 
Q 1784 4516 1784 4263 
Q 1784 4016 1611 3842 
Q 1438 3669 1191 3669 
Q 938 3669 763 3841 
Q 588 4013 588 4263 
z
M 1797 378 
L 2272 378 
L 2272 0 
L 219 0 
L 219 378 
L 691 378 
L 691 2944 
L 219 2944 
L 219 3322 
L 1797 3322 
L 1797 378 
z
" transform="scale(0.015625)"/>
      <path id="DejaVuSerif-Bold-20" transform="scale(0.015625)"/>
      <path id="DejaVuSerif-Bold-45" d="M 300 0 
L 300 378 
L 897 378 
L 897 4288 
L 300 4288 
L 300 4666 
L 4494 4666 
L 4494 3566 
L 4063 3566 
L 4063 4238 
L 2100 4238 
L 2100 2741 
L 3322 2741 
L 3322 3334 
L 3750 3334 
L 3750 1722 
L 3322 1722 
L 3322 2316 
L 2100 2316 
L 2100 428 
L 4122 428 
L 4122 1100 
L 4550 1100 
L 4550 0 
L 300 0 
z
" transform="scale(0.015625)"/>
      <path id="DejaVuSerif-Bold-53" d="M 494 225 
L 494 1331 
L 891 1331 
Q 981 806 1318 547 
Q 1656 288 2253 288 
Q 2738 288 2991 472 
Q 3244 656 3244 1013 
Q 3244 1294 3072 1450 
Q 2900 1606 2363 1741 
L 1663 1913 
Q 978 2088 700 2398 
Q 422 2709 422 3284 
Q 422 3978 883 4364 
Q 1344 4750 2175 4750 
Q 2584 4750 3026 4681 
Q 3469 4613 3944 4475 
L 3944 3444 
L 3547 3444 
Q 3456 3925 3150 4148 
Q 2844 4372 2278 4372 
Q 1816 4372 1580 4211 
Q 1344 4050 1344 3731 
Q 1344 3441 1506 3289 
Q 1669 3138 2303 2975 
L 3003 2803 
Q 3653 2641 3945 2297 
Q 4238 1953 4238 1350 
Q 4238 644 3750 276 
Q 3263 -91 2316 -91 
Q 1859 -91 1409 -12 
Q 959 66 494 225 
z
" transform="scale(0.015625)"/>
      <path id="DejaVuSerif-Bold-47" d="M 4403 3200 
Q 4263 3819 3934 4095 
Q 3606 4372 3009 4372 
Q 2284 4372 1945 3880 
Q 1606 3388 1606 2328 
Q 1606 1278 1931 783 
Q 2256 288 2944 288 
Q 3206 288 3431 347 
Q 3656 406 3841 525 
L 3841 1806 
L 3278 1806 
L 3278 2181 
L 4959 2181 
L 4959 391 
Q 4434 147 3911 28 
Q 3388 -91 2841 -91 
Q 1641 -91 955 556 
Q 269 1203 269 2328 
Q 269 3456 955 4103 
Q 1641 4750 2841 4750 
Q 3341 4750 3825 4650 
Q 4309 4550 4800 4347 
L 4800 3200 
L 4403 3200 
z
" transform="scale(0.015625)"/>
      <path id="DejaVuSerif-Bold-44" d="M 2100 378 
L 2534 378 
Q 3266 378 3605 847 
Q 3944 1316 3944 2338 
Q 3944 3353 3606 3820 
Q 3269 4288 2534 4288 
L 2100 4288 
L 2100 378 
z
M 300 0 
L 300 378 
L 897 378 
L 897 4288 
L 300 4288 
L 300 4666 
L 2694 4666 
Q 3950 4666 4615 4066 
Q 5281 3466 5281 2338 
Q 5281 1203 4614 601 
Q 3947 0 2694 0 
L 300 0 
z
" transform="scale(0.015625)"/>
      <path id="DejaVuSerif-Bold-73" d="M 300 97 
L 300 1025 
L 653 1025 
Q 697 653 931 458 
Q 1166 263 1569 263 
Q 1906 263 2086 380 
Q 2266 497 2266 716 
Q 2266 916 2152 1025 
Q 2038 1134 1709 1216 
L 1253 1331 
Q 738 1459 506 1698 
Q 275 1938 275 2344 
Q 275 2884 650 3148 
Q 1025 3413 1806 3413 
Q 2100 3413 2433 3364 
Q 2766 3316 3169 3213 
L 3169 2375 
L 2816 2375 
Q 2788 2716 2573 2887 
Q 2359 3059 1959 3059 
Q 1622 3059 1448 2951 
Q 1275 2844 1275 2638 
Q 1275 2469 1375 2372 
Q 1475 2275 1734 2209 
L 2188 2094 
Q 2841 1928 3091 1684 
Q 3341 1441 3341 1006 
Q 3341 444 2939 176 
Q 2538 -91 1691 -91 
Q 1381 -91 1034 -44 
Q 688 3 300 97 
z
" transform="scale(0.015625)"/>
      <path id="DejaVuSerif-Bold-63" d="M 3609 1038 
Q 3491 469 3123 189 
Q 2756 -91 2125 -91 
Q 1238 -91 750 368 
Q 263 828 263 1663 
Q 263 2488 744 2950 
Q 1225 3413 2081 3413 
Q 2428 3413 2781 3347 
Q 3134 3281 3500 3150 
L 3500 2228 
L 3150 2228 
Q 3100 2650 2903 2854 
Q 2706 3059 2350 3059 
Q 1888 3059 1692 2746 
Q 1497 2434 1497 1663 
Q 1497 909 1687 586 
Q 1878 263 2309 263 
Q 2644 263 2845 463 
Q 3047 663 3091 1038 
L 3609 1038 
z
" transform="scale(0.015625)"/>
      <path id="DejaVuSerif-Bold-6c" d="M 1797 378 
L 2272 378 
L 2272 0 
L 219 0 
L 219 378 
L 691 378 
L 691 4488 
L 219 4488 
L 219 4863 
L 1797 4863 
L 1797 378 
z
" transform="scale(0.015625)"/>
      <path id="DejaVuSerif-Bold-6f" d="M 2138 263 
Q 2488 263 2630 563 
Q 2772 863 2772 1663 
Q 2772 2463 2631 2761 
Q 2491 3059 2138 3059 
Q 1784 3059 1640 2757 
Q 1497 2456 1497 1663 
Q 1497 869 1640 566 
Q 1784 263 2138 263 
z
M 2138 -91 
Q 1259 -91 761 376 
Q 263 844 263 1663 
Q 263 2484 761 2948 
Q 1259 3413 2138 3413 
Q 3019 3413 3516 2948 
Q 4013 2484 4013 1663 
Q 4013 844 3514 376 
Q 3016 -91 2138 -91 
z
" transform="scale(0.015625)"/>
      <path id="DejaVuSerif-Bold-75" d="M 3963 3322 
L 3963 378 
L 4434 378 
L 4434 0 
L 2853 0 
L 2853 469 
Q 2656 172 2400 40 
Q 2144 -91 1753 -91 
Q 1194 -91 908 239 
Q 622 569 622 1209 
L 622 2944 
L 147 2944 
L 147 3322 
L 1728 3322 
L 1728 1381 
Q 1728 763 1831 595 
Q 1934 428 2209 428 
Q 2544 428 2698 675 
Q 2853 922 2853 1459 
L 2853 2944 
L 2450 2944 
L 2450 3322 
L 3963 3322 
z
" transform="scale(0.015625)"/>
      <path id="DejaVuSerif-Bold-65" d="M 2566 1875 
Q 2566 2531 2444 2795 
Q 2322 3059 2028 3059 
Q 1744 3059 1620 2800 
Q 1497 2541 1497 1931 
L 1497 1875 
L 2566 1875 
z
M 3781 1503 
L 1497 1503 
L 1497 1478 
Q 1497 834 1690 548 
Q 1884 263 2316 263 
Q 2675 263 2897 453 
Q 3119 644 3181 1006 
L 3700 1006 
Q 3566 441 3166 175 
Q 2766 -91 2047 -91 
Q 1184 -91 723 364 
Q 263 819 263 1663 
Q 263 2488 734 2950 
Q 1206 3413 2047 3413 
Q 2872 3413 3312 2927 
Q 3753 2441 3781 1503 
z
" transform="scale(0.015625)"/>
     </defs>
     <use xlink:href="#DejaVuSerif-Bold-4d"/>
     <use xlink:href="#DejaVuSerif-Bold-61" x="110.693359"/>
     <use xlink:href="#DejaVuSerif-Bold-6e" x="175.488281"/>
     <use xlink:href="#DejaVuSerif-Bold-64" x="248.193359"/>
     <use xlink:href="#DejaVuSerif-Bold-61" x="318.115234"/>
     <use xlink:href="#DejaVuSerif-Bold-72" x="382.910156"/>
     <use xlink:href="#DejaVuSerif-Bold-69" x="435.595703"/>
     <use xlink:href="#DejaVuSerif-Bold-6e" x="473.583984"/>
     <use xlink:href="#DejaVuSerif-Bold-20" x="546.289062"/>
     <use xlink:href="#DejaVuSerif-Bold-45" x="581.103516"/>
     <use xlink:href="#DejaVuSerif-Bold-53" x="657.324219"/>
     <use xlink:href="#DejaVuSerif-Bold-47" x="729.541016"/>
     <use xlink:href="#DejaVuSerif-Bold-20" x="814.941406"/>
     <use xlink:href="#DejaVuSerif-Bold-44" x="849.755859"/>
     <use xlink:href="#DejaVuSerif-Bold-69" x="936.474609"/>
     <use xlink:href="#DejaVuSerif-Bold-73" x="974.462891"/>
     <use xlink:href="#DejaVuSerif-Bold-63" x="1030.761719"/>
     <use xlink:href="#DejaVuSerif-Bold-6c" x="1091.650391"/>
     <use xlink:href="#DejaVuSerif-Bold-6f" x="1129.638672"/>
     <use xlink:href="#DejaVuSerif-Bold-73" x="1196.337891"/>
     <use xlink:href="#DejaVuSerif-Bold-75" x="1252.636719"/>
     <use xlink:href="#DejaVuSerif-Bold-72" x="1325.341797"/>
     <use xlink:href="#DejaVuSerif-Bold-65" x="1378.027344"/>
     <use xlink:href="#DejaVuSerif-Bold-73" x="1441.650391"/>
    </g>
   </g>
   <g id="text_3">
    <!-- English ESG Disclosures -->
    <g style="fill: #ffffff" transform="translate(484.333731 123.72022) scale(0.13 -0.13)">
     <defs>
      <path id="DejaVuSerif-Bold-67" d="M 3853 2944 
L 3853 44 
Q 3853 -656 3354 -1039 
Q 2856 -1422 1947 -1422 
Q 1616 -1422 1275 -1370 
Q 934 -1319 575 -1216 
L 575 -422 
L 928 -422 
Q 975 -750 1192 -909 
Q 1409 -1069 1813 -1069 
Q 2325 -1069 2536 -823 
Q 2747 -578 2747 44 
L 2747 422 
Q 2606 163 2367 36 
Q 2128 -91 1778 -91 
Q 1072 -91 667 378 
Q 263 847 263 1663 
Q 263 2481 667 2947 
Q 1072 3413 1778 3413 
Q 2128 3413 2367 3286 
Q 2606 3159 2747 2900 
L 2747 3322 
L 4325 3322 
L 4325 2944 
L 3853 2944 
z
M 2747 1825 
Q 2747 2406 2597 2665 
Q 2447 2925 2119 2925 
Q 1775 2925 1636 2651 
Q 1497 2378 1497 1663 
Q 1497 947 1637 672 
Q 1778 397 2119 397 
Q 2447 397 2597 656 
Q 2747 916 2747 1497 
L 2747 1825 
z
" transform="scale(0.015625)"/>
      <path id="DejaVuSerif-Bold-68" d="M 219 0 
L 219 378 
L 691 378 
L 691 4488 
L 197 4488 
L 197 4863 
L 1797 4863 
L 1797 2853 
Q 1997 3150 2253 3281 
Q 2509 3413 2900 3413 
Q 3459 3413 3745 3083 
Q 4031 2753 4031 2113 
L 4031 378 
L 4506 378 
L 4506 0 
L 2522 0 
L 2522 378 
L 2925 378 
L 2925 2144 
Q 2925 2566 2817 2730 
Q 2709 2894 2444 2894 
Q 2109 2894 1953 2648 
Q 1797 2403 1797 1869 
L 1797 378 
L 2203 378 
L 2203 0 
L 219 0 
z
" transform="scale(0.015625)"/>
     </defs>
     <use xlink:href="#DejaVuSerif-Bold-45"/>
     <use xlink:href="#DejaVuSerif-Bold-6e" x="76.220703"/>
     <use xlink:href="#DejaVuSerif-Bold-67" x="148.925781"/>
     <use xlink:href="#DejaVuSerif-Bold-6c" x="218.847656"/>
     <use xlink:href="#DejaVuSerif-Bold-69" x="256.835938"/>
     <use xlink:href="#DejaVuSerif-Bold-73" x="294.824219"/>
     <use xlink:href="#DejaVuSerif-Bold-68" x="351.123047"/>
     <use xlink:href="#DejaVuSerif-Bold-20" x="423.828125"/>
     <use xlink:href="#DejaVuSerif-Bold-45" x="458.642578"/>
     <use xlink:href="#DejaVuSerif-Bold-53" x="534.863281"/>
     <use xlink:href="#DejaVuSerif-Bold-47" x="607.080078"/>
     <use xlink:href="#DejaVuSerif-Bold-20" x="692.480469"/>
     <use xlink:href="#DejaVuSerif-Bold-44" x="727.294922"/>
     <use xlink:href="#DejaVuSerif-Bold-69" x="814.013672"/>
     <use xlink:href="#DejaVuSerif-Bold-73" x="852.001953"/>
     <use xlink:href="#DejaVuSerif-Bold-63" x="908.300781"/>
     <use xlink:href="#DejaVuSerif-Bold-6c" x="969.189453"/>
     <use xlink:href="#DejaVuSerif-Bold-6f" x="1007.177734"/>
     <use xlink:href="#DejaVuSerif-Bold-73" x="1073.876953"/>
     <use xlink:href="#DejaVuSerif-Bold-75" x="1130.175781"/>
     <use xlink:href="#DejaVuSerif-Bold-72" x="1202.880859"/>
     <use xlink:href="#DejaVuSerif-Bold-65" x="1255.566406"/>
     <use xlink:href="#DejaVuSerif-Bold-73" x="1319.189453"/>
    </g>
   </g>
   <g id="patch_11">
    <path d="M 432 205.662246 
Q 432 182.160694 432 160.895209 
" style="fill: none; stroke: #666666; stroke-width: 2; stroke-linecap: round"/>
    <path d="M 429.2 166.495209 
L 432 160.895209 
L 434.8 166.495209 
" style="fill: none; stroke: #666666; stroke-width: 2; stroke-linecap: round"/>
   </g>
   <g id="text_4">
    <!-- Preprocessing -->
    <g style="fill: #808080" transform="translate(392.1525 210.542906) scale(0.11 -0.11)">
     <defs>
      <path id="DejaVuSerif-Italic-50" d="M 1594 2375 
L 2419 2375 
Q 2884 2375 3176 2626 
Q 3469 2878 3559 3353 
Q 3653 3831 3458 4081 
Q 3263 4331 2797 4331 
L 1972 4331 
L 1594 2375 
z
M -97 0 
L -34 331 
L 559 331 
L 1338 4331 
L 744 4331 
L 809 4666 
L 3016 4666 
Q 3716 4666 4056 4311 
Q 4397 3956 4278 3353 
Q 4163 2753 3684 2397 
Q 3206 2041 2506 2041 
L 1528 2041 
L 1194 331 
L 1916 331 
L 1853 0 
L -97 0 
z
" transform="scale(0.015625)"/>
      <path id="DejaVuSerif-Italic-72" d="M 3375 3328 
L 3213 2497 
L 2881 2497 
Q 2891 2559 2891 2613 
Q 2891 2775 2816 2866 
Q 2719 2988 2484 2988 
Q 2059 2988 1775 2694 
Q 1491 2400 1384 1850 
L 1025 0 
L 450 0 
L 1031 2994 
L 481 2994 
L 544 3322 
L 1669 3322 
L 1556 2731 
Q 1791 3078 2089 3245 
Q 2388 3413 2769 3413 
Q 2909 3413 3059 3391 
Q 3209 3369 3375 3328 
z
" transform="scale(0.015625)"/>
      <path id="DejaVuSerif-Italic-65" d="M 938 1275 
Q 925 1156 925 1050 
Q 925 756 1031 563 
Q 1216 219 1709 219 
Q 2072 219 2250 328 
Q 2569 525 2644 778 
L 3066 778 
Q 2941 381 2475 103 
Q 2150 -91 1506 -91 
Q 863 -91 516 388 
Q 272 722 272 1206 
Q 272 1419 319 1659 
Q 472 2450 1000 2931 
Q 1528 3413 2278 3413 
Q 3500 3413 3500 2547 
Q 3500 1913 2859 1603 
Q 2206 1288 938 1275 
z
M 2541 1975 
Q 2891 2181 2891 2569 
Q 2891 3103 2181 3103 
Q 1763 3103 1472 2784 
Q 1181 2466 1003 1606 
Q 2006 1653 2541 1975 
z
" transform="scale(0.015625)"/>
      <path id="DejaVuSerif-Italic-6f" d="M 1644 219 
Q 2106 219 2414 584 
Q 2722 950 2859 1663 
Q 2922 1988 2922 2241 
Q 2922 2541 2834 2738 
Q 2669 3103 2206 3103 
Q 1744 3103 1436 2739 
Q 1128 2375 991 1663 
Q 928 1338 928 1088 
Q 928 784 1019 584 
Q 1184 219 1644 219 
z
M 1584 -91 
Q 859 -91 513 388 
Q 272 722 272 1203 
Q 272 1419 319 1663 
Q 472 2456 1005 2934 
Q 1538 3413 2266 3413 
Q 2994 3413 3341 2934 
Q 3578 2603 3578 2122 
Q 3578 1906 3531 1663 
Q 3378 869 2845 389 
Q 2313 -91 1584 -91 
z
" transform="scale(0.015625)"/>
      <path id="DejaVuSerif-Italic-63" d="M 3163 997 
Q 2938 466 2536 187 
Q 2134 -91 1584 -91 
Q 859 -91 513 388 
Q 272 722 272 1203 
Q 272 1419 319 1663 
Q 475 2459 1008 2936 
Q 1541 3413 2266 3413 
Q 2581 3413 2879 3339 
Q 3178 3266 3463 3116 
L 3300 2266 
L 2966 2266 
Q 2966 2309 2966 2347 
Q 2966 2722 2803 2903 
Q 2622 3103 2213 3103 
Q 1747 3103 1439 2742 
Q 1131 2381 991 1663 
Q 928 1334 928 1078 
Q 928 778 1016 581 
Q 1181 219 1650 219 
Q 2022 219 2281 412 
Q 2541 606 2700 997 
L 3163 997 
z
" transform="scale(0.015625)"/>
      <path id="DejaVuSerif-Italic-73" d="M 222 959 
L 553 959 
Q 541 869 541 788 
Q 541 219 1313 219 
Q 2088 219 2200 788 
Q 2209 844 2209 944 
Q 2209 1041 2103 1158 
Q 1997 1275 1550 1428 
L 1159 1569 
Q 759 1706 629 1882 
Q 500 2059 500 2263 
Q 500 2344 516 2438 
Q 606 2894 990 3153 
Q 1375 3413 1931 3413 
Q 2484 3413 3066 3144 
L 2925 2419 
L 2594 2419 
Q 2606 2491 2606 2553 
Q 2606 2781 2448 2942 
Q 2291 3103 1925 3103 
Q 1191 3103 1091 2591 
Q 1078 2538 1078 2444 
Q 1078 2347 1179 2237 
Q 1281 2128 1678 1997 
L 2106 1856 
Q 2550 1709 2716 1488 
Q 2831 1331 2831 1178 
Q 2831 522 2306 181 
Q 1894 -91 1262 -91 
Q 631 -91 72 184 
L 222 959 
z
" transform="scale(0.015625)"/>
      <path id="DejaVuSerif-Italic-69" d="M 1009 4353 
Q 1038 4497 1163 4603 
Q 1288 4709 1434 4709 
Q 1578 4709 1663 4603 
Q 1728 4522 1728 4422 
Q 1728 4388 1719 4353 
Q 1691 4206 1567 4103 
Q 1444 4000 1297 4000 
Q 1150 4000 1066 4103 
Q 1003 4181 1003 4281 
Q 1003 4316 1009 4353 
z
M 963 331 
L 1506 331 
L 1444 0 
L 325 0 
L 903 2988 
L 353 2988 
L 419 3322 
L 1544 3322 
L 963 331 
z
" transform="scale(0.015625)"/>
      <path id="DejaVuSerif-Italic-67" d="M 3822 3322 
L 3188 72 
Q 3044 -672 2581 -1031 
Q 2078 -1422 1381 -1422 
Q 1053 -1422 765 -1362 
Q 478 -1303 225 -1184 
L 363 -488 
L 663 -488 
Q 653 -813 834 -963 
Q 1016 -1113 1406 -1113 
Q 1913 -1113 2203 -825 
Q 2494 -544 2613 72 
L 2700 519 
Q 2472 206 2181 57 
Q 1891 -91 1525 -91 
Q 975 -91 697 281 
Q 522 516 503 841 
Q 491 1031 534 1256 
Q 750 2359 1516 2928 
Q 2169 3409 2931 3413 
Q 3631 3416 3822 3322 
z
M 3184 2988 
Q 3181 3094 2844 3094 
Q 2234 3094 1775 2625 
Q 1316 2153 1147 1297 
Q 1100 1044 1113 853 
Q 1125 659 1203 528 
Q 1356 269 1756 269 
Q 2194 269 2484 583 
Q 2775 897 2891 1497 
L 2953 1825 
L 3184 2988 
z
" transform="scale(0.015625)"/>
     </defs>
     <use xlink:href="#DejaVuSerif-Italic-50"/>
     <use xlink:href="#DejaVuSerif-Italic-72" x="67.285156"/>
     <use xlink:href="#DejaVuSerif-Italic-65" x="115.087891"/>
     <use xlink:href="#DejaVuSerif-Italic-70" x="174.267578"/>
     <use xlink:href="#DejaVuSerif-Italic-72" x="238.28125"/>
     <use xlink:href="#DejaVuSerif-Italic-6f" x="286.083984"/>
     <use xlink:href="#DejaVuSerif-Italic-63" x="346.289062"/>
     <use xlink:href="#DejaVuSerif-Italic-65" x="402.294922"/>
     <use xlink:href="#DejaVuSerif-Italic-73" x="461.474609"/>
     <use xlink:href="#DejaVuSerif-Italic-73" x="512.792969"/>
     <use xlink:href="#DejaVuSerif-Italic-69" x="564.111328"/>
     <use xlink:href="#DejaVuSerif-Italic-6e" x="596.09375"/>
     <use xlink:href="#DejaVuSerif-Italic-67" x="660.498047"/>
    </g>
   </g>
   <g id="text_5">
    <!-- Text Normalization -->
    <g style="fill: #ffffff" transform="translate(220.730097 269.543551) scale(0.13 -0.13)">
     <defs>
      <path id="DejaVuSerif-Bold-54" d="M 1159 0 
L 1159 378 
L 1778 378 
L 1778 4238 
L 500 4238 
L 500 3500 
L 72 3500 
L 72 4666 
L 4697 4666 
L 4697 3500 
L 4275 3500 
L 4275 4238 
L 2988 4238 
L 2988 378 
L 3609 378 
L 3609 0 
L 1159 0 
z
" transform="scale(0.015625)"/>
      <path id="DejaVuSerif-Bold-78" d="M 2247 2119 
L 2834 2944 
L 2425 2944 
L 2425 3322 
L 3719 3322 
L 3719 2944 
L 3278 2944 
L 2431 1759 
L 3419 378 
L 3859 378 
L 3859 0 
L 1747 0 
L 1747 378 
L 2175 378 
L 1550 1253 
L 922 378 
L 1369 378 
L 1369 0 
L 0 0 
L 0 378 
L 475 378 
L 1356 1619 
L 403 2944 
L 31 2944 
L 31 3322 
L 2059 3322 
L 2059 2944 
L 1656 2944 
L 2247 2119 
z
" transform="scale(0.015625)"/>
      <path id="DejaVuSerif-Bold-74" d="M 634 2944 
L 153 2944 
L 153 3322 
L 634 3322 
L 634 4353 
L 1741 4353 
L 1741 3322 
L 2663 3322 
L 2663 2944 
L 1741 2944 
L 1741 909 
Q 1741 475 1809 369 
Q 1878 263 2059 263 
Q 2259 263 2356 397 
Q 2453 531 2459 813 
L 2925 813 
Q 2897 313 2651 111 
Q 2406 -91 1806 -91 
Q 1122 -91 878 123 
Q 634 338 634 909 
L 634 2944 
z
" transform="scale(0.015625)"/>
      <path id="DejaVuSerif-Bold-4e" d="M 281 0 
L 281 378 
L 878 378 
L 878 4288 
L 281 4288 
L 281 4666 
L 1741 4666 
L 4556 1363 
L 4556 4288 
L 3963 4288 
L 3963 4666 
L 5594 4666 
L 5594 4288 
L 4997 4288 
L 4997 0 
L 4178 0 
L 1319 3372 
L 1319 378 
L 1913 378 
L 1913 0 
L 281 0 
z
" transform="scale(0.015625)"/>
      <path id="DejaVuSerif-Bold-6d" d="M 3884 2778 
Q 4116 3109 4384 3261 
Q 4653 3413 5013 3413 
Q 5584 3413 5867 3089 
Q 6150 2766 6150 2113 
L 6150 378 
L 6625 378 
L 6625 0 
L 4647 0 
L 4647 378 
L 5044 378 
L 5044 1947 
Q 5044 2569 4948 2731 
Q 4853 2894 4594 2894 
Q 4300 2894 4137 2667 
Q 3975 2441 3975 2022 
L 3975 378 
L 4372 378 
L 4372 0 
L 2472 0 
L 2472 378 
L 2869 378 
L 2869 1947 
Q 2869 2569 2772 2731 
Q 2675 2894 2419 2894 
Q 2122 2894 1959 2667 
Q 1797 2441 1797 2022 
L 1797 378 
L 2194 378 
L 2194 0 
L 219 0 
L 219 378 
L 691 378 
L 691 2944 
L 219 2944 
L 219 3322 
L 1797 3322 
L 1797 2853 
Q 1991 3144 2241 3278 
Q 2491 3413 2834 3413 
Q 3241 3413 3494 3258 
Q 3747 3103 3884 2778 
z
" transform="scale(0.015625)"/>
      <path id="DejaVuSerif-Bold-7a" d="M 225 0 
L 225 378 
L 2131 2956 
L 697 2956 
L 697 2388 
L 325 2388 
L 325 3322 
L 3419 3322 
L 3419 2950 
L 1509 372 
L 3047 372 
L 3047 972 
L 3419 972 
L 3419 0 
L 225 0 
z
" transform="scale(0.015625)"/>
     </defs>
     <use xlink:href="#DejaVuSerif-Bold-54"/>
     <use xlink:href="#DejaVuSerif-Bold-65" x="62.914062"/>
     <use xlink:href="#DejaVuSerif-Bold-78" x="126.537109"/>
     <use xlink:href="#DejaVuSerif-Bold-74" x="186.15625"/>
     <use xlink:href="#DejaVuSerif-Bold-20" x="232.347656"/>
     <use xlink:href="#DejaVuSerif-Bold-4e" x="267.162109"/>
     <use xlink:href="#DejaVuSerif-Bold-6f" x="358.568359"/>
     <use xlink:href="#DejaVuSerif-Bold-72" x="425.267578"/>
     <use xlink:href="#DejaVuSerif-Bold-6d" x="477.953125"/>
     <use xlink:href="#DejaVuSerif-Bold-61" x="583.763672"/>
     <use xlink:href="#DejaVuSerif-Bold-6c" x="648.558594"/>
     <use xlink:href="#DejaVuSerif-Bold-69" x="686.546875"/>
     <use xlink:href="#DejaVuSerif-Bold-7a" x="724.535156"/>
     <use xlink:href="#DejaVuSerif-Bold-61" x="781.322266"/>
     <use xlink:href="#DejaVuSerif-Bold-74" x="846.117188"/>
     <use xlink:href="#DejaVuSerif-Bold-69" x="892.308594"/>
     <use xlink:href="#DejaVuSerif-Bold-6f" x="930.296875"/>
     <use xlink:href="#DejaVuSerif-Bold-6e" x="996.996094"/>
    </g>
   </g>
   <g id="text_6">
    <!-- Language Detection -->
    <g style="fill: #ffffff" transform="translate(500.404981 269.451129) scale(0.13 -0.13)">
     <defs>
      <path id="DejaVuSerif-Bold-4c" d="M 300 0 
L 300 378 
L 897 378 
L 897 4288 
L 300 4288 
L 300 4666 
L 2700 4666 
L 2700 4288 
L 2100 4288 
L 2100 428 
L 3938 428 
L 3938 1166 
L 4359 1166 
L 4359 0 
L 300 0 
z
" transform="scale(0.015625)"/>
     </defs>
     <use xlink:href="#DejaVuSerif-Bold-4c"/>
     <use xlink:href="#DejaVuSerif-Bold-61" x="70.3125"/>
     <use xlink:href="#DejaVuSerif-Bold-6e" x="135.107422"/>
     <use xlink:href="#DejaVuSerif-Bold-67" x="207.8125"/>
     <use xlink:href="#DejaVuSerif-Bold-75" x="277.734375"/>
     <use xlink:href="#DejaVuSerif-Bold-61" x="350.439453"/>
     <use xlink:href="#DejaVuSerif-Bold-67" x="415.234375"/>
     <use xlink:href="#DejaVuSerif-Bold-65" x="485.15625"/>
     <use xlink:href="#DejaVuSerif-Bold-20" x="548.779297"/>
     <use xlink:href="#DejaVuSerif-Bold-44" x="583.59375"/>
     <use xlink:href="#DejaVuSerif-Bold-65" x="670.3125"/>
     <use xlink:href="#DejaVuSerif-Bold-74" x="733.935547"/>
     <use xlink:href="#DejaVuSerif-Bold-65" x="780.126953"/>
     <use xlink:href="#DejaVuSerif-Bold-63" x="843.75"/>
     <use xlink:href="#DejaVuSerif-Bold-74" x="904.638672"/>
     <use xlink:href="#DejaVuSerif-Bold-69" x="950.830078"/>
     <use xlink:href="#DejaVuSerif-Bold-6f" x="988.818359"/>
     <use xlink:href="#DejaVuSerif-Bold-6e" x="1055.517578"/>
    </g>
   </g>
   <g id="patch_12">
    <path d="M 432 351.393155 
Q 432 327.891603 432 306.626118 
" style="fill: none; stroke: #666666; stroke-width: 2; stroke-linecap: round"/>
    <path d="M 429.2 312.226118 
L 432 306.626118 
L 434.8 312.226118 
" style="fill: none; stroke: #666666; stroke-width: 2; stroke-linecap: round"/>
   </g>
   <g id="text_7">
    <!-- LLM Fine-tuning -->
    <g style="fill: #808080" transform="translate(384.966406 356.273815) scale(0.11 -0.11)">
     <defs>
      <path id="DejaVuSerif-Italic-4c" d="M -97 0 
L -34 331 
L 559 331 
L 1338 4331 
L 744 4331 
L 809 4666 
L 2631 4666 
L 2566 4331 
L 1972 4331 
L 1206 384 
L 3338 384 
L 3488 1166 
L 3872 1166 
L 3647 0 
L -97 0 
z
" transform="scale(0.015625)"/>
      <path id="DejaVuSerif-Italic-4d" d="M -97 0 
L -34 331 
L 559 331 
L 1338 4331 
L 709 4331 
L 775 4666 
L 2134 4666 
L 3125 1344 
L 5409 4666 
L 6684 4666 
L 6619 4331 
L 5997 4331 
L 5222 331 
L 5816 331 
L 5753 0 
L 3928 0 
L 3991 331 
L 4584 331 
L 5288 3938 
L 3053 684 
L 2613 684 
L 1647 3938 
L 944 331 
L 1538 331 
L 1475 0 
L -97 0 
z
" transform="scale(0.015625)"/>
      <path id="DejaVuSerif-Italic-46" d="M -97 0 
L -34 331 
L 559 331 
L 1338 4331 
L 744 4331 
L 809 4666 
L 4628 4666 
L 4428 3628 
L 4044 3628 
L 4169 4281 
L 1963 4281 
L 1659 2719 
L 3253 2719 
L 3366 3303 
L 3750 3303 
L 3450 1753 
L 3066 1753 
L 3178 2338 
L 1584 2338 
L 1194 331 
L 1941 331 
L 1878 0 
L -97 0 
z
" transform="scale(0.015625)"/>
      <path id="DejaVuSerif-Italic-2d" d="M 328 1959 
L 1928 1959 
L 1834 1472 
L 234 1472 
L 328 1959 
z
" transform="scale(0.015625)"/>
     </defs>
     <use xlink:href="#DejaVuSerif-Italic-4c"/>
     <use xlink:href="#DejaVuSerif-Italic-4c" x="66.40625"/>
     <use xlink:href="#DejaVuSerif-Italic-4d" x="132.8125"/>
     <use xlink:href="#DejaVuSerif-Italic-20" x="235.205078"/>
     <use xlink:href="#DejaVuSerif-Italic-46" x="266.992188"/>
     <use xlink:href="#DejaVuSerif-Italic-69" x="336.376953"/>
     <use xlink:href="#DejaVuSerif-Italic-6e" x="368.359375"/>
     <use xlink:href="#DejaVuSerif-Italic-65" x="432.763672"/>
     <use xlink:href="#DejaVuSerif-Italic-2d" x="491.943359"/>
     <use xlink:href="#DejaVuSerif-Italic-74" x="525.732422"/>
     <use xlink:href="#DejaVuSerif-Italic-75" x="565.917969"/>
     <use xlink:href="#DejaVuSerif-Italic-6e" x="630.322266"/>
     <use xlink:href="#DejaVuSerif-Italic-69" x="694.726562"/>
     <use xlink:href="#DejaVuSerif-Italic-6e" x="726.708984"/>
     <use xlink:href="#DejaVuSerif-Italic-67" x="791.113281"/>
    </g>
   </g>
   <g id="text_8">
    <!-- Multilingual LLM Model -->
    <g style="fill: #ffffff" transform="translate(201.244316 415.182038) scale(0.13 -0.13)">
     <use xlink:href="#DejaVuSerif-Bold-4d"/>
     <use xlink:href="#DejaVuSerif-Bold-75" x="110.693359"/>
     <use xlink:href="#DejaVuSerif-Bold-6c" x="183.398438"/>
     <use xlink:href="#DejaVuSerif-Bold-74" x="221.386719"/>
     <use xlink:href="#DejaVuSerif-Bold-69" x="267.578125"/>
     <use xlink:href="#DejaVuSerif-Bold-6c" x="305.566406"/>
     <use xlink:href="#DejaVuSerif-Bold-69" x="343.554688"/>
     <use xlink:href="#DejaVuSerif-Bold-6e" x="381.542969"/>
     <use xlink:href="#DejaVuSerif-Bold-67" x="454.248047"/>
     <use xlink:href="#DejaVuSerif-Bold-75" x="524.169922"/>
     <use xlink:href="#DejaVuSerif-Bold-61" x="596.875"/>
     <use xlink:href="#DejaVuSerif-Bold-6c" x="661.669922"/>
     <use xlink:href="#DejaVuSerif-Bold-20" x="699.658203"/>
     <use xlink:href="#DejaVuSerif-Bold-4c" x="734.472656"/>
     <use xlink:href="#DejaVuSerif-Bold-4c" x="804.785156"/>
     <use xlink:href="#DejaVuSerif-Bold-4d" x="875.097656"/>
     <use xlink:href="#DejaVuSerif-Bold-20" x="985.791016"/>
     <use xlink:href="#DejaVuSerif-Bold-4d" x="1020.605469"/>
     <use xlink:href="#DejaVuSerif-Bold-6f" x="1131.298828"/>
     <use xlink:href="#DejaVuSerif-Bold-64" x="1197.998047"/>
     <use xlink:href="#DejaVuSerif-Bold-65" x="1267.919922"/>
     <use xlink:href="#DejaVuSerif-Bold-6c" x="1331.542969"/>
    </g>
   </g>
   <g id="text_9">
    <!-- ESG Lexicon Integration -->
    <g style="fill: #ffffff" transform="translate(484.325606 415.182038) scale(0.13 -0.13)">
     <defs>
      <path id="DejaVuSerif-Bold-49" d="M 300 0 
L 300 378 
L 897 378 
L 897 4288 
L 300 4288 
L 300 4666 
L 2700 4666 
L 2700 4288 
L 2100 4288 
L 2100 378 
L 2700 378 
L 2700 0 
L 300 0 
z
" transform="scale(0.015625)"/>
     </defs>
     <use xlink:href="#DejaVuSerif-Bold-45"/>
     <use xlink:href="#DejaVuSerif-Bold-53" x="76.220703"/>
     <use xlink:href="#DejaVuSerif-Bold-47" x="148.4375"/>
     <use xlink:href="#DejaVuSerif-Bold-20" x="233.837891"/>
     <use xlink:href="#DejaVuSerif-Bold-4c" x="268.652344"/>
     <use xlink:href="#DejaVuSerif-Bold-65" x="338.964844"/>
     <use xlink:href="#DejaVuSerif-Bold-78" x="402.587891"/>
     <use xlink:href="#DejaVuSerif-Bold-69" x="462.207031"/>
     <use xlink:href="#DejaVuSerif-Bold-63" x="500.195312"/>
     <use xlink:href="#DejaVuSerif-Bold-6f" x="561.083984"/>
     <use xlink:href="#DejaVuSerif-Bold-6e" x="627.783203"/>
     <use xlink:href="#DejaVuSerif-Bold-20" x="700.488281"/>
     <use xlink:href="#DejaVuSerif-Bold-49" x="735.302734"/>
     <use xlink:href="#DejaVuSerif-Bold-6e" x="782.080078"/>
     <use xlink:href="#DejaVuSerif-Bold-74" x="854.785156"/>
     <use xlink:href="#DejaVuSerif-Bold-65" x="900.976562"/>
     <use xlink:href="#DejaVuSerif-Bold-67" x="964.599609"/>
     <use xlink:href="#DejaVuSerif-Bold-72" x="1034.521484"/>
     <use xlink:href="#DejaVuSerif-Bold-61" x="1087.207031"/>
     <use xlink:href="#DejaVuSerif-Bold-74" x="1152.001953"/>
     <use xlink:href="#DejaVuSerif-Bold-69" x="1198.193359"/>
     <use xlink:href="#DejaVuSerif-Bold-6f" x="1236.181641"/>
     <use xlink:href="#DejaVuSerif-Bold-6e" x="1302.880859"/>
    </g>
   </g>
   <g id="patch_13">
    <path d="M 432 497.124064 
Q 432 473.622512 432 452.357027 
" style="fill: none; stroke: #666666; stroke-width: 2; stroke-linecap: round"/>
    <path d="M 429.2 457.957027 
L 432 452.357027 
L 434.8 457.957027 
" style="fill: none; stroke: #666666; stroke-width: 2; stroke-linecap: round"/>
   </g>
   <g id="text_10">
    <!-- Automated Scoring -->
    <g style="fill: #808080" transform="translate(378.124922 502.082928) scale(0.11 -0.11)">
     <defs>
      <path id="DejaVuSerif-Italic-41" d="M 1159 1691 
L 2872 1691 
L 2447 3909 
L 1159 1691 
z
M -488 0 
L -425 331 
L -16 331 
L 2491 4666 
L 3016 4666 
L 3841 331 
L 4297 331 
L 4234 0 
L 2538 0 
L 2600 331 
L 3119 331 
L 2928 1356 
L 966 1356 
L 375 331 
L 888 331 
L 825 0 
L -488 0 
z
" transform="scale(0.015625)"/>
      <path id="DejaVuSerif-Italic-6d" d="M 3503 2675 
Q 3741 3041 4034 3227 
Q 4328 3413 4672 3413 
Q 5194 3413 5388 3088 
Q 5503 2894 5503 2578 
Q 5503 2372 5453 2113 
L 5106 331 
L 5625 331 
L 5563 0 
L 4469 0 
L 4866 2047 
Q 4913 2291 4913 2466 
Q 4913 2659 4856 2772 
Q 4750 2988 4403 2988 
Q 4019 2988 3761 2697 
Q 3503 2406 3394 1850 
L 3034 0 
L 2459 0 
L 2863 2069 
Q 2906 2303 2906 2472 
Q 2906 2666 2850 2775 
Q 2741 2988 2394 2988 
Q 2009 2988 1751 2697 
Q 1494 2406 1384 1850 
L 1025 0 
L 450 0 
L 1031 2994 
L 481 2994 
L 544 3322 
L 1669 3322 
L 1556 2731 
Q 1778 3063 2059 3238 
Q 2341 3413 2653 3413 
Q 3041 3413 3262 3220 
Q 3484 3028 3503 2675 
z
" transform="scale(0.015625)"/>
      <path id="DejaVuSerif-Italic-64" d="M 3841 4863 
L 2897 0 
L 2322 0 
L 2422 519 
Q 2191 206 1902 57 
Q 1613 -91 1228 -91 
Q 616 -91 322 394 
Q 125 716 125 1166 
Q 125 1397 178 1663 
Q 331 2444 812 2928 
Q 1294 3413 1909 3413 
Q 2294 3413 2525 3264 
Q 2756 3116 2866 2803 
L 3200 4531 
L 2656 4531 
L 2722 4863 
L 3841 4863 
z
M 2613 1497 
L 2675 1825 
Q 2722 2069 2722 2266 
Q 2722 2550 2622 2738 
Q 2456 3053 2019 3053 
Q 1575 3053 1279 2703 
Q 984 2353 850 1663 
Q 788 1347 788 1103 
Q 788 813 875 622 
Q 1031 269 1475 269 
Q 1913 269 2203 583 
Q 2494 897 2613 1497 
z
" transform="scale(0.015625)"/>
      <path id="DejaVuSerif-Italic-53" d="M 184 225 
L 391 1288 
L 750 1284 
Q 663 753 905 498 
Q 1147 244 1744 244 
Q 2300 244 2636 464 
Q 2972 684 3053 1106 
Q 3119 1444 2976 1625 
Q 2834 1806 2300 1978 
L 1722 2163 
Q 1091 2366 877 2669 
Q 663 2972 766 3500 
Q 881 4094 1367 4422 
Q 1853 4750 2616 4750 
Q 2941 4750 3314 4679 
Q 3688 4609 4097 4475 
L 3906 3481 
L 3553 3481 
Q 3594 3975 3361 4195 
Q 3128 4416 2563 4416 
Q 2069 4416 1772 4214 
Q 1475 4013 1400 3628 
Q 1334 3294 1490 3103 
Q 1647 2913 2241 2725 
L 2784 2553 
Q 3381 2363 3593 2067 
Q 3806 1772 3709 1275 
Q 3578 597 3076 253 
Q 2575 -91 1716 -91 
Q 1331 -91 948 -12 
Q 566 66 184 225 
z
" transform="scale(0.015625)"/>
     </defs>
     <use xlink:href="#DejaVuSerif-Italic-41"/>
     <use xlink:href="#DejaVuSerif-Italic-75" x="72.216797"/>
     <use xlink:href="#DejaVuSerif-Italic-74" x="136.621094"/>
     <use xlink:href="#DejaVuSerif-Italic-6f" x="176.806641"/>
     <use xlink:href="#DejaVuSerif-Italic-6d" x="237.011719"/>
     <use xlink:href="#DejaVuSerif-Italic-61" x="331.835938"/>
     <use xlink:href="#DejaVuSerif-Italic-74" x="391.455078"/>
     <use xlink:href="#DejaVuSerif-Italic-65" x="431.640625"/>
     <use xlink:href="#DejaVuSerif-Italic-64" x="490.820312"/>
     <use xlink:href="#DejaVuSerif-Italic-20" x="554.833984"/>
     <use xlink:href="#DejaVuSerif-Italic-53" x="586.621094"/>
     <use xlink:href="#DejaVuSerif-Italic-63" x="655.126953"/>
     <use xlink:href="#DejaVuSerif-Italic-6f" x="711.132812"/>
     <use xlink:href="#DejaVuSerif-Italic-72" x="771.337891"/>
     <use xlink:href="#DejaVuSerif-Italic-69" x="819.140625"/>
     <use xlink:href="#DejaVuSerif-Italic-6e" x="851.123047"/>
     <use xlink:href="#DejaVuSerif-Italic-67" x="915.527344"/>
    </g>
   </g>
   <g id="text_11">
    <!-- ESG Disclosure Scoring Module -->
    <g style="fill: #ffffff" transform="translate(315.981094 560.912947) scale(0.13 -0.13)">
     <use xlink:href="#DejaVuSerif-Bold-45"/>
     <use xlink:href="#DejaVuSerif-Bold-53" x="76.220703"/>
     <use xlink:href="#DejaVuSerif-Bold-47" x="148.4375"/>
     <use xlink:href="#DejaVuSerif-Bold-20" x="233.837891"/>
     <use xlink:href="#DejaVuSerif-Bold-44" x="268.652344"/>
     <use xlink:href="#DejaVuSerif-Bold-69" x="355.371094"/>
     <use xlink:href="#DejaVuSerif-Bold-73" x="393.359375"/>
     <use xlink:href="#DejaVuSerif-Bold-63" x="449.658203"/>
     <use xlink:href="#DejaVuSerif-Bold-6c" x="510.546875"/>
     <use xlink:href="#DejaVuSerif-Bold-6f" x="548.535156"/>
     <use xlink:href="#DejaVuSerif-Bold-73" x="615.234375"/>
     <use xlink:href="#DejaVuSerif-Bold-75" x="671.533203"/>
     <use xlink:href="#DejaVuSerif-Bold-72" x="744.238281"/>
     <use xlink:href="#DejaVuSerif-Bold-65" x="796.923828"/>
     <use xlink:href="#DejaVuSerif-Bold-20" x="860.546875"/>
     <use xlink:href="#DejaVuSerif-Bold-53" x="895.361328"/>
     <use xlink:href="#DejaVuSerif-Bold-63" x="967.578125"/>
     <use xlink:href="#DejaVuSerif-Bold-6f" x="1028.466797"/>
     <use xlink:href="#DejaVuSerif-Bold-72" x="1095.166016"/>
     <use xlink:href="#DejaVuSerif-Bold-69" x="1147.851562"/>
     <use xlink:href="#DejaVuSerif-Bold-6e" x="1185.839844"/>
     <use xlink:href="#DejaVuSerif-Bold-67" x="1258.544922"/>
     <use xlink:href="#DejaVuSerif-Bold-20" x="1328.466797"/>
     <use xlink:href="#DejaVuSerif-Bold-4d" x="1363.28125"/>
     <use xlink:href="#DejaVuSerif-Bold-6f" x="1473.974609"/>
     <use xlink:href="#DejaVuSerif-Bold-64" x="1540.673828"/>
     <use xlink:href="#DejaVuSerif-Bold-75" x="1610.595703"/>
     <use xlink:href="#DejaVuSerif-Bold-6c" x="1683.300781"/>
     <use xlink:href="#DejaVuSerif-Bold-65" x="1721.289062"/>
    </g>
   </g>
   <g id="patch_14">
    <path d="M 432 642.854973 
Q 432 619.353421 432 598.087936 
" style="fill: none; stroke: #666666; stroke-width: 2; stroke-linecap: round"/>
    <path d="M 429.2 603.687936 
L 432 598.087936 
L 434.8 603.687936 
" style="fill: none; stroke: #666666; stroke-width: 2; stroke-linecap: round"/>
   </g>
   <g id="text_12">
    <!-- Output Generation -->
    <g style="fill: #808080" transform="translate(379.538594 647.89204) scale(0.11 -0.11)">
     <defs>
      <path id="DejaVuSerif-Italic-4f" d="M 2219 244 
Q 2984 244 3478 770 
Q 3972 1297 4172 2328 
Q 4372 3363 4084 3889 
Q 3797 4416 3031 4416 
Q 2263 4416 1769 3889 
Q 1275 3363 1075 2328 
Q 875 1297 1162 770 
Q 1450 244 2219 244 
z
M 2153 -91 
Q 1678 -91 1311 65 
Q 944 222 700 525 
Q 419 875 334 1319 
Q 250 1763 359 2328 
Q 469 2894 725 3339 
Q 981 3784 1400 4134 
Q 1766 4441 2191 4595 
Q 2616 4750 3097 4750 
Q 4113 4750 4608 4084 
Q 5103 3419 4891 2328 
Q 4781 1769 4522 1320 
Q 4263 872 3847 525 
Q 3481 219 3056 64 
Q 2631 -91 2153 -91 
z
" transform="scale(0.015625)"/>
      <path id="DejaVuSerif-Italic-47" d="M 4281 3272 
Q 4284 3856 3992 4136 
Q 3700 4416 3081 4416 
Q 2275 4416 1776 3897 
Q 1278 3378 1075 2328 
Q 875 1300 1181 772 
Q 1488 244 2281 244 
Q 2634 244 2973 331 
Q 3313 419 3638 594 
L 3872 1797 
L 2994 1797 
L 3059 2131 
L 4572 2131 
L 4231 391 
Q 3769 150 3266 29 
Q 2763 -91 2216 -91 
Q 1159 -91 653 570 
Q 147 1231 359 2328 
Q 575 3434 1340 4092 
Q 2106 4750 3184 4750 
Q 3584 4750 3992 4658 
Q 4400 4566 4844 4378 
L 4631 3272 
L 4281 3272 
z
" transform="scale(0.015625)"/>
     </defs>
     <use xlink:href="#DejaVuSerif-Italic-4f"/>
     <use xlink:href="#DejaVuSerif-Italic-75" x="81.982422"/>
     <use xlink:href="#DejaVuSerif-Italic-74" x="146.386719"/>
     <use xlink:href="#DejaVuSerif-Italic-70" x="186.572266"/>
     <use xlink:href="#DejaVuSerif-Italic-75" x="250.585938"/>
     <use xlink:href="#DejaVuSerif-Italic-74" x="314.990234"/>
     <use xlink:href="#DejaVuSerif-Italic-20" x="355.175781"/>
     <use xlink:href="#DejaVuSerif-Italic-47" x="386.962891"/>
     <use xlink:href="#DejaVuSerif-Italic-65" x="466.845703"/>
     <use xlink:href="#DejaVuSerif-Italic-6e" x="526.025391"/>
     <use xlink:href="#DejaVuSerif-Italic-65" x="590.429688"/>
     <use xlink:href="#DejaVuSerif-Italic-72" x="649.609375"/>
     <use xlink:href="#DejaVuSerif-Italic-61" x="697.412109"/>
     <use xlink:href="#DejaVuSerif-Italic-74" x="757.03125"/>
     <use xlink:href="#DejaVuSerif-Italic-69" x="797.216797"/>
     <use xlink:href="#DejaVuSerif-Italic-6f" x="829.199219"/>
     <use xlink:href="#DejaVuSerif-Italic-6e" x="889.404297"/>
    </g>
   </g>
   <g id="text_13">
    <!-- Assessment Reports -->
    <g style="fill: #ffffff" transform="translate(216.935722 706.736278) scale(0.13 -0.13)">
     <defs>
      <path id="DejaVuSerif-Bold-41" d="M -50 0 
L -50 378 
L 331 378 
L 2088 4666 
L 2834 4666 
L 4594 378 
L 5038 378 
L 5038 0 
L 2853 0 
L 2853 378 
L 3309 378 
L 2925 1331 
L 1172 1331 
L 781 378 
L 1338 378 
L 1338 0 
L -50 0 
z
M 1325 1709 
L 2772 1709 
L 2053 3494 
L 1325 1709 
z
" transform="scale(0.015625)"/>
      <path id="DejaVuSerif-Bold-52" d="M 3397 2278 
Q 3675 2238 3865 2094 
Q 4056 1950 4197 1678 
L 4878 378 
L 5356 378 
L 5356 0 
L 3822 0 
L 3078 1409 
Q 2863 1847 2711 1967 
Q 2559 2088 2291 2088 
L 2100 2088 
L 2100 378 
L 2700 378 
L 2700 0 
L 300 0 
L 300 378 
L 897 378 
L 897 4288 
L 300 4288 
L 300 4666 
L 2963 4666 
Q 3775 4666 4217 4339 
Q 4659 4013 4659 3413 
Q 4659 2925 4345 2642 
Q 4031 2359 3397 2278 
z
M 2100 2463 
L 2509 2463 
Q 2947 2463 3183 2700 
Q 3419 2938 3419 3378 
Q 3419 3819 3183 4053 
Q 2947 4288 2509 4288 
L 2100 4288 
L 2100 2463 
z
" transform="scale(0.015625)"/>
      <path id="DejaVuSerif-Bold-70" d="M 1728 1825 
L 1728 1497 
Q 1728 916 1876 656 
Q 2025 397 2356 397 
Q 2697 397 2836 672 
Q 2975 947 2975 1663 
Q 2975 2378 2836 2651 
Q 2697 2925 2356 2925 
Q 2025 2925 1876 2665 
Q 1728 2406 1728 1825 
z
M 622 2944 
L 147 2944 
L 147 3322 
L 1728 3322 
L 1728 2900 
Q 1869 3159 2106 3286 
Q 2344 3413 2694 3413 
Q 3403 3413 3811 2945 
Q 4219 2478 4219 1663 
Q 4219 847 3811 378 
Q 3403 -91 2694 -91 
Q 2344 -91 2106 36 
Q 1869 163 1728 422 
L 1728 -953 
L 2241 -953 
L 2241 -1331 
L 147 -1331 
L 147 -953 
L 622 -953 
L 622 2944 
z
" transform="scale(0.015625)"/>
     </defs>
     <use xlink:href="#DejaVuSerif-Bold-41"/>
     <use xlink:href="#DejaVuSerif-Bold-73" x="77.587891"/>
     <use xlink:href="#DejaVuSerif-Bold-73" x="133.886719"/>
     <use xlink:href="#DejaVuSerif-Bold-65" x="190.185547"/>
     <use xlink:href="#DejaVuSerif-Bold-73" x="253.808594"/>
     <use xlink:href="#DejaVuSerif-Bold-73" x="310.107422"/>
     <use xlink:href="#DejaVuSerif-Bold-6d" x="366.40625"/>
     <use xlink:href="#DejaVuSerif-Bold-65" x="472.216797"/>
     <use xlink:href="#DejaVuSerif-Bold-6e" x="535.839844"/>
     <use xlink:href="#DejaVuSerif-Bold-74" x="608.544922"/>
     <use xlink:href="#DejaVuSerif-Bold-20" x="654.736328"/>
     <use xlink:href="#DejaVuSerif-Bold-52" x="689.550781"/>
     <use xlink:href="#DejaVuSerif-Bold-65" x="772.65625"/>
     <use xlink:href="#DejaVuSerif-Bold-70" x="836.279297"/>
     <use xlink:href="#DejaVuSerif-Bold-6f" x="906.201172"/>
     <use xlink:href="#DejaVuSerif-Bold-72" x="972.900391"/>
     <use xlink:href="#DejaVuSerif-Bold-74" x="1025.585938"/>
     <use xlink:href="#DejaVuSerif-Bold-73" x="1071.777344"/>
    </g>
   </g>
   <g id="text_14">
    <!-- Visualization Dashboards -->
    <g style="fill: #ffffff" transform="translate(481.152794 706.736278) scale(0.13 -0.13)">
     <defs>
      <path id="DejaVuSerif-Bold-56" d="M 5056 4666 
L 5056 4288 
L 4666 4288 
L 2906 0 
L 2163 0 
L 403 4288 
L -38 4288 
L -38 4666 
L 2150 4666 
L 2150 4288 
L 1697 4288 
L 2956 1197 
L 4225 4288 
L 3669 4288 
L 3669 4666 
L 5056 4666 
z
" transform="scale(0.015625)"/>
      <path id="DejaVuSerif-Bold-62" d="M 622 378 
L 622 4488 
L 147 4488 
L 147 4863 
L 1728 4863 
L 1728 2900 
Q 1869 3159 2106 3286 
Q 2344 3413 2694 3413 
Q 3403 3413 3811 2945 
Q 4219 2478 4219 1663 
Q 4219 847 3811 378 
Q 3403 -91 2694 -91 
Q 2344 -91 2106 36 
Q 1869 163 1728 422 
L 1728 0 
L 147 0 
L 147 378 
L 622 378 
z
M 1728 1497 
Q 1728 916 1876 656 
Q 2025 397 2356 397 
Q 2697 397 2836 672 
Q 2975 947 2975 1663 
Q 2975 2378 2836 2651 
Q 2697 2925 2356 2925 
Q 2025 2925 1876 2665 
Q 1728 2406 1728 1825 
L 1728 1497 
z
" transform="scale(0.015625)"/>
     </defs>
     <use xlink:href="#DejaVuSerif-Bold-56"/>
     <use xlink:href="#DejaVuSerif-Bold-69" x="75.837891"/>
     <use xlink:href="#DejaVuSerif-Bold-73" x="113.826172"/>
     <use xlink:href="#DejaVuSerif-Bold-75" x="170.125"/>
     <use xlink:href="#DejaVuSerif-Bold-61" x="242.830078"/>
     <use xlink:href="#DejaVuSerif-Bold-6c" x="307.625"/>
     <use xlink:href="#DejaVuSerif-Bold-69" x="345.613281"/>
     <use xlink:href="#DejaVuSerif-Bold-7a" x="383.601562"/>
     <use xlink:href="#DejaVuSerif-Bold-61" x="440.388672"/>
     <use xlink:href="#DejaVuSerif-Bold-74" x="505.183594"/>
     <use xlink:href="#DejaVuSerif-Bold-69" x="551.375"/>
     <use xlink:href="#DejaVuSerif-Bold-6f" x="589.363281"/>
     <use xlink:href="#DejaVuSerif-Bold-6e" x="656.0625"/>
     <use xlink:href="#DejaVuSerif-Bold-20" x="728.767578"/>
     <use xlink:href="#DejaVuSerif-Bold-44" x="763.582031"/>
     <use xlink:href="#DejaVuSerif-Bold-61" x="850.300781"/>
     <use xlink:href="#DejaVuSerif-Bold-73" x="915.095703"/>
     <use xlink:href="#DejaVuSerif-Bold-68" x="971.394531"/>
     <use xlink:href="#DejaVuSerif-Bold-62" x="1044.099609"/>
     <use xlink:href="#DejaVuSerif-Bold-6f" x="1114.021484"/>
     <use xlink:href="#DejaVuSerif-Bold-61" x="1180.720703"/>
     <use xlink:href="#DejaVuSerif-Bold-72" x="1245.515625"/>
     <use xlink:href="#DejaVuSerif-Bold-64" x="1298.201172"/>
     <use xlink:href="#DejaVuSerif-Bold-73" x="1368.123047"/>
    </g>
   </g>
   <g id="text_15">
    <!-- LLM-Based Analytic Framework for Multilingual ESG Disclosure Assessment in Taiwan-Listed Companies -->
    <g transform="translate(-41.19 27.36) scale(0.16 -0.16)">
     <defs>
      <path id="DejaVuSerif-Bold-2d" d="M 347 2138 
L 2309 2138 
L 2309 1294 
L 347 1294 
L 347 2138 
z
" transform="scale(0.015625)"/>
      <path id="DejaVuSerif-Bold-42" d="M 300 0 
L 300 378 
L 897 378 
L 897 4288 
L 300 4288 
L 300 4666 
L 3066 4666 
Q 3919 4666 4347 4378 
Q 4775 4091 4775 3513 
Q 4775 3097 4479 2853 
Q 4184 2609 3603 2547 
Q 4306 2481 4681 2172 
Q 5056 1863 5056 1350 
Q 5056 656 4532 328 
Q 4009 0 2894 0 
L 300 0 
z
M 2100 2719 
L 2509 2719 
Q 3047 2719 3306 2914 
Q 3566 3109 3566 3513 
Q 3566 3919 3314 4103 
Q 3063 4288 2509 4288 
L 2100 4288 
L 2100 2719 
z
M 2100 378 
L 2547 378 
Q 3144 378 3431 615 
Q 3719 853 3719 1350 
Q 3719 1850 3428 2097 
Q 3138 2344 2547 2344 
L 2100 2344 
L 2100 378 
z
" transform="scale(0.015625)"/>
      <path id="DejaVuSerif-Bold-79" d="M 1997 -750 
Q 1847 -1116 1634 -1269 
Q 1422 -1422 1063 -1422 
Q 909 -1422 721 -1387 
Q 534 -1353 313 -1288 
L 313 -594 
L 666 -597 
Q 675 -838 779 -953 
Q 884 -1069 1094 -1069 
Q 1297 -1069 1422 -958 
Q 1547 -847 1672 -538 
L 1722 -422 
L 275 2944 
L -84 2944 
L -84 3322 
L 1831 3322 
L 1831 2944 
L 1434 2944 
L 2278 978 
L 3066 2944 
L 2625 2944 
L 2625 3322 
L 3872 3322 
L 3872 2944 
L 3469 2944 
L 1997 -750 
z
" transform="scale(0.015625)"/>
      <path id="DejaVuSerif-Bold-46" d="M 300 0 
L 300 378 
L 897 378 
L 897 4288 
L 300 4288 
L 300 4666 
L 4459 4666 
L 4459 3566 
L 4031 3566 
L 4031 4238 
L 2106 4238 
L 2106 2741 
L 3291 2741 
L 3291 3334 
L 3719 3334 
L 3719 1722 
L 3291 1722 
L 3291 2316 
L 2106 2316 
L 2106 378 
L 2841 378 
L 2841 0 
L 300 0 
z
" transform="scale(0.015625)"/>
      <path id="DejaVuSerif-Bold-77" d="M 3450 3322 
L 4206 1106 
L 4831 2944 
L 4397 2944 
L 4397 3322 
L 5638 3322 
L 5638 2944 
L 5247 2944 
L 4244 0 
L 3481 0 
L 2778 2081 
L 2069 0 
L 1313 0 
L 306 2944 
L -56 2944 
L -56 3322 
L 1825 3322 
L 1825 2944 
L 1434 2944 
L 2047 1147 
L 2791 3322 
L 3450 3322 
z
" transform="scale(0.015625)"/>
      <path id="DejaVuSerif-Bold-6b" d="M 2216 0 
L 219 0 
L 219 378 
L 691 378 
L 691 4488 
L 219 4488 
L 219 4863 
L 1797 4863 
L 1797 1741 
L 3138 2944 
L 2741 2944 
L 2741 3322 
L 4256 3322 
L 4256 2944 
L 3641 2944 
L 2784 2175 
L 4184 378 
L 4544 378 
L 4544 0 
L 2638 0 
L 2638 378 
L 3028 378 
L 2106 1563 
L 1797 1288 
L 1797 378 
L 2216 378 
L 2216 0 
z
" transform="scale(0.015625)"/>
      <path id="DejaVuSerif-Bold-66" d="M 3097 4031 
L 2747 4031 
Q 2722 4275 2605 4394 
Q 2488 4513 2272 4513 
Q 2022 4513 1909 4333 
Q 1797 4153 1797 3750 
L 1797 3322 
L 2631 3322 
L 2631 2944 
L 1797 2944 
L 1797 378 
L 2438 378 
L 2438 0 
L 219 0 
L 219 378 
L 691 378 
L 691 2944 
L 197 2944 
L 197 3322 
L 691 3322 
L 691 3738 
Q 691 4291 1044 4577 
Q 1397 4863 2081 4863 
Q 2347 4863 2600 4833 
Q 2853 4803 3097 4744 
L 3097 4031 
z
" transform="scale(0.015625)"/>
      <path id="DejaVuSerif-Bold-43" d="M 4769 1331 
Q 4584 609 4106 259 
Q 3628 -91 2822 -91 
Q 1641 -91 955 561 
Q 269 1213 269 2328 
Q 269 3447 955 4098 
Q 1641 4750 2822 4750 
Q 3238 4750 3688 4650 
Q 4138 4550 4641 4347 
L 4641 3200 
L 4244 3200 
Q 4122 3788 3800 4080 
Q 3478 4372 2950 4372 
Q 2269 4372 1937 3870 
Q 1606 3369 1606 2328 
Q 1606 1288 1937 788 
Q 2269 288 2956 288 
Q 3422 288 3717 547 
Q 4013 806 4147 1331 
L 4769 1331 
z
" transform="scale(0.015625)"/>
     </defs>
     <use xlink:href="#DejaVuSerif-Bold-4c"/>
     <use xlink:href="#DejaVuSerif-Bold-4c" x="70.3125"/>
     <use xlink:href="#DejaVuSerif-Bold-4d" x="140.625"/>
     <use xlink:href="#DejaVuSerif-Bold-2d" x="251.318359"/>
     <use xlink:href="#DejaVuSerif-Bold-42" x="292.822266"/>
     <use xlink:href="#DejaVuSerif-Bold-61" x="377.34375"/>
     <use xlink:href="#DejaVuSerif-Bold-73" x="442.138672"/>
     <use xlink:href="#DejaVuSerif-Bold-65" x="498.4375"/>
     <use xlink:href="#DejaVuSerif-Bold-64" x="562.060547"/>
     <use xlink:href="#DejaVuSerif-Bold-20" x="631.982422"/>
     <use xlink:href="#DejaVuSerif-Bold-41" x="666.796875"/>
     <use xlink:href="#DejaVuSerif-Bold-6e" x="744.384766"/>
     <use xlink:href="#DejaVuSerif-Bold-61" x="817.089844"/>
     <use xlink:href="#DejaVuSerif-Bold-6c" x="881.884766"/>
     <use xlink:href="#DejaVuSerif-Bold-79" x="919.873047"/>
     <use xlink:href="#DejaVuSerif-Bold-74" x="977.978516"/>
     <use xlink:href="#DejaVuSerif-Bold-69" x="1024.169922"/>
     <use xlink:href="#DejaVuSerif-Bold-63" x="1062.158203"/>
     <use xlink:href="#DejaVuSerif-Bold-20" x="1123.046875"/>
     <use xlink:href="#DejaVuSerif-Bold-46" x="1157.861328"/>
     <use xlink:href="#DejaVuSerif-Bold-72" x="1227.107422"/>
     <use xlink:href="#DejaVuSerif-Bold-61" x="1279.792969"/>
     <use xlink:href="#DejaVuSerif-Bold-6d" x="1344.587891"/>
     <use xlink:href="#DejaVuSerif-Bold-65" x="1450.398438"/>
     <use xlink:href="#DejaVuSerif-Bold-77" x="1514.021484"/>
     <use xlink:href="#DejaVuSerif-Bold-6f" x="1600.105469"/>
     <use xlink:href="#DejaVuSerif-Bold-72" x="1666.804688"/>
     <use xlink:href="#DejaVuSerif-Bold-6b" x="1719.490234"/>
     <use xlink:href="#DejaVuSerif-Bold-20" x="1788.777344"/>
     <use xlink:href="#DejaVuSerif-Bold-66" x="1823.591797"/>
     <use xlink:href="#DejaVuSerif-Bold-6f" x="1866.609375"/>
     <use xlink:href="#DejaVuSerif-Bold-72" x="1933.308594"/>
     <use xlink:href="#DejaVuSerif-Bold-20" x="1985.994141"/>
     <use xlink:href="#DejaVuSerif-Bold-4d" x="2020.808594"/>
     <use xlink:href="#DejaVuSerif-Bold-75" x="2131.501953"/>
     <use xlink:href="#DejaVuSerif-Bold-6c" x="2204.207031"/>
     <use xlink:href="#DejaVuSerif-Bold-74" x="2242.195312"/>
     <use xlink:href="#DejaVuSerif-Bold-69" x="2288.386719"/>
     <use xlink:href="#DejaVuSerif-Bold-6c" x="2326.375"/>
     <use xlink:href="#DejaVuSerif-Bold-69" x="2364.363281"/>
     <use xlink:href="#DejaVuSerif-Bold-6e" x="2402.351562"/>
     <use xlink:href="#DejaVuSerif-Bold-67" x="2475.056641"/>
     <use xlink:href="#DejaVuSerif-Bold-75" x="2544.978516"/>
     <use xlink:href="#DejaVuSerif-Bold-61" x="2617.683594"/>
     <use xlink:href="#DejaVuSerif-Bold-6c" x="2682.478516"/>
     <use xlink:href="#DejaVuSerif-Bold-20" x="2720.466797"/>
     <use xlink:href="#DejaVuSerif-Bold-45" x="2755.28125"/>
     <use xlink:href="#DejaVuSerif-Bold-53" x="2831.501953"/>
     <use xlink:href="#DejaVuSerif-Bold-47" x="2903.71875"/>
     <use xlink:href="#DejaVuSerif-Bold-20" x="2989.119141"/>
     <use xlink:href="#DejaVuSerif-Bold-44" x="3023.933594"/>
     <use xlink:href="#DejaVuSerif-Bold-69" x="3110.652344"/>
     <use xlink:href="#DejaVuSerif-Bold-73" x="3148.640625"/>
     <use xlink:href="#DejaVuSerif-Bold-63" x="3204.939453"/>
     <use xlink:href="#DejaVuSerif-Bold-6c" x="3265.828125"/>
     <use xlink:href="#DejaVuSerif-Bold-6f" x="3303.816406"/>
     <use xlink:href="#DejaVuSerif-Bold-73" x="3370.515625"/>
     <use xlink:href="#DejaVuSerif-Bold-75" x="3426.814453"/>
     <use xlink:href="#DejaVuSerif-Bold-72" x="3499.519531"/>
     <use xlink:href="#DejaVuSerif-Bold-65" x="3552.205078"/>
     <use xlink:href="#DejaVuSerif-Bold-20" x="3615.828125"/>
     <use xlink:href="#DejaVuSerif-Bold-41" x="3650.642578"/>
     <use xlink:href="#DejaVuSerif-Bold-73" x="3728.230469"/>
     <use xlink:href="#DejaVuSerif-Bold-73" x="3784.529297"/>
     <use xlink:href="#DejaVuSerif-Bold-65" x="3840.828125"/>
     <use xlink:href="#DejaVuSerif-Bold-73" x="3904.451172"/>
     <use xlink:href="#DejaVuSerif-Bold-73" x="3960.75"/>
     <use xlink:href="#DejaVuSerif-Bold-6d" x="4017.048828"/>
     <use xlink:href="#DejaVuSerif-Bold-65" x="4122.859375"/>
     <use xlink:href="#DejaVuSerif-Bold-6e" x="4186.482422"/>
     <use xlink:href="#DejaVuSerif-Bold-74" x="4259.1875"/>
     <use xlink:href="#DejaVuSerif-Bold-20" x="4305.378906"/>
     <use xlink:href="#DejaVuSerif-Bold-69" x="4340.193359"/>
     <use xlink:href="#DejaVuSerif-Bold-6e" x="4378.181641"/>
     <use xlink:href="#DejaVuSerif-Bold-20" x="4450.886719"/>
     <use xlink:href="#DejaVuSerif-Bold-54" x="4485.701172"/>
     <use xlink:href="#DejaVuSerif-Bold-61" x="4550.490234"/>
     <use xlink:href="#DejaVuSerif-Bold-69" x="4615.285156"/>
     <use xlink:href="#DejaVuSerif-Bold-77" x="4653.273438"/>
     <use xlink:href="#DejaVuSerif-Bold-61" x="4739.357422"/>
     <use xlink:href="#DejaVuSerif-Bold-6e" x="4804.152344"/>
     <use xlink:href="#DejaVuSerif-Bold-2d" x="4876.857422"/>
     <use xlink:href="#DejaVuSerif-Bold-4c" x="4918.361328"/>
     <use xlink:href="#DejaVuSerif-Bold-69" x="4988.673828"/>
     <use xlink:href="#DejaVuSerif-Bold-73" x="5026.662109"/>
     <use xlink:href="#DejaVuSerif-Bold-74" x="5082.960938"/>
     <use xlink:href="#DejaVuSerif-Bold-65" x="5129.152344"/>
     <use xlink:href="#DejaVuSerif-Bold-64" x="5192.775391"/>
     <use xlink:href="#DejaVuSerif-Bold-20" x="5262.697266"/>
     <use xlink:href="#DejaVuSerif-Bold-43" x="5297.511719"/>
     <use xlink:href="#DejaVuSerif-Bold-6f" x="5377.101562"/>
     <use xlink:href="#DejaVuSerif-Bold-6d" x="5443.800781"/>
     <use xlink:href="#DejaVuSerif-Bold-70" x="5549.611328"/>
     <use xlink:href="#DejaVuSerif-Bold-61" x="5619.533203"/>
     <use xlink:href="#DejaVuSerif-Bold-6e" x="5684.328125"/>
     <use xlink:href="#DejaVuSerif-Bold-69" x="5757.033203"/>
     <use xlink:href="#DejaVuSerif-Bold-65" x="5795.021484"/>
     <use xlink:href="#DejaVuSerif-Bold-73" x="5858.644531"/>
    </g>
   </g>
  </g>
 </g>
 <defs>
  <clipPath id="pf11325017e">
   <rect x="15.12" y="47.36" width="833.76" height="801.52"/>
  </clipPath>
 </defs>
</svg>
