<?xml version="1.0" encoding="utf-8" standalone="no"?>
<!DOCTYPE svg PUBLIC "-//W3C//DTD SVG 1.1//EN"
  "http://www.w3.org/Graphics/SVG/1.1/DTD/svg11.dtd">
<svg xmlns:xlink="http://www.w3.org/1999/xlink" width="864pt" height="720pt" viewBox="0 0 864 720" xmlns="http://www.w3.org/2000/svg" version="1.1">
 <metadata>
  <rdf:RDF xmlns:dc="http://purl.org/dc/elements/1.1/" xmlns:cc="http://creativecommons.org/ns#" xmlns:rdf="http://www.w3.org/1999/02/22-rdf-syntax-ns#">
   <cc:Work>
    <dc:type rdf:resource="http://purl.org/dc/dcmitype/StillImage"/>
    <dc:date>2026-03-27T15:02:46.491778</dc:date>
    <dc:format>image/svg+xml</dc:format>
    <dc:creator>
     <cc:Agent>
      <dc:title>Matplotlib v3.9.4, https://matplotlib.org/</dc:title>
     </cc:Agent>
    </dc:creator>
   </cc:Work>
  </rdf:RDF>
 </metadata>
 <defs>
  <style type="text/css">*{stroke-linejoin: round; stroke-linecap: butt}</style>
 </defs>
 <g id="figure_1">
  <g id="patch_1">
   <path d="M 0 720 
L 864 720 
L 864 0 
L 0 0 
z
" style="fill: #ffffff"/>
  </g>
  <g id="axes_1">
   <g id="patch_2">
    <path d="M 106.8336 156.946667 
L 256.9104 156.946667 
Q 265.248 156.946667 265.248 149.640889 
L 265.248 98.500444 
Q 265.248 91.194667 256.9104 91.194667 
L 106.8336 91.194667 
Q 98.496 91.194667 98.496 98.500444 
L 98.496 149.640889 
Q 98.496 156.946667 106.8336 156.946667 
z
" clip-path="url(#p51b77762f2)" style="fill: #1f77b4; stroke: #333333; stroke-width: 1.5; stroke-linejoin: miter"/>
   </g>
   <g id="patch_3">
    <path d="M 273.5856 156.946667 
L 423.6624 156.946667 
Q 432 156.946667 432 149.640889 
L 432 98.500444 
Q 432 91.194667 423.6624 91.194667 
L 273.5856 91.194667 
Q 265.248 91.194667 265.248 98.500444 
L 265.248 149.640889 
Q 265.248 156.946667 273.5856 156.946667 
z
" clip-path="url(#p51b77762f2)" style="fill: #ff7f0e; stroke: #333333; stroke-width: 1.5; stroke-linejoin: miter"/>
   </g>
   <g id="patch_4">
    <path d="M 440.3376 156.946667 
L 590.4144 156.946667 
Q 598.752 156.946667 598.752 149.640889 
L 598.752 98.500444 
Q 598.752 91.194667 590.4144 91.194667 
L 440.3376 91.194667 
Q 432 91.194667 432 98.500444 
L 432 149.640889 
Q 432 156.946667 440.3376 156.946667 
z
" clip-path="url(#p51b77762f2)" style="fill: #2ca02c; stroke: #333333; stroke-width: 1.5; stroke-linejoin: miter"/>
   </g>
   <g id="patch_5">
    <path d="M 607.0896 156.946667 
L 757.1664 156.946667 
Q 765.504 156.946667 765.504 149.640889 
L 765.504 98.500444 
Q 765.504 91.194667 757.1664 91.194667 
L 607.0896 91.194667 
Q 598.752 91.194667 598.752 98.500444 
L 598.752 149.640889 
Q 598.752 156.946667 607.0896 156.946667 
z
" clip-path="url(#p51b77762f2)" style="fill: #d62728; stroke: #333333; stroke-width: 1.5; stroke-linejoin: miter"/>
   </g>
   <g id="patch_6">
    <path d="M 106.8336 303.062222 
L 256.9104 303.062222 
Q 265.248 303.062222 265.248 295.756444 
L 265.248 244.616 
Q 265.248 237.310222 256.9104 237.310222 
L 106.8336 237.310222 
Q 98.496 237.310222 98.496 244.616 
L 98.496 295.756444 
Q 98.496 303.062222 106.8336 303.062222 
z
" clip-path="url(#p51b77762f2)" style="fill: #9467bd; stroke: #333333; stroke-width: 1.5; stroke-linejoin: miter"/>
   </g>
   <g id="patch_7">
    <path d="M 273.5856 303.062222 
L 423.6624 303.062222 
Q 432 303.062222 432 295.756444 
L 432 244.616 
Q 432 237.310222 423.6624 237.310222 
L 273.5856 237.310222 
Q 265.248 237.310222 265.248 244.616 
L 265.248 295.756444 
Q 265.248 303.062222 273.5856 303.062222 
z
" clip-path="url(#p51b77762f2)" style="fill: #8c564b; stroke: #333333; stroke-width: 1.5; stroke-linejoin: miter"/>
   </g>
   <g id="patch_8">
    <path d="M 440.3376 303.062222 
L 590.4144 303.062222 
Q 598.752 303.062222 598.752 295.756444 
L 598.752 244.616 
Q 598.752 237.310222 590.4144 237.310222 
L 440.3376 237.310222 
Q 432 237.310222 432 244.616 
L 432 295.756444 
Q 432 303.062222 440.3376 303.062222 
z
" clip-path="url(#p51b77762f2)" style="fill: #e377c2; stroke: #333333; stroke-width: 1.5; stroke-linejoin: miter"/>
   </g>
   <g id="patch_9">
    <path d="M 607.0896 303.062222 
L 757.1664 303.062222 
Q 765.504 303.062222 765.504 295.756444 
L 765.504 244.616 
Q 765.504 237.310222 757.1664 237.310222 
L 607.0896 237.310222 
Q 598.752 237.310222 598.752 244.616 
L 598.752 295.756444 
Q 598.752 303.062222 607.0896 303.062222 
z
" clip-path="url(#p51b77762f2)" style="fill: #7f7f7f; stroke: #333333; stroke-width: 1.5; stroke-linejoin: miter"/>
   </g>
   <g id="patch_10">
    <path d="M 106.8336 449.177778 
L 256.9104 449.177778 
Q 265.248 449.177778 265.248 441.872 
L 265.248 390.731556 
Q 265.248 383.425778 256.9104 383.425778 
L 106.8336 383.425778 
Q 98.496 383.425778 98.496 390.731556 
L 98.496 441.872 
Q 98.496 449.177778 106.8336 449.177778 
z
" clip-path="url(#p51b77762f2)" style="fill: #bcbd22; stroke: #333333; stroke-width: 1.5; stroke-linejoin: miter"/>
   </g>
   <g id="patch_11">
    <path d="M 273.5856 449.177778 
L 423.6624 449.177778 
Q 432 449.177778 432 441.872 
L 432 390.731556 
Q 432 383.425778 423.6624 383.425778 
L 273.5856 383.425778 
Q 265.248 383.425778 265.248 390.731556 
L 265.248 441.872 
Q 265.248 449.177778 273.5856 449.177778 
z
" clip-path="url(#p51b77762f2)" style="fill: #17becf; stroke: #333333; stroke-width: 1.5; stroke-linejoin: miter"/>
   </g>
   <g id="patch_12">
    <path d="M 440.3376 449.177778 
L 590.4144 449.177778 
Q 598.752 449.177778 598.752 441.872 
L 598.752 390.731556 
Q 598.752 383.425778 590.4144 383.425778 
L 440.3376 383.425778 
Q 432 383.425778 432 390.731556 
L 432 441.872 
Q 432 449.177778 440.3376 449.177778 
z
" clip-path="url(#p51b77762f2)" style="fill: #aec7e8; stroke: #333333; stroke-width: 1.5; stroke-linejoin: miter"/>
   </g>
   <g id="patch_13">
    <path d="M 607.0896 449.177778 
L 757.1664 449.177778 
Q 765.504 449.177778 765.504 441.872 
L 765.504 390.731556 
Q 765.504 383.425778 757.1664 383.425778 
L 607.0896 383.425778 
Q 598.752 383.425778 598.752 390.731556 
L 598.752 441.872 
Q 598.752 449.177778 607.0896 449.177778 
z
" clip-path="url(#p51b77762f2)" style="fill: #ffbb78; stroke: #333333; stroke-width: 1.5; stroke-linejoin: miter"/>
   </g>
   <g id="patch_14">
    <path d="M 81.8208 595.293333 
L 231.8976 595.293333 
Q 240.2352 595.293333 240.2352 587.987556 
L 240.2352 536.847111 
Q 240.2352 529.541333 231.8976 529.541333 
L 81.8208 529.541333 
Q 73.4832 529.541333 73.4832 536.847111 
L 73.4832 587.987556 
Q 73.4832 595.293333 81.8208 595.293333 
z
" clip-path="url(#p51b77762f2)" style="fill: #393b79; stroke: #333333; stroke-width: 1.5; stroke-linejoin: miter"/>
   </g>
   <g id="patch_15">
    <path d="M 215.2224 595.293333 
L 365.2992 595.293333 
Q 373.6368 595.293333 373.6368 587.987556 
L 373.6368 536.847111 
Q 373.6368 529.541333 365.2992 529.541333 
L 215.2224 529.541333 
Q 206.8848 529.541333 206.8848 536.847111 
L 206.8848 587.987556 
Q 206.8848 595.293333 215.2224 595.293333 
z
" clip-path="url(#p51b77762f2)" style="fill: #5254a3; stroke: #333333; stroke-width: 1.5; stroke-linejoin: miter"/>
   </g>
   <g id="patch_16">
    <path d="M 356.9616 595.293333 
L 507.0384 595.293333 
Q 515.376 595.293333 515.376 587.987556 
L 515.376 536.847111 
Q 515.376 529.541333 507.0384 529.541333 
L 356.9616 529.541333 
Q 348.624 529.541333 348.624 536.847111 
L 348.624 587.987556 
Q 348.624 595.293333 356.9616 595.293333 
z
" clip-path="url(#p51b77762f2)" style="fill: #6b6ecf; stroke: #333333; stroke-width: 1.5; stroke-linejoin: miter"/>
   </g>
   <g id="patch_17">
    <path d="M 498.7008 595.293333 
L 648.7776 595.293333 
Q 657.1152 595.293333 657.1152 587.987556 
L 657.1152 536.847111 
Q 657.1152 529.541333 648.7776 529.541333 
L 498.7008 529.541333 
Q 490.3632 529.541333 490.3632 536.847111 
L 490.3632 587.987556 
Q 490.3632 595.293333 498.7008 595.293333 
z
" clip-path="url(#p51b77762f2)" style="fill: #9c9ede; stroke: #333333; stroke-width: 1.5; stroke-linejoin: miter"/>
   </g>
   <g id="patch_18">
    <path d="M 632.1024 595.293333 
L 782.1792 595.293333 
Q 790.5168 595.293333 790.5168 587.987556 
L 790.5168 536.847111 
Q 790.5168 529.541333 782.1792 529.541333 
L 632.1024 529.541333 
Q 623.7648 529.541333 623.7648 536.847111 
L 623.7648 587.987556 
Q 623.7648 595.293333 632.1024 595.293333 
z
" clip-path="url(#p51b77762f2)" style="fill: #637939; stroke: #333333; stroke-width: 1.5; stroke-linejoin: miter"/>
   </g>
   <g id="text_1">
    <!-- Metadata Quality Dimensions -->
    <g style="fill: #808080" transform="translate(349.231875 64.928665) scale(0.11 -0.11)">
     <defs>
      <path id="DejaVuSerif-Italic-4d" d="M -97 0 
L -34 331 
L 559 331 
L 1338 4331 
L 709 4331 
L 775 4666 
L 2134 4666 
L 3125 1344 
L 5409 4666 
L 6684 4666 
L 6619 4331 
L 5997 4331 
L 5222 331 
L 5816 331 
L 5753 0 
L 3928 0 
L 3991 331 
L 4584 331 
L 5288 3938 
L 3053 684 
L 2613 684 
L 1647 3938 
L 944 331 
L 1538 331 
L 1475 0 
L -97 0 
z
" transform="scale(0.015625)"/>
      <path id="DejaVuSerif-Italic-65" d="M 938 1275 
Q 925 1156 925 1050 
Q 925 756 1031 563 
Q 1216 219 1709 219 
Q 2072 219 2250 328 
Q 2569 525 2644 778 
L 3066 778 
Q 2941 381 2475 103 
Q 2150 -91 1506 -91 
Q 863 -91 516 388 
Q 272 722 272 1206 
Q 272 1419 319 1659 
Q 472 2450 1000 2931 
Q 1528 3413 2278 3413 
Q 3500 3413 3500 2547 
Q 3500 1913 2859 1603 
Q 2206 1288 938 1275 
z
M 2541 1975 
Q 2891 2181 2891 2569 
Q 2891 3103 2181 3103 
Q 1763 3103 1472 2784 
Q 1181 2466 1003 1606 
Q 2006 1653 2541 1975 
z
" transform="scale(0.015625)"/>
      <path id="DejaVuSerif-Italic-74" d="M 856 2988 
L 350 2988 
L 416 3322 
L 922 3322 
L 1122 4353 
L 1700 4353 
L 1500 3322 
L 2581 3322 
L 2516 2988 
L 1434 2988 
L 1025 878 
Q 978 631 978 488 
Q 978 388 1000 338 
Q 1059 219 1278 219 
Q 1503 219 1633 351 
Q 1763 484 1825 781 
L 2259 781 
Q 2147 328 1884 118 
Q 1622 -91 1169 -91 
Q 672 -91 506 131 
Q 406 266 406 516 
Q 406 675 447 878 
L 856 2988 
z
" transform="scale(0.015625)"/>
      <path id="DejaVuSerif-Italic-61" d="M 2325 519 
Q 1909 -91 1238 -91 
Q 688 -91 409 281 
Q 216 544 216 919 
Q 216 1078 250 1256 
Q 463 2359 1231 2928 
Q 1884 3413 2675 3413 
Q 3206 3413 3388 3322 
L 2806 331 
L 3300 331 
L 3238 0 
L 2225 0 
L 2325 519 
z
M 822 938 
Q 822 269 1469 269 
Q 1863 269 2130 583 
Q 2397 897 2516 1497 
L 2806 3003 
L 2806 3003 
Q 2806 3094 2556 3094 
Q 1956 3094 1491 2625 
Q 1028 2153 863 1297 
Q 822 1097 822 938 
z
" transform="scale(0.015625)"/>
      <path id="DejaVuSerif-Italic-64" d="M 3841 4863 
L 2897 0 
L 2322 0 
L 2422 519 
Q 2191 206 1902 57 
Q 1613 -91 1228 -91 
Q 616 -91 322 394 
Q 125 716 125 1166 
Q 125 1397 178 1663 
Q 331 2444 812 2928 
Q 1294 3413 1909 3413 
Q 2294 3413 2525 3264 
Q 2756 3116 2866 2803 
L 3200 4531 
L 2656 4531 
L 2722 4863 
L 3841 4863 
z
M 2613 1497 
L 2675 1825 
Q 2722 2069 2722 2266 
Q 2722 2550 2622 2738 
Q 2456 3053 2019 3053 
Q 1575 3053 1279 2703 
Q 984 2353 850 1663 
Q 788 1347 788 1103 
Q 788 813 875 622 
Q 1031 269 1475 269 
Q 1913 269 2203 583 
Q 2494 897 2613 1497 
z
" transform="scale(0.015625)"/>
      <path id="DejaVuSerif-Italic-20" transform="scale(0.015625)"/>
      <path id="DejaVuSerif-Italic-51" d="M 2322 -91 
Q 1250 -91 741 569 
Q 388 1028 388 1713 
Q 388 2000 450 2328 
Q 559 2894 817 3339 
Q 1075 3784 1491 4134 
Q 1856 4441 2281 4595 
Q 2706 4750 3188 4750 
Q 4203 4750 4697 4084 
Q 5044 3619 5044 2944 
Q 5044 2656 4981 2328 
Q 4800 1403 4209 773 
Q 3619 144 2759 -38 
Q 2888 -247 3109 -347 
Q 3331 -447 3672 -447 
L 4453 -447 
L 4341 -1025 
L 3975 -1025 
Q 3147 -1025 2803 -769 
Q 2466 -513 2322 -91 
z
M 2309 244 
Q 3075 244 3569 770 
Q 4063 1297 4263 2328 
Q 4344 2753 4344 3094 
Q 4344 3578 4175 3888 
Q 3888 4416 3122 4416 
Q 2353 4416 1859 3889 
Q 1366 3363 1166 2328 
Q 1084 1906 1084 1566 
Q 1084 1081 1253 769 
Q 1541 244 2309 244 
z
" transform="scale(0.015625)"/>
      <path id="DejaVuSerif-Italic-75" d="M 3097 3322 
L 3672 3322 
L 3091 331 
L 3634 331 
L 3572 0 
L 2453 0 
L 2566 588 
Q 2341 256 2055 82 
Q 1769 -91 1434 -91 
Q 881 -91 681 225 
Q 559 413 559 734 
Q 559 944 613 1209 
L 956 2988 
L 438 2988 
L 503 3322 
L 1600 3322 
L 1225 1388 
Q 1163 1066 1163 853 
Q 1163 663 1213 556 
Q 1316 331 1697 331 
Q 2097 331 2364 625 
Q 2631 919 2738 1478 
L 3097 3322 
z
" transform="scale(0.015625)"/>
      <path id="DejaVuSerif-Italic-6c" d="M 903 331 
L 1447 331 
L 1384 0 
L 266 0 
L 1147 4531 
L 594 4531 
L 656 4863 
L 1784 4863 
L 903 331 
z
" transform="scale(0.015625)"/>
      <path id="DejaVuSerif-Italic-69" d="M 1009 4353 
Q 1038 4497 1163 4603 
Q 1288 4709 1434 4709 
Q 1578 4709 1663 4603 
Q 1728 4522 1728 4422 
Q 1728 4388 1719 4353 
Q 1691 4206 1567 4103 
Q 1444 4000 1297 4000 
Q 1150 4000 1066 4103 
Q 1003 4181 1003 4281 
Q 1003 4316 1009 4353 
z
M 963 331 
L 1506 331 
L 1444 0 
L 325 0 
L 903 2988 
L 353 2988 
L 419 3322 
L 1544 3322 
L 963 331 
z
" transform="scale(0.015625)"/>
      <path id="DejaVuSerif-Italic-79" d="M 3681 3294 
Q 3372 1506 2828 563 
Q 2031 -822 1391 -1238 
Q 1106 -1422 356 -1422 
Q 209 -1422 60 -1397 
Q -88 -1372 -238 -1325 
L -113 -691 
L 181 -691 
Q 175 -741 175 -788 
Q 175 -919 231 -994 
Q 309 -1100 513 -1100 
Q 1063 -1100 1541 -622 
L 756 2988 
L 378 2988 
L 444 3322 
L 1303 3322 
L 2041 25 
Q 2544 778 2666 1088 
Q 3059 2059 3138 2959 
L 2759 2959 
L 2825 3294 
L 3681 3294 
z
" transform="scale(0.015625)"/>
      <path id="DejaVuSerif-Italic-44" d="M 1194 331 
L 1775 331 
Q 2684 331 3271 850 
Q 3859 1369 4048 2337 
Q 4238 3306 3852 3818 
Q 3466 4331 2553 4331 
L 1972 4331 
L 1194 331 
z
M -97 0 
L -34 331 
L 559 331 
L 1338 4331 
L 744 4331 
L 809 4666 
L 2666 4666 
Q 3872 4666 4426 4050 
Q 4981 3434 4766 2338 
Q 4553 1238 3758 619 
Q 2963 0 1759 0 
L -97 0 
z
" transform="scale(0.015625)"/>
      <path id="DejaVuSerif-Italic-6d" d="M 3503 2675 
Q 3741 3041 4034 3227 
Q 4328 3413 4672 3413 
Q 5194 3413 5388 3088 
Q 5503 2894 5503 2578 
Q 5503 2372 5453 2113 
L 5106 331 
L 5625 331 
L 5563 0 
L 4469 0 
L 4866 2047 
Q 4913 2291 4913 2466 
Q 4913 2659 4856 2772 
Q 4750 2988 4403 2988 
Q 4019 2988 3761 2697 
Q 3503 2406 3394 1850 
L 3034 0 
L 2459 0 
L 2863 2069 
Q 2906 2303 2906 2472 
Q 2906 2666 2850 2775 
Q 2741 2988 2394 2988 
Q 2009 2988 1751 2697 
Q 1494 2406 1384 1850 
L 1025 0 
L 450 0 
L 1031 2994 
L 481 2994 
L 544 3322 
L 1669 3322 
L 1556 2731 
Q 1778 3063 2059 3238 
Q 2341 3413 2653 3413 
Q 3041 3413 3262 3220 
Q 3484 3028 3503 2675 
z
" transform="scale(0.015625)"/>
      <path id="DejaVuSerif-Italic-6e" d="M 450 0 
L 1031 2988 
L 481 2988 
L 544 3322 
L 1669 3322 
L 1556 2731 
Q 1781 3069 2068 3241 
Q 2356 3413 2694 3413 
Q 3244 3413 3444 3097 
Q 3563 2906 3563 2588 
Q 3563 2378 3509 2113 
L 3163 331 
L 3675 331 
L 3613 0 
L 2522 0 
L 2897 1931 
Q 2959 2253 2959 2469 
Q 2959 2659 2909 2769 
Q 2803 2994 2425 2994 
Q 2025 2994 1759 2701 
Q 1494 2409 1384 1850 
L 1025 0 
L 450 0 
z
" transform="scale(0.015625)"/>
      <path id="DejaVuSerif-Italic-73" d="M 222 959 
L 553 959 
Q 541 869 541 788 
Q 541 219 1313 219 
Q 2088 219 2200 788 
Q 2209 844 2209 944 
Q 2209 1041 2103 1158 
Q 1997 1275 1550 1428 
L 1159 1569 
Q 759 1706 629 1882 
Q 500 2059 500 2263 
Q 500 2344 516 2438 
Q 606 2894 990 3153 
Q 1375 3413 1931 3413 
Q 2484 3413 3066 3144 
L 2925 2419 
L 2594 2419 
Q 2606 2491 2606 2553 
Q 2606 2781 2448 2942 
Q 2291 3103 1925 3103 
Q 1191 3103 1091 2591 
Q 1078 2538 1078 2444 
Q 1078 2347 1179 2237 
Q 1281 2128 1678 1997 
L 2106 1856 
Q 2550 1709 2716 1488 
Q 2831 1331 2831 1178 
Q 2831 522 2306 181 
Q 1894 -91 1262 -91 
Q 631 -91 72 184 
L 222 959 
z
" transform="scale(0.015625)"/>
      <path id="DejaVuSerif-Italic-6f" d="M 1644 219 
Q 2106 219 2414 584 
Q 2722 950 2859 1663 
Q 2922 1988 2922 2241 
Q 2922 2541 2834 2738 
Q 2669 3103 2206 3103 
Q 1744 3103 1436 2739 
Q 1128 2375 991 1663 
Q 928 1338 928 1088 
Q 928 784 1019 584 
Q 1184 219 1644 219 
z
M 1584 -91 
Q 859 -91 513 388 
Q 272 722 272 1203 
Q 272 1419 319 1663 
Q 472 2456 1005 2934 
Q 1538 3413 2266 3413 
Q 2994 3413 3341 2934 
Q 3578 2603 3578 2122 
Q 3578 1906 3531 1663 
Q 3378 869 2845 389 
Q 2313 -91 1584 -91 
z
" transform="scale(0.015625)"/>
     </defs>
     <use xlink:href="#DejaVuSerif-Italic-4d"/>
     <use xlink:href="#DejaVuSerif-Italic-65" x="102.392578"/>
     <use xlink:href="#DejaVuSerif-Italic-74" x="161.572266"/>
     <use xlink:href="#DejaVuSerif-Italic-61" x="201.757812"/>
     <use xlink:href="#DejaVuSerif-Italic-64" x="261.376953"/>
     <use xlink:href="#DejaVuSerif-Italic-61" x="325.390625"/>
     <use xlink:href="#DejaVuSerif-Italic-74" x="385.009766"/>
     <use xlink:href="#DejaVuSerif-Italic-61" x="425.195312"/>
     <use xlink:href="#DejaVuSerif-Italic-20" x="484.814453"/>
     <use xlink:href="#DejaVuSerif-Italic-51" x="516.601562"/>
     <use xlink:href="#DejaVuSerif-Italic-75" x="598.583984"/>
     <use xlink:href="#DejaVuSerif-Italic-61" x="662.988281"/>
     <use xlink:href="#DejaVuSerif-Italic-6c" x="722.607422"/>
     <use xlink:href="#DejaVuSerif-Italic-69" x="754.589844"/>
     <use xlink:href="#DejaVuSerif-Italic-74" x="786.572266"/>
     <use xlink:href="#DejaVuSerif-Italic-79" x="826.757812"/>
     <use xlink:href="#DejaVuSerif-Italic-20" x="883.251953"/>
     <use xlink:href="#DejaVuSerif-Italic-44" x="915.039062"/>
     <use xlink:href="#DejaVuSerif-Italic-69" x="995.214844"/>
     <use xlink:href="#DejaVuSerif-Italic-6d" x="1027.197266"/>
     <use xlink:href="#DejaVuSerif-Italic-65" x="1122.021484"/>
     <use xlink:href="#DejaVuSerif-Italic-6e" x="1181.201172"/>
     <use xlink:href="#DejaVuSerif-Italic-73" x="1245.605469"/>
     <use xlink:href="#DejaVuSerif-Italic-69" x="1296.923828"/>
     <use xlink:href="#DejaVuSerif-Italic-6f" x="1328.90625"/>
     <use xlink:href="#DejaVuSerif-Italic-6e" x="1389.111328"/>
     <use xlink:href="#DejaVuSerif-Italic-73" x="1453.515625"/>
    </g>
   </g>
   <g id="text_2">
    <!-- Completeness -->
    <g style="fill: #ffffff" transform="translate(131.017625 124.004965) scale(0.13 -0.13)">
     <defs>
      <path id="DejaVuSerif-Bold-43" d="M 4769 1331 
Q 4584 609 4106 259 
Q 3628 -91 2822 -91 
Q 1641 -91 955 561 
Q 269 1213 269 2328 
Q 269 3447 955 4098 
Q 1641 4750 2822 4750 
Q 3238 4750 3688 4650 
Q 4138 4550 4641 4347 
L 4641 3200 
L 4244 3200 
Q 4122 3788 3800 4080 
Q 3478 4372 2950 4372 
Q 2269 4372 1937 3870 
Q 1606 3369 1606 2328 
Q 1606 1288 1937 788 
Q 2269 288 2956 288 
Q 3422 288 3717 547 
Q 4013 806 4147 1331 
L 4769 1331 
z
" transform="scale(0.015625)"/>
      <path id="DejaVuSerif-Bold-6f" d="M 2138 263 
Q 2488 263 2630 563 
Q 2772 863 2772 1663 
Q 2772 2463 2631 2761 
Q 2491 3059 2138 3059 
Q 1784 3059 1640 2757 
Q 1497 2456 1497 1663 
Q 1497 869 1640 566 
Q 1784 263 2138 263 
z
M 2138 -91 
Q 1259 -91 761 376 
Q 263 844 263 1663 
Q 263 2484 761 2948 
Q 1259 3413 2138 3413 
Q 3019 3413 3516 2948 
Q 4013 2484 4013 1663 
Q 4013 844 3514 376 
Q 3016 -91 2138 -91 
z
" transform="scale(0.015625)"/>
      <path id="DejaVuSerif-Bold-6d" d="M 3884 2778 
Q 4116 3109 4384 3261 
Q 4653 3413 5013 3413 
Q 5584 3413 5867 3089 
Q 6150 2766 6150 2113 
L 6150 378 
L 6625 378 
L 6625 0 
L 4647 0 
L 4647 378 
L 5044 378 
L 5044 1947 
Q 5044 2569 4948 2731 
Q 4853 2894 4594 2894 
Q 4300 2894 4137 2667 
Q 3975 2441 3975 2022 
L 3975 378 
L 4372 378 
L 4372 0 
L 2472 0 
L 2472 378 
L 2869 378 
L 2869 1947 
Q 2869 2569 2772 2731 
Q 2675 2894 2419 2894 
Q 2122 2894 1959 2667 
Q 1797 2441 1797 2022 
L 1797 378 
L 2194 378 
L 2194 0 
L 219 0 
L 219 378 
L 691 378 
L 691 2944 
L 219 2944 
L 219 3322 
L 1797 3322 
L 1797 2853 
Q 1991 3144 2241 3278 
Q 2491 3413 2834 3413 
Q 3241 3413 3494 3258 
Q 3747 3103 3884 2778 
z
" transform="scale(0.015625)"/>
      <path id="DejaVuSerif-Bold-70" d="M 1728 1825 
L 1728 1497 
Q 1728 916 1876 656 
Q 2025 397 2356 397 
Q 2697 397 2836 672 
Q 2975 947 2975 1663 
Q 2975 2378 2836 2651 
Q 2697 2925 2356 2925 
Q 2025 2925 1876 2665 
Q 1728 2406 1728 1825 
z
M 622 2944 
L 147 2944 
L 147 3322 
L 1728 3322 
L 1728 2900 
Q 1869 3159 2106 3286 
Q 2344 3413 2694 3413 
Q 3403 3413 3811 2945 
Q 4219 2478 4219 1663 
Q 4219 847 3811 378 
Q 3403 -91 2694 -91 
Q 2344 -91 2106 36 
Q 1869 163 1728 422 
L 1728 -953 
L 2241 -953 
L 2241 -1331 
L 147 -1331 
L 147 -953 
L 622 -953 
L 622 2944 
z
" transform="scale(0.015625)"/>
      <path id="DejaVuSerif-Bold-6c" d="M 1797 378 
L 2272 378 
L 2272 0 
L 219 0 
L 219 378 
L 691 378 
L 691 4488 
L 219 4488 
L 219 4863 
L 1797 4863 
L 1797 378 
z
" transform="scale(0.015625)"/>
      <path id="DejaVuSerif-Bold-65" d="M 2566 1875 
Q 2566 2531 2444 2795 
Q 2322 3059 2028 3059 
Q 1744 3059 1620 2800 
Q 1497 2541 1497 1931 
L 1497 1875 
L 2566 1875 
z
M 3781 1503 
L 1497 1503 
L 1497 1478 
Q 1497 834 1690 548 
Q 1884 263 2316 263 
Q 2675 263 2897 453 
Q 3119 644 3181 1006 
L 3700 1006 
Q 3566 441 3166 175 
Q 2766 -91 2047 -91 
Q 1184 -91 723 364 
Q 263 819 263 1663 
Q 263 2488 734 2950 
Q 1206 3413 2047 3413 
Q 2872 3413 3312 2927 
Q 3753 2441 3781 1503 
z
" transform="scale(0.015625)"/>
      <path id="DejaVuSerif-Bold-74" d="M 634 2944 
L 153 2944 
L 153 3322 
L 634 3322 
L 634 4353 
L 1741 4353 
L 1741 3322 
L 2663 3322 
L 2663 2944 
L 1741 2944 
L 1741 909 
Q 1741 475 1809 369 
Q 1878 263 2059 263 
Q 2259 263 2356 397 
Q 2453 531 2459 813 
L 2925 813 
Q 2897 313 2651 111 
Q 2406 -91 1806 -91 
Q 1122 -91 878 123 
Q 634 338 634 909 
L 634 2944 
z
" transform="scale(0.015625)"/>
      <path id="DejaVuSerif-Bold-6e" d="M 219 0 
L 219 378 
L 691 378 
L 691 2944 
L 219 2944 
L 219 3322 
L 1797 3322 
L 1797 2853 
Q 1997 3150 2253 3281 
Q 2509 3413 2900 3413 
Q 3459 3413 3745 3083 
Q 4031 2753 4031 2113 
L 4031 378 
L 4506 378 
L 4506 0 
L 2522 0 
L 2522 378 
L 2925 378 
L 2925 2144 
Q 2925 2566 2817 2730 
Q 2709 2894 2444 2894 
Q 2109 2894 1953 2648 
Q 1797 2403 1797 1869 
L 1797 378 
L 2203 378 
L 2203 0 
L 219 0 
z
" transform="scale(0.015625)"/>
      <path id="DejaVuSerif-Bold-73" d="M 300 97 
L 300 1025 
L 653 1025 
Q 697 653 931 458 
Q 1166 263 1569 263 
Q 1906 263 2086 380 
Q 2266 497 2266 716 
Q 2266 916 2152 1025 
Q 2038 1134 1709 1216 
L 1253 1331 
Q 738 1459 506 1698 
Q 275 1938 275 2344 
Q 275 2884 650 3148 
Q 1025 3413 1806 3413 
Q 2100 3413 2433 3364 
Q 2766 3316 3169 3213 
L 3169 2375 
L 2816 2375 
Q 2788 2716 2573 2887 
Q 2359 3059 1959 3059 
Q 1622 3059 1448 2951 
Q 1275 2844 1275 2638 
Q 1275 2469 1375 2372 
Q 1475 2275 1734 2209 
L 2188 2094 
Q 2841 1928 3091 1684 
Q 3341 1441 3341 1006 
Q 3341 444 2939 176 
Q 2538 -91 1691 -91 
Q 1381 -91 1034 -44 
Q 688 3 300 97 
z
" transform="scale(0.015625)"/>
     </defs>
     <use xlink:href="#DejaVuSerif-Bold-43"/>
     <use xlink:href="#DejaVuSerif-Bold-6f" x="79.589844"/>
     <use xlink:href="#DejaVuSerif-Bold-6d" x="146.289062"/>
     <use xlink:href="#DejaVuSerif-Bold-70" x="252.099609"/>
     <use xlink:href="#DejaVuSerif-Bold-6c" x="322.021484"/>
     <use xlink:href="#DejaVuSerif-Bold-65" x="360.009766"/>
     <use xlink:href="#DejaVuSerif-Bold-74" x="423.632812"/>
     <use xlink:href="#DejaVuSerif-Bold-65" x="469.824219"/>
     <use xlink:href="#DejaVuSerif-Bold-6e" x="533.447266"/>
     <use xlink:href="#DejaVuSerif-Bold-65" x="606.152344"/>
     <use xlink:href="#DejaVuSerif-Bold-73" x="669.775391"/>
     <use xlink:href="#DejaVuSerif-Bold-73" x="726.074219"/>
    </g>
   </g>
   <g id="text_3">
    <!-- Accuracy -->
    <g style="fill: #ffffff" transform="translate(315.567438 123.820122) scale(0.13 -0.13)">
     <defs>
      <path id="DejaVuSerif-Bold-41" d="M -50 0 
L -50 378 
L 331 378 
L 2088 4666 
L 2834 4666 
L 4594 378 
L 5038 378 
L 5038 0 
L 2853 0 
L 2853 378 
L 3309 378 
L 2925 1331 
L 1172 1331 
L 781 378 
L 1338 378 
L 1338 0 
L -50 0 
z
M 1325 1709 
L 2772 1709 
L 2053 3494 
L 1325 1709 
z
" transform="scale(0.015625)"/>
      <path id="DejaVuSerif-Bold-63" d="M 3609 1038 
Q 3491 469 3123 189 
Q 2756 -91 2125 -91 
Q 1238 -91 750 368 
Q 263 828 263 1663 
Q 263 2488 744 2950 
Q 1225 3413 2081 3413 
Q 2428 3413 2781 3347 
Q 3134 3281 3500 3150 
L 3500 2228 
L 3150 2228 
Q 3100 2650 2903 2854 
Q 2706 3059 2350 3059 
Q 1888 3059 1692 2746 
Q 1497 2434 1497 1663 
Q 1497 909 1687 586 
Q 1878 263 2309 263 
Q 2644 263 2845 463 
Q 3047 663 3091 1038 
L 3609 1038 
z
" transform="scale(0.015625)"/>
      <path id="DejaVuSerif-Bold-75" d="M 3963 3322 
L 3963 378 
L 4434 378 
L 4434 0 
L 2853 0 
L 2853 469 
Q 2656 172 2400 40 
Q 2144 -91 1753 -91 
Q 1194 -91 908 239 
Q 622 569 622 1209 
L 622 2944 
L 147 2944 
L 147 3322 
L 1728 3322 
L 1728 1381 
Q 1728 763 1831 595 
Q 1934 428 2209 428 
Q 2544 428 2698 675 
Q 2853 922 2853 1459 
L 2853 2944 
L 2450 2944 
L 2450 3322 
L 3963 3322 
z
" transform="scale(0.015625)"/>
      <path id="DejaVuSerif-Bold-72" d="M 3438 3359 
L 3438 2369 
L 3084 2369 
Q 3066 2634 2941 2764 
Q 2816 2894 2578 2894 
Q 2216 2894 2006 2575 
Q 1797 2256 1797 1691 
L 1797 378 
L 2400 378 
L 2400 0 
L 219 0 
L 219 378 
L 691 378 
L 691 2944 
L 184 2944 
L 184 3322 
L 1797 3322 
L 1797 2731 
Q 1959 3078 2226 3245 
Q 2494 3413 2881 3413 
Q 2978 3413 3117 3398 
Q 3256 3384 3438 3359 
z
" transform="scale(0.015625)"/>
      <path id="DejaVuSerif-Bold-61" d="M 3525 2041 
L 3525 378 
L 4000 378 
L 4000 0 
L 2419 0 
L 2419 422 
Q 2200 159 1931 34 
Q 1663 -91 1319 -91 
Q 809 -91 536 182 
Q 263 456 263 966 
Q 263 1525 655 1803 
Q 1047 2081 1838 2081 
L 2419 2081 
L 2419 2278 
Q 2419 2681 2228 2873 
Q 2038 3066 1638 3066 
Q 1306 3066 1126 2930 
Q 947 2794 872 2484 
L 519 2484 
L 519 3200 
Q 816 3306 1134 3359 
Q 1453 3413 1806 3413 
Q 2697 3413 3111 3081 
Q 3525 2750 3525 2041 
z
M 2419 1044 
L 2419 1709 
L 2003 1709 
Q 1694 1709 1528 1540 
Q 1363 1372 1363 1056 
Q 1363 741 1483 584 
Q 1603 428 1850 428 
Q 2106 428 2262 597 
Q 2419 766 2419 1044 
z
" transform="scale(0.015625)"/>
      <path id="DejaVuSerif-Bold-79" d="M 1997 -750 
Q 1847 -1116 1634 -1269 
Q 1422 -1422 1063 -1422 
Q 909 -1422 721 -1387 
Q 534 -1353 313 -1288 
L 313 -594 
L 666 -597 
Q 675 -838 779 -953 
Q 884 -1069 1094 -1069 
Q 1297 -1069 1422 -958 
Q 1547 -847 1672 -538 
L 1722 -422 
L 275 2944 
L -84 2944 
L -84 3322 
L 1831 3322 
L 1831 2944 
L 1434 2944 
L 2278 978 
L 3066 2944 
L 2625 2944 
L 2625 3322 
L 3872 3322 
L 3872 2944 
L 3469 2944 
L 1997 -750 
z
" transform="scale(0.015625)"/>
     </defs>
     <use xlink:href="#DejaVuSerif-Bold-41"/>
     <use xlink:href="#DejaVuSerif-Bold-63" x="77.587891"/>
     <use xlink:href="#DejaVuSerif-Bold-63" x="138.476562"/>
     <use xlink:href="#DejaVuSerif-Bold-75" x="199.365234"/>
     <use xlink:href="#DejaVuSerif-Bold-72" x="272.070312"/>
     <use xlink:href="#DejaVuSerif-Bold-61" x="324.755859"/>
     <use xlink:href="#DejaVuSerif-Bold-63" x="389.550781"/>
     <use xlink:href="#DejaVuSerif-Bold-79" x="450.439453"/>
    </g>
   </g>
   <g id="text_4">
    <!-- Consistency -->
    <g style="fill: #ffffff" transform="translate(471.754906 123.912543) scale(0.13 -0.13)">
     <defs>
      <path id="DejaVuSerif-Bold-69" d="M 588 4263 
Q 588 4516 763 4689 
Q 938 4863 1191 4863 
Q 1438 4863 1611 4689 
Q 1784 4516 1784 4263 
Q 1784 4016 1611 3842 
Q 1438 3669 1191 3669 
Q 938 3669 763 3841 
Q 588 4013 588 4263 
z
M 1797 378 
L 2272 378 
L 2272 0 
L 219 0 
L 219 378 
L 691 378 
L 691 2944 
L 219 2944 
L 219 3322 
L 1797 3322 
L 1797 378 
z
" transform="scale(0.015625)"/>
     </defs>
     <use xlink:href="#DejaVuSerif-Bold-43"/>
     <use xlink:href="#DejaVuSerif-Bold-6f" x="79.589844"/>
     <use xlink:href="#DejaVuSerif-Bold-6e" x="146.289062"/>
     <use xlink:href="#DejaVuSerif-Bold-73" x="218.994141"/>
     <use xlink:href="#DejaVuSerif-Bold-69" x="275.292969"/>
     <use xlink:href="#DejaVuSerif-Bold-73" x="313.28125"/>
     <use xlink:href="#DejaVuSerif-Bold-74" x="369.580078"/>
     <use xlink:href="#DejaVuSerif-Bold-65" x="415.771484"/>
     <use xlink:href="#DejaVuSerif-Bold-6e" x="479.394531"/>
     <use xlink:href="#DejaVuSerif-Bold-63" x="552.099609"/>
     <use xlink:href="#DejaVuSerif-Bold-79" x="612.988281"/>
    </g>
   </g>
   <g id="text_5">
    <!-- Timeliness -->
    <g style="fill: #ffffff" transform="translate(642.690266 124.004965) scale(0.13 -0.13)">
     <defs>
      <path id="DejaVuSerif-Bold-54" d="M 1159 0 
L 1159 378 
L 1778 378 
L 1778 4238 
L 500 4238 
L 500 3500 
L 72 3500 
L 72 4666 
L 4697 4666 
L 4697 3500 
L 4275 3500 
L 4275 4238 
L 2988 4238 
L 2988 378 
L 3609 378 
L 3609 0 
L 1159 0 
z
" transform="scale(0.015625)"/>
     </defs>
     <use xlink:href="#DejaVuSerif-Bold-54"/>
     <use xlink:href="#DejaVuSerif-Bold-69" x="74.414062"/>
     <use xlink:href="#DejaVuSerif-Bold-6d" x="112.402344"/>
     <use xlink:href="#DejaVuSerif-Bold-65" x="218.212891"/>
     <use xlink:href="#DejaVuSerif-Bold-6c" x="281.835938"/>
     <use xlink:href="#DejaVuSerif-Bold-69" x="319.824219"/>
     <use xlink:href="#DejaVuSerif-Bold-6e" x="357.8125"/>
     <use xlink:href="#DejaVuSerif-Bold-65" x="430.517578"/>
     <use xlink:href="#DejaVuSerif-Bold-73" x="494.140625"/>
     <use xlink:href="#DejaVuSerif-Bold-73" x="550.439453"/>
    </g>
   </g>
   <g id="patch_19">
    <path d="M 432 206.086316 
Q 432 182.51674 432 161.183232 
" style="fill: none; stroke: #666666; stroke-width: 2; stroke-linecap: round"/>
    <path d="M 429.2 166.783232 
L 432 161.183232 
L 434.8 166.783232 
" style="fill: none; stroke: #666666; stroke-width: 2; stroke-linecap: round"/>
   </g>
   <g id="text_6">
    <!-- Quantitative Metrics -->
    <g style="fill: #808080" transform="translate(374.200156 211.122424) scale(0.11 -0.11)">
     <defs>
      <path id="DejaVuSerif-Italic-76" d="M 1681 0 
L 1259 0 
L 619 2988 
L 241 2988 
L 303 3322 
L 1163 3322 
L 1725 703 
Q 2084 1016 2325 1413 
Q 2825 2238 3003 2988 
L 2622 2988 
L 2688 3322 
L 3547 3322 
Q 3206 2034 2775 1313 
Q 2400 688 1681 0 
z
" transform="scale(0.015625)"/>
      <path id="DejaVuSerif-Italic-72" d="M 3375 3328 
L 3213 2497 
L 2881 2497 
Q 2891 2559 2891 2613 
Q 2891 2775 2816 2866 
Q 2719 2988 2484 2988 
Q 2059 2988 1775 2694 
Q 1491 2400 1384 1850 
L 1025 0 
L 450 0 
L 1031 2994 
L 481 2994 
L 544 3322 
L 1669 3322 
L 1556 2731 
Q 1791 3078 2089 3245 
Q 2388 3413 2769 3413 
Q 2909 3413 3059 3391 
Q 3209 3369 3375 3328 
z
" transform="scale(0.015625)"/>
      <path id="DejaVuSerif-Italic-63" d="M 3163 997 
Q 2938 466 2536 187 
Q 2134 -91 1584 -91 
Q 859 -91 513 388 
Q 272 722 272 1203 
Q 272 1419 319 1663 
Q 475 2459 1008 2936 
Q 1541 3413 2266 3413 
Q 2581 3413 2879 3339 
Q 3178 3266 3463 3116 
L 3300 2266 
L 2966 2266 
Q 2966 2309 2966 2347 
Q 2966 2722 2803 2903 
Q 2622 3103 2213 3103 
Q 1747 3103 1439 2742 
Q 1131 2381 991 1663 
Q 928 1334 928 1078 
Q 928 778 1016 581 
Q 1181 219 1650 219 
Q 2022 219 2281 412 
Q 2541 606 2700 997 
L 3163 997 
z
" transform="scale(0.015625)"/>
     </defs>
     <use xlink:href="#DejaVuSerif-Italic-51"/>
     <use xlink:href="#DejaVuSerif-Italic-75" x="81.982422"/>
     <use xlink:href="#DejaVuSerif-Italic-61" x="146.386719"/>
     <use xlink:href="#DejaVuSerif-Italic-6e" x="206.005859"/>
     <use xlink:href="#DejaVuSerif-Italic-74" x="270.410156"/>
     <use xlink:href="#DejaVuSerif-Italic-69" x="310.595703"/>
     <use xlink:href="#DejaVuSerif-Italic-74" x="342.578125"/>
     <use xlink:href="#DejaVuSerif-Italic-61" x="382.763672"/>
     <use xlink:href="#DejaVuSerif-Italic-74" x="442.382812"/>
     <use xlink:href="#DejaVuSerif-Italic-69" x="482.568359"/>
     <use xlink:href="#DejaVuSerif-Italic-76" x="514.550781"/>
     <use xlink:href="#DejaVuSerif-Italic-65" x="571.044922"/>
     <use xlink:href="#DejaVuSerif-Italic-20" x="630.224609"/>
     <use xlink:href="#DejaVuSerif-Italic-4d" x="662.011719"/>
     <use xlink:href="#DejaVuSerif-Italic-65" x="764.404297"/>
     <use xlink:href="#DejaVuSerif-Italic-74" x="823.583984"/>
     <use xlink:href="#DejaVuSerif-Italic-72" x="863.769531"/>
     <use xlink:href="#DejaVuSerif-Italic-69" x="911.572266"/>
     <use xlink:href="#DejaVuSerif-Italic-63" x="943.554688"/>
     <use xlink:href="#DejaVuSerif-Italic-73" x="999.560547"/>
    </g>
   </g>
   <g id="text_7">
    <!-- Missing Values Ratio -->
    <g style="fill: #ffffff" transform="translate(105.405594 270.028099) scale(0.13 -0.13)">
     <defs>
      <path id="DejaVuSerif-Bold-4d" d="M 269 0 
L 269 378 
L 863 378 
L 863 4288 
L 269 4288 
L 269 4666 
L 2194 4666 
L 3525 1672 
L 4863 4666 
L 6784 4666 
L 6784 4288 
L 6188 4288 
L 6188 378 
L 6784 378 
L 6784 0 
L 4384 0 
L 4384 378 
L 4978 378 
L 4978 3938 
L 3531 684 
L 2741 684 
L 1300 3938 
L 1300 378 
L 1894 378 
L 1894 0 
L 269 0 
z
" transform="scale(0.015625)"/>
      <path id="DejaVuSerif-Bold-67" d="M 3853 2944 
L 3853 44 
Q 3853 -656 3354 -1039 
Q 2856 -1422 1947 -1422 
Q 1616 -1422 1275 -1370 
Q 934 -1319 575 -1216 
L 575 -422 
L 928 -422 
Q 975 -750 1192 -909 
Q 1409 -1069 1813 -1069 
Q 2325 -1069 2536 -823 
Q 2747 -578 2747 44 
L 2747 422 
Q 2606 163 2367 36 
Q 2128 -91 1778 -91 
Q 1072 -91 667 378 
Q 263 847 263 1663 
Q 263 2481 667 2947 
Q 1072 3413 1778 3413 
Q 2128 3413 2367 3286 
Q 2606 3159 2747 2900 
L 2747 3322 
L 4325 3322 
L 4325 2944 
L 3853 2944 
z
M 2747 1825 
Q 2747 2406 2597 2665 
Q 2447 2925 2119 2925 
Q 1775 2925 1636 2651 
Q 1497 2378 1497 1663 
Q 1497 947 1637 672 
Q 1778 397 2119 397 
Q 2447 397 2597 656 
Q 2747 916 2747 1497 
L 2747 1825 
z
" transform="scale(0.015625)"/>
      <path id="DejaVuSerif-Bold-20" transform="scale(0.015625)"/>
      <path id="DejaVuSerif-Bold-56" d="M 5056 4666 
L 5056 4288 
L 4666 4288 
L 2906 0 
L 2163 0 
L 403 4288 
L -38 4288 
L -38 4666 
L 2150 4666 
L 2150 4288 
L 1697 4288 
L 2956 1197 
L 4225 4288 
L 3669 4288 
L 3669 4666 
L 5056 4666 
z
" transform="scale(0.015625)"/>
      <path id="DejaVuSerif-Bold-52" d="M 3397 2278 
Q 3675 2238 3865 2094 
Q 4056 1950 4197 1678 
L 4878 378 
L 5356 378 
L 5356 0 
L 3822 0 
L 3078 1409 
Q 2863 1847 2711 1967 
Q 2559 2088 2291 2088 
L 2100 2088 
L 2100 378 
L 2700 378 
L 2700 0 
L 300 0 
L 300 378 
L 897 378 
L 897 4288 
L 300 4288 
L 300 4666 
L 2963 4666 
Q 3775 4666 4217 4339 
Q 4659 4013 4659 3413 
Q 4659 2925 4345 2642 
Q 4031 2359 3397 2278 
z
M 2100 2463 
L 2509 2463 
Q 2947 2463 3183 2700 
Q 3419 2938 3419 3378 
Q 3419 3819 3183 4053 
Q 2947 4288 2509 4288 
L 2100 4288 
L 2100 2463 
z
" transform="scale(0.015625)"/>
     </defs>
     <use xlink:href="#DejaVuSerif-Bold-4d"/>
     <use xlink:href="#DejaVuSerif-Bold-69" x="110.693359"/>
     <use xlink:href="#DejaVuSerif-Bold-73" x="148.681641"/>
     <use xlink:href="#DejaVuSerif-Bold-73" x="204.980469"/>
     <use xlink:href="#DejaVuSerif-Bold-69" x="261.279297"/>
     <use xlink:href="#DejaVuSerif-Bold-6e" x="299.267578"/>
     <use xlink:href="#DejaVuSerif-Bold-67" x="371.972656"/>
     <use xlink:href="#DejaVuSerif-Bold-20" x="441.894531"/>
     <use xlink:href="#DejaVuSerif-Bold-56" x="476.708984"/>
     <use xlink:href="#DejaVuSerif-Bold-61" x="545.171875"/>
     <use xlink:href="#DejaVuSerif-Bold-6c" x="609.966797"/>
     <use xlink:href="#DejaVuSerif-Bold-75" x="647.955078"/>
     <use xlink:href="#DejaVuSerif-Bold-65" x="720.660156"/>
     <use xlink:href="#DejaVuSerif-Bold-73" x="784.283203"/>
     <use xlink:href="#DejaVuSerif-Bold-20" x="840.582031"/>
     <use xlink:href="#DejaVuSerif-Bold-52" x="875.396484"/>
     <use xlink:href="#DejaVuSerif-Bold-61" x="960.751953"/>
     <use xlink:href="#DejaVuSerif-Bold-74" x="1025.546875"/>
     <use xlink:href="#DejaVuSerif-Bold-69" x="1071.738281"/>
     <use xlink:href="#DejaVuSerif-Bold-6f" x="1109.726562"/>
    </g>
   </g>
   <g id="text_8">
    <!-- Error Rate -->
    <g style="fill: #ffffff" transform="translate(309.899234 270.120521) scale(0.13 -0.13)">
     <defs>
      <path id="DejaVuSerif-Bold-45" d="M 300 0 
L 300 378 
L 897 378 
L 897 4288 
L 300 4288 
L 300 4666 
L 4494 4666 
L 4494 3566 
L 4063 3566 
L 4063 4238 
L 2100 4238 
L 2100 2741 
L 3322 2741 
L 3322 3334 
L 3750 3334 
L 3750 1722 
L 3322 1722 
L 3322 2316 
L 2100 2316 
L 2100 428 
L 4122 428 
L 4122 1100 
L 4550 1100 
L 4550 0 
L 300 0 
z
" transform="scale(0.015625)"/>
     </defs>
     <use xlink:href="#DejaVuSerif-Bold-45"/>
     <use xlink:href="#DejaVuSerif-Bold-72" x="76.220703"/>
     <use xlink:href="#DejaVuSerif-Bold-72" x="128.90625"/>
     <use xlink:href="#DejaVuSerif-Bold-6f" x="181.591797"/>
     <use xlink:href="#DejaVuSerif-Bold-72" x="248.291016"/>
     <use xlink:href="#DejaVuSerif-Bold-20" x="300.976562"/>
     <use xlink:href="#DejaVuSerif-Bold-52" x="335.791016"/>
     <use xlink:href="#DejaVuSerif-Bold-61" x="421.146484"/>
     <use xlink:href="#DejaVuSerif-Bold-74" x="485.941406"/>
     <use xlink:href="#DejaVuSerif-Bold-65" x="532.132812"/>
    </g>
   </g>
   <g id="text_9">
    <!-- Conflict Rate -->
    <g style="fill: #ffffff" transform="translate(467.286156 270.120521) scale(0.13 -0.13)">
     <defs>
      <path id="DejaVuSerif-Bold-66" d="M 3097 4031 
L 2747 4031 
Q 2722 4275 2605 4394 
Q 2488 4513 2272 4513 
Q 2022 4513 1909 4333 
Q 1797 4153 1797 3750 
L 1797 3322 
L 2631 3322 
L 2631 2944 
L 1797 2944 
L 1797 378 
L 2438 378 
L 2438 0 
L 219 0 
L 219 378 
L 691 378 
L 691 2944 
L 197 2944 
L 197 3322 
L 691 3322 
L 691 3738 
Q 691 4291 1044 4577 
Q 1397 4863 2081 4863 
Q 2347 4863 2600 4833 
Q 2853 4803 3097 4744 
L 3097 4031 
z
" transform="scale(0.015625)"/>
     </defs>
     <use xlink:href="#DejaVuSerif-Bold-43"/>
     <use xlink:href="#DejaVuSerif-Bold-6f" x="79.589844"/>
     <use xlink:href="#DejaVuSerif-Bold-6e" x="146.289062"/>
     <use xlink:href="#DejaVuSerif-Bold-66" x="218.994141"/>
     <use xlink:href="#DejaVuSerif-Bold-6c" x="262.011719"/>
     <use xlink:href="#DejaVuSerif-Bold-69" x="300"/>
     <use xlink:href="#DejaVuSerif-Bold-63" x="337.988281"/>
     <use xlink:href="#DejaVuSerif-Bold-74" x="398.876953"/>
     <use xlink:href="#DejaVuSerif-Bold-20" x="445.068359"/>
     <use xlink:href="#DejaVuSerif-Bold-52" x="479.882812"/>
     <use xlink:href="#DejaVuSerif-Bold-61" x="565.238281"/>
     <use xlink:href="#DejaVuSerif-Bold-74" x="630.033203"/>
     <use xlink:href="#DejaVuSerif-Bold-65" x="676.224609"/>
    </g>
   </g>
   <g id="text_10">
    <!-- Update Frequency -->
    <g style="fill: #ffffff" transform="translate(615.829016 270.028099) scale(0.13 -0.13)">
     <defs>
      <path id="DejaVuSerif-Bold-55" d="M 813 4288 
L 219 4288 
L 219 4666 
L 2619 4666 
L 2619 4288 
L 2022 4288 
L 2022 1953 
Q 2022 1081 2294 732 
Q 2566 384 3225 384 
Q 3869 384 4139 736 
Q 4409 1088 4409 1953 
L 4409 4288 
L 3816 4288 
L 3816 4666 
L 5441 4666 
L 5441 4288 
L 4844 4288 
L 4844 1888 
Q 4844 819 4381 364 
Q 3919 -91 2828 -91 
Q 1744 -91 1278 368 
Q 813 828 813 1894 
L 813 4288 
z
" transform="scale(0.015625)"/>
      <path id="DejaVuSerif-Bold-64" d="M 2747 1497 
L 2747 1825 
Q 2747 2406 2597 2665 
Q 2447 2925 2119 2925 
Q 1775 2925 1636 2651 
Q 1497 2378 1497 1663 
Q 1497 947 1637 672 
Q 1778 397 2119 397 
Q 2447 397 2597 656 
Q 2747 916 2747 1497 
z
M 3853 378 
L 4325 378 
L 4325 0 
L 2747 0 
L 2747 422 
Q 2606 163 2367 36 
Q 2128 -91 1778 -91 
Q 1072 -91 667 378 
Q 263 847 263 1663 
Q 263 2481 667 2947 
Q 1072 3413 1778 3413 
Q 2128 3413 2367 3286 
Q 2606 3159 2747 2900 
L 2747 4488 
L 2272 4488 
L 2272 4863 
L 3853 4863 
L 3853 378 
z
" transform="scale(0.015625)"/>
      <path id="DejaVuSerif-Bold-46" d="M 300 0 
L 300 378 
L 897 378 
L 897 4288 
L 300 4288 
L 300 4666 
L 4459 4666 
L 4459 3566 
L 4031 3566 
L 4031 4238 
L 2106 4238 
L 2106 2741 
L 3291 2741 
L 3291 3334 
L 3719 3334 
L 3719 1722 
L 3291 1722 
L 3291 2316 
L 2106 2316 
L 2106 378 
L 2841 378 
L 2841 0 
L 300 0 
z
" transform="scale(0.015625)"/>
      <path id="DejaVuSerif-Bold-71" d="M 3853 2944 
L 3853 -953 
L 4325 -953 
L 4325 -1331 
L 2234 -1331 
L 2234 -953 
L 2747 -953 
L 2747 422 
Q 2606 163 2367 36 
Q 2128 -91 1778 -91 
Q 1072 -91 667 378 
Q 263 847 263 1663 
Q 263 2481 667 2947 
Q 1072 3413 1778 3413 
Q 2128 3413 2367 3286 
Q 2606 3159 2747 2900 
L 2747 3322 
L 4325 3322 
L 4325 2944 
L 3853 2944 
z
M 2747 1825 
Q 2747 2406 2597 2665 
Q 2447 2925 2119 2925 
Q 1775 2925 1636 2651 
Q 1497 2378 1497 1663 
Q 1497 947 1637 672 
Q 1778 397 2119 397 
Q 2447 397 2597 656 
Q 2747 916 2747 1497 
L 2747 1825 
z
" transform="scale(0.015625)"/>
     </defs>
     <use xlink:href="#DejaVuSerif-Bold-55"/>
     <use xlink:href="#DejaVuSerif-Bold-70" x="87.207031"/>
     <use xlink:href="#DejaVuSerif-Bold-64" x="157.128906"/>
     <use xlink:href="#DejaVuSerif-Bold-61" x="227.050781"/>
     <use xlink:href="#DejaVuSerif-Bold-74" x="291.845703"/>
     <use xlink:href="#DejaVuSerif-Bold-65" x="338.037109"/>
     <use xlink:href="#DejaVuSerif-Bold-20" x="401.660156"/>
     <use xlink:href="#DejaVuSerif-Bold-46" x="436.474609"/>
     <use xlink:href="#DejaVuSerif-Bold-72" x="505.720703"/>
     <use xlink:href="#DejaVuSerif-Bold-65" x="558.40625"/>
     <use xlink:href="#DejaVuSerif-Bold-71" x="622.029297"/>
     <use xlink:href="#DejaVuSerif-Bold-75" x="691.951172"/>
     <use xlink:href="#DejaVuSerif-Bold-65" x="764.65625"/>
     <use xlink:href="#DejaVuSerif-Bold-6e" x="828.279297"/>
     <use xlink:href="#DejaVuSerif-Bold-63" x="900.984375"/>
     <use xlink:href="#DejaVuSerif-Bold-79" x="961.873047"/>
    </g>
   </g>
   <g id="patch_20">
    <path d="M 432 352.201872 
Q 432 328.632296 432 307.298787 
" style="fill: none; stroke: #666666; stroke-width: 2; stroke-linecap: round"/>
    <path d="M 429.2 312.898787 
L 432 307.298787 
L 434.8 312.898787 
" style="fill: none; stroke: #666666; stroke-width: 2; stroke-linecap: round"/>
   </g>
   <g id="text_11">
    <!-- Academic Databases -->
    <g style="fill: #808080" transform="translate(374.211328 357.237979) scale(0.11 -0.11)">
     <defs>
      <path id="DejaVuSerif-Italic-41" d="M 1159 1691 
L 2872 1691 
L 2447 3909 
L 1159 1691 
z
M -488 0 
L -425 331 
L -16 331 
L 2491 4666 
L 3016 4666 
L 3841 331 
L 4297 331 
L 4234 0 
L 2538 0 
L 2600 331 
L 3119 331 
L 2928 1356 
L 966 1356 
L 375 331 
L 888 331 
L 825 0 
L -488 0 
z
" transform="scale(0.015625)"/>
      <path id="DejaVuSerif-Italic-62" d="M 1153 4531 
L 600 4531 
L 666 4863 
L 1794 4863 
L 1394 2803 
Q 1622 3116 1912 3264 
Q 2203 3413 2588 3413 
Q 3200 3413 3494 2928 
Q 3688 2609 3688 2163 
Q 3688 1928 3634 1663 
Q 3481 881 3000 395 
Q 2519 -91 1906 -91 
Q 1522 -91 1289 57 
Q 1056 206 950 519 
L 850 0 
L 275 0 
L 1153 4531 
z
M 1141 1497 
Q 1091 1250 1091 1053 
Q 1091 769 1191 581 
Q 1359 269 1797 269 
Q 2238 269 2533 622 
Q 2828 975 2963 1663 
Q 3025 1978 3025 2225 
Q 3025 2513 2938 2703 
Q 2781 3053 2338 3053 
Q 1900 3053 1609 2737 
Q 1319 2422 1203 1825 
L 1141 1497 
z
" transform="scale(0.015625)"/>
     </defs>
     <use xlink:href="#DejaVuSerif-Italic-41"/>
     <use xlink:href="#DejaVuSerif-Italic-63" x="72.216797"/>
     <use xlink:href="#DejaVuSerif-Italic-61" x="128.222656"/>
     <use xlink:href="#DejaVuSerif-Italic-64" x="187.841797"/>
     <use xlink:href="#DejaVuSerif-Italic-65" x="251.855469"/>
     <use xlink:href="#DejaVuSerif-Italic-6d" x="311.035156"/>
     <use xlink:href="#DejaVuSerif-Italic-69" x="405.859375"/>
     <use xlink:href="#DejaVuSerif-Italic-63" x="437.841797"/>
     <use xlink:href="#DejaVuSerif-Italic-20" x="493.847656"/>
     <use xlink:href="#DejaVuSerif-Italic-44" x="525.634766"/>
     <use xlink:href="#DejaVuSerif-Italic-61" x="605.810547"/>
     <use xlink:href="#DejaVuSerif-Italic-74" x="665.429688"/>
     <use xlink:href="#DejaVuSerif-Italic-61" x="705.615234"/>
     <use xlink:href="#DejaVuSerif-Italic-62" x="765.234375"/>
     <use xlink:href="#DejaVuSerif-Italic-61" x="829.248047"/>
     <use xlink:href="#DejaVuSerif-Italic-73" x="888.867188"/>
     <use xlink:href="#DejaVuSerif-Italic-65" x="940.185547"/>
     <use xlink:href="#DejaVuSerif-Italic-73" x="999.365234"/>
    </g>
   </g>
   <g id="text_12">
    <!-- Web of Science -->
    <g style="fill: #ffffff" transform="translate(126.685984 416.236076) scale(0.13 -0.13)">
     <defs>
      <path id="DejaVuSerif-Bold-57" d="M 5453 0 
L 4647 0 
L 3591 3397 
L 2534 0 
L 1728 0 
L 397 4288 
L -56 4288 
L -56 4666 
L 2156 4666 
L 2156 4288 
L 1656 4288 
L 2547 1422 
L 3553 4666 
L 4441 4666 
L 5466 1369 
L 6375 4288 
L 5819 4288 
L 5819 4666 
L 7263 4666 
L 7263 4288 
L 6784 4288 
L 5453 0 
z
" transform="scale(0.015625)"/>
      <path id="DejaVuSerif-Bold-62" d="M 622 378 
L 622 4488 
L 147 4488 
L 147 4863 
L 1728 4863 
L 1728 2900 
Q 1869 3159 2106 3286 
Q 2344 3413 2694 3413 
Q 3403 3413 3811 2945 
Q 4219 2478 4219 1663 
Q 4219 847 3811 378 
Q 3403 -91 2694 -91 
Q 2344 -91 2106 36 
Q 1869 163 1728 422 
L 1728 0 
L 147 0 
L 147 378 
L 622 378 
z
M 1728 1497 
Q 1728 916 1876 656 
Q 2025 397 2356 397 
Q 2697 397 2836 672 
Q 2975 947 2975 1663 
Q 2975 2378 2836 2651 
Q 2697 2925 2356 2925 
Q 2025 2925 1876 2665 
Q 1728 2406 1728 1825 
L 1728 1497 
z
" transform="scale(0.015625)"/>
      <path id="DejaVuSerif-Bold-53" d="M 494 225 
L 494 1331 
L 891 1331 
Q 981 806 1318 547 
Q 1656 288 2253 288 
Q 2738 288 2991 472 
Q 3244 656 3244 1013 
Q 3244 1294 3072 1450 
Q 2900 1606 2363 1741 
L 1663 1913 
Q 978 2088 700 2398 
Q 422 2709 422 3284 
Q 422 3978 883 4364 
Q 1344 4750 2175 4750 
Q 2584 4750 3026 4681 
Q 3469 4613 3944 4475 
L 3944 3444 
L 3547 3444 
Q 3456 3925 3150 4148 
Q 2844 4372 2278 4372 
Q 1816 4372 1580 4211 
Q 1344 4050 1344 3731 
Q 1344 3441 1506 3289 
Q 1669 3138 2303 2975 
L 3003 2803 
Q 3653 2641 3945 2297 
Q 4238 1953 4238 1350 
Q 4238 644 3750 276 
Q 3263 -91 2316 -91 
Q 1859 -91 1409 -12 
Q 959 66 494 225 
z
" transform="scale(0.015625)"/>
     </defs>
     <use xlink:href="#DejaVuSerif-Bold-57"/>
     <use xlink:href="#DejaVuSerif-Bold-65" x="104.179688"/>
     <use xlink:href="#DejaVuSerif-Bold-62" x="167.802734"/>
     <use xlink:href="#DejaVuSerif-Bold-20" x="237.724609"/>
     <use xlink:href="#DejaVuSerif-Bold-6f" x="272.539062"/>
     <use xlink:href="#DejaVuSerif-Bold-66" x="339.238281"/>
     <use xlink:href="#DejaVuSerif-Bold-20" x="382.255859"/>
     <use xlink:href="#DejaVuSerif-Bold-53" x="417.070312"/>
     <use xlink:href="#DejaVuSerif-Bold-63" x="489.287109"/>
     <use xlink:href="#DejaVuSerif-Bold-69" x="550.175781"/>
     <use xlink:href="#DejaVuSerif-Bold-65" x="588.164062"/>
     <use xlink:href="#DejaVuSerif-Bold-6e" x="651.787109"/>
     <use xlink:href="#DejaVuSerif-Bold-63" x="724.492188"/>
     <use xlink:href="#DejaVuSerif-Bold-65" x="785.380859"/>
    </g>
   </g>
   <g id="text_13">
    <!-- Scopus -->
    <g style="fill: #ffffff" transform="translate(322.706266 416.236076) scale(0.13 -0.13)">
     <use xlink:href="#DejaVuSerif-Bold-53"/>
     <use xlink:href="#DejaVuSerif-Bold-63" x="72.216797"/>
     <use xlink:href="#DejaVuSerif-Bold-6f" x="133.105469"/>
     <use xlink:href="#DejaVuSerif-Bold-70" x="199.804688"/>
     <use xlink:href="#DejaVuSerif-Bold-75" x="269.726562"/>
     <use xlink:href="#DejaVuSerif-Bold-73" x="342.431641"/>
    </g>
   </g>
   <g id="text_14">
    <!-- PubMed -->
    <g style="fill: #ffffff" transform="translate(485.341937 416.236076) scale(0.13 -0.13)">
     <defs>
      <path id="DejaVuSerif-Bold-50" d="M 300 0 
L 300 378 
L 897 378 
L 897 4288 
L 300 4288 
L 300 4666 
L 2956 4666 
Q 3734 4666 4193 4295 
Q 4653 3925 4653 3303 
Q 4653 2678 4192 2304 
Q 3731 1931 2956 1931 
L 2100 1931 
L 2100 378 
L 2853 378 
L 2853 0 
L 300 0 
z
M 2100 2309 
L 2450 2309 
Q 2856 2309 3098 2579 
Q 3341 2850 3341 3303 
Q 3341 3753 3100 4020 
Q 2859 4288 2450 4288 
L 2100 4288 
L 2100 2309 
z
" transform="scale(0.015625)"/>
     </defs>
     <use xlink:href="#DejaVuSerif-Bold-50"/>
     <use xlink:href="#DejaVuSerif-Bold-75" x="75.195312"/>
     <use xlink:href="#DejaVuSerif-Bold-62" x="147.900391"/>
     <use xlink:href="#DejaVuSerif-Bold-4d" x="217.822266"/>
     <use xlink:href="#DejaVuSerif-Bold-65" x="328.515625"/>
     <use xlink:href="#DejaVuSerif-Bold-64" x="392.138672"/>
    </g>
   </g>
   <g id="text_15">
    <!-- Google Scholar -->
    <g style="fill: #ffffff" transform="translate(626.673859 416.143655) scale(0.13 -0.13)">
     <defs>
      <path id="DejaVuSerif-Bold-47" d="M 4403 3200 
Q 4263 3819 3934 4095 
Q 3606 4372 3009 4372 
Q 2284 4372 1945 3880 
Q 1606 3388 1606 2328 
Q 1606 1278 1931 783 
Q 2256 288 2944 288 
Q 3206 288 3431 347 
Q 3656 406 3841 525 
L 3841 1806 
L 3278 1806 
L 3278 2181 
L 4959 2181 
L 4959 391 
Q 4434 147 3911 28 
Q 3388 -91 2841 -91 
Q 1641 -91 955 556 
Q 269 1203 269 2328 
Q 269 3456 955 4103 
Q 1641 4750 2841 4750 
Q 3341 4750 3825 4650 
Q 4309 4550 4800 4347 
L 4800 3200 
L 4403 3200 
z
" transform="scale(0.015625)"/>
      <path id="DejaVuSerif-Bold-68" d="M 219 0 
L 219 378 
L 691 378 
L 691 4488 
L 197 4488 
L 197 4863 
L 1797 4863 
L 1797 2853 
Q 1997 3150 2253 3281 
Q 2509 3413 2900 3413 
Q 3459 3413 3745 3083 
Q 4031 2753 4031 2113 
L 4031 378 
L 4506 378 
L 4506 0 
L 2522 0 
L 2522 378 
L 2925 378 
L 2925 2144 
Q 2925 2566 2817 2730 
Q 2709 2894 2444 2894 
Q 2109 2894 1953 2648 
Q 1797 2403 1797 1869 
L 1797 378 
L 2203 378 
L 2203 0 
L 219 0 
z
" transform="scale(0.015625)"/>
     </defs>
     <use xlink:href="#DejaVuSerif-Bold-47"/>
     <use xlink:href="#DejaVuSerif-Bold-6f" x="85.400391"/>
     <use xlink:href="#DejaVuSerif-Bold-6f" x="152.099609"/>
     <use xlink:href="#DejaVuSerif-Bold-67" x="218.798828"/>
     <use xlink:href="#DejaVuSerif-Bold-6c" x="288.720703"/>
     <use xlink:href="#DejaVuSerif-Bold-65" x="326.708984"/>
     <use xlink:href="#DejaVuSerif-Bold-20" x="390.332031"/>
     <use xlink:href="#DejaVuSerif-Bold-53" x="425.146484"/>
     <use xlink:href="#DejaVuSerif-Bold-63" x="497.363281"/>
     <use xlink:href="#DejaVuSerif-Bold-68" x="558.251953"/>
     <use xlink:href="#DejaVuSerif-Bold-6f" x="630.957031"/>
     <use xlink:href="#DejaVuSerif-Bold-6c" x="697.65625"/>
     <use xlink:href="#DejaVuSerif-Bold-61" x="735.644531"/>
     <use xlink:href="#DejaVuSerif-Bold-72" x="800.439453"/>
    </g>
   </g>
   <g id="patch_21">
    <path d="M 432 498.317427 
Q 432 474.747851 432 453.414343 
" style="fill: none; stroke: #666666; stroke-width: 2; stroke-linecap: round"/>
    <path d="M 429.2 459.014343 
L 432 453.414343 
L 434.8 459.014343 
" style="fill: none; stroke: #666666; stroke-width: 2; stroke-linecap: round"/>
   </g>
   <g id="text_16">
    <!-- Workflow Stages -->
    <g style="fill: #808080" transform="translate(385.028281 503.275332) scale(0.11 -0.11)">
     <defs>
      <path id="DejaVuSerif-Italic-57" d="M 4425 0 
L 3913 0 
L 3581 3794 
L 1775 0 
L 1263 0 
L 881 4331 
L 419 4331 
L 484 4666 
L 2188 4666 
L 2122 4331 
L 1541 4331 
L 1844 884 
L 3641 4666 
L 4147 4666 
L 4484 844 
L 6141 4331 
L 5603 4331 
L 5669 4666 
L 7013 4666 
L 6947 4331 
L 6488 4331 
L 4425 0 
z
" transform="scale(0.015625)"/>
      <path id="DejaVuSerif-Italic-6b" d="M 2113 2075 
L 3034 331 
L 3513 331 
L 3450 0 
L 2528 0 
L 1622 1697 
L 1088 1275 
L 841 0 
L 266 0 
L 1147 4531 
L 594 4531 
L 656 4863 
L 1784 4863 
L 1169 1697 
L 2822 2988 
L 2344 2988 
L 2406 3322 
L 3341 3322 
L 3278 2988 
L 2113 2075 
z
" transform="scale(0.015625)"/>
      <path id="DejaVuSerif-Italic-66" d="M 3191 4078 
L 2888 4078 
Q 2900 4144 2900 4203 
Q 2900 4347 2825 4434 
Q 2719 4556 2472 4556 
Q 2150 4556 1984 4379 
Q 1819 4203 1731 3750 
L 1647 3322 
L 2575 3322 
L 2509 2988 
L 1581 2988 
L 963 -206 
Q 853 -763 509 -1047 
Q 166 -1331 -394 -1331 
L -356 -1025 
Q -28 -1025 131 -850 
Q 297 -663 388 -206 
L 1006 2988 
L 456 2988 
L 522 3322 
L 1072 3322 
L 1153 3738 
Q 1263 4297 1606 4578 
Q 1950 4863 2509 4863 
Q 2719 4863 2920 4825 
Q 3122 4788 3316 4709 
L 3191 4078 
z
" transform="scale(0.015625)"/>
      <path id="DejaVuSerif-Italic-77" d="M 3741 728 
Q 4156 1178 4250 1344 
Q 4594 1969 4931 2988 
L 4447 2984 
L 4513 3322 
L 5347 3322 
L 5281 2984 
L 5278 2984 
Q 4959 1825 4656 1266 
Q 4209 469 3719 0 
L 3241 0 
L 2900 2484 
L 1597 0 
L 1138 0 
L 734 2988 
L 359 2981 
L 425 3322 
L 1281 3322 
L 1631 728 
L 2991 3322 
L 3394 3322 
L 3741 728 
z
" transform="scale(0.015625)"/>
      <path id="DejaVuSerif-Italic-53" d="M 184 225 
L 391 1288 
L 750 1284 
Q 663 753 905 498 
Q 1147 244 1744 244 
Q 2300 244 2636 464 
Q 2972 684 3053 1106 
Q 3119 1444 2976 1625 
Q 2834 1806 2300 1978 
L 1722 2163 
Q 1091 2366 877 2669 
Q 663 2972 766 3500 
Q 881 4094 1367 4422 
Q 1853 4750 2616 4750 
Q 2941 4750 3314 4679 
Q 3688 4609 4097 4475 
L 3906 3481 
L 3553 3481 
Q 3594 3975 3361 4195 
Q 3128 4416 2563 4416 
Q 2069 4416 1772 4214 
Q 1475 4013 1400 3628 
Q 1334 3294 1490 3103 
Q 1647 2913 2241 2725 
L 2784 2553 
Q 3381 2363 3593 2067 
Q 3806 1772 3709 1275 
Q 3578 597 3076 253 
Q 2575 -91 1716 -91 
Q 1331 -91 948 -12 
Q 566 66 184 225 
z
" transform="scale(0.015625)"/>
      <path id="DejaVuSerif-Italic-67" d="M 3822 3322 
L 3188 72 
Q 3044 -672 2581 -1031 
Q 2078 -1422 1381 -1422 
Q 1053 -1422 765 -1362 
Q 478 -1303 225 -1184 
L 363 -488 
L 663 -488 
Q 653 -813 834 -963 
Q 1016 -1113 1406 -1113 
Q 1913 -1113 2203 -825 
Q 2494 -544 2613 72 
L 2700 519 
Q 2472 206 2181 57 
Q 1891 -91 1525 -91 
Q 975 -91 697 281 
Q 522 516 503 841 
Q 491 1031 534 1256 
Q 750 2359 1516 2928 
Q 2169 3409 2931 3413 
Q 3631 3416 3822 3322 
z
M 3184 2988 
Q 3181 3094 2844 3094 
Q 2234 3094 1775 2625 
Q 1316 2153 1147 1297 
Q 1100 1044 1113 853 
Q 1125 659 1203 528 
Q 1356 269 1756 269 
Q 2194 269 2484 583 
Q 2775 897 2891 1497 
L 2953 1825 
L 3184 2988 
z
" transform="scale(0.015625)"/>
     </defs>
     <use xlink:href="#DejaVuSerif-Italic-57"/>
     <use xlink:href="#DejaVuSerif-Italic-6f" x="96.033203"/>
     <use xlink:href="#DejaVuSerif-Italic-72" x="156.238281"/>
     <use xlink:href="#DejaVuSerif-Italic-6b" x="204.041016"/>
     <use xlink:href="#DejaVuSerif-Italic-66" x="264.636719"/>
     <use xlink:href="#DejaVuSerif-Italic-6c" x="301.648438"/>
     <use xlink:href="#DejaVuSerif-Italic-6f" x="333.630859"/>
     <use xlink:href="#DejaVuSerif-Italic-77" x="393.835938"/>
     <use xlink:href="#DejaVuSerif-Italic-20" x="479.431641"/>
     <use xlink:href="#DejaVuSerif-Italic-53" x="511.21875"/>
     <use xlink:href="#DejaVuSerif-Italic-74" x="579.724609"/>
     <use xlink:href="#DejaVuSerif-Italic-61" x="619.910156"/>
     <use xlink:href="#DejaVuSerif-Italic-67" x="679.529297"/>
     <use xlink:href="#DejaVuSerif-Italic-65" x="743.542969"/>
     <use xlink:href="#DejaVuSerif-Italic-73" x="802.722656"/>
    </g>
   </g>
   <g id="text_17">
    <!-- Data Collection -->
    <g style="fill: #ffffff" transform="translate(100.460528 562.351632) scale(0.13 -0.13)">
     <defs>
      <path id="DejaVuSerif-Bold-44" d="M 2100 378 
L 2534 378 
Q 3266 378 3605 847 
Q 3944 1316 3944 2338 
Q 3944 3353 3606 3820 
Q 3269 4288 2534 4288 
L 2100 4288 
L 2100 378 
z
M 300 0 
L 300 378 
L 897 378 
L 897 4288 
L 300 4288 
L 300 4666 
L 2694 4666 
Q 3950 4666 4615 4066 
Q 5281 3466 5281 2338 
Q 5281 1203 4614 601 
Q 3947 0 2694 0 
L 300 0 
z
" transform="scale(0.015625)"/>
     </defs>
     <use xlink:href="#DejaVuSerif-Bold-44"/>
     <use xlink:href="#DejaVuSerif-Bold-61" x="86.71875"/>
     <use xlink:href="#DejaVuSerif-Bold-74" x="151.513672"/>
     <use xlink:href="#DejaVuSerif-Bold-61" x="197.705078"/>
     <use xlink:href="#DejaVuSerif-Bold-20" x="262.5"/>
     <use xlink:href="#DejaVuSerif-Bold-43" x="297.314453"/>
     <use xlink:href="#DejaVuSerif-Bold-6f" x="376.904297"/>
     <use xlink:href="#DejaVuSerif-Bold-6c" x="443.603516"/>
     <use xlink:href="#DejaVuSerif-Bold-6c" x="481.591797"/>
     <use xlink:href="#DejaVuSerif-Bold-65" x="519.580078"/>
     <use xlink:href="#DejaVuSerif-Bold-63" x="583.203125"/>
     <use xlink:href="#DejaVuSerif-Bold-74" x="644.091797"/>
     <use xlink:href="#DejaVuSerif-Bold-69" x="690.283203"/>
     <use xlink:href="#DejaVuSerif-Bold-6f" x="728.271484"/>
     <use xlink:href="#DejaVuSerif-Bold-6e" x="794.970703"/>
    </g>
   </g>
   <g id="text_18">
    <!-- Preprocessing -->
    <g style="fill: #ffffff" transform="translate(238.355253 562.25921) scale(0.13 -0.13)">
     <use xlink:href="#DejaVuSerif-Bold-50"/>
     <use xlink:href="#DejaVuSerif-Bold-72" x="75.195312"/>
     <use xlink:href="#DejaVuSerif-Bold-65" x="127.880859"/>
     <use xlink:href="#DejaVuSerif-Bold-70" x="191.503906"/>
     <use xlink:href="#DejaVuSerif-Bold-72" x="261.425781"/>
     <use xlink:href="#DejaVuSerif-Bold-6f" x="314.111328"/>
     <use xlink:href="#DejaVuSerif-Bold-63" x="380.810547"/>
     <use xlink:href="#DejaVuSerif-Bold-65" x="441.699219"/>
     <use xlink:href="#DejaVuSerif-Bold-73" x="505.322266"/>
     <use xlink:href="#DejaVuSerif-Bold-73" x="561.621094"/>
     <use xlink:href="#DejaVuSerif-Bold-69" x="617.919922"/>
     <use xlink:href="#DejaVuSerif-Bold-6e" x="655.908203"/>
     <use xlink:href="#DejaVuSerif-Bold-67" x="728.613281"/>
    </g>
   </g>
   <g id="text_19">
    <!-- Metric Calculation -->
    <g style="fill: #ffffff" transform="translate(363.801797 562.351632) scale(0.13 -0.13)">
     <use xlink:href="#DejaVuSerif-Bold-4d"/>
     <use xlink:href="#DejaVuSerif-Bold-65" x="110.693359"/>
     <use xlink:href="#DejaVuSerif-Bold-74" x="174.316406"/>
     <use xlink:href="#DejaVuSerif-Bold-72" x="220.507812"/>
     <use xlink:href="#DejaVuSerif-Bold-69" x="273.193359"/>
     <use xlink:href="#DejaVuSerif-Bold-63" x="311.181641"/>
     <use xlink:href="#DejaVuSerif-Bold-20" x="372.070312"/>
     <use xlink:href="#DejaVuSerif-Bold-43" x="406.884766"/>
     <use xlink:href="#DejaVuSerif-Bold-61" x="486.474609"/>
     <use xlink:href="#DejaVuSerif-Bold-6c" x="551.269531"/>
     <use xlink:href="#DejaVuSerif-Bold-63" x="589.257812"/>
     <use xlink:href="#DejaVuSerif-Bold-75" x="650.146484"/>
     <use xlink:href="#DejaVuSerif-Bold-6c" x="722.851562"/>
     <use xlink:href="#DejaVuSerif-Bold-61" x="760.839844"/>
     <use xlink:href="#DejaVuSerif-Bold-74" x="825.634766"/>
     <use xlink:href="#DejaVuSerif-Bold-69" x="871.826172"/>
     <use xlink:href="#DejaVuSerif-Bold-6f" x="909.814453"/>
     <use xlink:href="#DejaVuSerif-Bold-6e" x="976.513672"/>
    </g>
   </g>
   <g id="text_20">
    <!-- Statistical Testing -->
    <g style="fill: #ffffff" transform="translate(507.701231 562.25921) scale(0.13 -0.13)">
     <use xlink:href="#DejaVuSerif-Bold-53"/>
     <use xlink:href="#DejaVuSerif-Bold-74" x="72.216797"/>
     <use xlink:href="#DejaVuSerif-Bold-61" x="118.408203"/>
     <use xlink:href="#DejaVuSerif-Bold-74" x="183.203125"/>
     <use xlink:href="#DejaVuSerif-Bold-69" x="229.394531"/>
     <use xlink:href="#DejaVuSerif-Bold-73" x="267.382812"/>
     <use xlink:href="#DejaVuSerif-Bold-74" x="323.681641"/>
     <use xlink:href="#DejaVuSerif-Bold-69" x="369.873047"/>
     <use xlink:href="#DejaVuSerif-Bold-63" x="407.861328"/>
     <use xlink:href="#DejaVuSerif-Bold-61" x="468.75"/>
     <use xlink:href="#DejaVuSerif-Bold-6c" x="533.544922"/>
     <use xlink:href="#DejaVuSerif-Bold-20" x="571.533203"/>
     <use xlink:href="#DejaVuSerif-Bold-54" x="606.347656"/>
     <use xlink:href="#DejaVuSerif-Bold-65" x="669.261719"/>
     <use xlink:href="#DejaVuSerif-Bold-73" x="732.884766"/>
     <use xlink:href="#DejaVuSerif-Bold-74" x="789.183594"/>
     <use xlink:href="#DejaVuSerif-Bold-69" x="835.375"/>
     <use xlink:href="#DejaVuSerif-Bold-6e" x="873.363281"/>
     <use xlink:href="#DejaVuSerif-Bold-67" x="946.068359"/>
    </g>
   </g>
   <g id="text_21">
    <!-- Interpretation -->
    <g style="fill: #ffffff" transform="translate(654.960019 562.351632) scale(0.13 -0.13)">
     <defs>
      <path id="DejaVuSerif-Bold-49" d="M 300 0 
L 300 378 
L 897 378 
L 897 4288 
L 300 4288 
L 300 4666 
L 2700 4666 
L 2700 4288 
L 2100 4288 
L 2100 378 
L 2700 378 
L 2700 0 
L 300 0 
z
" transform="scale(0.015625)"/>
     </defs>
     <use xlink:href="#DejaVuSerif-Bold-49"/>
     <use xlink:href="#DejaVuSerif-Bold-6e" x="46.777344"/>
     <use xlink:href="#DejaVuSerif-Bold-74" x="119.482422"/>
     <use xlink:href="#DejaVuSerif-Bold-65" x="165.673828"/>
     <use xlink:href="#DejaVuSerif-Bold-72" x="229.296875"/>
     <use xlink:href="#DejaVuSerif-Bold-70" x="281.982422"/>
     <use xlink:href="#DejaVuSerif-Bold-72" x="351.904297"/>
     <use xlink:href="#DejaVuSerif-Bold-65" x="404.589844"/>
     <use xlink:href="#DejaVuSerif-Bold-74" x="468.212891"/>
     <use xlink:href="#DejaVuSerif-Bold-61" x="514.404297"/>
     <use xlink:href="#DejaVuSerif-Bold-74" x="579.199219"/>
     <use xlink:href="#DejaVuSerif-Bold-69" x="625.390625"/>
     <use xlink:href="#DejaVuSerif-Bold-6f" x="663.378906"/>
     <use xlink:href="#DejaVuSerif-Bold-6e" x="730.078125"/>
    </g>
   </g>
   <g id="text_22">
    <!-- Standardized Framework for Quantitative Assessment of Metadata Quality across Academic Databases -->
    <g transform="translate(-28.34625 27.36) scale(0.16 -0.16)">
     <defs>
      <path id="DejaVuSerif-Bold-7a" d="M 225 0 
L 225 378 
L 2131 2956 
L 697 2956 
L 697 2388 
L 325 2388 
L 325 3322 
L 3419 3322 
L 3419 2950 
L 1509 372 
L 3047 372 
L 3047 972 
L 3419 972 
L 3419 0 
L 225 0 
z
" transform="scale(0.015625)"/>
      <path id="DejaVuSerif-Bold-77" d="M 3450 3322 
L 4206 1106 
L 4831 2944 
L 4397 2944 
L 4397 3322 
L 5638 3322 
L 5638 2944 
L 5247 2944 
L 4244 0 
L 3481 0 
L 2778 2081 
L 2069 0 
L 1313 0 
L 306 2944 
L -56 2944 
L -56 3322 
L 1825 3322 
L 1825 2944 
L 1434 2944 
L 2047 1147 
L 2791 3322 
L 3450 3322 
z
" transform="scale(0.015625)"/>
      <path id="DejaVuSerif-Bold-6b" d="M 2216 0 
L 219 0 
L 219 378 
L 691 378 
L 691 4488 
L 219 4488 
L 219 4863 
L 1797 4863 
L 1797 1741 
L 3138 2944 
L 2741 2944 
L 2741 3322 
L 4256 3322 
L 4256 2944 
L 3641 2944 
L 2784 2175 
L 4184 378 
L 4544 378 
L 4544 0 
L 2638 0 
L 2638 378 
L 3028 378 
L 2106 1563 
L 1797 1288 
L 1797 378 
L 2216 378 
L 2216 0 
z
" transform="scale(0.015625)"/>
      <path id="DejaVuSerif-Bold-51" d="M 2766 -91 
Q 1584 -72 926 565 
Q 269 1203 269 2328 
Q 269 3459 939 4104 
Q 1609 4750 2784 4750 
Q 3963 4750 4631 4106 
Q 5300 3463 5300 2328 
Q 5300 1334 4786 715 
Q 4272 97 3322 -50 
Q 3488 -228 3725 -306 
Q 3963 -384 4341 -384 
L 4500 -384 
L 4500 -1153 
L 4409 -1153 
Q 3816 -1153 3419 -897 
Q 3022 -641 2766 -91 
z
M 2784 288 
Q 3381 288 3672 791 
Q 3963 1294 3963 2328 
Q 3963 3366 3672 3869 
Q 3381 4372 2784 4372 
Q 2191 4372 1898 3864 
Q 1606 3356 1606 2328 
Q 1606 1303 1898 795 
Q 2191 288 2784 288 
z
" transform="scale(0.015625)"/>
      <path id="DejaVuSerif-Bold-76" d="M 1428 0 
L 250 2944 
L -116 2944 
L -116 3322 
L 1791 3322 
L 1791 2944 
L 1388 2944 
L 2228 844 
L 3066 2944 
L 2631 2944 
L 2631 3322 
L 3878 3322 
L 3878 2944 
L 3494 2944 
L 2316 0 
L 1428 0 
z
" transform="scale(0.015625)"/>
     </defs>
     <use xlink:href="#DejaVuSerif-Bold-53"/>
     <use xlink:href="#DejaVuSerif-Bold-74" x="72.216797"/>
     <use xlink:href="#DejaVuSerif-Bold-61" x="118.408203"/>
     <use xlink:href="#DejaVuSerif-Bold-6e" x="183.203125"/>
     <use xlink:href="#DejaVuSerif-Bold-64" x="255.908203"/>
     <use xlink:href="#DejaVuSerif-Bold-61" x="325.830078"/>
     <use xlink:href="#DejaVuSerif-Bold-72" x="390.625"/>
     <use xlink:href="#DejaVuSerif-Bold-64" x="443.310547"/>
     <use xlink:href="#DejaVuSerif-Bold-69" x="513.232422"/>
     <use xlink:href="#DejaVuSerif-Bold-7a" x="551.220703"/>
     <use xlink:href="#DejaVuSerif-Bold-65" x="608.007812"/>
     <use xlink:href="#DejaVuSerif-Bold-64" x="671.630859"/>
     <use xlink:href="#DejaVuSerif-Bold-20" x="741.552734"/>
     <use xlink:href="#DejaVuSerif-Bold-46" x="776.367188"/>
     <use xlink:href="#DejaVuSerif-Bold-72" x="845.613281"/>
     <use xlink:href="#DejaVuSerif-Bold-61" x="898.298828"/>
     <use xlink:href="#DejaVuSerif-Bold-6d" x="963.09375"/>
     <use xlink:href="#DejaVuSerif-Bold-65" x="1068.904297"/>
     <use xlink:href="#DejaVuSerif-Bold-77" x="1132.527344"/>
     <use xlink:href="#DejaVuSerif-Bold-6f" x="1218.611328"/>
     <use xlink:href="#DejaVuSerif-Bold-72" x="1285.310547"/>
     <use xlink:href="#DejaVuSerif-Bold-6b" x="1337.996094"/>
     <use xlink:href="#DejaVuSerif-Bold-20" x="1407.283203"/>
     <use xlink:href="#DejaVuSerif-Bold-66" x="1442.097656"/>
     <use xlink:href="#DejaVuSerif-Bold-6f" x="1485.115234"/>
     <use xlink:href="#DejaVuSerif-Bold-72" x="1551.814453"/>
     <use xlink:href="#DejaVuSerif-Bold-20" x="1604.5"/>
     <use xlink:href="#DejaVuSerif-Bold-51" x="1639.314453"/>
     <use xlink:href="#DejaVuSerif-Bold-75" x="1726.423828"/>
     <use xlink:href="#DejaVuSerif-Bold-61" x="1799.128906"/>
     <use xlink:href="#DejaVuSerif-Bold-6e" x="1863.923828"/>
     <use xlink:href="#DejaVuSerif-Bold-74" x="1936.628906"/>
     <use xlink:href="#DejaVuSerif-Bold-69" x="1982.820312"/>
     <use xlink:href="#DejaVuSerif-Bold-74" x="2020.808594"/>
     <use xlink:href="#DejaVuSerif-Bold-61" x="2067"/>
     <use xlink:href="#DejaVuSerif-Bold-74" x="2131.794922"/>
     <use xlink:href="#DejaVuSerif-Bold-69" x="2177.986328"/>
     <use xlink:href="#DejaVuSerif-Bold-76" x="2215.974609"/>
     <use xlink:href="#DejaVuSerif-Bold-65" x="2274.080078"/>
     <use xlink:href="#DejaVuSerif-Bold-20" x="2337.703125"/>
     <use xlink:href="#DejaVuSerif-Bold-41" x="2372.517578"/>
     <use xlink:href="#DejaVuSerif-Bold-73" x="2450.105469"/>
     <use xlink:href="#DejaVuSerif-Bold-73" x="2506.404297"/>
     <use xlink:href="#DejaVuSerif-Bold-65" x="2562.703125"/>
     <use xlink:href="#DejaVuSerif-Bold-73" x="2626.326172"/>
     <use xlink:href="#DejaVuSerif-Bold-73" x="2682.625"/>
     <use xlink:href="#DejaVuSerif-Bold-6d" x="2738.923828"/>
     <use xlink:href="#DejaVuSerif-Bold-65" x="2844.734375"/>
     <use xlink:href="#DejaVuSerif-Bold-6e" x="2908.357422"/>
     <use xlink:href="#DejaVuSerif-Bold-74" x="2981.0625"/>
     <use xlink:href="#DejaVuSerif-Bold-20" x="3027.253906"/>
     <use xlink:href="#DejaVuSerif-Bold-6f" x="3062.068359"/>
     <use xlink:href="#DejaVuSerif-Bold-66" x="3128.767578"/>
     <use xlink:href="#DejaVuSerif-Bold-20" x="3171.785156"/>
     <use xlink:href="#DejaVuSerif-Bold-4d" x="3206.599609"/>
     <use xlink:href="#DejaVuSerif-Bold-65" x="3317.292969"/>
     <use xlink:href="#DejaVuSerif-Bold-74" x="3380.916016"/>
     <use xlink:href="#DejaVuSerif-Bold-61" x="3427.107422"/>
     <use xlink:href="#DejaVuSerif-Bold-64" x="3491.902344"/>
     <use xlink:href="#DejaVuSerif-Bold-61" x="3561.824219"/>
     <use xlink:href="#DejaVuSerif-Bold-74" x="3626.619141"/>
     <use xlink:href="#DejaVuSerif-Bold-61" x="3672.810547"/>
     <use xlink:href="#DejaVuSerif-Bold-20" x="3737.605469"/>
     <use xlink:href="#DejaVuSerif-Bold-51" x="3772.419922"/>
     <use xlink:href="#DejaVuSerif-Bold-75" x="3859.529297"/>
     <use xlink:href="#DejaVuSerif-Bold-61" x="3932.234375"/>
     <use xlink:href="#DejaVuSerif-Bold-6c" x="3997.029297"/>
     <use xlink:href="#DejaVuSerif-Bold-69" x="4035.017578"/>
     <use xlink:href="#DejaVuSerif-Bold-74" x="4073.005859"/>
     <use xlink:href="#DejaVuSerif-Bold-79" x="4119.197266"/>
     <use xlink:href="#DejaVuSerif-Bold-20" x="4177.302734"/>
     <use xlink:href="#DejaVuSerif-Bold-61" x="4212.117188"/>
     <use xlink:href="#DejaVuSerif-Bold-63" x="4276.912109"/>
     <use xlink:href="#DejaVuSerif-Bold-72" x="4337.800781"/>
     <use xlink:href="#DejaVuSerif-Bold-6f" x="4390.486328"/>
     <use xlink:href="#DejaVuSerif-Bold-73" x="4457.185547"/>
     <use xlink:href="#DejaVuSerif-Bold-73" x="4513.484375"/>
     <use xlink:href="#DejaVuSerif-Bold-20" x="4569.783203"/>
     <use xlink:href="#DejaVuSerif-Bold-41" x="4604.597656"/>
     <use xlink:href="#DejaVuSerif-Bold-63" x="4682.185547"/>
     <use xlink:href="#DejaVuSerif-Bold-61" x="4743.074219"/>
     <use xlink:href="#DejaVuSerif-Bold-64" x="4807.869141"/>
     <use xlink:href="#DejaVuSerif-Bold-65" x="4877.791016"/>
     <use xlink:href="#DejaVuSerif-Bold-6d" x="4941.414062"/>
     <use xlink:href="#DejaVuSerif-Bold-69" x="5047.224609"/>
     <use xlink:href="#DejaVuSerif-Bold-63" x="5085.212891"/>
     <use xlink:href="#DejaVuSerif-Bold-20" x="5146.101562"/>
     <use xlink:href="#DejaVuSerif-Bold-44" x="5180.916016"/>
     <use xlink:href="#DejaVuSerif-Bold-61" x="5267.634766"/>
     <use xlink:href="#DejaVuSerif-Bold-74" x="5332.429688"/>
     <use xlink:href="#DejaVuSerif-Bold-61" x="5378.621094"/>
     <use xlink:href="#DejaVuSerif-Bold-62" x="5443.416016"/>
     <use xlink:href="#DejaVuSerif-Bold-61" x="5513.337891"/>
     <use xlink:href="#DejaVuSerif-Bold-73" x="5578.132812"/>
     <use xlink:href="#DejaVuSerif-Bold-65" x="5634.431641"/>
     <use xlink:href="#DejaVuSerif-Bold-73" x="5698.054688"/>
    </g>
   </g>
  </g>
 </g>
 <defs>
  <clipPath id="p51b77762f2">
   <rect x="15.12" y="47.36" width="833.76" height="657.52"/>
  </clipPath>
 </defs>
</svg>
