<?xml version="1.0" encoding="utf-8" standalone="no"?>
<!DOCTYPE svg PUBLIC "-//W3C//DTD SVG 1.1//EN"
  "http://www.w3.org/Graphics/SVG/1.1/DTD/svg11.dtd">
<svg xmlns:xlink="http://www.w3.org/1999/xlink" width="720pt" height="360pt" viewBox="0 0 720 360" xmlns="http://www.w3.org/2000/svg" version="1.1">
 <metadata>
  <rdf:RDF xmlns:dc="http://purl.org/dc/elements/1.1/" xmlns:cc="http://creativecommons.org/ns#" xmlns:rdf="http://www.w3.org/1999/02/22-rdf-syntax-ns#">
   <cc:Work>
    <dc:type rdf:resource="http://purl.org/dc/dcmitype/StillImage"/>
    <dc:date>2026-03-27T15:02:51.765277</dc:date>
    <dc:format>image/svg+xml</dc:format>
    <dc:creator>
     <cc:Agent>
      <dc:title>Matplotlib v3.9.4, https://matplotlib.org/</dc:title>
     </cc:Agent>
    </dc:creator>
   </cc:Work>
  </rdf:RDF>
 </metadata>
 <defs>
  <style type="text/css">*{stroke-linejoin: round; stroke-linecap: butt}</style>
 </defs>
 <g id="figure_1">
  <g id="patch_1">
   <path d="M 0 360 
L 720 360 
L 720 0 
L 0 0 
z
" style="fill: #ffffff"/>
  </g>
  <g id="axes_1">
   <g id="patch_2">
    <path d="M 56.40125 325.16 
L 704.88 325.16 
L 704.88 33.36 
L 56.40125 33.36 
z
" style="fill: #ffffff"/>
   </g>
   <g id="patch_3">
    <path d="M 85.877557 325.16 
L 116.905248 325.16 
L 116.905248 62.694392 
L 85.877557 62.694392 
z
" clip-path="url(#p8885fd6307)" style="fill: #2563eb; stroke: #ffffff; stroke-width: 0.5; stroke-linejoin: miter"/>
   </g>
   <g id="patch_4">
    <path d="M 241.016014 325.16 
L 272.043705 325.16 
L 272.043705 78.133545 
L 241.016014 78.133545 
z
" clip-path="url(#p8885fd6307)" style="fill: #2563eb; stroke: #ffffff; stroke-width: 0.5; stroke-linejoin: miter"/>
   </g>
   <g id="patch_5">
    <path d="M 396.154471 325.16 
L 427.182162 325.16 
L 427.182162 93.572698 
L 396.154471 93.572698 
z
" clip-path="url(#p8885fd6307)" style="fill: #2563eb; stroke: #ffffff; stroke-width: 0.5; stroke-linejoin: miter"/>
   </g>
   <g id="patch_6">
    <path d="M 551.292928 325.16 
L 582.320619 325.16 
L 582.320619 109.011852 
L 551.292928 109.011852 
z
" clip-path="url(#p8885fd6307)" style="fill: #2563eb; stroke: #ffffff; stroke-width: 0.5; stroke-linejoin: miter"/>
   </g>
   <g id="patch_7">
    <path d="M 116.905248 325.16 
L 147.93294 325.16 
L 147.93294 71.957884 
L 116.905248 71.957884 
z
" clip-path="url(#p8885fd6307)" style="fill: #16a34a; stroke: #ffffff; stroke-width: 0.5; stroke-linejoin: miter"/>
   </g>
   <g id="patch_8">
    <path d="M 272.043705 325.16 
L 303.071397 325.16 
L 303.071397 84.309206 
L 272.043705 84.309206 
z
" clip-path="url(#p8885fd6307)" style="fill: #16a34a; stroke: #ffffff; stroke-width: 0.5; stroke-linejoin: miter"/>
   </g>
   <g id="patch_9">
    <path d="M 427.182162 325.16 
L 458.209853 325.16 
L 458.209853 99.74836 
L 427.182162 99.74836 
z
" clip-path="url(#p8885fd6307)" style="fill: #16a34a; stroke: #ffffff; stroke-width: 0.5; stroke-linejoin: miter"/>
   </g>
   <g id="patch_10">
    <path d="M 582.320619 325.16 
L 613.34831 325.16 
L 613.34831 115.187513 
L 582.320619 115.187513 
z
" clip-path="url(#p8885fd6307)" style="fill: #16a34a; stroke: #ffffff; stroke-width: 0.5; stroke-linejoin: miter"/>
   </g>
   <g id="patch_11">
    <path d="M 147.93294 325.16 
L 178.960631 325.16 
L 178.960631 53.430899 
L 147.93294 53.430899 
z
" clip-path="url(#p8885fd6307)" style="fill: #ca8a04; stroke: #ffffff; stroke-width: 0.5; stroke-linejoin: miter"/>
   </g>
   <g id="patch_12">
    <path d="M 303.071397 325.16 
L 334.099088 325.16 
L 334.099088 68.870053 
L 303.071397 68.870053 
z
" clip-path="url(#p8885fd6307)" style="fill: #ca8a04; stroke: #ffffff; stroke-width: 0.5; stroke-linejoin: miter"/>
   </g>
   <g id="patch_13">
    <path d="M 458.209853 325.16 
L 489.237545 325.16 
L 489.237545 81.221376 
L 458.209853 81.221376 
z
" clip-path="url(#p8885fd6307)" style="fill: #ca8a04; stroke: #ffffff; stroke-width: 0.5; stroke-linejoin: miter"/>
   </g>
   <g id="patch_14">
    <path d="M 613.34831 325.16 
L 644.376002 325.16 
L 644.376002 96.660529 
L 613.34831 96.660529 
z
" clip-path="url(#p8885fd6307)" style="fill: #ca8a04; stroke: #ffffff; stroke-width: 0.5; stroke-linejoin: miter"/>
   </g>
   <g id="patch_15">
    <path d="M 178.960631 325.16 
L 209.988322 325.16 
L 209.988322 93.572698 
L 178.960631 93.572698 
z
" clip-path="url(#p8885fd6307)" style="fill: #dc2626; stroke: #ffffff; stroke-width: 0.5; stroke-linejoin: miter"/>
   </g>
   <g id="patch_16">
    <path d="M 334.099088 325.16 
L 365.126779 325.16 
L 365.126779 109.011852 
L 334.099088 109.011852 
z
" clip-path="url(#p8885fd6307)" style="fill: #dc2626; stroke: #ffffff; stroke-width: 0.5; stroke-linejoin: miter"/>
   </g>
   <g id="patch_17">
    <path d="M 489.237545 325.16 
L 520.265236 325.16 
L 520.265236 124.451005 
L 489.237545 124.451005 
z
" clip-path="url(#p8885fd6307)" style="fill: #dc2626; stroke: #ffffff; stroke-width: 0.5; stroke-linejoin: miter"/>
   </g>
   <g id="patch_18">
    <path d="M 644.376002 325.16 
L 675.403693 325.16 
L 675.403693 139.890159 
L 644.376002 139.890159 
z
" clip-path="url(#p8885fd6307)" style="fill: #dc2626; stroke: #ffffff; stroke-width: 0.5; stroke-linejoin: miter"/>
   </g>
   <g id="matplotlib.axis_1">
    <g id="xtick_1">
     <g id="line2d_1">
      <defs>
       <path id="md777f50663" d="M 0 0 
L 0 3.5 
" style="stroke: #000000; stroke-width: 0.8"/>
      </defs>
      <g>
       <use xlink:href="#md777f50663" x="147.93294" y="325.16" style="stroke: #000000; stroke-width: 0.8"/>
      </g>
     </g>
     <g id="text_1">
      <!-- Web of Science -->
      <g transform="translate(97.629033 342.037969) scale(0.13 -0.13)">
       <defs>
        <path id="DejaVuSerif-57" d="M 4878 0 
L 4366 0 
L 3297 3794 
L 2228 0 
L 1716 0 
L 494 4331 
L 31 4331 
L 31 4666 
L 1734 4666 
L 1734 4331 
L 1153 4331 
L 2125 884 
L 3188 4666 
L 3694 4666 
L 4775 844 
L 5753 4331 
L 5216 4331 
L 5216 4666 
L 6559 4666 
L 6559 4331 
L 6100 4331 
L 4878 0 
z
" transform="scale(0.015625)"/>
        <path id="DejaVuSerif-65" d="M 3469 1600 
L 991 1600 
L 991 1575 
Q 991 903 1244 561 
Q 1497 219 1991 219 
Q 2369 219 2611 417 
Q 2853 616 2950 1006 
L 3413 1006 
Q 3275 459 2904 184 
Q 2534 -91 1931 -91 
Q 1203 -91 761 389 
Q 319 869 319 1663 
Q 319 2450 753 2931 
Q 1188 3413 1894 3413 
Q 2647 3413 3050 2948 
Q 3453 2484 3469 1600 
z
M 2791 1931 
Q 2772 2513 2545 2808 
Q 2319 3103 1894 3103 
Q 1497 3103 1269 2806 
Q 1041 2509 991 1931 
L 2791 1931 
z
" transform="scale(0.015625)"/>
        <path id="DejaVuSerif-62" d="M 738 331 
L 738 4531 
L 184 4531 
L 184 4863 
L 1313 4863 
L 1313 2803 
Q 1481 3116 1742 3264 
Q 2003 3413 2388 3413 
Q 3000 3413 3387 2928 
Q 3775 2444 3775 1663 
Q 3775 881 3387 395 
Q 3000 -91 2388 -91 
Q 2003 -91 1742 57 
Q 1481 206 1313 519 
L 1313 0 
L 184 0 
L 184 331 
L 738 331 
z
M 1313 1497 
Q 1313 897 1542 583 
Q 1772 269 2209 269 
Q 2650 269 2876 622 
Q 3103 975 3103 1663 
Q 3103 2353 2876 2703 
Q 2650 3053 2209 3053 
Q 1772 3053 1542 2737 
Q 1313 2422 1313 1825 
L 1313 1497 
z
" transform="scale(0.015625)"/>
        <path id="DejaVuSerif-20" transform="scale(0.015625)"/>
        <path id="DejaVuSerif-6f" d="M 1925 219 
Q 2388 219 2623 584 
Q 2859 950 2859 1663 
Q 2859 2375 2623 2739 
Q 2388 3103 1925 3103 
Q 1463 3103 1227 2739 
Q 991 2375 991 1663 
Q 991 950 1228 584 
Q 1466 219 1925 219 
z
M 1925 -91 
Q 1200 -91 759 389 
Q 319 869 319 1663 
Q 319 2456 758 2934 
Q 1197 3413 1925 3413 
Q 2653 3413 3092 2934 
Q 3531 2456 3531 1663 
Q 3531 869 3092 389 
Q 2653 -91 1925 -91 
z
" transform="scale(0.015625)"/>
        <path id="DejaVuSerif-66" d="M 2753 4078 
L 2450 4078 
Q 2447 4313 2317 4434 
Q 2188 4556 1941 4556 
Q 1619 4556 1487 4379 
Q 1356 4203 1356 3750 
L 1356 3322 
L 2284 3322 
L 2284 2988 
L 1356 2988 
L 1356 331 
L 2094 331 
L 2094 0 
L 231 0 
L 231 331 
L 781 331 
L 781 2988 
L 231 2988 
L 231 3322 
L 781 3322 
L 781 3738 
Q 781 4294 1070 4578 
Q 1359 4863 1919 4863 
Q 2128 4863 2337 4825 
Q 2547 4788 2753 4709 
L 2753 4078 
z
" transform="scale(0.015625)"/>
        <path id="DejaVuSerif-53" d="M 594 225 
L 594 1288 
L 953 1284 
Q 969 753 1261 498 
Q 1553 244 2150 244 
Q 2706 244 2998 464 
Q 3291 684 3291 1106 
Q 3291 1444 3114 1625 
Q 2938 1806 2369 1978 
L 1753 2163 
Q 1084 2366 811 2669 
Q 538 2972 538 3500 
Q 538 4094 959 4422 
Q 1381 4750 2144 4750 
Q 2469 4750 2856 4679 
Q 3244 4609 3681 4475 
L 3681 3481 
L 3328 3481 
Q 3275 3975 2998 4195 
Q 2722 4416 2156 4416 
Q 1663 4416 1405 4214 
Q 1147 4013 1147 3628 
Q 1147 3294 1340 3103 
Q 1534 2913 2163 2725 
L 2741 2553 
Q 3375 2363 3645 2067 
Q 3916 1772 3916 1275 
Q 3916 597 3481 253 
Q 3047 -91 2188 -91 
Q 1803 -91 1404 -12 
Q 1006 66 594 225 
z
" transform="scale(0.015625)"/>
        <path id="DejaVuSerif-63" d="M 3291 997 
Q 3169 466 2822 187 
Q 2475 -91 1925 -91 
Q 1200 -91 759 389 
Q 319 869 319 1663 
Q 319 2459 759 2936 
Q 1200 3413 1925 3413 
Q 2241 3413 2553 3339 
Q 2866 3266 3181 3116 
L 3181 2266 
L 2847 2266 
Q 2781 2703 2561 2903 
Q 2341 3103 1931 3103 
Q 1466 3103 1228 2742 
Q 991 2381 991 1663 
Q 991 944 1227 581 
Q 1463 219 1931 219 
Q 2303 219 2525 412 
Q 2747 606 2828 997 
L 3291 997 
z
" transform="scale(0.015625)"/>
        <path id="DejaVuSerif-69" d="M 622 4353 
Q 622 4497 726 4603 
Q 831 4709 978 4709 
Q 1122 4709 1226 4603 
Q 1331 4497 1331 4353 
Q 1331 4206 1228 4103 
Q 1125 4000 978 4000 
Q 831 4000 726 4103 
Q 622 4206 622 4353 
z
M 1356 331 
L 1900 331 
L 1900 0 
L 231 0 
L 231 331 
L 781 331 
L 781 2988 
L 231 2988 
L 231 3322 
L 1356 3322 
L 1356 331 
z
" transform="scale(0.015625)"/>
        <path id="DejaVuSerif-6e" d="M 263 0 
L 263 331 
L 781 331 
L 781 2988 
L 231 2988 
L 231 3322 
L 1356 3322 
L 1356 2731 
Q 1516 3069 1770 3241 
Q 2025 3413 2363 3413 
Q 2913 3413 3172 3097 
Q 3431 2781 3431 2113 
L 3431 331 
L 3944 331 
L 3944 0 
L 2356 0 
L 2356 331 
L 2853 331 
L 2853 1931 
Q 2853 2541 2703 2767 
Q 2553 2994 2175 2994 
Q 1775 2994 1565 2701 
Q 1356 2409 1356 1850 
L 1356 331 
L 1856 331 
L 1856 0 
L 263 0 
z
" transform="scale(0.015625)"/>
       </defs>
       <use xlink:href="#DejaVuSerif-57"/>
       <use xlink:href="#DejaVuSerif-65" x="94.658203"/>
       <use xlink:href="#DejaVuSerif-62" x="153.837891"/>
       <use xlink:href="#DejaVuSerif-20" x="217.851562"/>
       <use xlink:href="#DejaVuSerif-6f" x="249.638672"/>
       <use xlink:href="#DejaVuSerif-66" x="309.84375"/>
       <use xlink:href="#DejaVuSerif-20" x="346.855469"/>
       <use xlink:href="#DejaVuSerif-53" x="378.642578"/>
       <use xlink:href="#DejaVuSerif-63" x="447.148438"/>
       <use xlink:href="#DejaVuSerif-69" x="503.154297"/>
       <use xlink:href="#DejaVuSerif-65" x="535.136719"/>
       <use xlink:href="#DejaVuSerif-6e" x="594.316406"/>
       <use xlink:href="#DejaVuSerif-63" x="658.720703"/>
       <use xlink:href="#DejaVuSerif-65" x="714.726562"/>
      </g>
     </g>
    </g>
    <g id="xtick_2">
     <g id="line2d_2">
      <g>
       <use xlink:href="#md777f50663" x="303.071397" y="325.16" style="stroke: #000000; stroke-width: 0.8"/>
      </g>
     </g>
     <g id="text_2">
      <!-- Scopus -->
      <g transform="translate(279.382959 342.037969) scale(0.13 -0.13)">
       <defs>
        <path id="DejaVuSerif-70" d="M 1313 1825 
L 1313 1497 
Q 1313 897 1542 583 
Q 1772 269 2209 269 
Q 2650 269 2876 622 
Q 3103 975 3103 1663 
Q 3103 2353 2876 2703 
Q 2650 3053 2209 3053 
Q 1772 3053 1542 2737 
Q 1313 2422 1313 1825 
z
M 738 2988 
L 184 2988 
L 184 3322 
L 1313 3322 
L 1313 2803 
Q 1481 3116 1742 3264 
Q 2003 3413 2388 3413 
Q 3000 3413 3387 2928 
Q 3775 2444 3775 1663 
Q 3775 881 3387 395 
Q 3000 -91 2388 -91 
Q 2003 -91 1742 57 
Q 1481 206 1313 519 
L 1313 -997 
L 1856 -997 
L 1856 -1331 
L 184 -1331 
L 184 -997 
L 738 -997 
L 738 2988 
z
" transform="scale(0.015625)"/>
        <path id="DejaVuSerif-75" d="M 2266 3322 
L 3341 3322 
L 3341 331 
L 3884 331 
L 3884 0 
L 2766 0 
L 2766 588 
Q 2606 256 2353 82 
Q 2100 -91 1766 -91 
Q 1213 -91 952 223 
Q 691 538 691 1209 
L 691 2988 
L 172 2988 
L 172 3322 
L 1269 3322 
L 1269 1388 
Q 1269 781 1417 556 
Q 1566 331 1947 331 
Q 2347 331 2556 625 
Q 2766 919 2766 1478 
L 2766 2988 
L 2266 2988 
L 2266 3322 
z
" transform="scale(0.015625)"/>
        <path id="DejaVuSerif-73" d="M 359 184 
L 359 959 
L 691 959 
Q 703 588 923 403 
Q 1144 219 1575 219 
Q 1963 219 2166 364 
Q 2369 509 2369 788 
Q 2369 1006 2220 1140 
Q 2072 1275 1594 1428 
L 1178 1569 
Q 750 1706 558 1912 
Q 366 2119 366 2438 
Q 366 2894 700 3153 
Q 1034 3413 1625 3413 
Q 1888 3413 2178 3344 
Q 2469 3275 2778 3144 
L 2778 2419 
L 2447 2419 
Q 2434 2741 2221 2922 
Q 2009 3103 1644 3103 
Q 1281 3103 1095 2975 
Q 909 2847 909 2591 
Q 909 2381 1050 2254 
Q 1191 2128 1613 1997 
L 2069 1856 
Q 2541 1709 2748 1489 
Q 2956 1269 2956 922 
Q 2956 450 2595 179 
Q 2234 -91 1600 -91 
Q 1278 -91 972 -22 
Q 666 47 359 184 
z
" transform="scale(0.015625)"/>
       </defs>
       <use xlink:href="#DejaVuSerif-53"/>
       <use xlink:href="#DejaVuSerif-63" x="68.505859"/>
       <use xlink:href="#DejaVuSerif-6f" x="124.511719"/>
       <use xlink:href="#DejaVuSerif-70" x="184.716797"/>
       <use xlink:href="#DejaVuSerif-75" x="248.730469"/>
       <use xlink:href="#DejaVuSerif-73" x="313.134766"/>
      </g>
     </g>
    </g>
    <g id="xtick_3">
     <g id="line2d_3">
      <g>
       <use xlink:href="#md777f50663" x="458.209853" y="325.16" style="stroke: #000000; stroke-width: 0.8"/>
      </g>
     </g>
     <g id="text_3">
      <!-- PubMed -->
      <g transform="translate(430.825557 342.037969) scale(0.13 -0.13)">
       <defs>
        <path id="DejaVuSerif-50" d="M 1581 2375 
L 2406 2375 
Q 2872 2375 3115 2626 
Q 3359 2878 3359 3353 
Q 3359 3831 3115 4081 
Q 2872 4331 2406 4331 
L 1581 4331 
L 1581 2375 
z
M 353 0 
L 353 331 
L 947 331 
L 947 4331 
L 353 4331 
L 353 4666 
L 2559 4666 
Q 3259 4666 3668 4311 
Q 4078 3956 4078 3353 
Q 4078 2753 3668 2397 
Q 3259 2041 2559 2041 
L 1581 2041 
L 1581 331 
L 2303 331 
L 2303 0 
L 353 0 
z
" transform="scale(0.015625)"/>
        <path id="DejaVuSerif-4d" d="M 353 0 
L 353 331 
L 947 331 
L 947 4331 
L 319 4331 
L 319 4666 
L 1678 4666 
L 3316 1344 
L 4953 4666 
L 6228 4666 
L 6228 4331 
L 5606 4331 
L 5606 331 
L 6203 331 
L 6203 0 
L 4378 0 
L 4378 331 
L 4972 331 
L 4972 3938 
L 3372 684 
L 2931 684 
L 1331 3938 
L 1331 331 
L 1925 331 
L 1925 0 
L 353 0 
z
" transform="scale(0.015625)"/>
        <path id="DejaVuSerif-64" d="M 3359 331 
L 3909 331 
L 3909 0 
L 2784 0 
L 2784 519 
Q 2616 206 2355 57 
Q 2094 -91 1709 -91 
Q 1097 -91 708 395 
Q 319 881 319 1663 
Q 319 2444 706 2928 
Q 1094 3413 1709 3413 
Q 2094 3413 2355 3264 
Q 2616 3116 2784 2803 
L 2784 4531 
L 2241 4531 
L 2241 4863 
L 3359 4863 
L 3359 331 
z
M 2784 1497 
L 2784 1825 
Q 2784 2422 2554 2737 
Q 2325 3053 1888 3053 
Q 1444 3053 1217 2703 
Q 991 2353 991 1663 
Q 991 975 1217 622 
Q 1444 269 1888 269 
Q 2325 269 2554 583 
Q 2784 897 2784 1497 
z
" transform="scale(0.015625)"/>
       </defs>
       <use xlink:href="#DejaVuSerif-50"/>
       <use xlink:href="#DejaVuSerif-75" x="67.285156"/>
       <use xlink:href="#DejaVuSerif-62" x="131.689453"/>
       <use xlink:href="#DejaVuSerif-4d" x="195.703125"/>
       <use xlink:href="#DejaVuSerif-65" x="298.095703"/>
       <use xlink:href="#DejaVuSerif-64" x="357.275391"/>
      </g>
     </g>
    </g>
    <g id="xtick_4">
     <g id="line2d_4">
      <g>
       <use xlink:href="#md777f50663" x="613.34831" y="325.16" style="stroke: #000000; stroke-width: 0.8"/>
      </g>
     </g>
     <g id="text_4">
      <!-- Google Scholar -->
      <g transform="translate(562.922529 342.037969) scale(0.13 -0.13)">
       <defs>
        <path id="DejaVuSerif-47" d="M 4097 3272 
Q 3988 3856 3641 4136 
Q 3294 4416 2675 4416 
Q 1869 4416 1472 3897 
Q 1075 3378 1075 2328 
Q 1075 1300 1484 772 
Q 1894 244 2688 244 
Q 3041 244 3362 331 
Q 3684 419 3975 594 
L 3975 1797 
L 3097 1797 
L 3097 2131 
L 4609 2131 
L 4609 391 
Q 4194 150 3714 29 
Q 3234 -91 2688 -91 
Q 1631 -91 995 570 
Q 359 1231 359 2328 
Q 359 3434 996 4092 
Q 1634 4750 2713 4750 
Q 3113 4750 3539 4658 
Q 3966 4566 4447 4378 
L 4447 3272 
L 4097 3272 
z
" transform="scale(0.015625)"/>
        <path id="DejaVuSerif-67" d="M 3359 2988 
L 3359 72 
Q 3359 -644 2965 -1033 
Q 2572 -1422 1844 -1422 
Q 1516 -1422 1216 -1362 
Q 916 -1303 641 -1184 
L 641 -488 
L 941 -488 
Q 997 -813 1206 -963 
Q 1416 -1113 1806 -1113 
Q 2313 -1113 2548 -827 
Q 2784 -541 2784 72 
L 2784 519 
Q 2616 206 2355 57 
Q 2094 -91 1709 -91 
Q 1097 -91 708 395 
Q 319 881 319 1663 
Q 319 2444 706 2928 
Q 1094 3413 1709 3413 
Q 2094 3413 2355 3264 
Q 2616 3116 2784 2803 
L 2784 3322 
L 3909 3322 
L 3909 2988 
L 3359 2988 
z
M 2784 1825 
Q 2784 2422 2554 2737 
Q 2325 3053 1888 3053 
Q 1444 3053 1217 2703 
Q 991 2353 991 1663 
Q 991 975 1217 622 
Q 1444 269 1888 269 
Q 2325 269 2554 583 
Q 2784 897 2784 1497 
L 2784 1825 
z
" transform="scale(0.015625)"/>
        <path id="DejaVuSerif-6c" d="M 1313 331 
L 1856 331 
L 1856 0 
L 184 0 
L 184 331 
L 738 331 
L 738 4531 
L 184 4531 
L 184 4863 
L 1313 4863 
L 1313 331 
z
" transform="scale(0.015625)"/>
        <path id="DejaVuSerif-68" d="M 263 0 
L 263 331 
L 781 331 
L 781 4531 
L 231 4531 
L 231 4863 
L 1356 4863 
L 1356 2731 
Q 1516 3069 1770 3241 
Q 2025 3413 2363 3413 
Q 2913 3413 3172 3097 
Q 3431 2781 3431 2113 
L 3431 331 
L 3944 331 
L 3944 0 
L 2356 0 
L 2356 331 
L 2853 331 
L 2853 1931 
Q 2853 2541 2704 2764 
Q 2556 2988 2175 2988 
Q 1775 2988 1565 2697 
Q 1356 2406 1356 1850 
L 1356 331 
L 1856 331 
L 1856 0 
L 263 0 
z
" transform="scale(0.015625)"/>
        <path id="DejaVuSerif-61" d="M 2547 1044 
L 2547 1747 
L 1806 1747 
Q 1378 1747 1168 1562 
Q 959 1378 959 997 
Q 959 650 1171 447 
Q 1384 244 1747 244 
Q 2106 244 2326 466 
Q 2547 688 2547 1044 
z
M 3122 2075 
L 3122 331 
L 3634 331 
L 3634 0 
L 2547 0 
L 2547 359 
Q 2356 128 2106 18 
Q 1856 -91 1522 -91 
Q 969 -91 644 203 
Q 319 497 319 997 
Q 319 1513 691 1797 
Q 1063 2081 1741 2081 
L 2547 2081 
L 2547 2309 
Q 2547 2688 2317 2895 
Q 2088 3103 1672 3103 
Q 1328 3103 1125 2947 
Q 922 2791 872 2484 
L 575 2484 
L 575 3156 
Q 875 3284 1158 3348 
Q 1441 3413 1709 3413 
Q 2400 3413 2761 3070 
Q 3122 2728 3122 2075 
z
" transform="scale(0.015625)"/>
        <path id="DejaVuSerif-72" d="M 3059 3328 
L 3059 2497 
L 2728 2497 
Q 2713 2744 2591 2866 
Q 2469 2988 2234 2988 
Q 1809 2988 1582 2694 
Q 1356 2400 1356 1850 
L 1356 331 
L 2022 331 
L 2022 0 
L 263 0 
L 263 331 
L 781 331 
L 781 2994 
L 231 2994 
L 231 3322 
L 1356 3322 
L 1356 2731 
Q 1525 3078 1790 3245 
Q 2056 3413 2438 3413 
Q 2578 3413 2733 3391 
Q 2888 3369 3059 3328 
z
" transform="scale(0.015625)"/>
       </defs>
       <use xlink:href="#DejaVuSerif-47"/>
       <use xlink:href="#DejaVuSerif-6f" x="79.882812"/>
       <use xlink:href="#DejaVuSerif-6f" x="140.087891"/>
       <use xlink:href="#DejaVuSerif-67" x="200.292969"/>
       <use xlink:href="#DejaVuSerif-6c" x="264.306641"/>
       <use xlink:href="#DejaVuSerif-65" x="296.289062"/>
       <use xlink:href="#DejaVuSerif-20" x="355.46875"/>
       <use xlink:href="#DejaVuSerif-53" x="387.255859"/>
       <use xlink:href="#DejaVuSerif-63" x="455.761719"/>
       <use xlink:href="#DejaVuSerif-68" x="511.767578"/>
       <use xlink:href="#DejaVuSerif-6f" x="576.171875"/>
       <use xlink:href="#DejaVuSerif-6c" x="636.376953"/>
       <use xlink:href="#DejaVuSerif-61" x="668.359375"/>
       <use xlink:href="#DejaVuSerif-72" x="727.978516"/>
      </g>
     </g>
    </g>
   </g>
   <g id="matplotlib.axis_2">
    <g id="ytick_1">
     <g id="line2d_5">
      <defs>
       <path id="mafc56aeed7" d="M 0 0 
L -3.5 0 
" style="stroke: #000000; stroke-width: 0.8"/>
      </defs>
      <g>
       <use xlink:href="#mafc56aeed7" x="56.40125" y="325.16" style="stroke: #000000; stroke-width: 0.8"/>
      </g>
     </g>
     <g id="text_5">
      <!-- 0 -->
      <g transform="translate(41.13 330.098984) scale(0.13 -0.13)">
       <defs>
        <path id="DejaVuSerif-30" d="M 2034 219 
Q 2513 219 2750 744 
Q 2988 1269 2988 2328 
Q 2988 3391 2750 3916 
Q 2513 4441 2034 4441 
Q 1556 4441 1318 3916 
Q 1081 3391 1081 2328 
Q 1081 1269 1318 744 
Q 1556 219 2034 219 
z
M 2034 -91 
Q 1275 -91 848 546 
Q 422 1184 422 2328 
Q 422 3475 848 4112 
Q 1275 4750 2034 4750 
Q 2797 4750 3222 4112 
Q 3647 3475 3647 2328 
Q 3647 1184 3222 546 
Q 2797 -91 2034 -91 
z
" transform="scale(0.015625)"/>
       </defs>
       <use xlink:href="#DejaVuSerif-30"/>
      </g>
     </g>
    </g>
    <g id="ytick_2">
     <g id="line2d_6">
      <g>
       <use xlink:href="#mafc56aeed7" x="56.40125" y="263.403386" style="stroke: #000000; stroke-width: 0.8"/>
      </g>
     </g>
     <g id="text_6">
      <!-- 20 -->
      <g transform="translate(32.85875 268.342371) scale(0.13 -0.13)">
       <defs>
        <path id="DejaVuSerif-32" d="M 819 3553 
L 469 3553 
L 469 4384 
Q 803 4563 1142 4656 
Q 1481 4750 1806 4750 
Q 2534 4750 2956 4397 
Q 3378 4044 3378 3438 
Q 3378 2753 2422 1800 
Q 2347 1728 2309 1691 
L 1131 513 
L 3078 513 
L 3078 1088 
L 3444 1088 
L 3444 0 
L 434 0 
L 434 341 
L 1850 1753 
Q 2319 2222 2519 2614 
Q 2719 3006 2719 3438 
Q 2719 3909 2473 4175 
Q 2228 4441 1797 4441 
Q 1350 4441 1106 4219 
Q 863 3997 819 3553 
z
" transform="scale(0.015625)"/>
       </defs>
       <use xlink:href="#DejaVuSerif-32"/>
       <use xlink:href="#DejaVuSerif-30" x="63.623047"/>
      </g>
     </g>
    </g>
    <g id="ytick_3">
     <g id="line2d_7">
      <g>
       <use xlink:href="#mafc56aeed7" x="56.40125" y="201.646772" style="stroke: #000000; stroke-width: 0.8"/>
      </g>
     </g>
     <g id="text_7">
      <!-- 40 -->
      <g transform="translate(32.85875 206.585757) scale(0.13 -0.13)">
       <defs>
        <path id="DejaVuSerif-34" d="M 2234 1581 
L 2234 4063 
L 641 1581 
L 2234 1581 
z
M 3609 0 
L 1484 0 
L 1484 331 
L 2234 331 
L 2234 1247 
L 197 1247 
L 197 1588 
L 2241 4750 
L 2859 4750 
L 2859 1581 
L 3750 1581 
L 3750 1247 
L 2859 1247 
L 2859 331 
L 3609 331 
L 3609 0 
z
" transform="scale(0.015625)"/>
       </defs>
       <use xlink:href="#DejaVuSerif-34"/>
       <use xlink:href="#DejaVuSerif-30" x="63.623047"/>
      </g>
     </g>
    </g>
    <g id="ytick_4">
     <g id="line2d_8">
      <g>
       <use xlink:href="#mafc56aeed7" x="56.40125" y="139.890159" style="stroke: #000000; stroke-width: 0.8"/>
      </g>
     </g>
     <g id="text_8">
      <!-- 60 -->
      <g transform="translate(32.85875 144.829143) scale(0.13 -0.13)">
       <defs>
        <path id="DejaVuSerif-36" d="M 2094 219 
Q 2534 219 2771 542 
Q 3009 866 3009 1472 
Q 3009 2078 2771 2401 
Q 2534 2725 2094 2725 
Q 1647 2725 1412 2412 
Q 1178 2100 1178 1509 
Q 1178 888 1415 553 
Q 1653 219 2094 219 
z
M 1075 2569 
Q 1288 2803 1556 2918 
Q 1825 3034 2163 3034 
Q 2859 3034 3264 2615 
Q 3669 2197 3669 1472 
Q 3669 763 3233 336 
Q 2797 -91 2069 -91 
Q 1278 -91 853 498 
Q 428 1088 428 2181 
Q 428 3406 931 4078 
Q 1434 4750 2350 4750 
Q 2597 4750 2869 4703 
Q 3141 4656 3425 4563 
L 3425 3794 
L 3072 3794 
Q 3034 4109 2831 4275 
Q 2628 4441 2284 4441 
Q 1678 4441 1381 3981 
Q 1084 3522 1075 2569 
z
" transform="scale(0.015625)"/>
       </defs>
       <use xlink:href="#DejaVuSerif-36"/>
       <use xlink:href="#DejaVuSerif-30" x="63.623047"/>
      </g>
     </g>
    </g>
    <g id="ytick_5">
     <g id="line2d_9">
      <g>
       <use xlink:href="#mafc56aeed7" x="56.40125" y="78.133545" style="stroke: #000000; stroke-width: 0.8"/>
      </g>
     </g>
     <g id="text_9">
      <!-- 80 -->
      <g transform="translate(32.85875 83.072529) scale(0.13 -0.13)">
       <defs>
        <path id="DejaVuSerif-38" d="M 2981 1275 
Q 2981 1775 2732 2051 
Q 2484 2328 2034 2328 
Q 1584 2328 1336 2051 
Q 1088 1775 1088 1275 
Q 1088 772 1336 495 
Q 1584 219 2034 219 
Q 2484 219 2732 495 
Q 2981 772 2981 1275 
z
M 2853 3541 
Q 2853 3966 2637 4203 
Q 2422 4441 2034 4441 
Q 1650 4441 1433 4203 
Q 1216 3966 1216 3541 
Q 1216 3113 1433 2875 
Q 1650 2638 2034 2638 
Q 2422 2638 2637 2875 
Q 2853 3113 2853 3541 
z
M 2516 2484 
Q 3047 2413 3344 2092 
Q 3641 1772 3641 1275 
Q 3641 619 3225 264 
Q 2809 -91 2034 -91 
Q 1263 -91 845 264 
Q 428 619 428 1275 
Q 428 1772 725 2092 
Q 1022 2413 1556 2484 
Q 1084 2569 832 2842 
Q 581 3116 581 3541 
Q 581 4103 968 4426 
Q 1356 4750 2034 4750 
Q 2713 4750 3100 4426 
Q 3488 4103 3488 3541 
Q 3488 3116 3236 2842 
Q 2984 2569 2516 2484 
z
" transform="scale(0.015625)"/>
       </defs>
       <use xlink:href="#DejaVuSerif-38"/>
       <use xlink:href="#DejaVuSerif-30" x="63.623047"/>
      </g>
     </g>
    </g>
    <g id="text_10">
     <!-- Metadata Quality Scores (0-100%) -->
     <g transform="translate(25.748125 313.813125) rotate(-90) scale(0.14 -0.14)">
      <defs>
       <path id="DejaVuSerif-Bold-4d" d="M 269 0 
L 269 378 
L 863 378 
L 863 4288 
L 269 4288 
L 269 4666 
L 2194 4666 
L 3525 1672 
L 4863 4666 
L 6784 4666 
L 6784 4288 
L 6188 4288 
L 6188 378 
L 6784 378 
L 6784 0 
L 4384 0 
L 4384 378 
L 4978 378 
L 4978 3938 
L 3531 684 
L 2741 684 
L 1300 3938 
L 1300 378 
L 1894 378 
L 1894 0 
L 269 0 
z
" transform="scale(0.015625)"/>
       <path id="DejaVuSerif-Bold-65" d="M 2566 1875 
Q 2566 2531 2444 2795 
Q 2322 3059 2028 3059 
Q 1744 3059 1620 2800 
Q 1497 2541 1497 1931 
L 1497 1875 
L 2566 1875 
z
M 3781 1503 
L 1497 1503 
L 1497 1478 
Q 1497 834 1690 548 
Q 1884 263 2316 263 
Q 2675 263 2897 453 
Q 3119 644 3181 1006 
L 3700 1006 
Q 3566 441 3166 175 
Q 2766 -91 2047 -91 
Q 1184 -91 723 364 
Q 263 819 263 1663 
Q 263 2488 734 2950 
Q 1206 3413 2047 3413 
Q 2872 3413 3312 2927 
Q 3753 2441 3781 1503 
z
" transform="scale(0.015625)"/>
       <path id="DejaVuSerif-Bold-74" d="M 634 2944 
L 153 2944 
L 153 3322 
L 634 3322 
L 634 4353 
L 1741 4353 
L 1741 3322 
L 2663 3322 
L 2663 2944 
L 1741 2944 
L 1741 909 
Q 1741 475 1809 369 
Q 1878 263 2059 263 
Q 2259 263 2356 397 
Q 2453 531 2459 813 
L 2925 813 
Q 2897 313 2651 111 
Q 2406 -91 1806 -91 
Q 1122 -91 878 123 
Q 634 338 634 909 
L 634 2944 
z
" transform="scale(0.015625)"/>
       <path id="DejaVuSerif-Bold-61" d="M 3525 2041 
L 3525 378 
L 4000 378 
L 4000 0 
L 2419 0 
L 2419 422 
Q 2200 159 1931 34 
Q 1663 -91 1319 -91 
Q 809 -91 536 182 
Q 263 456 263 966 
Q 263 1525 655 1803 
Q 1047 2081 1838 2081 
L 2419 2081 
L 2419 2278 
Q 2419 2681 2228 2873 
Q 2038 3066 1638 3066 
Q 1306 3066 1126 2930 
Q 947 2794 872 2484 
L 519 2484 
L 519 3200 
Q 816 3306 1134 3359 
Q 1453 3413 1806 3413 
Q 2697 3413 3111 3081 
Q 3525 2750 3525 2041 
z
M 2419 1044 
L 2419 1709 
L 2003 1709 
Q 1694 1709 1528 1540 
Q 1363 1372 1363 1056 
Q 1363 741 1483 584 
Q 1603 428 1850 428 
Q 2106 428 2262 597 
Q 2419 766 2419 1044 
z
" transform="scale(0.015625)"/>
       <path id="DejaVuSerif-Bold-64" d="M 2747 1497 
L 2747 1825 
Q 2747 2406 2597 2665 
Q 2447 2925 2119 2925 
Q 1775 2925 1636 2651 
Q 1497 2378 1497 1663 
Q 1497 947 1637 672 
Q 1778 397 2119 397 
Q 2447 397 2597 656 
Q 2747 916 2747 1497 
z
M 3853 378 
L 4325 378 
L 4325 0 
L 2747 0 
L 2747 422 
Q 2606 163 2367 36 
Q 2128 -91 1778 -91 
Q 1072 -91 667 378 
Q 263 847 263 1663 
Q 263 2481 667 2947 
Q 1072 3413 1778 3413 
Q 2128 3413 2367 3286 
Q 2606 3159 2747 2900 
L 2747 4488 
L 2272 4488 
L 2272 4863 
L 3853 4863 
L 3853 378 
z
" transform="scale(0.015625)"/>
       <path id="DejaVuSerif-Bold-20" transform="scale(0.015625)"/>
       <path id="DejaVuSerif-Bold-51" d="M 2766 -91 
Q 1584 -72 926 565 
Q 269 1203 269 2328 
Q 269 3459 939 4104 
Q 1609 4750 2784 4750 
Q 3963 4750 4631 4106 
Q 5300 3463 5300 2328 
Q 5300 1334 4786 715 
Q 4272 97 3322 -50 
Q 3488 -228 3725 -306 
Q 3963 -384 4341 -384 
L 4500 -384 
L 4500 -1153 
L 4409 -1153 
Q 3816 -1153 3419 -897 
Q 3022 -641 2766 -91 
z
M 2784 288 
Q 3381 288 3672 791 
Q 3963 1294 3963 2328 
Q 3963 3366 3672 3869 
Q 3381 4372 2784 4372 
Q 2191 4372 1898 3864 
Q 1606 3356 1606 2328 
Q 1606 1303 1898 795 
Q 2191 288 2784 288 
z
" transform="scale(0.015625)"/>
       <path id="DejaVuSerif-Bold-75" d="M 3963 3322 
L 3963 378 
L 4434 378 
L 4434 0 
L 2853 0 
L 2853 469 
Q 2656 172 2400 40 
Q 2144 -91 1753 -91 
Q 1194 -91 908 239 
Q 622 569 622 1209 
L 622 2944 
L 147 2944 
L 147 3322 
L 1728 3322 
L 1728 1381 
Q 1728 763 1831 595 
Q 1934 428 2209 428 
Q 2544 428 2698 675 
Q 2853 922 2853 1459 
L 2853 2944 
L 2450 2944 
L 2450 3322 
L 3963 3322 
z
" transform="scale(0.015625)"/>
       <path id="DejaVuSerif-Bold-6c" d="M 1797 378 
L 2272 378 
L 2272 0 
L 219 0 
L 219 378 
L 691 378 
L 691 4488 
L 219 4488 
L 219 4863 
L 1797 4863 
L 1797 378 
z
" transform="scale(0.015625)"/>
       <path id="DejaVuSerif-Bold-69" d="M 588 4263 
Q 588 4516 763 4689 
Q 938 4863 1191 4863 
Q 1438 4863 1611 4689 
Q 1784 4516 1784 4263 
Q 1784 4016 1611 3842 
Q 1438 3669 1191 3669 
Q 938 3669 763 3841 
Q 588 4013 588 4263 
z
M 1797 378 
L 2272 378 
L 2272 0 
L 219 0 
L 219 378 
L 691 378 
L 691 2944 
L 219 2944 
L 219 3322 
L 1797 3322 
L 1797 378 
z
" transform="scale(0.015625)"/>
       <path id="DejaVuSerif-Bold-79" d="M 1997 -750 
Q 1847 -1116 1634 -1269 
Q 1422 -1422 1063 -1422 
Q 909 -1422 721 -1387 
Q 534 -1353 313 -1288 
L 313 -594 
L 666 -597 
Q 675 -838 779 -953 
Q 884 -1069 1094 -1069 
Q 1297 -1069 1422 -958 
Q 1547 -847 1672 -538 
L 1722 -422 
L 275 2944 
L -84 2944 
L -84 3322 
L 1831 3322 
L 1831 2944 
L 1434 2944 
L 2278 978 
L 3066 2944 
L 2625 2944 
L 2625 3322 
L 3872 3322 
L 3872 2944 
L 3469 2944 
L 1997 -750 
z
" transform="scale(0.015625)"/>
       <path id="DejaVuSerif-Bold-53" d="M 494 225 
L 494 1331 
L 891 1331 
Q 981 806 1318 547 
Q 1656 288 2253 288 
Q 2738 288 2991 472 
Q 3244 656 3244 1013 
Q 3244 1294 3072 1450 
Q 2900 1606 2363 1741 
L 1663 1913 
Q 978 2088 700 2398 
Q 422 2709 422 3284 
Q 422 3978 883 4364 
Q 1344 4750 2175 4750 
Q 2584 4750 3026 4681 
Q 3469 4613 3944 4475 
L 3944 3444 
L 3547 3444 
Q 3456 3925 3150 4148 
Q 2844 4372 2278 4372 
Q 1816 4372 1580 4211 
Q 1344 4050 1344 3731 
Q 1344 3441 1506 3289 
Q 1669 3138 2303 2975 
L 3003 2803 
Q 3653 2641 3945 2297 
Q 4238 1953 4238 1350 
Q 4238 644 3750 276 
Q 3263 -91 2316 -91 
Q 1859 -91 1409 -12 
Q 959 66 494 225 
z
" transform="scale(0.015625)"/>
       <path id="DejaVuSerif-Bold-63" d="M 3609 1038 
Q 3491 469 3123 189 
Q 2756 -91 2125 -91 
Q 1238 -91 750 368 
Q 263 828 263 1663 
Q 263 2488 744 2950 
Q 1225 3413 2081 3413 
Q 2428 3413 2781 3347 
Q 3134 3281 3500 3150 
L 3500 2228 
L 3150 2228 
Q 3100 2650 2903 2854 
Q 2706 3059 2350 3059 
Q 1888 3059 1692 2746 
Q 1497 2434 1497 1663 
Q 1497 909 1687 586 
Q 1878 263 2309 263 
Q 2644 263 2845 463 
Q 3047 663 3091 1038 
L 3609 1038 
z
" transform="scale(0.015625)"/>
       <path id="DejaVuSerif-Bold-6f" d="M 2138 263 
Q 2488 263 2630 563 
Q 2772 863 2772 1663 
Q 2772 2463 2631 2761 
Q 2491 3059 2138 3059 
Q 1784 3059 1640 2757 
Q 1497 2456 1497 1663 
Q 1497 869 1640 566 
Q 1784 263 2138 263 
z
M 2138 -91 
Q 1259 -91 761 376 
Q 263 844 263 1663 
Q 263 2484 761 2948 
Q 1259 3413 2138 3413 
Q 3019 3413 3516 2948 
Q 4013 2484 4013 1663 
Q 4013 844 3514 376 
Q 3016 -91 2138 -91 
z
" transform="scale(0.015625)"/>
       <path id="DejaVuSerif-Bold-72" d="M 3438 3359 
L 3438 2369 
L 3084 2369 
Q 3066 2634 2941 2764 
Q 2816 2894 2578 2894 
Q 2216 2894 2006 2575 
Q 1797 2256 1797 1691 
L 1797 378 
L 2400 378 
L 2400 0 
L 219 0 
L 219 378 
L 691 378 
L 691 2944 
L 184 2944 
L 184 3322 
L 1797 3322 
L 1797 2731 
Q 1959 3078 2226 3245 
Q 2494 3413 2881 3413 
Q 2978 3413 3117 3398 
Q 3256 3384 3438 3359 
z
" transform="scale(0.015625)"/>
       <path id="DejaVuSerif-Bold-73" d="M 300 97 
L 300 1025 
L 653 1025 
Q 697 653 931 458 
Q 1166 263 1569 263 
Q 1906 263 2086 380 
Q 2266 497 2266 716 
Q 2266 916 2152 1025 
Q 2038 1134 1709 1216 
L 1253 1331 
Q 738 1459 506 1698 
Q 275 1938 275 2344 
Q 275 2884 650 3148 
Q 1025 3413 1806 3413 
Q 2100 3413 2433 3364 
Q 2766 3316 3169 3213 
L 3169 2375 
L 2816 2375 
Q 2788 2716 2573 2887 
Q 2359 3059 1959 3059 
Q 1622 3059 1448 2951 
Q 1275 2844 1275 2638 
Q 1275 2469 1375 2372 
Q 1475 2275 1734 2209 
L 2188 2094 
Q 2841 1928 3091 1684 
Q 3341 1441 3341 1006 
Q 3341 444 2939 176 
Q 2538 -91 1691 -91 
Q 1381 -91 1034 -44 
Q 688 3 300 97 
z
" transform="scale(0.015625)"/>
       <path id="DejaVuSerif-Bold-28" d="M 2694 -997 
Q 1641 -606 1122 122 
Q 603 850 603 1931 
Q 603 3013 1115 3731 
Q 1628 4450 2694 4863 
L 2694 4488 
Q 2200 4188 1983 3598 
Q 1766 3009 1766 1931 
Q 1766 856 1983 267 
Q 2200 -322 2694 -622 
L 2694 -997 
z
" transform="scale(0.015625)"/>
       <path id="DejaVuSerif-Bold-30" d="M 2228 275 
Q 2603 275 2742 615 
Q 2881 956 2881 2328 
Q 2881 3691 2742 4037 
Q 2603 4384 2228 4384 
Q 1853 4384 1714 4043 
Q 1575 3703 1575 2328 
Q 1575 956 1714 615 
Q 1853 275 2228 275 
z
M 2228 -91 
Q 1294 -91 797 532 
Q 300 1156 300 2328 
Q 300 3500 797 4125 
Q 1294 4750 2228 4750 
Q 3159 4750 3656 4125 
Q 4153 3500 4153 2328 
Q 4153 1156 3656 532 
Q 3159 -91 2228 -91 
z
" transform="scale(0.015625)"/>
       <path id="DejaVuSerif-Bold-2d" d="M 347 2138 
L 2309 2138 
L 2309 1294 
L 347 1294 
L 347 2138 
z
" transform="scale(0.015625)"/>
       <path id="DejaVuSerif-Bold-31" d="M 878 0 
L 878 378 
L 1753 378 
L 1753 4153 
L 781 3578 
L 781 4044 
L 1953 4750 
L 2938 4750 
L 2938 378 
L 3816 378 
L 3816 0 
L 878 0 
z
" transform="scale(0.015625)"/>
       <path id="DejaVuSerif-Bold-25" d="M 1381 4434 
Q 1181 4434 1093 4217 
Q 1006 4000 1006 3481 
Q 1006 2959 1093 2740 
Q 1181 2522 1381 2522 
Q 1584 2522 1671 2740 
Q 1759 2959 1759 3481 
Q 1759 4000 1671 4217 
Q 1584 4434 1381 4434 
z
M 1381 4750 
Q 1978 4750 2295 4423 
Q 2613 4097 2613 3481 
Q 2613 2866 2295 2537 
Q 1978 2209 1381 2209 
Q 788 2209 470 2537 
Q 153 2866 153 3481 
Q 153 4097 470 4423 
Q 788 4750 1381 4750 
z
M 4231 4750 
L 4769 4750 
L 1850 -91 
L 1313 -91 
L 4231 4750 
z
M 4697 2450 
Q 5294 2450 5609 2123 
Q 5925 1797 5925 1184 
Q 5925 569 5609 239 
Q 5294 -91 4697 -91 
Q 4103 -91 3786 239 
Q 3469 569 3469 1184 
Q 3469 1797 3786 2123 
Q 4103 2450 4697 2450 
z
M 4697 2138 
Q 4494 2138 4406 1920 
Q 4319 1703 4319 1184 
Q 4319 663 4408 444 
Q 4497 225 4697 225 
Q 4900 225 4987 444 
Q 5075 663 5075 1184 
Q 5075 1703 4987 1920 
Q 4900 2138 4697 2138 
z
" transform="scale(0.015625)"/>
       <path id="DejaVuSerif-Bold-29" d="M 325 -997 
L 325 -622 
Q 819 -322 1036 267 
Q 1253 856 1253 1931 
Q 1253 3009 1036 3598 
Q 819 4188 325 4488 
L 325 4863 
Q 1391 4450 1905 3731 
Q 2419 3013 2419 1931 
Q 2419 850 1898 122 
Q 1378 -606 325 -997 
z
" transform="scale(0.015625)"/>
      </defs>
      <use xlink:href="#DejaVuSerif-Bold-4d"/>
      <use xlink:href="#DejaVuSerif-Bold-65" x="110.693359"/>
      <use xlink:href="#DejaVuSerif-Bold-74" x="174.316406"/>
      <use xlink:href="#DejaVuSerif-Bold-61" x="220.507812"/>
      <use xlink:href="#DejaVuSerif-Bold-64" x="285.302734"/>
      <use xlink:href="#DejaVuSerif-Bold-61" x="355.224609"/>
      <use xlink:href="#DejaVuSerif-Bold-74" x="420.019531"/>
      <use xlink:href="#DejaVuSerif-Bold-61" x="466.210938"/>
      <use xlink:href="#DejaVuSerif-Bold-20" x="531.005859"/>
      <use xlink:href="#DejaVuSerif-Bold-51" x="565.820312"/>
      <use xlink:href="#DejaVuSerif-Bold-75" x="652.929688"/>
      <use xlink:href="#DejaVuSerif-Bold-61" x="725.634766"/>
      <use xlink:href="#DejaVuSerif-Bold-6c" x="790.429688"/>
      <use xlink:href="#DejaVuSerif-Bold-69" x="828.417969"/>
      <use xlink:href="#DejaVuSerif-Bold-74" x="866.40625"/>
      <use xlink:href="#DejaVuSerif-Bold-79" x="912.597656"/>
      <use xlink:href="#DejaVuSerif-Bold-20" x="970.703125"/>
      <use xlink:href="#DejaVuSerif-Bold-53" x="1005.517578"/>
      <use xlink:href="#DejaVuSerif-Bold-63" x="1077.734375"/>
      <use xlink:href="#DejaVuSerif-Bold-6f" x="1138.623047"/>
      <use xlink:href="#DejaVuSerif-Bold-72" x="1205.322266"/>
      <use xlink:href="#DejaVuSerif-Bold-65" x="1258.007812"/>
      <use xlink:href="#DejaVuSerif-Bold-73" x="1321.630859"/>
      <use xlink:href="#DejaVuSerif-Bold-20" x="1377.929688"/>
      <use xlink:href="#DejaVuSerif-Bold-28" x="1412.744141"/>
      <use xlink:href="#DejaVuSerif-Bold-30" x="1460.058594"/>
      <use xlink:href="#DejaVuSerif-Bold-2d" x="1529.638672"/>
      <use xlink:href="#DejaVuSerif-Bold-31" x="1571.142578"/>
      <use xlink:href="#DejaVuSerif-Bold-30" x="1640.722656"/>
      <use xlink:href="#DejaVuSerif-Bold-30" x="1710.302734"/>
      <use xlink:href="#DejaVuSerif-Bold-25" x="1779.882812"/>
      <use xlink:href="#DejaVuSerif-Bold-29" x="1874.902344"/>
     </g>
    </g>
   </g>
   <g id="LineCollection_1">
    <path d="M 101.391403 71.957884 
L 101.391403 53.430899 
" clip-path="url(#p8885fd6307)" style="fill: none; stroke: #000000; stroke-width: 1.5"/>
    <path d="M 256.529859 90.484868 
L 256.529859 65.782222 
" clip-path="url(#p8885fd6307)" style="fill: none; stroke: #000000; stroke-width: 1.5"/>
    <path d="M 411.668316 102.83619 
L 411.668316 84.309206 
" clip-path="url(#p8885fd6307)" style="fill: none; stroke: #000000; stroke-width: 1.5"/>
    <path d="M 566.806773 124.451005 
L 566.806773 93.572698 
" clip-path="url(#p8885fd6307)" style="fill: none; stroke: #000000; stroke-width: 1.5"/>
   </g>
   <g id="line2d_10">
    <defs>
     <path id="m3d61065d9c" d="M 3 0 
L -3 -0 
" style="stroke: #000000"/>
    </defs>
    <g clip-path="url(#p8885fd6307)">
     <use xlink:href="#m3d61065d9c" x="101.391403" y="71.957884" style="stroke: #000000"/>
     <use xlink:href="#m3d61065d9c" x="256.529859" y="90.484868" style="stroke: #000000"/>
     <use xlink:href="#m3d61065d9c" x="411.668316" y="102.83619" style="stroke: #000000"/>
     <use xlink:href="#m3d61065d9c" x="566.806773" y="124.451005" style="stroke: #000000"/>
    </g>
   </g>
   <g id="line2d_11">
    <g clip-path="url(#p8885fd6307)">
     <use xlink:href="#m3d61065d9c" x="101.391403" y="53.430899" style="stroke: #000000"/>
     <use xlink:href="#m3d61065d9c" x="256.529859" y="65.782222" style="stroke: #000000"/>
     <use xlink:href="#m3d61065d9c" x="411.668316" y="84.309206" style="stroke: #000000"/>
     <use xlink:href="#m3d61065d9c" x="566.806773" y="93.572698" style="stroke: #000000"/>
    </g>
   </g>
   <g id="LineCollection_2">
    <path d="M 132.419094 84.309206 
L 132.419094 59.606561 
" clip-path="url(#p8885fd6307)" style="fill: none; stroke: #000000; stroke-width: 1.5"/>
    <path d="M 287.557551 93.572698 
L 287.557551 75.045714 
" clip-path="url(#p8885fd6307)" style="fill: none; stroke: #000000; stroke-width: 1.5"/>
    <path d="M 442.696008 112.099683 
L 442.696008 87.397037 
" clip-path="url(#p8885fd6307)" style="fill: none; stroke: #000000; stroke-width: 1.5"/>
    <path d="M 597.834465 133.714497 
L 597.834465 96.660529 
" clip-path="url(#p8885fd6307)" style="fill: none; stroke: #000000; stroke-width: 1.5"/>
   </g>
   <g id="line2d_12">
    <g clip-path="url(#p8885fd6307)">
     <use xlink:href="#m3d61065d9c" x="132.419094" y="84.309206" style="stroke: #000000"/>
     <use xlink:href="#m3d61065d9c" x="287.557551" y="93.572698" style="stroke: #000000"/>
     <use xlink:href="#m3d61065d9c" x="442.696008" y="112.099683" style="stroke: #000000"/>
     <use xlink:href="#m3d61065d9c" x="597.834465" y="133.714497" style="stroke: #000000"/>
    </g>
   </g>
   <g id="line2d_13">
    <g clip-path="url(#p8885fd6307)">
     <use xlink:href="#m3d61065d9c" x="132.419094" y="59.606561" style="stroke: #000000"/>
     <use xlink:href="#m3d61065d9c" x="287.557551" y="75.045714" style="stroke: #000000"/>
     <use xlink:href="#m3d61065d9c" x="442.696008" y="87.397037" style="stroke: #000000"/>
     <use xlink:href="#m3d61065d9c" x="597.834465" y="96.660529" style="stroke: #000000"/>
    </g>
   </g>
   <g id="LineCollection_3">
    <path d="M 163.446785 59.606561 
L 163.446785 47.255238 
" clip-path="url(#p8885fd6307)" style="fill: none; stroke: #000000; stroke-width: 1.5"/>
    <path d="M 318.585242 78.133545 
L 318.585242 59.606561 
" clip-path="url(#p8885fd6307)" style="fill: none; stroke: #000000; stroke-width: 1.5"/>
    <path d="M 473.723699 87.397037 
L 473.723699 75.045714 
" clip-path="url(#p8885fd6307)" style="fill: none; stroke: #000000; stroke-width: 1.5"/>
    <path d="M 628.862156 109.011852 
L 628.862156 84.309206 
" clip-path="url(#p8885fd6307)" style="fill: none; stroke: #000000; stroke-width: 1.5"/>
   </g>
   <g id="line2d_14">
    <g clip-path="url(#p8885fd6307)">
     <use xlink:href="#m3d61065d9c" x="163.446785" y="59.606561" style="stroke: #000000"/>
     <use xlink:href="#m3d61065d9c" x="318.585242" y="78.133545" style="stroke: #000000"/>
     <use xlink:href="#m3d61065d9c" x="473.723699" y="87.397037" style="stroke: #000000"/>
     <use xlink:href="#m3d61065d9c" x="628.862156" y="109.011852" style="stroke: #000000"/>
    </g>
   </g>
   <g id="line2d_15">
    <g clip-path="url(#p8885fd6307)">
     <use xlink:href="#m3d61065d9c" x="163.446785" y="47.255238" style="stroke: #000000"/>
     <use xlink:href="#m3d61065d9c" x="318.585242" y="59.606561" style="stroke: #000000"/>
     <use xlink:href="#m3d61065d9c" x="473.723699" y="75.045714" style="stroke: #000000"/>
     <use xlink:href="#m3d61065d9c" x="628.862156" y="84.309206" style="stroke: #000000"/>
    </g>
   </g>
   <g id="LineCollection_4">
    <path d="M 194.474477 109.011852 
L 194.474477 78.133545 
" clip-path="url(#p8885fd6307)" style="fill: none; stroke: #000000; stroke-width: 1.5"/>
    <path d="M 349.612934 127.538836 
L 349.612934 90.484868 
" clip-path="url(#p8885fd6307)" style="fill: none; stroke: #000000; stroke-width: 1.5"/>
    <path d="M 504.751391 139.890159 
L 504.751391 109.011852 
" clip-path="url(#p8885fd6307)" style="fill: none; stroke: #000000; stroke-width: 1.5"/>
    <path d="M 659.889847 161.504974 
L 659.889847 118.275344 
" clip-path="url(#p8885fd6307)" style="fill: none; stroke: #000000; stroke-width: 1.5"/>
   </g>
   <g id="line2d_16">
    <g clip-path="url(#p8885fd6307)">
     <use xlink:href="#m3d61065d9c" x="194.474477" y="109.011852" style="stroke: #000000"/>
     <use xlink:href="#m3d61065d9c" x="349.612934" y="127.538836" style="stroke: #000000"/>
     <use xlink:href="#m3d61065d9c" x="504.751391" y="139.890159" style="stroke: #000000"/>
     <use xlink:href="#m3d61065d9c" x="659.889847" y="161.504974" style="stroke: #000000"/>
    </g>
   </g>
   <g id="line2d_17">
    <g clip-path="url(#p8885fd6307)">
     <use xlink:href="#m3d61065d9c" x="194.474477" y="78.133545" style="stroke: #000000"/>
     <use xlink:href="#m3d61065d9c" x="349.612934" y="90.484868" style="stroke: #000000"/>
     <use xlink:href="#m3d61065d9c" x="504.751391" y="109.011852" style="stroke: #000000"/>
     <use xlink:href="#m3d61065d9c" x="659.889847" y="118.275344" style="stroke: #000000"/>
    </g>
   </g>
   <g id="patch_19">
    <path d="M 56.40125 325.16 
L 56.40125 33.36 
" style="fill: none; stroke: #000000; stroke-width: 0.8; stroke-linejoin: miter; stroke-linecap: square"/>
   </g>
   <g id="patch_20">
    <path d="M 56.40125 325.16 
L 704.88 325.16 
" style="fill: none; stroke: #000000; stroke-width: 0.8; stroke-linejoin: miter; stroke-linecap: square"/>
   </g>
   <g id="text_11">
    <!-- 85.00 -->
    <g transform="translate(85.645934 60.375857) scale(0.11 -0.11)">
     <defs>
      <path id="DejaVuSerif-35" d="M 3219 4666 
L 3219 4153 
L 1081 4153 
L 1081 2816 
Q 1244 2928 1461 2984 
Q 1678 3041 1947 3041 
Q 2703 3041 3140 2622 
Q 3578 2203 3578 1478 
Q 3578 738 3136 323 
Q 2694 -91 1894 -91 
Q 1572 -91 1234 -12 
Q 897 66 544 225 
L 544 1131 
L 897 1131 
Q 925 688 1179 453 
Q 1434 219 1894 219 
Q 2388 219 2653 544 
Q 2919 869 2919 1478 
Q 2919 2084 2655 2407 
Q 2391 2731 1894 2731 
Q 1613 2731 1398 2631 
Q 1184 2531 1019 2322 
L 750 2322 
L 750 4666 
L 3219 4666 
z
" transform="scale(0.015625)"/>
      <path id="DejaVuSerif-2e" d="M 603 325 
Q 603 500 722 622 
Q 841 744 1019 744 
Q 1191 744 1312 622 
Q 1434 500 1434 325 
Q 1434 153 1312 31 
Q 1191 -91 1019 -91 
Q 841 -91 722 29 
Q 603 150 603 325 
z
" transform="scale(0.015625)"/>
     </defs>
     <use xlink:href="#DejaVuSerif-38"/>
     <use xlink:href="#DejaVuSerif-35" x="63.623047"/>
     <use xlink:href="#DejaVuSerif-2e" x="127.246094"/>
     <use xlink:href="#DejaVuSerif-30" x="159.033203"/>
     <use xlink:href="#DejaVuSerif-30" x="222.65625"/>
    </g>
   </g>
   <g id="text_12">
    <!-- 80.00 -->
    <g transform="translate(240.784391 75.81501) scale(0.11 -0.11)">
     <use xlink:href="#DejaVuSerif-38"/>
     <use xlink:href="#DejaVuSerif-30" x="63.623047"/>
     <use xlink:href="#DejaVuSerif-2e" x="127.246094"/>
     <use xlink:href="#DejaVuSerif-30" x="159.033203"/>
     <use xlink:href="#DejaVuSerif-30" x="222.65625"/>
    </g>
   </g>
   <g id="text_13">
    <!-- 75.00 -->
    <g transform="translate(395.922848 91.254164) scale(0.11 -0.11)">
     <defs>
      <path id="DejaVuSerif-37" d="M 3609 4347 
L 1784 0 
L 1319 0 
L 3059 4153 
L 903 4153 
L 903 3578 
L 538 3578 
L 538 4666 
L 3609 4666 
L 3609 4347 
z
" transform="scale(0.015625)"/>
     </defs>
     <use xlink:href="#DejaVuSerif-37"/>
     <use xlink:href="#DejaVuSerif-35" x="63.623047"/>
     <use xlink:href="#DejaVuSerif-2e" x="127.246094"/>
     <use xlink:href="#DejaVuSerif-30" x="159.033203"/>
     <use xlink:href="#DejaVuSerif-30" x="222.65625"/>
    </g>
   </g>
   <g id="text_14">
    <!-- 70.00 -->
    <g transform="translate(551.061305 106.693317) scale(0.11 -0.11)">
     <use xlink:href="#DejaVuSerif-37"/>
     <use xlink:href="#DejaVuSerif-30" x="63.623047"/>
     <use xlink:href="#DejaVuSerif-2e" x="127.246094"/>
     <use xlink:href="#DejaVuSerif-30" x="159.033203"/>
     <use xlink:href="#DejaVuSerif-30" x="222.65625"/>
    </g>
   </g>
   <g id="text_15">
    <!-- 82.00 -->
    <g transform="translate(116.673625 69.639349) scale(0.11 -0.11)">
     <use xlink:href="#DejaVuSerif-38"/>
     <use xlink:href="#DejaVuSerif-32" x="63.623047"/>
     <use xlink:href="#DejaVuSerif-2e" x="127.246094"/>
     <use xlink:href="#DejaVuSerif-30" x="159.033203"/>
     <use xlink:href="#DejaVuSerif-30" x="222.65625"/>
    </g>
   </g>
   <g id="text_16">
    <!-- 78.00 -->
    <g transform="translate(271.812082 81.990672) scale(0.11 -0.11)">
     <use xlink:href="#DejaVuSerif-37"/>
     <use xlink:href="#DejaVuSerif-38" x="63.623047"/>
     <use xlink:href="#DejaVuSerif-2e" x="127.246094"/>
     <use xlink:href="#DejaVuSerif-30" x="159.033203"/>
     <use xlink:href="#DejaVuSerif-30" x="222.65625"/>
    </g>
   </g>
   <g id="text_17">
    <!-- 73.00 -->
    <g transform="translate(426.950539 97.429825) scale(0.11 -0.11)">
     <defs>
      <path id="DejaVuSerif-33" d="M 622 4469 
Q 988 4606 1323 4678 
Q 1659 4750 1953 4750 
Q 2638 4750 3022 4454 
Q 3406 4159 3406 3634 
Q 3406 3213 3140 2930 
Q 2875 2647 2388 2547 
Q 2963 2466 3280 2130 
Q 3597 1794 3597 1259 
Q 3597 606 3158 257 
Q 2719 -91 1894 -91 
Q 1528 -91 1179 -12 
Q 831 66 488 225 
L 488 1131 
L 838 1131 
Q 869 681 1141 450 
Q 1413 219 1906 219 
Q 2384 219 2661 495 
Q 2938 772 2938 1253 
Q 2938 1803 2653 2086 
Q 2369 2369 1819 2369 
L 1522 2369 
L 1522 2688 
L 1678 2688 
Q 2225 2688 2498 2914 
Q 2772 3141 2772 3597 
Q 2772 4006 2547 4223 
Q 2322 4441 1900 4441 
Q 1478 4441 1245 4241 
Q 1013 4041 972 3647 
L 622 3647 
L 622 4469 
z
" transform="scale(0.015625)"/>
     </defs>
     <use xlink:href="#DejaVuSerif-37"/>
     <use xlink:href="#DejaVuSerif-33" x="63.623047"/>
     <use xlink:href="#DejaVuSerif-2e" x="127.246094"/>
     <use xlink:href="#DejaVuSerif-30" x="159.033203"/>
     <use xlink:href="#DejaVuSerif-30" x="222.65625"/>
    </g>
   </g>
   <g id="text_18">
    <!-- 68.00 -->
    <g transform="translate(582.088996 112.868979) scale(0.11 -0.11)">
     <use xlink:href="#DejaVuSerif-36"/>
     <use xlink:href="#DejaVuSerif-38" x="63.623047"/>
     <use xlink:href="#DejaVuSerif-2e" x="127.246094"/>
     <use xlink:href="#DejaVuSerif-30" x="159.033203"/>
     <use xlink:href="#DejaVuSerif-30" x="222.65625"/>
    </g>
   </g>
   <g id="text_19">
    <!-- 88.00 -->
    <g transform="translate(147.701317 51.112365) scale(0.11 -0.11)">
     <use xlink:href="#DejaVuSerif-38"/>
     <use xlink:href="#DejaVuSerif-38" x="63.623047"/>
     <use xlink:href="#DejaVuSerif-2e" x="127.246094"/>
     <use xlink:href="#DejaVuSerif-30" x="159.033203"/>
     <use xlink:href="#DejaVuSerif-30" x="222.65625"/>
    </g>
   </g>
   <g id="text_20">
    <!-- 83.00 -->
    <g transform="translate(302.839773 66.551518) scale(0.11 -0.11)">
     <use xlink:href="#DejaVuSerif-38"/>
     <use xlink:href="#DejaVuSerif-33" x="63.623047"/>
     <use xlink:href="#DejaVuSerif-2e" x="127.246094"/>
     <use xlink:href="#DejaVuSerif-30" x="159.033203"/>
     <use xlink:href="#DejaVuSerif-30" x="222.65625"/>
    </g>
   </g>
   <g id="text_21">
    <!-- 79.00 -->
    <g transform="translate(457.97823 78.902841) scale(0.11 -0.11)">
     <defs>
      <path id="DejaVuSerif-39" d="M 2994 2091 
Q 2784 1856 2512 1740 
Q 2241 1625 1900 1625 
Q 1206 1625 804 2044 
Q 403 2463 403 3188 
Q 403 3897 839 4323 
Q 1275 4750 2003 4750 
Q 2794 4750 3217 4161 
Q 3641 3572 3641 2478 
Q 3641 1253 3137 581 
Q 2634 -91 1722 -91 
Q 1475 -91 1203 -44 
Q 931 3 647 97 
L 647 872 
L 997 872 
Q 1038 556 1241 387 
Q 1444 219 1784 219 
Q 2391 219 2687 676 
Q 2984 1134 2994 2091 
z
M 1978 4441 
Q 1534 4441 1298 4117 
Q 1063 3794 1063 3188 
Q 1063 2581 1298 2256 
Q 1534 1931 1978 1931 
Q 2422 1931 2658 2245 
Q 2894 2559 2894 3150 
Q 2894 3772 2656 4106 
Q 2419 4441 1978 4441 
z
" transform="scale(0.015625)"/>
     </defs>
     <use xlink:href="#DejaVuSerif-37"/>
     <use xlink:href="#DejaVuSerif-39" x="63.623047"/>
     <use xlink:href="#DejaVuSerif-2e" x="127.246094"/>
     <use xlink:href="#DejaVuSerif-30" x="159.033203"/>
     <use xlink:href="#DejaVuSerif-30" x="222.65625"/>
    </g>
   </g>
   <g id="text_22">
    <!-- 74.00 -->
    <g transform="translate(613.116687 94.341995) scale(0.11 -0.11)">
     <use xlink:href="#DejaVuSerif-37"/>
     <use xlink:href="#DejaVuSerif-34" x="63.623047"/>
     <use xlink:href="#DejaVuSerif-2e" x="127.246094"/>
     <use xlink:href="#DejaVuSerif-30" x="159.033203"/>
     <use xlink:href="#DejaVuSerif-30" x="222.65625"/>
    </g>
   </g>
   <g id="text_23">
    <!-- 75.00 -->
    <g transform="translate(178.729008 91.254164) scale(0.11 -0.11)">
     <use xlink:href="#DejaVuSerif-37"/>
     <use xlink:href="#DejaVuSerif-35" x="63.623047"/>
     <use xlink:href="#DejaVuSerif-2e" x="127.246094"/>
     <use xlink:href="#DejaVuSerif-30" x="159.033203"/>
     <use xlink:href="#DejaVuSerif-30" x="222.65625"/>
    </g>
   </g>
   <g id="text_24">
    <!-- 70.00 -->
    <g transform="translate(333.867465 106.693317) scale(0.11 -0.11)">
     <use xlink:href="#DejaVuSerif-37"/>
     <use xlink:href="#DejaVuSerif-30" x="63.623047"/>
     <use xlink:href="#DejaVuSerif-2e" x="127.246094"/>
     <use xlink:href="#DejaVuSerif-30" x="159.033203"/>
     <use xlink:href="#DejaVuSerif-30" x="222.65625"/>
    </g>
   </g>
   <g id="text_25">
    <!-- 65.00 -->
    <g transform="translate(489.005922 122.132471) scale(0.11 -0.11)">
     <use xlink:href="#DejaVuSerif-36"/>
     <use xlink:href="#DejaVuSerif-35" x="63.623047"/>
     <use xlink:href="#DejaVuSerif-2e" x="127.246094"/>
     <use xlink:href="#DejaVuSerif-30" x="159.033203"/>
     <use xlink:href="#DejaVuSerif-30" x="222.65625"/>
    </g>
   </g>
   <g id="text_26">
    <!-- 60.00 -->
    <g transform="translate(644.144379 137.571624) scale(0.11 -0.11)">
     <use xlink:href="#DejaVuSerif-36"/>
     <use xlink:href="#DejaVuSerif-30" x="63.623047"/>
     <use xlink:href="#DejaVuSerif-2e" x="127.246094"/>
     <use xlink:href="#DejaVuSerif-30" x="159.033203"/>
     <use xlink:href="#DejaVuSerif-30" x="222.65625"/>
    </g>
   </g>
   <g id="text_27">
    <!-- Comparative Metadata Quality Scores Across Databases -->
    <g transform="translate(129.721875 27.36) scale(0.16 -0.16)">
     <defs>
      <path id="DejaVuSerif-Bold-43" d="M 4769 1331 
Q 4584 609 4106 259 
Q 3628 -91 2822 -91 
Q 1641 -91 955 561 
Q 269 1213 269 2328 
Q 269 3447 955 4098 
Q 1641 4750 2822 4750 
Q 3238 4750 3688 4650 
Q 4138 4550 4641 4347 
L 4641 3200 
L 4244 3200 
Q 4122 3788 3800 4080 
Q 3478 4372 2950 4372 
Q 2269 4372 1937 3870 
Q 1606 3369 1606 2328 
Q 1606 1288 1937 788 
Q 2269 288 2956 288 
Q 3422 288 3717 547 
Q 4013 806 4147 1331 
L 4769 1331 
z
" transform="scale(0.015625)"/>
      <path id="DejaVuSerif-Bold-6d" d="M 3884 2778 
Q 4116 3109 4384 3261 
Q 4653 3413 5013 3413 
Q 5584 3413 5867 3089 
Q 6150 2766 6150 2113 
L 6150 378 
L 6625 378 
L 6625 0 
L 4647 0 
L 4647 378 
L 5044 378 
L 5044 1947 
Q 5044 2569 4948 2731 
Q 4853 2894 4594 2894 
Q 4300 2894 4137 2667 
Q 3975 2441 3975 2022 
L 3975 378 
L 4372 378 
L 4372 0 
L 2472 0 
L 2472 378 
L 2869 378 
L 2869 1947 
Q 2869 2569 2772 2731 
Q 2675 2894 2419 2894 
Q 2122 2894 1959 2667 
Q 1797 2441 1797 2022 
L 1797 378 
L 2194 378 
L 2194 0 
L 219 0 
L 219 378 
L 691 378 
L 691 2944 
L 219 2944 
L 219 3322 
L 1797 3322 
L 1797 2853 
Q 1991 3144 2241 3278 
Q 2491 3413 2834 3413 
Q 3241 3413 3494 3258 
Q 3747 3103 3884 2778 
z
" transform="scale(0.015625)"/>
      <path id="DejaVuSerif-Bold-70" d="M 1728 1825 
L 1728 1497 
Q 1728 916 1876 656 
Q 2025 397 2356 397 
Q 2697 397 2836 672 
Q 2975 947 2975 1663 
Q 2975 2378 2836 2651 
Q 2697 2925 2356 2925 
Q 2025 2925 1876 2665 
Q 1728 2406 1728 1825 
z
M 622 2944 
L 147 2944 
L 147 3322 
L 1728 3322 
L 1728 2900 
Q 1869 3159 2106 3286 
Q 2344 3413 2694 3413 
Q 3403 3413 3811 2945 
Q 4219 2478 4219 1663 
Q 4219 847 3811 378 
Q 3403 -91 2694 -91 
Q 2344 -91 2106 36 
Q 1869 163 1728 422 
L 1728 -953 
L 2241 -953 
L 2241 -1331 
L 147 -1331 
L 147 -953 
L 622 -953 
L 622 2944 
z
" transform="scale(0.015625)"/>
      <path id="DejaVuSerif-Bold-76" d="M 1428 0 
L 250 2944 
L -116 2944 
L -116 3322 
L 1791 3322 
L 1791 2944 
L 1388 2944 
L 2228 844 
L 3066 2944 
L 2631 2944 
L 2631 3322 
L 3878 3322 
L 3878 2944 
L 3494 2944 
L 2316 0 
L 1428 0 
z
" transform="scale(0.015625)"/>
      <path id="DejaVuSerif-Bold-41" d="M -50 0 
L -50 378 
L 331 378 
L 2088 4666 
L 2834 4666 
L 4594 378 
L 5038 378 
L 5038 0 
L 2853 0 
L 2853 378 
L 3309 378 
L 2925 1331 
L 1172 1331 
L 781 378 
L 1338 378 
L 1338 0 
L -50 0 
z
M 1325 1709 
L 2772 1709 
L 2053 3494 
L 1325 1709 
z
" transform="scale(0.015625)"/>
      <path id="DejaVuSerif-Bold-44" d="M 2100 378 
L 2534 378 
Q 3266 378 3605 847 
Q 3944 1316 3944 2338 
Q 3944 3353 3606 3820 
Q 3269 4288 2534 4288 
L 2100 4288 
L 2100 378 
z
M 300 0 
L 300 378 
L 897 378 
L 897 4288 
L 300 4288 
L 300 4666 
L 2694 4666 
Q 3950 4666 4615 4066 
Q 5281 3466 5281 2338 
Q 5281 1203 4614 601 
Q 3947 0 2694 0 
L 300 0 
z
" transform="scale(0.015625)"/>
      <path id="DejaVuSerif-Bold-62" d="M 622 378 
L 622 4488 
L 147 4488 
L 147 4863 
L 1728 4863 
L 1728 2900 
Q 1869 3159 2106 3286 
Q 2344 3413 2694 3413 
Q 3403 3413 3811 2945 
Q 4219 2478 4219 1663 
Q 4219 847 3811 378 
Q 3403 -91 2694 -91 
Q 2344 -91 2106 36 
Q 1869 163 1728 422 
L 1728 0 
L 147 0 
L 147 378 
L 622 378 
z
M 1728 1497 
Q 1728 916 1876 656 
Q 2025 397 2356 397 
Q 2697 397 2836 672 
Q 2975 947 2975 1663 
Q 2975 2378 2836 2651 
Q 2697 2925 2356 2925 
Q 2025 2925 1876 2665 
Q 1728 2406 1728 1825 
L 1728 1497 
z
" transform="scale(0.015625)"/>
     </defs>
     <use xlink:href="#DejaVuSerif-Bold-43"/>
     <use xlink:href="#DejaVuSerif-Bold-6f" x="79.589844"/>
     <use xlink:href="#DejaVuSerif-Bold-6d" x="146.289062"/>
     <use xlink:href="#DejaVuSerif-Bold-70" x="252.099609"/>
     <use xlink:href="#DejaVuSerif-Bold-61" x="322.021484"/>
     <use xlink:href="#DejaVuSerif-Bold-72" x="386.816406"/>
     <use xlink:href="#DejaVuSerif-Bold-61" x="439.501953"/>
     <use xlink:href="#DejaVuSerif-Bold-74" x="504.296875"/>
     <use xlink:href="#DejaVuSerif-Bold-69" x="550.488281"/>
     <use xlink:href="#DejaVuSerif-Bold-76" x="588.476562"/>
     <use xlink:href="#DejaVuSerif-Bold-65" x="646.582031"/>
     <use xlink:href="#DejaVuSerif-Bold-20" x="710.205078"/>
     <use xlink:href="#DejaVuSerif-Bold-4d" x="745.019531"/>
     <use xlink:href="#DejaVuSerif-Bold-65" x="855.712891"/>
     <use xlink:href="#DejaVuSerif-Bold-74" x="919.335938"/>
     <use xlink:href="#DejaVuSerif-Bold-61" x="965.527344"/>
     <use xlink:href="#DejaVuSerif-Bold-64" x="1030.322266"/>
     <use xlink:href="#DejaVuSerif-Bold-61" x="1100.244141"/>
     <use xlink:href="#DejaVuSerif-Bold-74" x="1165.039062"/>
     <use xlink:href="#DejaVuSerif-Bold-61" x="1211.230469"/>
     <use xlink:href="#DejaVuSerif-Bold-20" x="1276.025391"/>
     <use xlink:href="#DejaVuSerif-Bold-51" x="1310.839844"/>
     <use xlink:href="#DejaVuSerif-Bold-75" x="1397.949219"/>
     <use xlink:href="#DejaVuSerif-Bold-61" x="1470.654297"/>
     <use xlink:href="#DejaVuSerif-Bold-6c" x="1535.449219"/>
     <use xlink:href="#DejaVuSerif-Bold-69" x="1573.4375"/>
     <use xlink:href="#DejaVuSerif-Bold-74" x="1611.425781"/>
     <use xlink:href="#DejaVuSerif-Bold-79" x="1657.617188"/>
     <use xlink:href="#DejaVuSerif-Bold-20" x="1715.722656"/>
     <use xlink:href="#DejaVuSerif-Bold-53" x="1750.537109"/>
     <use xlink:href="#DejaVuSerif-Bold-63" x="1822.753906"/>
     <use xlink:href="#DejaVuSerif-Bold-6f" x="1883.642578"/>
     <use xlink:href="#DejaVuSerif-Bold-72" x="1950.341797"/>
     <use xlink:href="#DejaVuSerif-Bold-65" x="2003.027344"/>
     <use xlink:href="#DejaVuSerif-Bold-73" x="2066.650391"/>
     <use xlink:href="#DejaVuSerif-Bold-20" x="2122.949219"/>
     <use xlink:href="#DejaVuSerif-Bold-41" x="2157.763672"/>
     <use xlink:href="#DejaVuSerif-Bold-63" x="2235.351562"/>
     <use xlink:href="#DejaVuSerif-Bold-72" x="2296.240234"/>
     <use xlink:href="#DejaVuSerif-Bold-6f" x="2348.925781"/>
     <use xlink:href="#DejaVuSerif-Bold-73" x="2415.625"/>
     <use xlink:href="#DejaVuSerif-Bold-73" x="2471.923828"/>
     <use xlink:href="#DejaVuSerif-Bold-20" x="2528.222656"/>
     <use xlink:href="#DejaVuSerif-Bold-44" x="2563.037109"/>
     <use xlink:href="#DejaVuSerif-Bold-61" x="2649.755859"/>
     <use xlink:href="#DejaVuSerif-Bold-74" x="2714.550781"/>
     <use xlink:href="#DejaVuSerif-Bold-61" x="2760.742188"/>
     <use xlink:href="#DejaVuSerif-Bold-62" x="2825.537109"/>
     <use xlink:href="#DejaVuSerif-Bold-61" x="2895.458984"/>
     <use xlink:href="#DejaVuSerif-Bold-73" x="2960.253906"/>
     <use xlink:href="#DejaVuSerif-Bold-65" x="3016.552734"/>
     <use xlink:href="#DejaVuSerif-Bold-73" x="3080.175781"/>
    </g>
   </g>
   <g id="legend_1">
    <g id="patch_21">
     <path d="M 572.600625 113.75625 
L 696.48 113.75625 
Q 698.88 113.75625 698.88 111.35625 
L 698.88 41.76 
Q 698.88 39.36 696.48 39.36 
L 572.600625 39.36 
Q 570.200625 39.36 570.200625 41.76 
L 570.200625 111.35625 
Q 570.200625 113.75625 572.600625 113.75625 
z
" style="fill: #ffffff; opacity: 0.9; stroke: #cccccc; stroke-linejoin: miter"/>
    </g>
    <g id="patch_22">
     <path d="M 575.000625 53.278125 
L 599.000625 53.278125 
L 599.000625 44.878125 
L 575.000625 44.878125 
z
" style="fill: #2563eb; stroke: #ffffff; stroke-width: 0.5; stroke-linejoin: miter"/>
    </g>
    <g id="text_28">
     <!-- Completeness -->
     <g transform="translate(608.600625 53.278125) scale(0.12 -0.12)">
      <defs>
       <path id="DejaVuSerif-43" d="M 4513 1234 
Q 4306 581 3820 245 
Q 3334 -91 2591 -91 
Q 2134 -91 1743 65 
Q 1353 222 1050 525 
Q 700 875 529 1320 
Q 359 1766 359 2328 
Q 359 3416 987 4083 
Q 1616 4750 2644 4750 
Q 3025 4750 3456 4650 
Q 3888 4550 4384 4347 
L 4384 3272 
L 4031 3272 
Q 3916 3859 3567 4137 
Q 3219 4416 2591 4416 
Q 1844 4416 1459 3886 
Q 1075 3356 1075 2328 
Q 1075 1303 1459 773 
Q 1844 244 2591 244 
Q 3113 244 3450 492 
Q 3788 741 3938 1234 
L 4513 1234 
z
" transform="scale(0.015625)"/>
       <path id="DejaVuSerif-6d" d="M 3316 2675 
Q 3481 3041 3739 3227 
Q 3997 3413 4341 3413 
Q 4863 3413 5119 3089 
Q 5375 2766 5375 2113 
L 5375 331 
L 5894 331 
L 5894 0 
L 4300 0 
L 4300 331 
L 4800 331 
L 4800 2047 
Q 4800 2556 4650 2772 
Q 4500 2988 4153 2988 
Q 3769 2988 3567 2697 
Q 3366 2406 3366 1850 
L 3366 331 
L 3866 331 
L 3866 0 
L 2291 0 
L 2291 331 
L 2791 331 
L 2791 2069 
Q 2791 2566 2641 2777 
Q 2491 2988 2144 2988 
Q 1759 2988 1557 2697 
Q 1356 2406 1356 1850 
L 1356 331 
L 1856 331 
L 1856 0 
L 263 0 
L 263 331 
L 781 331 
L 781 2994 
L 231 2994 
L 231 3322 
L 1356 3322 
L 1356 2731 
Q 1516 3063 1762 3238 
Q 2009 3413 2322 3413 
Q 2709 3413 2968 3220 
Q 3228 3028 3316 2675 
z
" transform="scale(0.015625)"/>
       <path id="DejaVuSerif-74" d="M 691 2988 
L 184 2988 
L 184 3322 
L 691 3322 
L 691 4353 
L 1269 4353 
L 1269 3322 
L 2350 3322 
L 2350 2988 
L 1269 2988 
L 1269 878 
Q 1269 456 1350 337 
Q 1431 219 1650 219 
Q 1875 219 1978 351 
Q 2081 484 2088 781 
L 2522 781 
Q 2497 328 2275 118 
Q 2053 -91 1600 -91 
Q 1103 -91 897 129 
Q 691 350 691 878 
L 691 2988 
z
" transform="scale(0.015625)"/>
      </defs>
      <use xlink:href="#DejaVuSerif-43"/>
      <use xlink:href="#DejaVuSerif-6f" x="76.513672"/>
      <use xlink:href="#DejaVuSerif-6d" x="136.71875"/>
      <use xlink:href="#DejaVuSerif-70" x="231.542969"/>
      <use xlink:href="#DejaVuSerif-6c" x="295.556641"/>
      <use xlink:href="#DejaVuSerif-65" x="327.539062"/>
      <use xlink:href="#DejaVuSerif-74" x="386.71875"/>
      <use xlink:href="#DejaVuSerif-65" x="426.904297"/>
      <use xlink:href="#DejaVuSerif-6e" x="486.083984"/>
      <use xlink:href="#DejaVuSerif-65" x="550.488281"/>
      <use xlink:href="#DejaVuSerif-73" x="609.667969"/>
      <use xlink:href="#DejaVuSerif-73" x="660.986328"/>
     </g>
    </g>
    <g id="patch_23">
     <path d="M 575.000625 70.891875 
L 599.000625 70.891875 
L 599.000625 62.491875 
L 575.000625 62.491875 
z
" style="fill: #16a34a; stroke: #ffffff; stroke-width: 0.5; stroke-linejoin: miter"/>
    </g>
    <g id="text_29">
     <!-- Accuracy -->
     <g transform="translate(608.600625 70.891875) scale(0.12 -0.12)">
      <defs>
       <path id="DejaVuSerif-41" d="M 1281 1691 
L 2994 1691 
L 2138 3909 
L 1281 1691 
z
M -38 0 
L -38 331 
L 372 331 
L 2034 4666 
L 2559 4666 
L 4225 331 
L 4684 331 
L 4684 0 
L 2988 0 
L 2988 331 
L 3506 331 
L 3116 1356 
L 1153 1356 
L 763 331 
L 1275 331 
L 1275 0 
L -38 0 
z
" transform="scale(0.015625)"/>
       <path id="DejaVuSerif-79" d="M 1381 -609 
L 1600 -56 
L 359 2988 
L -19 2988 
L -19 3322 
L 1509 3322 
L 1509 2988 
L 978 2988 
L 1913 703 
L 2847 2988 
L 2350 2988 
L 2350 3322 
L 3597 3322 
L 3597 2988 
L 3225 2988 
L 1703 -750 
Q 1547 -1138 1356 -1280 
Q 1166 -1422 819 -1422 
Q 672 -1422 517 -1397 
Q 363 -1372 206 -1325 
L 206 -691 
L 500 -691 
Q 519 -903 608 -995 
Q 697 -1088 884 -1088 
Q 1056 -1088 1161 -992 
Q 1266 -897 1381 -609 
z
" transform="scale(0.015625)"/>
      </defs>
      <use xlink:href="#DejaVuSerif-41"/>
      <use xlink:href="#DejaVuSerif-63" x="72.216797"/>
      <use xlink:href="#DejaVuSerif-63" x="128.222656"/>
      <use xlink:href="#DejaVuSerif-75" x="184.228516"/>
      <use xlink:href="#DejaVuSerif-72" x="248.632812"/>
      <use xlink:href="#DejaVuSerif-61" x="296.435547"/>
      <use xlink:href="#DejaVuSerif-63" x="356.054688"/>
      <use xlink:href="#DejaVuSerif-79" x="412.060547"/>
     </g>
    </g>
    <g id="patch_24">
     <path d="M 575.000625 88.67625 
L 599.000625 88.67625 
L 599.000625 80.27625 
L 575.000625 80.27625 
z
" style="fill: #ca8a04; stroke: #ffffff; stroke-width: 0.5; stroke-linejoin: miter"/>
    </g>
    <g id="text_30">
     <!-- Consistency -->
     <g transform="translate(608.600625 88.67625) scale(0.12 -0.12)">
      <use xlink:href="#DejaVuSerif-43"/>
      <use xlink:href="#DejaVuSerif-6f" x="76.513672"/>
      <use xlink:href="#DejaVuSerif-6e" x="136.71875"/>
      <use xlink:href="#DejaVuSerif-73" x="201.123047"/>
      <use xlink:href="#DejaVuSerif-69" x="252.441406"/>
      <use xlink:href="#DejaVuSerif-73" x="284.423828"/>
      <use xlink:href="#DejaVuSerif-74" x="335.742188"/>
      <use xlink:href="#DejaVuSerif-65" x="375.927734"/>
      <use xlink:href="#DejaVuSerif-6e" x="435.107422"/>
      <use xlink:href="#DejaVuSerif-63" x="499.511719"/>
      <use xlink:href="#DejaVuSerif-79" x="555.517578"/>
     </g>
    </g>
    <g id="patch_25">
     <path d="M 575.000625 106.460625 
L 599.000625 106.460625 
L 599.000625 98.060625 
L 575.000625 98.060625 
z
" style="fill: #dc2626; stroke: #ffffff; stroke-width: 0.5; stroke-linejoin: miter"/>
    </g>
    <g id="text_31">
     <!-- Timeliness -->
     <g transform="translate(608.600625 106.460625) scale(0.12 -0.12)">
      <defs>
       <path id="DejaVuSerif-54" d="M 1222 0 
L 1222 331 
L 1819 331 
L 1819 4294 
L 447 4294 
L 447 3566 
L 63 3566 
L 63 4666 
L 4206 4666 
L 4206 3566 
L 3822 3566 
L 3822 4294 
L 2450 4294 
L 2450 331 
L 3047 331 
L 3047 0 
L 1222 0 
z
" transform="scale(0.015625)"/>
      </defs>
      <use xlink:href="#DejaVuSerif-54"/>
      <use xlink:href="#DejaVuSerif-69" x="66.699219"/>
      <use xlink:href="#DejaVuSerif-6d" x="98.681641"/>
      <use xlink:href="#DejaVuSerif-65" x="193.505859"/>
      <use xlink:href="#DejaVuSerif-6c" x="252.685547"/>
      <use xlink:href="#DejaVuSerif-69" x="284.667969"/>
      <use xlink:href="#DejaVuSerif-6e" x="316.650391"/>
      <use xlink:href="#DejaVuSerif-65" x="381.054688"/>
      <use xlink:href="#DejaVuSerif-73" x="440.234375"/>
      <use xlink:href="#DejaVuSerif-73" x="491.552734"/>
     </g>
    </g>
   </g>
  </g>
 </g>
 <defs>
  <clipPath id="p8885fd6307">
   <rect x="56.40125" y="33.36" width="648.47875" height="291.8"/>
  </clipPath>
 </defs>
</svg>
