<?xml version="1.0" encoding="utf-8" standalone="no"?>
<!DOCTYPE svg PUBLIC "-//W3C//DTD SVG 1.1//EN"
  "http://www.w3.org/Graphics/SVG/1.1/DTD/svg11.dtd">
<svg xmlns:xlink="http://www.w3.org/1999/xlink" width="864pt" height="1152pt" viewBox="0 0 864 1152" xmlns="http://www.w3.org/2000/svg" version="1.1">
 <metadata>
  <rdf:RDF xmlns:dc="http://purl.org/dc/elements/1.1/" xmlns:cc="http://creativecommons.org/ns#" xmlns:rdf="http://www.w3.org/1999/02/22-rdf-syntax-ns#">
   <cc:Work>
    <dc:type rdf:resource="http://purl.org/dc/dcmitype/StillImage"/>
    <dc:date>2026-03-27T20:37:54.706946</dc:date>
    <dc:format>image/svg+xml</dc:format>
    <dc:creator>
     <cc:Agent>
      <dc:title>Matplotlib v3.9.4, https://matplotlib.org/</dc:title>
     </cc:Agent>
    </dc:creator>
   </cc:Work>
  </rdf:RDF>
 </metadata>
 <defs>
  <style type="text/css">*{stroke-linejoin: round; stroke-linecap: butt}</style>
 </defs>
 <g id="figure_1">
  <g id="patch_1">
   <path d="M 0 1152 
L 864 1152 
L 864 0 
L 0 0 
z
" style="fill: #ffffff"/>
  </g>
  <g id="axes_1">
   <g id="patch_2">
    <path d="M 142.476 156.312 
L 285.7515 156.312 
Q 293.71125 156.312 293.71125 149.048533 
L 293.71125 98.204267 
Q 293.71125 90.9408 285.7515 90.9408 
L 142.476 90.9408 
Q 134.51625 90.9408 134.51625 98.204267 
L 134.51625 149.048533 
Q 134.51625 156.312 142.476 156.312 
z
" clip-path="url(#p2b83ee41cf)" style="fill: #4c78a8; stroke: #333333; stroke-width: 1.5; stroke-linejoin: miter"/>
   </g>
   <g id="patch_3">
    <path d="M 341.46975 156.312 
L 484.74525 156.312 
Q 492.705 156.312 492.705 149.048533 
L 492.705 98.204267 
Q 492.705 90.9408 484.74525 90.9408 
L 341.46975 90.9408 
Q 333.51 90.9408 333.51 98.204267 
L 333.51 149.048533 
Q 333.51 156.312 341.46975 156.312 
z
" clip-path="url(#p2b83ee41cf)" style="fill: #4c78a8; stroke: #333333; stroke-width: 1.5; stroke-linejoin: miter"/>
   </g>
   <g id="patch_4">
    <path d="M 540.4635 156.312 
L 683.739 156.312 
Q 691.69875 156.312 691.69875 149.048533 
L 691.69875 98.204267 
Q 691.69875 90.9408 683.739 90.9408 
L 540.4635 90.9408 
Q 532.50375 90.9408 532.50375 98.204267 
L 532.50375 149.048533 
Q 532.50375 156.312 540.4635 156.312 
z
" clip-path="url(#p2b83ee41cf)" style="fill: #4c78a8; stroke: #333333; stroke-width: 1.5; stroke-linejoin: miter"/>
   </g>
   <g id="patch_5">
    <path d="M 142.476 301.581333 
L 285.7515 301.581333 
Q 293.71125 301.581333 293.71125 294.317867 
L 293.71125 243.4736 
Q 293.71125 236.210133 285.7515 236.210133 
L 142.476 236.210133 
Q 134.51625 236.210133 134.51625 243.4736 
L 134.51625 294.317867 
Q 134.51625 301.581333 142.476 301.581333 
z
" clip-path="url(#p2b83ee41cf)" style="fill: #72b7b2; stroke: #333333; stroke-width: 1.5; stroke-linejoin: miter"/>
   </g>
   <g id="patch_6">
    <path d="M 341.46975 301.581333 
L 484.74525 301.581333 
Q 492.705 301.581333 492.705 294.317867 
L 492.705 243.4736 
Q 492.705 236.210133 484.74525 236.210133 
L 341.46975 236.210133 
Q 333.51 236.210133 333.51 243.4736 
L 333.51 294.317867 
Q 333.51 301.581333 341.46975 301.581333 
z
" clip-path="url(#p2b83ee41cf)" style="fill: #72b7b2; stroke: #333333; stroke-width: 1.5; stroke-linejoin: miter"/>
   </g>
   <g id="patch_7">
    <path d="M 540.4635 301.581333 
L 683.739 301.581333 
Q 691.69875 301.581333 691.69875 294.317867 
L 691.69875 243.4736 
Q 691.69875 236.210133 683.739 236.210133 
L 540.4635 236.210133 
Q 532.50375 236.210133 532.50375 243.4736 
L 532.50375 294.317867 
Q 532.50375 301.581333 540.4635 301.581333 
z
" clip-path="url(#p2b83ee41cf)" style="fill: #72b7b2; stroke: #333333; stroke-width: 1.5; stroke-linejoin: miter"/>
   </g>
   <g id="patch_8">
    <path d="M 142.476 446.850667 
L 285.7515 446.850667 
Q 293.71125 446.850667 293.71125 439.5872 
L 293.71125 388.742933 
Q 293.71125 381.479467 285.7515 381.479467 
L 142.476 381.479467 
Q 134.51625 381.479467 134.51625 388.742933 
L 134.51625 439.5872 
Q 134.51625 446.850667 142.476 446.850667 
z
" clip-path="url(#p2b83ee41cf)" style="fill: #54a24b; stroke: #333333; stroke-width: 1.5; stroke-linejoin: miter"/>
   </g>
   <g id="patch_9">
    <path d="M 341.46975 446.850667 
L 484.74525 446.850667 
Q 492.705 446.850667 492.705 439.5872 
L 492.705 388.742933 
Q 492.705 381.479467 484.74525 381.479467 
L 341.46975 381.479467 
Q 333.51 381.479467 333.51 388.742933 
L 333.51 439.5872 
Q 333.51 446.850667 341.46975 446.850667 
z
" clip-path="url(#p2b83ee41cf)" style="fill: #54a24b; stroke: #333333; stroke-width: 1.5; stroke-linejoin: miter"/>
   </g>
   <g id="patch_10">
    <path d="M 540.4635 446.850667 
L 683.739 446.850667 
Q 691.69875 446.850667 691.69875 439.5872 
L 691.69875 388.742933 
Q 691.69875 381.479467 683.739 381.479467 
L 540.4635 381.479467 
Q 532.50375 381.479467 532.50375 388.742933 
L 532.50375 439.5872 
Q 532.50375 446.850667 540.4635 446.850667 
z
" clip-path="url(#p2b83ee41cf)" style="fill: #54a24b; stroke: #333333; stroke-width: 1.5; stroke-linejoin: miter"/>
   </g>
   <g id="patch_11">
    <path d="M 142.476 592.12 
L 285.7515 592.12 
Q 293.71125 592.12 293.71125 584.856533 
L 293.71125 534.012267 
Q 293.71125 526.7488 285.7515 526.7488 
L 142.476 526.7488 
Q 134.51625 526.7488 134.51625 534.012267 
L 134.51625 584.856533 
Q 134.51625 592.12 142.476 592.12 
z
" clip-path="url(#p2b83ee41cf)" style="fill: #f58518; stroke: #333333; stroke-width: 1.5; stroke-linejoin: miter"/>
   </g>
   <g id="patch_12">
    <path d="M 341.46975 592.12 
L 484.74525 592.12 
Q 492.705 592.12 492.705 584.856533 
L 492.705 534.012267 
Q 492.705 526.7488 484.74525 526.7488 
L 341.46975 526.7488 
Q 333.51 526.7488 333.51 534.012267 
L 333.51 584.856533 
Q 333.51 592.12 341.46975 592.12 
z
" clip-path="url(#p2b83ee41cf)" style="fill: #f58518; stroke: #333333; stroke-width: 1.5; stroke-linejoin: miter"/>
   </g>
   <g id="patch_13">
    <path d="M 540.4635 592.12 
L 683.739 592.12 
Q 691.69875 592.12 691.69875 584.856533 
L 691.69875 534.012267 
Q 691.69875 526.7488 683.739 526.7488 
L 540.4635 526.7488 
Q 532.50375 526.7488 532.50375 534.012267 
L 532.50375 584.856533 
Q 532.50375 592.12 540.4635 592.12 
z
" clip-path="url(#p2b83ee41cf)" style="fill: #f58518; stroke: #333333; stroke-width: 1.5; stroke-linejoin: miter"/>
   </g>
   <g id="patch_14">
    <path d="M 142.476 737.389333 
L 285.7515 737.389333 
Q 293.71125 737.389333 293.71125 730.125867 
L 293.71125 679.2816 
Q 293.71125 672.018133 285.7515 672.018133 
L 142.476 672.018133 
Q 134.51625 672.018133 134.51625 679.2816 
L 134.51625 730.125867 
Q 134.51625 737.389333 142.476 737.389333 
z
" clip-path="url(#p2b83ee41cf)" style="fill: #e45756; stroke: #333333; stroke-width: 1.5; stroke-linejoin: miter"/>
   </g>
   <g id="patch_15">
    <path d="M 341.46975 737.389333 
L 484.74525 737.389333 
Q 492.705 737.389333 492.705 730.125867 
L 492.705 679.2816 
Q 492.705 672.018133 484.74525 672.018133 
L 341.46975 672.018133 
Q 333.51 672.018133 333.51 679.2816 
L 333.51 730.125867 
Q 333.51 737.389333 341.46975 737.389333 
z
" clip-path="url(#p2b83ee41cf)" style="fill: #e45756; stroke: #333333; stroke-width: 1.5; stroke-linejoin: miter"/>
   </g>
   <g id="patch_16">
    <path d="M 540.4635 737.389333 
L 683.739 737.389333 
Q 691.69875 737.389333 691.69875 730.125867 
L 691.69875 679.2816 
Q 691.69875 672.018133 683.739 672.018133 
L 540.4635 672.018133 
Q 532.50375 672.018133 532.50375 679.2816 
L 532.50375 730.125867 
Q 532.50375 737.389333 540.4635 737.389333 
z
" clip-path="url(#p2b83ee41cf)" style="fill: #e45756; stroke: #333333; stroke-width: 1.5; stroke-linejoin: miter"/>
   </g>
   <g id="patch_17">
    <path d="M 142.476 882.658667 
L 285.7515 882.658667 
Q 293.71125 882.658667 293.71125 875.3952 
L 293.71125 824.550933 
Q 293.71125 817.287467 285.7515 817.287467 
L 142.476 817.287467 
Q 134.51625 817.287467 134.51625 824.550933 
L 134.51625 875.3952 
Q 134.51625 882.658667 142.476 882.658667 
z
" clip-path="url(#p2b83ee41cf)" style="fill: #b279a2; stroke: #333333; stroke-width: 1.5; stroke-linejoin: miter"/>
   </g>
   <g id="patch_18">
    <path d="M 341.46975 882.658667 
L 484.74525 882.658667 
Q 492.705 882.658667 492.705 875.3952 
L 492.705 824.550933 
Q 492.705 817.287467 484.74525 817.287467 
L 341.46975 817.287467 
Q 333.51 817.287467 333.51 824.550933 
L 333.51 875.3952 
Q 333.51 882.658667 341.46975 882.658667 
z
" clip-path="url(#p2b83ee41cf)" style="fill: #b279a2; stroke: #333333; stroke-width: 1.5; stroke-linejoin: miter"/>
   </g>
   <g id="patch_19">
    <path d="M 540.4635 882.658667 
L 683.739 882.658667 
Q 691.69875 882.658667 691.69875 875.3952 
L 691.69875 824.550933 
Q 691.69875 817.287467 683.739 817.287467 
L 540.4635 817.287467 
Q 532.50375 817.287467 532.50375 824.550933 
L 532.50375 875.3952 
Q 532.50375 882.658667 540.4635 882.658667 
z
" clip-path="url(#p2b83ee41cf)" style="fill: #b279a2; stroke: #333333; stroke-width: 1.5; stroke-linejoin: miter"/>
   </g>
   <g id="patch_20">
    <path d="M 142.476 1027.928 
L 285.7515 1027.928 
Q 293.71125 1027.928 293.71125 1020.664533 
L 293.71125 969.820267 
Q 293.71125 962.5568 285.7515 962.5568 
L 142.476 962.5568 
Q 134.51625 962.5568 134.51625 969.820267 
L 134.51625 1020.664533 
Q 134.51625 1027.928 142.476 1027.928 
z
" clip-path="url(#p2b83ee41cf)" style="fill: #9d755d; stroke: #333333; stroke-width: 1.5; stroke-linejoin: miter"/>
   </g>
   <g id="patch_21">
    <path d="M 341.46975 1027.928 
L 484.74525 1027.928 
Q 492.705 1027.928 492.705 1020.664533 
L 492.705 969.820267 
Q 492.705 962.5568 484.74525 962.5568 
L 341.46975 962.5568 
Q 333.51 962.5568 333.51 969.820267 
L 333.51 1020.664533 
Q 333.51 1027.928 341.46975 1027.928 
z
" clip-path="url(#p2b83ee41cf)" style="fill: #9d755d; stroke: #333333; stroke-width: 1.5; stroke-linejoin: miter"/>
   </g>
   <g id="patch_22">
    <path d="M 540.4635 1027.928 
L 683.739 1027.928 
Q 691.69875 1027.928 691.69875 1020.664533 
L 691.69875 969.820267 
Q 691.69875 962.5568 683.739 962.5568 
L 540.4635 962.5568 
Q 532.50375 962.5568 532.50375 969.820267 
L 532.50375 1020.664533 
Q 532.50375 1027.928 540.4635 1027.928 
z
" clip-path="url(#p2b83ee41cf)" style="fill: #9d755d; stroke: #333333; stroke-width: 1.5; stroke-linejoin: miter"/>
   </g>
   <g id="text_1">
    <!-- Document collection -->
    <g style="fill: #808080" transform="translate(355.725313 64.922246) scale(0.11 -0.11)">
     <defs>
      <path id="DejaVuSerif-Italic-44" d="M 1194 331 
L 1775 331 
Q 2684 331 3271 850 
Q 3859 1369 4048 2337 
Q 4238 3306 3852 3818 
Q 3466 4331 2553 4331 
L 1972 4331 
L 1194 331 
z
M -97 0 
L -34 331 
L 559 331 
L 1338 4331 
L 744 4331 
L 809 4666 
L 2666 4666 
Q 3872 4666 4426 4050 
Q 4981 3434 4766 2338 
Q 4553 1238 3758 619 
Q 2963 0 1759 0 
L -97 0 
z
" transform="scale(0.015625)"/>
      <path id="DejaVuSerif-Italic-6f" d="M 1644 219 
Q 2106 219 2414 584 
Q 2722 950 2859 1663 
Q 2922 1988 2922 2241 
Q 2922 2541 2834 2738 
Q 2669 3103 2206 3103 
Q 1744 3103 1436 2739 
Q 1128 2375 991 1663 
Q 928 1338 928 1088 
Q 928 784 1019 584 
Q 1184 219 1644 219 
z
M 1584 -91 
Q 859 -91 513 388 
Q 272 722 272 1203 
Q 272 1419 319 1663 
Q 472 2456 1005 2934 
Q 1538 3413 2266 3413 
Q 2994 3413 3341 2934 
Q 3578 2603 3578 2122 
Q 3578 1906 3531 1663 
Q 3378 869 2845 389 
Q 2313 -91 1584 -91 
z
" transform="scale(0.015625)"/>
      <path id="DejaVuSerif-Italic-63" d="M 3163 997 
Q 2938 466 2536 187 
Q 2134 -91 1584 -91 
Q 859 -91 513 388 
Q 272 722 272 1203 
Q 272 1419 319 1663 
Q 475 2459 1008 2936 
Q 1541 3413 2266 3413 
Q 2581 3413 2879 3339 
Q 3178 3266 3463 3116 
L 3300 2266 
L 2966 2266 
Q 2966 2309 2966 2347 
Q 2966 2722 2803 2903 
Q 2622 3103 2213 3103 
Q 1747 3103 1439 2742 
Q 1131 2381 991 1663 
Q 928 1334 928 1078 
Q 928 778 1016 581 
Q 1181 219 1650 219 
Q 2022 219 2281 412 
Q 2541 606 2700 997 
L 3163 997 
z
" transform="scale(0.015625)"/>
      <path id="DejaVuSerif-Italic-75" d="M 3097 3322 
L 3672 3322 
L 3091 331 
L 3634 331 
L 3572 0 
L 2453 0 
L 2566 588 
Q 2341 256 2055 82 
Q 1769 -91 1434 -91 
Q 881 -91 681 225 
Q 559 413 559 734 
Q 559 944 613 1209 
L 956 2988 
L 438 2988 
L 503 3322 
L 1600 3322 
L 1225 1388 
Q 1163 1066 1163 853 
Q 1163 663 1213 556 
Q 1316 331 1697 331 
Q 2097 331 2364 625 
Q 2631 919 2738 1478 
L 3097 3322 
z
" transform="scale(0.015625)"/>
      <path id="DejaVuSerif-Italic-6d" d="M 3503 2675 
Q 3741 3041 4034 3227 
Q 4328 3413 4672 3413 
Q 5194 3413 5388 3088 
Q 5503 2894 5503 2578 
Q 5503 2372 5453 2113 
L 5106 331 
L 5625 331 
L 5563 0 
L 4469 0 
L 4866 2047 
Q 4913 2291 4913 2466 
Q 4913 2659 4856 2772 
Q 4750 2988 4403 2988 
Q 4019 2988 3761 2697 
Q 3503 2406 3394 1850 
L 3034 0 
L 2459 0 
L 2863 2069 
Q 2906 2303 2906 2472 
Q 2906 2666 2850 2775 
Q 2741 2988 2394 2988 
Q 2009 2988 1751 2697 
Q 1494 2406 1384 1850 
L 1025 0 
L 450 0 
L 1031 2994 
L 481 2994 
L 544 3322 
L 1669 3322 
L 1556 2731 
Q 1778 3063 2059 3238 
Q 2341 3413 2653 3413 
Q 3041 3413 3262 3220 
Q 3484 3028 3503 2675 
z
" transform="scale(0.015625)"/>
      <path id="DejaVuSerif-Italic-65" d="M 938 1275 
Q 925 1156 925 1050 
Q 925 756 1031 563 
Q 1216 219 1709 219 
Q 2072 219 2250 328 
Q 2569 525 2644 778 
L 3066 778 
Q 2941 381 2475 103 
Q 2150 -91 1506 -91 
Q 863 -91 516 388 
Q 272 722 272 1206 
Q 272 1419 319 1659 
Q 472 2450 1000 2931 
Q 1528 3413 2278 3413 
Q 3500 3413 3500 2547 
Q 3500 1913 2859 1603 
Q 2206 1288 938 1275 
z
M 2541 1975 
Q 2891 2181 2891 2569 
Q 2891 3103 2181 3103 
Q 1763 3103 1472 2784 
Q 1181 2466 1003 1606 
Q 2006 1653 2541 1975 
z
" transform="scale(0.015625)"/>
      <path id="DejaVuSerif-Italic-6e" d="M 450 0 
L 1031 2988 
L 481 2988 
L 544 3322 
L 1669 3322 
L 1556 2731 
Q 1781 3069 2068 3241 
Q 2356 3413 2694 3413 
Q 3244 3413 3444 3097 
Q 3563 2906 3563 2588 
Q 3563 2378 3509 2113 
L 3163 331 
L 3675 331 
L 3613 0 
L 2522 0 
L 2897 1931 
Q 2959 2253 2959 2469 
Q 2959 2659 2909 2769 
Q 2803 2994 2425 2994 
Q 2025 2994 1759 2701 
Q 1494 2409 1384 1850 
L 1025 0 
L 450 0 
z
" transform="scale(0.015625)"/>
      <path id="DejaVuSerif-Italic-74" d="M 856 2988 
L 350 2988 
L 416 3322 
L 922 3322 
L 1122 4353 
L 1700 4353 
L 1500 3322 
L 2581 3322 
L 2516 2988 
L 1434 2988 
L 1025 878 
Q 978 631 978 488 
Q 978 388 1000 338 
Q 1059 219 1278 219 
Q 1503 219 1633 351 
Q 1763 484 1825 781 
L 2259 781 
Q 2147 328 1884 118 
Q 1622 -91 1169 -91 
Q 672 -91 506 131 
Q 406 266 406 516 
Q 406 675 447 878 
L 856 2988 
z
" transform="scale(0.015625)"/>
      <path id="DejaVuSerif-Italic-20" transform="scale(0.015625)"/>
      <path id="DejaVuSerif-Italic-6c" d="M 903 331 
L 1447 331 
L 1384 0 
L 266 0 
L 1147 4531 
L 594 4531 
L 656 4863 
L 1784 4863 
L 903 331 
z
" transform="scale(0.015625)"/>
      <path id="DejaVuSerif-Italic-69" d="M 1009 4353 
Q 1038 4497 1163 4603 
Q 1288 4709 1434 4709 
Q 1578 4709 1663 4603 
Q 1728 4522 1728 4422 
Q 1728 4388 1719 4353 
Q 1691 4206 1567 4103 
Q 1444 4000 1297 4000 
Q 1150 4000 1066 4103 
Q 1003 4181 1003 4281 
Q 1003 4316 1009 4353 
z
M 963 331 
L 1506 331 
L 1444 0 
L 325 0 
L 903 2988 
L 353 2988 
L 419 3322 
L 1544 3322 
L 963 331 
z
" transform="scale(0.015625)"/>
     </defs>
     <use xlink:href="#DejaVuSerif-Italic-44"/>
     <use xlink:href="#DejaVuSerif-Italic-6f" x="80.175781"/>
     <use xlink:href="#DejaVuSerif-Italic-63" x="140.380859"/>
     <use xlink:href="#DejaVuSerif-Italic-75" x="196.386719"/>
     <use xlink:href="#DejaVuSerif-Italic-6d" x="260.791016"/>
     <use xlink:href="#DejaVuSerif-Italic-65" x="355.615234"/>
     <use xlink:href="#DejaVuSerif-Italic-6e" x="414.794922"/>
     <use xlink:href="#DejaVuSerif-Italic-74" x="479.199219"/>
     <use xlink:href="#DejaVuSerif-Italic-20" x="519.384766"/>
     <use xlink:href="#DejaVuSerif-Italic-63" x="551.171875"/>
     <use xlink:href="#DejaVuSerif-Italic-6f" x="607.177734"/>
     <use xlink:href="#DejaVuSerif-Italic-6c" x="667.382812"/>
     <use xlink:href="#DejaVuSerif-Italic-6c" x="699.365234"/>
     <use xlink:href="#DejaVuSerif-Italic-65" x="731.347656"/>
     <use xlink:href="#DejaVuSerif-Italic-63" x="790.527344"/>
     <use xlink:href="#DejaVuSerif-Italic-74" x="846.533203"/>
     <use xlink:href="#DejaVuSerif-Italic-69" x="886.71875"/>
     <use xlink:href="#DejaVuSerif-Italic-6f" x="918.701172"/>
     <use xlink:href="#DejaVuSerif-Italic-6e" x="978.90625"/>
    </g>
   </g>
   <g id="text_2">
    <!-- Annual reports -->
    <g style="fill: #ffffff" transform="translate(159.422344 123.581854) scale(0.13 -0.13)">
     <defs>
      <path id="DejaVuSerif-Bold-41" d="M -50 0 
L -50 378 
L 331 378 
L 2088 4666 
L 2834 4666 
L 4594 378 
L 5038 378 
L 5038 0 
L 2853 0 
L 2853 378 
L 3309 378 
L 2925 1331 
L 1172 1331 
L 781 378 
L 1338 378 
L 1338 0 
L -50 0 
z
M 1325 1709 
L 2772 1709 
L 2053 3494 
L 1325 1709 
z
" transform="scale(0.015625)"/>
      <path id="DejaVuSerif-Bold-6e" d="M 219 0 
L 219 378 
L 691 378 
L 691 2944 
L 219 2944 
L 219 3322 
L 1797 3322 
L 1797 2853 
Q 1997 3150 2253 3281 
Q 2509 3413 2900 3413 
Q 3459 3413 3745 3083 
Q 4031 2753 4031 2113 
L 4031 378 
L 4506 378 
L 4506 0 
L 2522 0 
L 2522 378 
L 2925 378 
L 2925 2144 
Q 2925 2566 2817 2730 
Q 2709 2894 2444 2894 
Q 2109 2894 1953 2648 
Q 1797 2403 1797 1869 
L 1797 378 
L 2203 378 
L 2203 0 
L 219 0 
z
" transform="scale(0.015625)"/>
      <path id="DejaVuSerif-Bold-75" d="M 3963 3322 
L 3963 378 
L 4434 378 
L 4434 0 
L 2853 0 
L 2853 469 
Q 2656 172 2400 40 
Q 2144 -91 1753 -91 
Q 1194 -91 908 239 
Q 622 569 622 1209 
L 622 2944 
L 147 2944 
L 147 3322 
L 1728 3322 
L 1728 1381 
Q 1728 763 1831 595 
Q 1934 428 2209 428 
Q 2544 428 2698 675 
Q 2853 922 2853 1459 
L 2853 2944 
L 2450 2944 
L 2450 3322 
L 3963 3322 
z
" transform="scale(0.015625)"/>
      <path id="DejaVuSerif-Bold-61" d="M 3525 2041 
L 3525 378 
L 4000 378 
L 4000 0 
L 2419 0 
L 2419 422 
Q 2200 159 1931 34 
Q 1663 -91 1319 -91 
Q 809 -91 536 182 
Q 263 456 263 966 
Q 263 1525 655 1803 
Q 1047 2081 1838 2081 
L 2419 2081 
L 2419 2278 
Q 2419 2681 2228 2873 
Q 2038 3066 1638 3066 
Q 1306 3066 1126 2930 
Q 947 2794 872 2484 
L 519 2484 
L 519 3200 
Q 816 3306 1134 3359 
Q 1453 3413 1806 3413 
Q 2697 3413 3111 3081 
Q 3525 2750 3525 2041 
z
M 2419 1044 
L 2419 1709 
L 2003 1709 
Q 1694 1709 1528 1540 
Q 1363 1372 1363 1056 
Q 1363 741 1483 584 
Q 1603 428 1850 428 
Q 2106 428 2262 597 
Q 2419 766 2419 1044 
z
" transform="scale(0.015625)"/>
      <path id="DejaVuSerif-Bold-6c" d="M 1797 378 
L 2272 378 
L 2272 0 
L 219 0 
L 219 378 
L 691 378 
L 691 4488 
L 219 4488 
L 219 4863 
L 1797 4863 
L 1797 378 
z
" transform="scale(0.015625)"/>
      <path id="DejaVuSerif-Bold-20" transform="scale(0.015625)"/>
      <path id="DejaVuSerif-Bold-72" d="M 3438 3359 
L 3438 2369 
L 3084 2369 
Q 3066 2634 2941 2764 
Q 2816 2894 2578 2894 
Q 2216 2894 2006 2575 
Q 1797 2256 1797 1691 
L 1797 378 
L 2400 378 
L 2400 0 
L 219 0 
L 219 378 
L 691 378 
L 691 2944 
L 184 2944 
L 184 3322 
L 1797 3322 
L 1797 2731 
Q 1959 3078 2226 3245 
Q 2494 3413 2881 3413 
Q 2978 3413 3117 3398 
Q 3256 3384 3438 3359 
z
" transform="scale(0.015625)"/>
      <path id="DejaVuSerif-Bold-65" d="M 2566 1875 
Q 2566 2531 2444 2795 
Q 2322 3059 2028 3059 
Q 1744 3059 1620 2800 
Q 1497 2541 1497 1931 
L 1497 1875 
L 2566 1875 
z
M 3781 1503 
L 1497 1503 
L 1497 1478 
Q 1497 834 1690 548 
Q 1884 263 2316 263 
Q 2675 263 2897 453 
Q 3119 644 3181 1006 
L 3700 1006 
Q 3566 441 3166 175 
Q 2766 -91 2047 -91 
Q 1184 -91 723 364 
Q 263 819 263 1663 
Q 263 2488 734 2950 
Q 1206 3413 2047 3413 
Q 2872 3413 3312 2927 
Q 3753 2441 3781 1503 
z
" transform="scale(0.015625)"/>
      <path id="DejaVuSerif-Bold-70" d="M 1728 1825 
L 1728 1497 
Q 1728 916 1876 656 
Q 2025 397 2356 397 
Q 2697 397 2836 672 
Q 2975 947 2975 1663 
Q 2975 2378 2836 2651 
Q 2697 2925 2356 2925 
Q 2025 2925 1876 2665 
Q 1728 2406 1728 1825 
z
M 622 2944 
L 147 2944 
L 147 3322 
L 1728 3322 
L 1728 2900 
Q 1869 3159 2106 3286 
Q 2344 3413 2694 3413 
Q 3403 3413 3811 2945 
Q 4219 2478 4219 1663 
Q 4219 847 3811 378 
Q 3403 -91 2694 -91 
Q 2344 -91 2106 36 
Q 1869 163 1728 422 
L 1728 -953 
L 2241 -953 
L 2241 -1331 
L 147 -1331 
L 147 -953 
L 622 -953 
L 622 2944 
z
" transform="scale(0.015625)"/>
      <path id="DejaVuSerif-Bold-6f" d="M 2138 263 
Q 2488 263 2630 563 
Q 2772 863 2772 1663 
Q 2772 2463 2631 2761 
Q 2491 3059 2138 3059 
Q 1784 3059 1640 2757 
Q 1497 2456 1497 1663 
Q 1497 869 1640 566 
Q 1784 263 2138 263 
z
M 2138 -91 
Q 1259 -91 761 376 
Q 263 844 263 1663 
Q 263 2484 761 2948 
Q 1259 3413 2138 3413 
Q 3019 3413 3516 2948 
Q 4013 2484 4013 1663 
Q 4013 844 3514 376 
Q 3016 -91 2138 -91 
z
" transform="scale(0.015625)"/>
      <path id="DejaVuSerif-Bold-74" d="M 634 2944 
L 153 2944 
L 153 3322 
L 634 3322 
L 634 4353 
L 1741 4353 
L 1741 3322 
L 2663 3322 
L 2663 2944 
L 1741 2944 
L 1741 909 
Q 1741 475 1809 369 
Q 1878 263 2059 263 
Q 2259 263 2356 397 
Q 2453 531 2459 813 
L 2925 813 
Q 2897 313 2651 111 
Q 2406 -91 1806 -91 
Q 1122 -91 878 123 
Q 634 338 634 909 
L 634 2944 
z
" transform="scale(0.015625)"/>
      <path id="DejaVuSerif-Bold-73" d="M 300 97 
L 300 1025 
L 653 1025 
Q 697 653 931 458 
Q 1166 263 1569 263 
Q 1906 263 2086 380 
Q 2266 497 2266 716 
Q 2266 916 2152 1025 
Q 2038 1134 1709 1216 
L 1253 1331 
Q 738 1459 506 1698 
Q 275 1938 275 2344 
Q 275 2884 650 3148 
Q 1025 3413 1806 3413 
Q 2100 3413 2433 3364 
Q 2766 3316 3169 3213 
L 3169 2375 
L 2816 2375 
Q 2788 2716 2573 2887 
Q 2359 3059 1959 3059 
Q 1622 3059 1448 2951 
Q 1275 2844 1275 2638 
Q 1275 2469 1375 2372 
Q 1475 2275 1734 2209 
L 2188 2094 
Q 2841 1928 3091 1684 
Q 3341 1441 3341 1006 
Q 3341 444 2939 176 
Q 2538 -91 1691 -91 
Q 1381 -91 1034 -44 
Q 688 3 300 97 
z
" transform="scale(0.015625)"/>
     </defs>
     <use xlink:href="#DejaVuSerif-Bold-41"/>
     <use xlink:href="#DejaVuSerif-Bold-6e" x="77.587891"/>
     <use xlink:href="#DejaVuSerif-Bold-6e" x="150.292969"/>
     <use xlink:href="#DejaVuSerif-Bold-75" x="222.998047"/>
     <use xlink:href="#DejaVuSerif-Bold-61" x="295.703125"/>
     <use xlink:href="#DejaVuSerif-Bold-6c" x="360.498047"/>
     <use xlink:href="#DejaVuSerif-Bold-20" x="398.486328"/>
     <use xlink:href="#DejaVuSerif-Bold-72" x="433.300781"/>
     <use xlink:href="#DejaVuSerif-Bold-65" x="485.986328"/>
     <use xlink:href="#DejaVuSerif-Bold-70" x="549.609375"/>
     <use xlink:href="#DejaVuSerif-Bold-6f" x="619.53125"/>
     <use xlink:href="#DejaVuSerif-Bold-72" x="686.230469"/>
     <use xlink:href="#DejaVuSerif-Bold-74" x="738.916016"/>
     <use xlink:href="#DejaVuSerif-Bold-73" x="785.107422"/>
    </g>
   </g>
   <g id="text_3">
    <!-- Sustainability reports -->
    <g style="fill: #ffffff" transform="translate(333.886719 123.489432) scale(0.13 -0.13)">
     <defs>
      <path id="DejaVuSerif-Bold-53" d="M 494 225 
L 494 1331 
L 891 1331 
Q 981 806 1318 547 
Q 1656 288 2253 288 
Q 2738 288 2991 472 
Q 3244 656 3244 1013 
Q 3244 1294 3072 1450 
Q 2900 1606 2363 1741 
L 1663 1913 
Q 978 2088 700 2398 
Q 422 2709 422 3284 
Q 422 3978 883 4364 
Q 1344 4750 2175 4750 
Q 2584 4750 3026 4681 
Q 3469 4613 3944 4475 
L 3944 3444 
L 3547 3444 
Q 3456 3925 3150 4148 
Q 2844 4372 2278 4372 
Q 1816 4372 1580 4211 
Q 1344 4050 1344 3731 
Q 1344 3441 1506 3289 
Q 1669 3138 2303 2975 
L 3003 2803 
Q 3653 2641 3945 2297 
Q 4238 1953 4238 1350 
Q 4238 644 3750 276 
Q 3263 -91 2316 -91 
Q 1859 -91 1409 -12 
Q 959 66 494 225 
z
" transform="scale(0.015625)"/>
      <path id="DejaVuSerif-Bold-69" d="M 588 4263 
Q 588 4516 763 4689 
Q 938 4863 1191 4863 
Q 1438 4863 1611 4689 
Q 1784 4516 1784 4263 
Q 1784 4016 1611 3842 
Q 1438 3669 1191 3669 
Q 938 3669 763 3841 
Q 588 4013 588 4263 
z
M 1797 378 
L 2272 378 
L 2272 0 
L 219 0 
L 219 378 
L 691 378 
L 691 2944 
L 219 2944 
L 219 3322 
L 1797 3322 
L 1797 378 
z
" transform="scale(0.015625)"/>
      <path id="DejaVuSerif-Bold-62" d="M 622 378 
L 622 4488 
L 147 4488 
L 147 4863 
L 1728 4863 
L 1728 2900 
Q 1869 3159 2106 3286 
Q 2344 3413 2694 3413 
Q 3403 3413 3811 2945 
Q 4219 2478 4219 1663 
Q 4219 847 3811 378 
Q 3403 -91 2694 -91 
Q 2344 -91 2106 36 
Q 1869 163 1728 422 
L 1728 0 
L 147 0 
L 147 378 
L 622 378 
z
M 1728 1497 
Q 1728 916 1876 656 
Q 2025 397 2356 397 
Q 2697 397 2836 672 
Q 2975 947 2975 1663 
Q 2975 2378 2836 2651 
Q 2697 2925 2356 2925 
Q 2025 2925 1876 2665 
Q 1728 2406 1728 1825 
L 1728 1497 
z
" transform="scale(0.015625)"/>
      <path id="DejaVuSerif-Bold-79" d="M 1997 -750 
Q 1847 -1116 1634 -1269 
Q 1422 -1422 1063 -1422 
Q 909 -1422 721 -1387 
Q 534 -1353 313 -1288 
L 313 -594 
L 666 -597 
Q 675 -838 779 -953 
Q 884 -1069 1094 -1069 
Q 1297 -1069 1422 -958 
Q 1547 -847 1672 -538 
L 1722 -422 
L 275 2944 
L -84 2944 
L -84 3322 
L 1831 3322 
L 1831 2944 
L 1434 2944 
L 2278 978 
L 3066 2944 
L 2625 2944 
L 2625 3322 
L 3872 3322 
L 3872 2944 
L 3469 2944 
L 1997 -750 
z
" transform="scale(0.015625)"/>
     </defs>
     <use xlink:href="#DejaVuSerif-Bold-53"/>
     <use xlink:href="#DejaVuSerif-Bold-75" x="72.216797"/>
     <use xlink:href="#DejaVuSerif-Bold-73" x="144.921875"/>
     <use xlink:href="#DejaVuSerif-Bold-74" x="201.220703"/>
     <use xlink:href="#DejaVuSerif-Bold-61" x="247.412109"/>
     <use xlink:href="#DejaVuSerif-Bold-69" x="312.207031"/>
     <use xlink:href="#DejaVuSerif-Bold-6e" x="350.195312"/>
     <use xlink:href="#DejaVuSerif-Bold-61" x="422.900391"/>
     <use xlink:href="#DejaVuSerif-Bold-62" x="487.695312"/>
     <use xlink:href="#DejaVuSerif-Bold-69" x="557.617188"/>
     <use xlink:href="#DejaVuSerif-Bold-6c" x="595.605469"/>
     <use xlink:href="#DejaVuSerif-Bold-69" x="633.59375"/>
     <use xlink:href="#DejaVuSerif-Bold-74" x="671.582031"/>
     <use xlink:href="#DejaVuSerif-Bold-79" x="717.773438"/>
     <use xlink:href="#DejaVuSerif-Bold-20" x="775.878906"/>
     <use xlink:href="#DejaVuSerif-Bold-72" x="810.693359"/>
     <use xlink:href="#DejaVuSerif-Bold-65" x="863.378906"/>
     <use xlink:href="#DejaVuSerif-Bold-70" x="927.001953"/>
     <use xlink:href="#DejaVuSerif-Bold-6f" x="996.923828"/>
     <use xlink:href="#DejaVuSerif-Bold-72" x="1063.623047"/>
     <use xlink:href="#DejaVuSerif-Bold-74" x="1116.308594"/>
     <use xlink:href="#DejaVuSerif-Bold-73" x="1162.5"/>
    </g>
   </g>
   <g id="text_4">
    <!-- Taiwan-listed firms -->
    <g style="fill: #ffffff" transform="translate(542.208984 123.581854) scale(0.13 -0.13)">
     <defs>
      <path id="DejaVuSerif-Bold-54" d="M 1159 0 
L 1159 378 
L 1778 378 
L 1778 4238 
L 500 4238 
L 500 3500 
L 72 3500 
L 72 4666 
L 4697 4666 
L 4697 3500 
L 4275 3500 
L 4275 4238 
L 2988 4238 
L 2988 378 
L 3609 378 
L 3609 0 
L 1159 0 
z
" transform="scale(0.015625)"/>
      <path id="DejaVuSerif-Bold-77" d="M 3450 3322 
L 4206 1106 
L 4831 2944 
L 4397 2944 
L 4397 3322 
L 5638 3322 
L 5638 2944 
L 5247 2944 
L 4244 0 
L 3481 0 
L 2778 2081 
L 2069 0 
L 1313 0 
L 306 2944 
L -56 2944 
L -56 3322 
L 1825 3322 
L 1825 2944 
L 1434 2944 
L 2047 1147 
L 2791 3322 
L 3450 3322 
z
" transform="scale(0.015625)"/>
      <path id="DejaVuSerif-Bold-2d" d="M 347 2138 
L 2309 2138 
L 2309 1294 
L 347 1294 
L 347 2138 
z
" transform="scale(0.015625)"/>
      <path id="DejaVuSerif-Bold-64" d="M 2747 1497 
L 2747 1825 
Q 2747 2406 2597 2665 
Q 2447 2925 2119 2925 
Q 1775 2925 1636 2651 
Q 1497 2378 1497 1663 
Q 1497 947 1637 672 
Q 1778 397 2119 397 
Q 2447 397 2597 656 
Q 2747 916 2747 1497 
z
M 3853 378 
L 4325 378 
L 4325 0 
L 2747 0 
L 2747 422 
Q 2606 163 2367 36 
Q 2128 -91 1778 -91 
Q 1072 -91 667 378 
Q 263 847 263 1663 
Q 263 2481 667 2947 
Q 1072 3413 1778 3413 
Q 2128 3413 2367 3286 
Q 2606 3159 2747 2900 
L 2747 4488 
L 2272 4488 
L 2272 4863 
L 3853 4863 
L 3853 378 
z
" transform="scale(0.015625)"/>
      <path id="DejaVuSerif-Bold-66" d="M 3097 4031 
L 2747 4031 
Q 2722 4275 2605 4394 
Q 2488 4513 2272 4513 
Q 2022 4513 1909 4333 
Q 1797 4153 1797 3750 
L 1797 3322 
L 2631 3322 
L 2631 2944 
L 1797 2944 
L 1797 378 
L 2438 378 
L 2438 0 
L 219 0 
L 219 378 
L 691 378 
L 691 2944 
L 197 2944 
L 197 3322 
L 691 3322 
L 691 3738 
Q 691 4291 1044 4577 
Q 1397 4863 2081 4863 
Q 2347 4863 2600 4833 
Q 2853 4803 3097 4744 
L 3097 4031 
z
" transform="scale(0.015625)"/>
      <path id="DejaVuSerif-Bold-6d" d="M 3884 2778 
Q 4116 3109 4384 3261 
Q 4653 3413 5013 3413 
Q 5584 3413 5867 3089 
Q 6150 2766 6150 2113 
L 6150 378 
L 6625 378 
L 6625 0 
L 4647 0 
L 4647 378 
L 5044 378 
L 5044 1947 
Q 5044 2569 4948 2731 
Q 4853 2894 4594 2894 
Q 4300 2894 4137 2667 
Q 3975 2441 3975 2022 
L 3975 378 
L 4372 378 
L 4372 0 
L 2472 0 
L 2472 378 
L 2869 378 
L 2869 1947 
Q 2869 2569 2772 2731 
Q 2675 2894 2419 2894 
Q 2122 2894 1959 2667 
Q 1797 2441 1797 2022 
L 1797 378 
L 2194 378 
L 2194 0 
L 219 0 
L 219 378 
L 691 378 
L 691 2944 
L 219 2944 
L 219 3322 
L 1797 3322 
L 1797 2853 
Q 1991 3144 2241 3278 
Q 2491 3413 2834 3413 
Q 3241 3413 3494 3258 
Q 3747 3103 3884 2778 
z
" transform="scale(0.015625)"/>
     </defs>
     <use xlink:href="#DejaVuSerif-Bold-54"/>
     <use xlink:href="#DejaVuSerif-Bold-61" x="64.789062"/>
     <use xlink:href="#DejaVuSerif-Bold-69" x="129.583984"/>
     <use xlink:href="#DejaVuSerif-Bold-77" x="167.572266"/>
     <use xlink:href="#DejaVuSerif-Bold-61" x="253.65625"/>
     <use xlink:href="#DejaVuSerif-Bold-6e" x="318.451172"/>
     <use xlink:href="#DejaVuSerif-Bold-2d" x="391.15625"/>
     <use xlink:href="#DejaVuSerif-Bold-6c" x="432.660156"/>
     <use xlink:href="#DejaVuSerif-Bold-69" x="470.648438"/>
     <use xlink:href="#DejaVuSerif-Bold-73" x="508.636719"/>
     <use xlink:href="#DejaVuSerif-Bold-74" x="564.935547"/>
     <use xlink:href="#DejaVuSerif-Bold-65" x="611.126953"/>
     <use xlink:href="#DejaVuSerif-Bold-64" x="674.75"/>
     <use xlink:href="#DejaVuSerif-Bold-20" x="744.671875"/>
     <use xlink:href="#DejaVuSerif-Bold-66" x="779.486328"/>
     <use xlink:href="#DejaVuSerif-Bold-69" x="822.503906"/>
     <use xlink:href="#DejaVuSerif-Bold-72" x="860.492188"/>
     <use xlink:href="#DejaVuSerif-Bold-6d" x="913.177734"/>
     <use xlink:href="#DejaVuSerif-Bold-73" x="1018.988281"/>
    </g>
   </g>
   <g id="patch_23">
    <path d="M 413.1075 205.154646 
Q 413.1075 181.733488 413.1075 160.548399 
" style="fill: none; stroke: #666666; stroke-width: 2; stroke-linecap: round"/>
    <path d="M 410.3075 166.148399 
L 413.1075 160.548399 
L 415.9075 166.148399 
" style="fill: none; stroke: #666666; stroke-width: 2; stroke-linecap: round"/>
   </g>
   <g id="text_5">
    <!-- Preprocessing -->
    <g style="fill: #808080" transform="translate(373.26 210.035173) scale(0.11 -0.11)">
     <defs>
      <path id="DejaVuSerif-Italic-50" d="M 1594 2375 
L 2419 2375 
Q 2884 2375 3176 2626 
Q 3469 2878 3559 3353 
Q 3653 3831 3458 4081 
Q 3263 4331 2797 4331 
L 1972 4331 
L 1594 2375 
z
M -97 0 
L -34 331 
L 559 331 
L 1338 4331 
L 744 4331 
L 809 4666 
L 3016 4666 
Q 3716 4666 4056 4311 
Q 4397 3956 4278 3353 
Q 4163 2753 3684 2397 
Q 3206 2041 2506 2041 
L 1528 2041 
L 1194 331 
L 1916 331 
L 1853 0 
L -97 0 
z
" transform="scale(0.015625)"/>
      <path id="DejaVuSerif-Italic-72" d="M 3375 3328 
L 3213 2497 
L 2881 2497 
Q 2891 2559 2891 2613 
Q 2891 2775 2816 2866 
Q 2719 2988 2484 2988 
Q 2059 2988 1775 2694 
Q 1491 2400 1384 1850 
L 1025 0 
L 450 0 
L 1031 2994 
L 481 2994 
L 544 3322 
L 1669 3322 
L 1556 2731 
Q 1791 3078 2089 3245 
Q 2388 3413 2769 3413 
Q 2909 3413 3059 3391 
Q 3209 3369 3375 3328 
z
" transform="scale(0.015625)"/>
      <path id="DejaVuSerif-Italic-70" d="M 1466 1825 
L 1400 1497 
Q 1353 1250 1353 1053 
Q 1353 769 1453 581 
Q 1622 269 2059 269 
Q 2500 269 2795 622 
Q 3091 975 3225 1663 
Q 3284 1978 3284 2225 
Q 3284 2513 3200 2703 
Q 3041 3053 2600 3053 
Q 2163 3053 1872 2737 
Q 1581 2422 1466 1825 
z
M 1116 2988 
L 563 2988 
L 628 3322 
L 1756 3322 
L 1656 2803 
Q 1884 3116 2175 3264 
Q 2466 3413 2850 3413 
Q 3463 3413 3753 2928 
Q 3947 2609 3947 2163 
Q 3947 1928 3897 1663 
Q 3744 881 3262 395 
Q 2781 -91 2169 -91 
Q 1784 -91 1551 57 
Q 1319 206 1213 519 
L 850 -1331 
L 275 -1331 
L 1116 2988 
z
" transform="scale(0.015625)"/>
      <path id="DejaVuSerif-Italic-73" d="M 222 959 
L 553 959 
Q 541 869 541 788 
Q 541 219 1313 219 
Q 2088 219 2200 788 
Q 2209 844 2209 944 
Q 2209 1041 2103 1158 
Q 1997 1275 1550 1428 
L 1159 1569 
Q 759 1706 629 1882 
Q 500 2059 500 2263 
Q 500 2344 516 2438 
Q 606 2894 990 3153 
Q 1375 3413 1931 3413 
Q 2484 3413 3066 3144 
L 2925 2419 
L 2594 2419 
Q 2606 2491 2606 2553 
Q 2606 2781 2448 2942 
Q 2291 3103 1925 3103 
Q 1191 3103 1091 2591 
Q 1078 2538 1078 2444 
Q 1078 2347 1179 2237 
Q 1281 2128 1678 1997 
L 2106 1856 
Q 2550 1709 2716 1488 
Q 2831 1331 2831 1178 
Q 2831 522 2306 181 
Q 1894 -91 1262 -91 
Q 631 -91 72 184 
L 222 959 
z
" transform="scale(0.015625)"/>
      <path id="DejaVuSerif-Italic-67" d="M 3822 3322 
L 3188 72 
Q 3044 -672 2581 -1031 
Q 2078 -1422 1381 -1422 
Q 1053 -1422 765 -1362 
Q 478 -1303 225 -1184 
L 363 -488 
L 663 -488 
Q 653 -813 834 -963 
Q 1016 -1113 1406 -1113 
Q 1913 -1113 2203 -825 
Q 2494 -544 2613 72 
L 2700 519 
Q 2472 206 2181 57 
Q 1891 -91 1525 -91 
Q 975 -91 697 281 
Q 522 516 503 841 
Q 491 1031 534 1256 
Q 750 2359 1516 2928 
Q 2169 3409 2931 3413 
Q 3631 3416 3822 3322 
z
M 3184 2988 
Q 3181 3094 2844 3094 
Q 2234 3094 1775 2625 
Q 1316 2153 1147 1297 
Q 1100 1044 1113 853 
Q 1125 659 1203 528 
Q 1356 269 1756 269 
Q 2194 269 2484 583 
Q 2775 897 2891 1497 
L 2953 1825 
L 3184 2988 
z
" transform="scale(0.015625)"/>
     </defs>
     <use xlink:href="#DejaVuSerif-Italic-50"/>
     <use xlink:href="#DejaVuSerif-Italic-72" x="67.285156"/>
     <use xlink:href="#DejaVuSerif-Italic-65" x="115.087891"/>
     <use xlink:href="#DejaVuSerif-Italic-70" x="174.267578"/>
     <use xlink:href="#DejaVuSerif-Italic-72" x="238.28125"/>
     <use xlink:href="#DejaVuSerif-Italic-6f" x="286.083984"/>
     <use xlink:href="#DejaVuSerif-Italic-63" x="346.289062"/>
     <use xlink:href="#DejaVuSerif-Italic-65" x="402.294922"/>
     <use xlink:href="#DejaVuSerif-Italic-73" x="461.474609"/>
     <use xlink:href="#DejaVuSerif-Italic-73" x="512.792969"/>
     <use xlink:href="#DejaVuSerif-Italic-69" x="564.111328"/>
     <use xlink:href="#DejaVuSerif-Italic-6e" x="596.09375"/>
     <use xlink:href="#DejaVuSerif-Italic-67" x="660.498047"/>
    </g>
   </g>
   <g id="text_6">
    <!-- Text extraction / cleaning -->
    <g style="fill: #ffffff" transform="translate(121.467422 268.758766) scale(0.13 -0.13)">
     <defs>
      <path id="DejaVuSerif-Bold-78" d="M 2247 2119 
L 2834 2944 
L 2425 2944 
L 2425 3322 
L 3719 3322 
L 3719 2944 
L 3278 2944 
L 2431 1759 
L 3419 378 
L 3859 378 
L 3859 0 
L 1747 0 
L 1747 378 
L 2175 378 
L 1550 1253 
L 922 378 
L 1369 378 
L 1369 0 
L 0 0 
L 0 378 
L 475 378 
L 1356 1619 
L 403 2944 
L 31 2944 
L 31 3322 
L 2059 3322 
L 2059 2944 
L 1656 2944 
L 2247 2119 
z
" transform="scale(0.015625)"/>
      <path id="DejaVuSerif-Bold-63" d="M 3609 1038 
Q 3491 469 3123 189 
Q 2756 -91 2125 -91 
Q 1238 -91 750 368 
Q 263 828 263 1663 
Q 263 2488 744 2950 
Q 1225 3413 2081 3413 
Q 2428 3413 2781 3347 
Q 3134 3281 3500 3150 
L 3500 2228 
L 3150 2228 
Q 3100 2650 2903 2854 
Q 2706 3059 2350 3059 
Q 1888 3059 1692 2746 
Q 1497 2434 1497 1663 
Q 1497 909 1687 586 
Q 1878 263 2309 263 
Q 2644 263 2845 463 
Q 3047 663 3091 1038 
L 3609 1038 
z
" transform="scale(0.015625)"/>
      <path id="DejaVuSerif-Bold-2f" d="M 1644 4666 
L 2338 4666 
L 691 -594 
L 0 -594 
L 1644 4666 
z
" transform="scale(0.015625)"/>
      <path id="DejaVuSerif-Bold-67" d="M 3853 2944 
L 3853 44 
Q 3853 -656 3354 -1039 
Q 2856 -1422 1947 -1422 
Q 1616 -1422 1275 -1370 
Q 934 -1319 575 -1216 
L 575 -422 
L 928 -422 
Q 975 -750 1192 -909 
Q 1409 -1069 1813 -1069 
Q 2325 -1069 2536 -823 
Q 2747 -578 2747 44 
L 2747 422 
Q 2606 163 2367 36 
Q 2128 -91 1778 -91 
Q 1072 -91 667 378 
Q 263 847 263 1663 
Q 263 2481 667 2947 
Q 1072 3413 1778 3413 
Q 2128 3413 2367 3286 
Q 2606 3159 2747 2900 
L 2747 3322 
L 4325 3322 
L 4325 2944 
L 3853 2944 
z
M 2747 1825 
Q 2747 2406 2597 2665 
Q 2447 2925 2119 2925 
Q 1775 2925 1636 2651 
Q 1497 2378 1497 1663 
Q 1497 947 1637 672 
Q 1778 397 2119 397 
Q 2447 397 2597 656 
Q 2747 916 2747 1497 
L 2747 1825 
z
" transform="scale(0.015625)"/>
     </defs>
     <use xlink:href="#DejaVuSerif-Bold-54"/>
     <use xlink:href="#DejaVuSerif-Bold-65" x="62.914062"/>
     <use xlink:href="#DejaVuSerif-Bold-78" x="126.537109"/>
     <use xlink:href="#DejaVuSerif-Bold-74" x="186.15625"/>
     <use xlink:href="#DejaVuSerif-Bold-20" x="232.347656"/>
     <use xlink:href="#DejaVuSerif-Bold-65" x="267.162109"/>
     <use xlink:href="#DejaVuSerif-Bold-78" x="330.785156"/>
     <use xlink:href="#DejaVuSerif-Bold-74" x="390.404297"/>
     <use xlink:href="#DejaVuSerif-Bold-72" x="436.595703"/>
     <use xlink:href="#DejaVuSerif-Bold-61" x="489.28125"/>
     <use xlink:href="#DejaVuSerif-Bold-63" x="554.076172"/>
     <use xlink:href="#DejaVuSerif-Bold-74" x="614.964844"/>
     <use xlink:href="#DejaVuSerif-Bold-69" x="661.15625"/>
     <use xlink:href="#DejaVuSerif-Bold-6f" x="699.144531"/>
     <use xlink:href="#DejaVuSerif-Bold-6e" x="765.84375"/>
     <use xlink:href="#DejaVuSerif-Bold-20" x="838.548828"/>
     <use xlink:href="#DejaVuSerif-Bold-2f" x="873.363281"/>
     <use xlink:href="#DejaVuSerif-Bold-20" x="909.886719"/>
     <use xlink:href="#DejaVuSerif-Bold-63" x="944.701172"/>
     <use xlink:href="#DejaVuSerif-Bold-6c" x="1005.589844"/>
     <use xlink:href="#DejaVuSerif-Bold-65" x="1043.578125"/>
     <use xlink:href="#DejaVuSerif-Bold-61" x="1107.201172"/>
     <use xlink:href="#DejaVuSerif-Bold-6e" x="1171.996094"/>
     <use xlink:href="#DejaVuSerif-Bold-69" x="1244.701172"/>
     <use xlink:href="#DejaVuSerif-Bold-6e" x="1282.689453"/>
     <use xlink:href="#DejaVuSerif-Bold-67" x="1355.394531"/>
    </g>
   </g>
   <g id="text_7">
    <!-- Chinese + bilingual handling -->
    <g style="fill: #ffffff" transform="translate(306.802031 268.758766) scale(0.13 -0.13)">
     <defs>
      <path id="DejaVuSerif-Bold-43" d="M 4769 1331 
Q 4584 609 4106 259 
Q 3628 -91 2822 -91 
Q 1641 -91 955 561 
Q 269 1213 269 2328 
Q 269 3447 955 4098 
Q 1641 4750 2822 4750 
Q 3238 4750 3688 4650 
Q 4138 4550 4641 4347 
L 4641 3200 
L 4244 3200 
Q 4122 3788 3800 4080 
Q 3478 4372 2950 4372 
Q 2269 4372 1937 3870 
Q 1606 3369 1606 2328 
Q 1606 1288 1937 788 
Q 2269 288 2956 288 
Q 3422 288 3717 547 
Q 4013 806 4147 1331 
L 4769 1331 
z
" transform="scale(0.015625)"/>
      <path id="DejaVuSerif-Bold-68" d="M 219 0 
L 219 378 
L 691 378 
L 691 4488 
L 197 4488 
L 197 4863 
L 1797 4863 
L 1797 2853 
Q 1997 3150 2253 3281 
Q 2509 3413 2900 3413 
Q 3459 3413 3745 3083 
Q 4031 2753 4031 2113 
L 4031 378 
L 4506 378 
L 4506 0 
L 2522 0 
L 2522 378 
L 2925 378 
L 2925 2144 
Q 2925 2566 2817 2730 
Q 2709 2894 2444 2894 
Q 2109 2894 1953 2648 
Q 1797 2403 1797 1869 
L 1797 378 
L 2203 378 
L 2203 0 
L 219 0 
z
" transform="scale(0.015625)"/>
      <path id="DejaVuSerif-Bold-2b" d="M 3041 4013 
L 3041 2369 
L 4684 2369 
L 4684 1650 
L 3041 1650 
L 3041 6 
L 2322 6 
L 2322 1650 
L 678 1650 
L 678 2369 
L 2322 2369 
L 2322 4013 
L 3041 4013 
z
" transform="scale(0.015625)"/>
     </defs>
     <use xlink:href="#DejaVuSerif-Bold-43"/>
     <use xlink:href="#DejaVuSerif-Bold-68" x="79.589844"/>
     <use xlink:href="#DejaVuSerif-Bold-69" x="152.294922"/>
     <use xlink:href="#DejaVuSerif-Bold-6e" x="190.283203"/>
     <use xlink:href="#DejaVuSerif-Bold-65" x="262.988281"/>
     <use xlink:href="#DejaVuSerif-Bold-73" x="326.611328"/>
     <use xlink:href="#DejaVuSerif-Bold-65" x="382.910156"/>
     <use xlink:href="#DejaVuSerif-Bold-20" x="446.533203"/>
     <use xlink:href="#DejaVuSerif-Bold-2b" x="481.347656"/>
     <use xlink:href="#DejaVuSerif-Bold-20" x="565.136719"/>
     <use xlink:href="#DejaVuSerif-Bold-62" x="599.951172"/>
     <use xlink:href="#DejaVuSerif-Bold-69" x="669.873047"/>
     <use xlink:href="#DejaVuSerif-Bold-6c" x="707.861328"/>
     <use xlink:href="#DejaVuSerif-Bold-69" x="745.849609"/>
     <use xlink:href="#DejaVuSerif-Bold-6e" x="783.837891"/>
     <use xlink:href="#DejaVuSerif-Bold-67" x="856.542969"/>
     <use xlink:href="#DejaVuSerif-Bold-75" x="926.464844"/>
     <use xlink:href="#DejaVuSerif-Bold-61" x="999.169922"/>
     <use xlink:href="#DejaVuSerif-Bold-6c" x="1063.964844"/>
     <use xlink:href="#DejaVuSerif-Bold-20" x="1101.953125"/>
     <use xlink:href="#DejaVuSerif-Bold-68" x="1136.767578"/>
     <use xlink:href="#DejaVuSerif-Bold-61" x="1209.472656"/>
     <use xlink:href="#DejaVuSerif-Bold-6e" x="1274.267578"/>
     <use xlink:href="#DejaVuSerif-Bold-64" x="1346.972656"/>
     <use xlink:href="#DejaVuSerif-Bold-6c" x="1416.894531"/>
     <use xlink:href="#DejaVuSerif-Bold-69" x="1454.882812"/>
     <use xlink:href="#DejaVuSerif-Bold-6e" x="1492.871094"/>
     <use xlink:href="#DejaVuSerif-Bold-67" x="1565.576172"/>
    </g>
   </g>
   <g id="text_8">
    <!-- Metadata structuring -->
    <g style="fill: #ffffff" transform="translate(533.661484 268.758766) scale(0.13 -0.13)">
     <defs>
      <path id="DejaVuSerif-Bold-4d" d="M 269 0 
L 269 378 
L 863 378 
L 863 4288 
L 269 4288 
L 269 4666 
L 2194 4666 
L 3525 1672 
L 4863 4666 
L 6784 4666 
L 6784 4288 
L 6188 4288 
L 6188 378 
L 6784 378 
L 6784 0 
L 4384 0 
L 4384 378 
L 4978 378 
L 4978 3938 
L 3531 684 
L 2741 684 
L 1300 3938 
L 1300 378 
L 1894 378 
L 1894 0 
L 269 0 
z
" transform="scale(0.015625)"/>
     </defs>
     <use xlink:href="#DejaVuSerif-Bold-4d"/>
     <use xlink:href="#DejaVuSerif-Bold-65" x="110.693359"/>
     <use xlink:href="#DejaVuSerif-Bold-74" x="174.316406"/>
     <use xlink:href="#DejaVuSerif-Bold-61" x="220.507812"/>
     <use xlink:href="#DejaVuSerif-Bold-64" x="285.302734"/>
     <use xlink:href="#DejaVuSerif-Bold-61" x="355.224609"/>
     <use xlink:href="#DejaVuSerif-Bold-74" x="420.019531"/>
     <use xlink:href="#DejaVuSerif-Bold-61" x="466.210938"/>
     <use xlink:href="#DejaVuSerif-Bold-20" x="531.005859"/>
     <use xlink:href="#DejaVuSerif-Bold-73" x="565.820312"/>
     <use xlink:href="#DejaVuSerif-Bold-74" x="622.119141"/>
     <use xlink:href="#DejaVuSerif-Bold-72" x="668.310547"/>
     <use xlink:href="#DejaVuSerif-Bold-75" x="720.996094"/>
     <use xlink:href="#DejaVuSerif-Bold-63" x="793.701172"/>
     <use xlink:href="#DejaVuSerif-Bold-74" x="854.589844"/>
     <use xlink:href="#DejaVuSerif-Bold-75" x="900.78125"/>
     <use xlink:href="#DejaVuSerif-Bold-72" x="973.486328"/>
     <use xlink:href="#DejaVuSerif-Bold-69" x="1026.171875"/>
     <use xlink:href="#DejaVuSerif-Bold-6e" x="1064.160156"/>
     <use xlink:href="#DejaVuSerif-Bold-67" x="1136.865234"/>
    </g>
   </g>
   <g id="patch_24">
    <path d="M 413.1075 350.423979 
Q 413.1075 327.002822 413.1075 305.817732 
" style="fill: none; stroke: #666666; stroke-width: 2; stroke-linecap: round"/>
    <path d="M 410.3075 311.417732 
L 413.1075 305.817732 
L 415.9075 311.417732 
" style="fill: none; stroke: #666666; stroke-width: 2; stroke-linecap: round"/>
   </g>
   <g id="text_9">
    <!-- ESG section detection -->
    <g style="fill: #808080" transform="translate(351.309844 355.460913) scale(0.11 -0.11)">
     <defs>
      <path id="DejaVuSerif-Italic-45" d="M -97 0 
L -34 331 
L 559 331 
L 1338 4331 
L 744 4331 
L 809 4666 
L 4566 4666 
L 4366 3628 
L 3981 3628 
L 4106 4281 
L 1963 4281 
L 1659 2719 
L 3188 2719 
L 3300 3303 
L 3684 3303 
L 3384 1753 
L 3000 1753 
L 3113 2338 
L 1584 2338 
L 1206 384 
L 3400 384 
L 3525 1038 
L 3909 1038 
L 3709 0 
L -97 0 
z
" transform="scale(0.015625)"/>
      <path id="DejaVuSerif-Italic-53" d="M 184 225 
L 391 1288 
L 750 1284 
Q 663 753 905 498 
Q 1147 244 1744 244 
Q 2300 244 2636 464 
Q 2972 684 3053 1106 
Q 3119 1444 2976 1625 
Q 2834 1806 2300 1978 
L 1722 2163 
Q 1091 2366 877 2669 
Q 663 2972 766 3500 
Q 881 4094 1367 4422 
Q 1853 4750 2616 4750 
Q 2941 4750 3314 4679 
Q 3688 4609 4097 4475 
L 3906 3481 
L 3553 3481 
Q 3594 3975 3361 4195 
Q 3128 4416 2563 4416 
Q 2069 4416 1772 4214 
Q 1475 4013 1400 3628 
Q 1334 3294 1490 3103 
Q 1647 2913 2241 2725 
L 2784 2553 
Q 3381 2363 3593 2067 
Q 3806 1772 3709 1275 
Q 3578 597 3076 253 
Q 2575 -91 1716 -91 
Q 1331 -91 948 -12 
Q 566 66 184 225 
z
" transform="scale(0.015625)"/>
      <path id="DejaVuSerif-Italic-47" d="M 4281 3272 
Q 4284 3856 3992 4136 
Q 3700 4416 3081 4416 
Q 2275 4416 1776 3897 
Q 1278 3378 1075 2328 
Q 875 1300 1181 772 
Q 1488 244 2281 244 
Q 2634 244 2973 331 
Q 3313 419 3638 594 
L 3872 1797 
L 2994 1797 
L 3059 2131 
L 4572 2131 
L 4231 391 
Q 3769 150 3266 29 
Q 2763 -91 2216 -91 
Q 1159 -91 653 570 
Q 147 1231 359 2328 
Q 575 3434 1340 4092 
Q 2106 4750 3184 4750 
Q 3584 4750 3992 4658 
Q 4400 4566 4844 4378 
L 4631 3272 
L 4281 3272 
z
" transform="scale(0.015625)"/>
      <path id="DejaVuSerif-Italic-64" d="M 3841 4863 
L 2897 0 
L 2322 0 
L 2422 519 
Q 2191 206 1902 57 
Q 1613 -91 1228 -91 
Q 616 -91 322 394 
Q 125 716 125 1166 
Q 125 1397 178 1663 
Q 331 2444 812 2928 
Q 1294 3413 1909 3413 
Q 2294 3413 2525 3264 
Q 2756 3116 2866 2803 
L 3200 4531 
L 2656 4531 
L 2722 4863 
L 3841 4863 
z
M 2613 1497 
L 2675 1825 
Q 2722 2069 2722 2266 
Q 2722 2550 2622 2738 
Q 2456 3053 2019 3053 
Q 1575 3053 1279 2703 
Q 984 2353 850 1663 
Q 788 1347 788 1103 
Q 788 813 875 622 
Q 1031 269 1475 269 
Q 1913 269 2203 583 
Q 2494 897 2613 1497 
z
" transform="scale(0.015625)"/>
     </defs>
     <use xlink:href="#DejaVuSerif-Italic-45"/>
     <use xlink:href="#DejaVuSerif-Italic-53" x="72.998047"/>
     <use xlink:href="#DejaVuSerif-Italic-47" x="141.503906"/>
     <use xlink:href="#DejaVuSerif-Italic-20" x="221.386719"/>
     <use xlink:href="#DejaVuSerif-Italic-73" x="253.173828"/>
     <use xlink:href="#DejaVuSerif-Italic-65" x="304.492188"/>
     <use xlink:href="#DejaVuSerif-Italic-63" x="363.671875"/>
     <use xlink:href="#DejaVuSerif-Italic-74" x="419.677734"/>
     <use xlink:href="#DejaVuSerif-Italic-69" x="459.863281"/>
     <use xlink:href="#DejaVuSerif-Italic-6f" x="491.845703"/>
     <use xlink:href="#DejaVuSerif-Italic-6e" x="552.050781"/>
     <use xlink:href="#DejaVuSerif-Italic-20" x="616.455078"/>
     <use xlink:href="#DejaVuSerif-Italic-64" x="648.242188"/>
     <use xlink:href="#DejaVuSerif-Italic-65" x="712.255859"/>
     <use xlink:href="#DejaVuSerif-Italic-74" x="771.435547"/>
     <use xlink:href="#DejaVuSerif-Italic-65" x="811.621094"/>
     <use xlink:href="#DejaVuSerif-Italic-63" x="870.800781"/>
     <use xlink:href="#DejaVuSerif-Italic-74" x="926.806641"/>
     <use xlink:href="#DejaVuSerif-Italic-69" x="966.992188"/>
     <use xlink:href="#DejaVuSerif-Italic-6f" x="998.974609"/>
     <use xlink:href="#DejaVuSerif-Italic-6e" x="1059.179688"/>
    </g>
   </g>
   <g id="text_10">
    <!-- Locate ESG-relevant passages -->
    <g style="fill: #ffffff" transform="translate(104.846719 414.028099) scale(0.13 -0.13)">
     <defs>
      <path id="DejaVuSerif-Bold-4c" d="M 300 0 
L 300 378 
L 897 378 
L 897 4288 
L 300 4288 
L 300 4666 
L 2700 4666 
L 2700 4288 
L 2100 4288 
L 2100 428 
L 3938 428 
L 3938 1166 
L 4359 1166 
L 4359 0 
L 300 0 
z
" transform="scale(0.015625)"/>
      <path id="DejaVuSerif-Bold-45" d="M 300 0 
L 300 378 
L 897 378 
L 897 4288 
L 300 4288 
L 300 4666 
L 4494 4666 
L 4494 3566 
L 4063 3566 
L 4063 4238 
L 2100 4238 
L 2100 2741 
L 3322 2741 
L 3322 3334 
L 3750 3334 
L 3750 1722 
L 3322 1722 
L 3322 2316 
L 2100 2316 
L 2100 428 
L 4122 428 
L 4122 1100 
L 4550 1100 
L 4550 0 
L 300 0 
z
" transform="scale(0.015625)"/>
      <path id="DejaVuSerif-Bold-47" d="M 4403 3200 
Q 4263 3819 3934 4095 
Q 3606 4372 3009 4372 
Q 2284 4372 1945 3880 
Q 1606 3388 1606 2328 
Q 1606 1278 1931 783 
Q 2256 288 2944 288 
Q 3206 288 3431 347 
Q 3656 406 3841 525 
L 3841 1806 
L 3278 1806 
L 3278 2181 
L 4959 2181 
L 4959 391 
Q 4434 147 3911 28 
Q 3388 -91 2841 -91 
Q 1641 -91 955 556 
Q 269 1203 269 2328 
Q 269 3456 955 4103 
Q 1641 4750 2841 4750 
Q 3341 4750 3825 4650 
Q 4309 4550 4800 4347 
L 4800 3200 
L 4403 3200 
z
" transform="scale(0.015625)"/>
      <path id="DejaVuSerif-Bold-76" d="M 1428 0 
L 250 2944 
L -116 2944 
L -116 3322 
L 1791 3322 
L 1791 2944 
L 1388 2944 
L 2228 844 
L 3066 2944 
L 2631 2944 
L 2631 3322 
L 3878 3322 
L 3878 2944 
L 3494 2944 
L 2316 0 
L 1428 0 
z
" transform="scale(0.015625)"/>
     </defs>
     <use xlink:href="#DejaVuSerif-Bold-4c"/>
     <use xlink:href="#DejaVuSerif-Bold-6f" x="70.3125"/>
     <use xlink:href="#DejaVuSerif-Bold-63" x="137.011719"/>
     <use xlink:href="#DejaVuSerif-Bold-61" x="197.900391"/>
     <use xlink:href="#DejaVuSerif-Bold-74" x="262.695312"/>
     <use xlink:href="#DejaVuSerif-Bold-65" x="308.886719"/>
     <use xlink:href="#DejaVuSerif-Bold-20" x="372.509766"/>
     <use xlink:href="#DejaVuSerif-Bold-45" x="407.324219"/>
     <use xlink:href="#DejaVuSerif-Bold-53" x="483.544922"/>
     <use xlink:href="#DejaVuSerif-Bold-47" x="555.761719"/>
     <use xlink:href="#DejaVuSerif-Bold-2d" x="643.037109"/>
     <use xlink:href="#DejaVuSerif-Bold-72" x="684.541016"/>
     <use xlink:href="#DejaVuSerif-Bold-65" x="737.226562"/>
     <use xlink:href="#DejaVuSerif-Bold-6c" x="800.849609"/>
     <use xlink:href="#DejaVuSerif-Bold-65" x="838.837891"/>
     <use xlink:href="#DejaVuSerif-Bold-76" x="902.460938"/>
     <use xlink:href="#DejaVuSerif-Bold-61" x="960.566406"/>
     <use xlink:href="#DejaVuSerif-Bold-6e" x="1025.361328"/>
     <use xlink:href="#DejaVuSerif-Bold-74" x="1098.066406"/>
     <use xlink:href="#DejaVuSerif-Bold-20" x="1144.257812"/>
     <use xlink:href="#DejaVuSerif-Bold-70" x="1179.072266"/>
     <use xlink:href="#DejaVuSerif-Bold-61" x="1248.994141"/>
     <use xlink:href="#DejaVuSerif-Bold-73" x="1313.789062"/>
     <use xlink:href="#DejaVuSerif-Bold-73" x="1370.087891"/>
     <use xlink:href="#DejaVuSerif-Bold-61" x="1426.386719"/>
     <use xlink:href="#DejaVuSerif-Bold-67" x="1491.181641"/>
     <use xlink:href="#DejaVuSerif-Bold-65" x="1561.103516"/>
     <use xlink:href="#DejaVuSerif-Bold-73" x="1624.726562"/>
    </g>
   </g>
   <g id="text_11">
    <!-- Split by E / S / G dimensions -->
    <g style="fill: #ffffff" transform="translate(310.215547 414.028099) scale(0.13 -0.13)">
     <use xlink:href="#DejaVuSerif-Bold-53"/>
     <use xlink:href="#DejaVuSerif-Bold-70" x="72.216797"/>
     <use xlink:href="#DejaVuSerif-Bold-6c" x="142.138672"/>
     <use xlink:href="#DejaVuSerif-Bold-69" x="180.126953"/>
     <use xlink:href="#DejaVuSerif-Bold-74" x="218.115234"/>
     <use xlink:href="#DejaVuSerif-Bold-20" x="264.306641"/>
     <use xlink:href="#DejaVuSerif-Bold-62" x="299.121094"/>
     <use xlink:href="#DejaVuSerif-Bold-79" x="369.042969"/>
     <use xlink:href="#DejaVuSerif-Bold-20" x="427.148438"/>
     <use xlink:href="#DejaVuSerif-Bold-45" x="461.962891"/>
     <use xlink:href="#DejaVuSerif-Bold-20" x="538.183594"/>
     <use xlink:href="#DejaVuSerif-Bold-2f" x="572.998047"/>
     <use xlink:href="#DejaVuSerif-Bold-20" x="609.521484"/>
     <use xlink:href="#DejaVuSerif-Bold-53" x="644.335938"/>
     <use xlink:href="#DejaVuSerif-Bold-20" x="716.552734"/>
     <use xlink:href="#DejaVuSerif-Bold-2f" x="751.367188"/>
     <use xlink:href="#DejaVuSerif-Bold-20" x="787.890625"/>
     <use xlink:href="#DejaVuSerif-Bold-47" x="822.705078"/>
     <use xlink:href="#DejaVuSerif-Bold-20" x="908.105469"/>
     <use xlink:href="#DejaVuSerif-Bold-64" x="942.919922"/>
     <use xlink:href="#DejaVuSerif-Bold-69" x="1012.841797"/>
     <use xlink:href="#DejaVuSerif-Bold-6d" x="1050.830078"/>
     <use xlink:href="#DejaVuSerif-Bold-65" x="1156.640625"/>
     <use xlink:href="#DejaVuSerif-Bold-6e" x="1220.263672"/>
     <use xlink:href="#DejaVuSerif-Bold-73" x="1292.96875"/>
     <use xlink:href="#DejaVuSerif-Bold-69" x="1349.267578"/>
     <use xlink:href="#DejaVuSerif-Bold-6f" x="1387.255859"/>
     <use xlink:href="#DejaVuSerif-Bold-6e" x="1453.955078"/>
     <use xlink:href="#DejaVuSerif-Bold-73" x="1526.660156"/>
    </g>
   </g>
   <g id="text_12">
    <!-- Identify section boundaries -->
    <g style="fill: #ffffff" transform="translate(512.021563 414.028099) scale(0.13 -0.13)">
     <defs>
      <path id="DejaVuSerif-Bold-49" d="M 300 0 
L 300 378 
L 897 378 
L 897 4288 
L 300 4288 
L 300 4666 
L 2700 4666 
L 2700 4288 
L 2100 4288 
L 2100 378 
L 2700 378 
L 2700 0 
L 300 0 
z
" transform="scale(0.015625)"/>
     </defs>
     <use xlink:href="#DejaVuSerif-Bold-49"/>
     <use xlink:href="#DejaVuSerif-Bold-64" x="46.777344"/>
     <use xlink:href="#DejaVuSerif-Bold-65" x="116.699219"/>
     <use xlink:href="#DejaVuSerif-Bold-6e" x="180.322266"/>
     <use xlink:href="#DejaVuSerif-Bold-74" x="253.027344"/>
     <use xlink:href="#DejaVuSerif-Bold-69" x="299.21875"/>
     <use xlink:href="#DejaVuSerif-Bold-66" x="337.207031"/>
     <use xlink:href="#DejaVuSerif-Bold-79" x="380.224609"/>
     <use xlink:href="#DejaVuSerif-Bold-20" x="438.330078"/>
     <use xlink:href="#DejaVuSerif-Bold-73" x="473.144531"/>
     <use xlink:href="#DejaVuSerif-Bold-65" x="529.443359"/>
     <use xlink:href="#DejaVuSerif-Bold-63" x="593.066406"/>
     <use xlink:href="#DejaVuSerif-Bold-74" x="653.955078"/>
     <use xlink:href="#DejaVuSerif-Bold-69" x="700.146484"/>
     <use xlink:href="#DejaVuSerif-Bold-6f" x="738.134766"/>
     <use xlink:href="#DejaVuSerif-Bold-6e" x="804.833984"/>
     <use xlink:href="#DejaVuSerif-Bold-20" x="877.539062"/>
     <use xlink:href="#DejaVuSerif-Bold-62" x="912.353516"/>
     <use xlink:href="#DejaVuSerif-Bold-6f" x="982.275391"/>
     <use xlink:href="#DejaVuSerif-Bold-75" x="1048.974609"/>
     <use xlink:href="#DejaVuSerif-Bold-6e" x="1121.679688"/>
     <use xlink:href="#DejaVuSerif-Bold-64" x="1194.384766"/>
     <use xlink:href="#DejaVuSerif-Bold-61" x="1264.306641"/>
     <use xlink:href="#DejaVuSerif-Bold-72" x="1329.101562"/>
     <use xlink:href="#DejaVuSerif-Bold-69" x="1381.787109"/>
     <use xlink:href="#DejaVuSerif-Bold-65" x="1419.775391"/>
     <use xlink:href="#DejaVuSerif-Bold-73" x="1483.398438"/>
    </g>
   </g>
   <g id="patch_25">
    <path d="M 413.1075 495.693313 
Q 413.1075 472.272155 413.1075 451.087065 
" style="fill: none; stroke: #666666; stroke-width: 2; stroke-linecap: round"/>
    <path d="M 410.3075 456.687065 
L 413.1075 451.087065 
L 415.9075 456.687065 
" style="fill: none; stroke: #666666; stroke-width: 2; stroke-linecap: round"/>
   </g>
   <g id="text_13">
    <!-- Prompt-based LLM scoring -->
    <g style="fill: #808080" transform="translate(337.16625 500.652043) scale(0.11 -0.11)">
     <defs>
      <path id="DejaVuSerif-Italic-2d" d="M 328 1959 
L 1928 1959 
L 1834 1472 
L 234 1472 
L 328 1959 
z
" transform="scale(0.015625)"/>
      <path id="DejaVuSerif-Italic-62" d="M 1153 4531 
L 600 4531 
L 666 4863 
L 1794 4863 
L 1394 2803 
Q 1622 3116 1912 3264 
Q 2203 3413 2588 3413 
Q 3200 3413 3494 2928 
Q 3688 2609 3688 2163 
Q 3688 1928 3634 1663 
Q 3481 881 3000 395 
Q 2519 -91 1906 -91 
Q 1522 -91 1289 57 
Q 1056 206 950 519 
L 850 0 
L 275 0 
L 1153 4531 
z
M 1141 1497 
Q 1091 1250 1091 1053 
Q 1091 769 1191 581 
Q 1359 269 1797 269 
Q 2238 269 2533 622 
Q 2828 975 2963 1663 
Q 3025 1978 3025 2225 
Q 3025 2513 2938 2703 
Q 2781 3053 2338 3053 
Q 1900 3053 1609 2737 
Q 1319 2422 1203 1825 
L 1141 1497 
z
" transform="scale(0.015625)"/>
      <path id="DejaVuSerif-Italic-61" d="M 2325 519 
Q 1909 -91 1238 -91 
Q 688 -91 409 281 
Q 216 544 216 919 
Q 216 1078 250 1256 
Q 463 2359 1231 2928 
Q 1884 3413 2675 3413 
Q 3206 3413 3388 3322 
L 2806 331 
L 3300 331 
L 3238 0 
L 2225 0 
L 2325 519 
z
M 822 938 
Q 822 269 1469 269 
Q 1863 269 2130 583 
Q 2397 897 2516 1497 
L 2806 3003 
L 2806 3003 
Q 2806 3094 2556 3094 
Q 1956 3094 1491 2625 
Q 1028 2153 863 1297 
Q 822 1097 822 938 
z
" transform="scale(0.015625)"/>
      <path id="DejaVuSerif-Italic-4c" d="M -97 0 
L -34 331 
L 559 331 
L 1338 4331 
L 744 4331 
L 809 4666 
L 2631 4666 
L 2566 4331 
L 1972 4331 
L 1206 384 
L 3338 384 
L 3488 1166 
L 3872 1166 
L 3647 0 
L -97 0 
z
" transform="scale(0.015625)"/>
      <path id="DejaVuSerif-Italic-4d" d="M -97 0 
L -34 331 
L 559 331 
L 1338 4331 
L 709 4331 
L 775 4666 
L 2134 4666 
L 3125 1344 
L 5409 4666 
L 6684 4666 
L 6619 4331 
L 5997 4331 
L 5222 331 
L 5816 331 
L 5753 0 
L 3928 0 
L 3991 331 
L 4584 331 
L 5288 3938 
L 3053 684 
L 2613 684 
L 1647 3938 
L 944 331 
L 1538 331 
L 1475 0 
L -97 0 
z
" transform="scale(0.015625)"/>
     </defs>
     <use xlink:href="#DejaVuSerif-Italic-50"/>
     <use xlink:href="#DejaVuSerif-Italic-72" x="67.285156"/>
     <use xlink:href="#DejaVuSerif-Italic-6f" x="115.087891"/>
     <use xlink:href="#DejaVuSerif-Italic-6d" x="175.292969"/>
     <use xlink:href="#DejaVuSerif-Italic-70" x="270.117188"/>
     <use xlink:href="#DejaVuSerif-Italic-74" x="334.130859"/>
     <use xlink:href="#DejaVuSerif-Italic-2d" x="374.316406"/>
     <use xlink:href="#DejaVuSerif-Italic-62" x="408.105469"/>
     <use xlink:href="#DejaVuSerif-Italic-61" x="472.119141"/>
     <use xlink:href="#DejaVuSerif-Italic-73" x="531.738281"/>
     <use xlink:href="#DejaVuSerif-Italic-65" x="583.056641"/>
     <use xlink:href="#DejaVuSerif-Italic-64" x="642.236328"/>
     <use xlink:href="#DejaVuSerif-Italic-20" x="706.25"/>
     <use xlink:href="#DejaVuSerif-Italic-4c" x="738.037109"/>
     <use xlink:href="#DejaVuSerif-Italic-4c" x="804.443359"/>
     <use xlink:href="#DejaVuSerif-Italic-4d" x="870.849609"/>
     <use xlink:href="#DejaVuSerif-Italic-20" x="973.242188"/>
     <use xlink:href="#DejaVuSerif-Italic-73" x="1005.029297"/>
     <use xlink:href="#DejaVuSerif-Italic-63" x="1056.347656"/>
     <use xlink:href="#DejaVuSerif-Italic-6f" x="1112.353516"/>
     <use xlink:href="#DejaVuSerif-Italic-72" x="1172.558594"/>
     <use xlink:href="#DejaVuSerif-Italic-69" x="1220.361328"/>
     <use xlink:href="#DejaVuSerif-Italic-6e" x="1252.34375"/>
     <use xlink:href="#DejaVuSerif-Italic-67" x="1316.748047"/>
    </g>
   </g>
   <g id="text_14">
    <!-- Semantic disclosure assessment -->
    <g style="fill: #ffffff" transform="translate(96.406875 559.389854) scale(0.13 -0.13)">
     <use xlink:href="#DejaVuSerif-Bold-53"/>
     <use xlink:href="#DejaVuSerif-Bold-65" x="72.216797"/>
     <use xlink:href="#DejaVuSerif-Bold-6d" x="135.839844"/>
     <use xlink:href="#DejaVuSerif-Bold-61" x="241.650391"/>
     <use xlink:href="#DejaVuSerif-Bold-6e" x="306.445312"/>
     <use xlink:href="#DejaVuSerif-Bold-74" x="379.150391"/>
     <use xlink:href="#DejaVuSerif-Bold-69" x="425.341797"/>
     <use xlink:href="#DejaVuSerif-Bold-63" x="463.330078"/>
     <use xlink:href="#DejaVuSerif-Bold-20" x="524.21875"/>
     <use xlink:href="#DejaVuSerif-Bold-64" x="559.033203"/>
     <use xlink:href="#DejaVuSerif-Bold-69" x="628.955078"/>
     <use xlink:href="#DejaVuSerif-Bold-73" x="666.943359"/>
     <use xlink:href="#DejaVuSerif-Bold-63" x="723.242188"/>
     <use xlink:href="#DejaVuSerif-Bold-6c" x="784.130859"/>
     <use xlink:href="#DejaVuSerif-Bold-6f" x="822.119141"/>
     <use xlink:href="#DejaVuSerif-Bold-73" x="888.818359"/>
     <use xlink:href="#DejaVuSerif-Bold-75" x="945.117188"/>
     <use xlink:href="#DejaVuSerif-Bold-72" x="1017.822266"/>
     <use xlink:href="#DejaVuSerif-Bold-65" x="1070.507812"/>
     <use xlink:href="#DejaVuSerif-Bold-20" x="1134.130859"/>
     <use xlink:href="#DejaVuSerif-Bold-61" x="1168.945312"/>
     <use xlink:href="#DejaVuSerif-Bold-73" x="1233.740234"/>
     <use xlink:href="#DejaVuSerif-Bold-73" x="1290.039062"/>
     <use xlink:href="#DejaVuSerif-Bold-65" x="1346.337891"/>
     <use xlink:href="#DejaVuSerif-Bold-73" x="1409.960938"/>
     <use xlink:href="#DejaVuSerif-Bold-73" x="1466.259766"/>
     <use xlink:href="#DejaVuSerif-Bold-6d" x="1522.558594"/>
     <use xlink:href="#DejaVuSerif-Bold-65" x="1628.369141"/>
     <use xlink:href="#DejaVuSerif-Bold-6e" x="1691.992188"/>
     <use xlink:href="#DejaVuSerif-Bold-74" x="1764.697266"/>
    </g>
   </g>
   <g id="text_15">
    <!-- LLM-generated ESG scores -->
    <g style="fill: #ffffff" transform="translate(314.315625 559.297432) scale(0.13 -0.13)">
     <use xlink:href="#DejaVuSerif-Bold-4c"/>
     <use xlink:href="#DejaVuSerif-Bold-4c" x="70.3125"/>
     <use xlink:href="#DejaVuSerif-Bold-4d" x="140.625"/>
     <use xlink:href="#DejaVuSerif-Bold-2d" x="251.318359"/>
     <use xlink:href="#DejaVuSerif-Bold-67" x="292.822266"/>
     <use xlink:href="#DejaVuSerif-Bold-65" x="362.744141"/>
     <use xlink:href="#DejaVuSerif-Bold-6e" x="426.367188"/>
     <use xlink:href="#DejaVuSerif-Bold-65" x="499.072266"/>
     <use xlink:href="#DejaVuSerif-Bold-72" x="562.695312"/>
     <use xlink:href="#DejaVuSerif-Bold-61" x="615.380859"/>
     <use xlink:href="#DejaVuSerif-Bold-74" x="680.175781"/>
     <use xlink:href="#DejaVuSerif-Bold-65" x="726.367188"/>
     <use xlink:href="#DejaVuSerif-Bold-64" x="789.990234"/>
     <use xlink:href="#DejaVuSerif-Bold-20" x="859.912109"/>
     <use xlink:href="#DejaVuSerif-Bold-45" x="894.726562"/>
     <use xlink:href="#DejaVuSerif-Bold-53" x="970.947266"/>
     <use xlink:href="#DejaVuSerif-Bold-47" x="1043.164062"/>
     <use xlink:href="#DejaVuSerif-Bold-20" x="1128.564453"/>
     <use xlink:href="#DejaVuSerif-Bold-73" x="1163.378906"/>
     <use xlink:href="#DejaVuSerif-Bold-63" x="1219.677734"/>
     <use xlink:href="#DejaVuSerif-Bold-6f" x="1280.566406"/>
     <use xlink:href="#DejaVuSerif-Bold-72" x="1347.265625"/>
     <use xlink:href="#DejaVuSerif-Bold-65" x="1399.951172"/>
     <use xlink:href="#DejaVuSerif-Bold-73" x="1463.574219"/>
    </g>
   </g>
   <g id="text_16">
    <!-- Quality dimensions: specificity, completeness, relevance -->
    <g style="fill: #ffffff" transform="translate(406.981563 559.297432) scale(0.13 -0.13)">
     <defs>
      <path id="DejaVuSerif-Bold-51" d="M 2766 -91 
Q 1584 -72 926 565 
Q 269 1203 269 2328 
Q 269 3459 939 4104 
Q 1609 4750 2784 4750 
Q 3963 4750 4631 4106 
Q 5300 3463 5300 2328 
Q 5300 1334 4786 715 
Q 4272 97 3322 -50 
Q 3488 -228 3725 -306 
Q 3963 -384 4341 -384 
L 4500 -384 
L 4500 -1153 
L 4409 -1153 
Q 3816 -1153 3419 -897 
Q 3022 -641 2766 -91 
z
M 2784 288 
Q 3381 288 3672 791 
Q 3963 1294 3963 2328 
Q 3963 3366 3672 3869 
Q 3381 4372 2784 4372 
Q 2191 4372 1898 3864 
Q 1606 3356 1606 2328 
Q 1606 1303 1898 795 
Q 2191 288 2784 288 
z
" transform="scale(0.015625)"/>
      <path id="DejaVuSerif-Bold-3a" d="M 588 2541 
Q 588 2788 761 2963 
Q 934 3138 1178 3138 
Q 1422 3138 1597 2961 
Q 1772 2784 1772 2541 
Q 1772 2297 1598 2125 
Q 1425 1953 1178 1953 
Q 931 1953 759 2125 
Q 588 2297 588 2541 
z
M 588 506 
Q 588 750 761 925 
Q 934 1100 1178 1100 
Q 1422 1100 1597 925 
Q 1772 750 1772 506 
Q 1772 259 1597 84 
Q 1422 -91 1178 -91 
Q 934 -91 761 84 
Q 588 259 588 506 
z
" transform="scale(0.015625)"/>
      <path id="DejaVuSerif-Bold-2c" d="M 84 -616 
Q 409 -353 562 -28 
Q 716 297 716 728 
L 716 997 
L 1606 997 
L 1606 972 
Q 1606 281 1317 -217 
Q 1028 -716 428 -1056 
L 84 -616 
z
" transform="scale(0.015625)"/>
     </defs>
     <use xlink:href="#DejaVuSerif-Bold-51"/>
     <use xlink:href="#DejaVuSerif-Bold-75" x="87.109375"/>
     <use xlink:href="#DejaVuSerif-Bold-61" x="159.814453"/>
     <use xlink:href="#DejaVuSerif-Bold-6c" x="224.609375"/>
     <use xlink:href="#DejaVuSerif-Bold-69" x="262.597656"/>
     <use xlink:href="#DejaVuSerif-Bold-74" x="300.585938"/>
     <use xlink:href="#DejaVuSerif-Bold-79" x="346.777344"/>
     <use xlink:href="#DejaVuSerif-Bold-20" x="404.882812"/>
     <use xlink:href="#DejaVuSerif-Bold-64" x="439.697266"/>
     <use xlink:href="#DejaVuSerif-Bold-69" x="509.619141"/>
     <use xlink:href="#DejaVuSerif-Bold-6d" x="547.607422"/>
     <use xlink:href="#DejaVuSerif-Bold-65" x="653.417969"/>
     <use xlink:href="#DejaVuSerif-Bold-6e" x="717.041016"/>
     <use xlink:href="#DejaVuSerif-Bold-73" x="789.746094"/>
     <use xlink:href="#DejaVuSerif-Bold-69" x="846.044922"/>
     <use xlink:href="#DejaVuSerif-Bold-6f" x="884.033203"/>
     <use xlink:href="#DejaVuSerif-Bold-6e" x="950.732422"/>
     <use xlink:href="#DejaVuSerif-Bold-73" x="1023.4375"/>
     <use xlink:href="#DejaVuSerif-Bold-3a" x="1079.736328"/>
     <use xlink:href="#DejaVuSerif-Bold-20" x="1116.650391"/>
     <use xlink:href="#DejaVuSerif-Bold-73" x="1151.464844"/>
     <use xlink:href="#DejaVuSerif-Bold-70" x="1207.763672"/>
     <use xlink:href="#DejaVuSerif-Bold-65" x="1277.685547"/>
     <use xlink:href="#DejaVuSerif-Bold-63" x="1341.308594"/>
     <use xlink:href="#DejaVuSerif-Bold-69" x="1402.197266"/>
     <use xlink:href="#DejaVuSerif-Bold-66" x="1440.185547"/>
     <use xlink:href="#DejaVuSerif-Bold-69" x="1483.203125"/>
     <use xlink:href="#DejaVuSerif-Bold-63" x="1521.191406"/>
     <use xlink:href="#DejaVuSerif-Bold-69" x="1582.080078"/>
     <use xlink:href="#DejaVuSerif-Bold-74" x="1620.068359"/>
     <use xlink:href="#DejaVuSerif-Bold-79" x="1666.259766"/>
     <use xlink:href="#DejaVuSerif-Bold-2c" x="1714.740234"/>
     <use xlink:href="#DejaVuSerif-Bold-20" x="1749.554688"/>
     <use xlink:href="#DejaVuSerif-Bold-63" x="1784.369141"/>
     <use xlink:href="#DejaVuSerif-Bold-6f" x="1845.257812"/>
     <use xlink:href="#DejaVuSerif-Bold-6d" x="1911.957031"/>
     <use xlink:href="#DejaVuSerif-Bold-70" x="2017.767578"/>
     <use xlink:href="#DejaVuSerif-Bold-6c" x="2087.689453"/>
     <use xlink:href="#DejaVuSerif-Bold-65" x="2125.677734"/>
     <use xlink:href="#DejaVuSerif-Bold-74" x="2189.300781"/>
     <use xlink:href="#DejaVuSerif-Bold-65" x="2235.492188"/>
     <use xlink:href="#DejaVuSerif-Bold-6e" x="2299.115234"/>
     <use xlink:href="#DejaVuSerif-Bold-65" x="2371.820312"/>
     <use xlink:href="#DejaVuSerif-Bold-73" x="2435.443359"/>
     <use xlink:href="#DejaVuSerif-Bold-73" x="2491.742188"/>
     <use xlink:href="#DejaVuSerif-Bold-2c" x="2548.041016"/>
     <use xlink:href="#DejaVuSerif-Bold-20" x="2582.855469"/>
     <use xlink:href="#DejaVuSerif-Bold-72" x="2617.669922"/>
     <use xlink:href="#DejaVuSerif-Bold-65" x="2670.355469"/>
     <use xlink:href="#DejaVuSerif-Bold-6c" x="2733.978516"/>
     <use xlink:href="#DejaVuSerif-Bold-65" x="2771.966797"/>
     <use xlink:href="#DejaVuSerif-Bold-76" x="2835.589844"/>
     <use xlink:href="#DejaVuSerif-Bold-61" x="2893.695312"/>
     <use xlink:href="#DejaVuSerif-Bold-6e" x="2958.490234"/>
     <use xlink:href="#DejaVuSerif-Bold-63" x="3031.195312"/>
     <use xlink:href="#DejaVuSerif-Bold-65" x="3092.083984"/>
    </g>
   </g>
   <g id="patch_26">
    <path d="M 413.1075 640.962646 
Q 413.1075 617.541488 413.1075 596.356399 
" style="fill: none; stroke: #666666; stroke-width: 2; stroke-linecap: round"/>
    <path d="M 410.3075 601.956399 
L 413.1075 596.356399 
L 415.9075 601.956399 
" style="fill: none; stroke: #666666; stroke-width: 2; stroke-linecap: round"/>
   </g>
   <g id="text_17">
    <!-- Expert validation -->
    <g style="fill: #808080" transform="translate(365.099375 645.999579) scale(0.11 -0.11)">
     <defs>
      <path id="DejaVuSerif-Italic-78" d="M 409 0 
L 19 0 
L 1484 1594 
L 747 2988 
L 338 2988 
L 400 3322 
L 1244 3322 
L 1934 2028 
L 3125 3322 
L 3516 3322 
L 2078 1759 
L 2838 331 
L 3272 331 
L 3209 0 
L 2338 0 
L 1631 1325 
L 409 0 
z
" transform="scale(0.015625)"/>
      <path id="DejaVuSerif-Italic-76" d="M 1681 0 
L 1259 0 
L 619 2988 
L 241 2988 
L 303 3322 
L 1163 3322 
L 1725 703 
Q 2084 1016 2325 1413 
Q 2825 2238 3003 2988 
L 2622 2988 
L 2688 3322 
L 3547 3322 
Q 3206 2034 2775 1313 
Q 2400 688 1681 0 
z
" transform="scale(0.015625)"/>
     </defs>
     <use xlink:href="#DejaVuSerif-Italic-45"/>
     <use xlink:href="#DejaVuSerif-Italic-78" x="72.998047"/>
     <use xlink:href="#DejaVuSerif-Italic-70" x="129.394531"/>
     <use xlink:href="#DejaVuSerif-Italic-65" x="193.408203"/>
     <use xlink:href="#DejaVuSerif-Italic-72" x="252.587891"/>
     <use xlink:href="#DejaVuSerif-Italic-74" x="300.390625"/>
     <use xlink:href="#DejaVuSerif-Italic-20" x="340.576172"/>
     <use xlink:href="#DejaVuSerif-Italic-76" x="372.363281"/>
     <use xlink:href="#DejaVuSerif-Italic-61" x="428.857422"/>
     <use xlink:href="#DejaVuSerif-Italic-6c" x="488.476562"/>
     <use xlink:href="#DejaVuSerif-Italic-69" x="520.458984"/>
     <use xlink:href="#DejaVuSerif-Italic-64" x="552.441406"/>
     <use xlink:href="#DejaVuSerif-Italic-61" x="616.455078"/>
     <use xlink:href="#DejaVuSerif-Italic-74" x="676.074219"/>
     <use xlink:href="#DejaVuSerif-Italic-69" x="716.259766"/>
     <use xlink:href="#DejaVuSerif-Italic-6f" x="748.242188"/>
     <use xlink:href="#DejaVuSerif-Italic-6e" x="808.447266"/>
    </g>
   </g>
   <g id="text_18">
    <!-- Expert-coded benchmark dataset -->
    <g style="fill: #ffffff" transform="translate(93.559063 704.659187) scale(0.13 -0.13)">
     <defs>
      <path id="DejaVuSerif-Bold-6b" d="M 2216 0 
L 219 0 
L 219 378 
L 691 378 
L 691 4488 
L 219 4488 
L 219 4863 
L 1797 4863 
L 1797 1741 
L 3138 2944 
L 2741 2944 
L 2741 3322 
L 4256 3322 
L 4256 2944 
L 3641 2944 
L 2784 2175 
L 4184 378 
L 4544 378 
L 4544 0 
L 2638 0 
L 2638 378 
L 3028 378 
L 2106 1563 
L 1797 1288 
L 1797 378 
L 2216 378 
L 2216 0 
z
" transform="scale(0.015625)"/>
     </defs>
     <use xlink:href="#DejaVuSerif-Bold-45"/>
     <use xlink:href="#DejaVuSerif-Bold-78" x="76.220703"/>
     <use xlink:href="#DejaVuSerif-Bold-70" x="135.839844"/>
     <use xlink:href="#DejaVuSerif-Bold-65" x="205.761719"/>
     <use xlink:href="#DejaVuSerif-Bold-72" x="269.384766"/>
     <use xlink:href="#DejaVuSerif-Bold-74" x="322.070312"/>
     <use xlink:href="#DejaVuSerif-Bold-2d" x="368.261719"/>
     <use xlink:href="#DejaVuSerif-Bold-63" x="409.765625"/>
     <use xlink:href="#DejaVuSerif-Bold-6f" x="470.654297"/>
     <use xlink:href="#DejaVuSerif-Bold-64" x="537.353516"/>
     <use xlink:href="#DejaVuSerif-Bold-65" x="607.275391"/>
     <use xlink:href="#DejaVuSerif-Bold-64" x="670.898438"/>
     <use xlink:href="#DejaVuSerif-Bold-20" x="740.820312"/>
     <use xlink:href="#DejaVuSerif-Bold-62" x="775.634766"/>
     <use xlink:href="#DejaVuSerif-Bold-65" x="845.556641"/>
     <use xlink:href="#DejaVuSerif-Bold-6e" x="909.179688"/>
     <use xlink:href="#DejaVuSerif-Bold-63" x="981.884766"/>
     <use xlink:href="#DejaVuSerif-Bold-68" x="1042.773438"/>
     <use xlink:href="#DejaVuSerif-Bold-6d" x="1115.478516"/>
     <use xlink:href="#DejaVuSerif-Bold-61" x="1221.289062"/>
     <use xlink:href="#DejaVuSerif-Bold-72" x="1286.083984"/>
     <use xlink:href="#DejaVuSerif-Bold-6b" x="1338.769531"/>
     <use xlink:href="#DejaVuSerif-Bold-20" x="1408.056641"/>
     <use xlink:href="#DejaVuSerif-Bold-64" x="1442.871094"/>
     <use xlink:href="#DejaVuSerif-Bold-61" x="1512.792969"/>
     <use xlink:href="#DejaVuSerif-Bold-74" x="1577.587891"/>
     <use xlink:href="#DejaVuSerif-Bold-61" x="1623.779297"/>
     <use xlink:href="#DejaVuSerif-Bold-73" x="1688.574219"/>
     <use xlink:href="#DejaVuSerif-Bold-65" x="1744.873047"/>
     <use xlink:href="#DejaVuSerif-Bold-74" x="1808.496094"/>
    </g>
   </g>
   <g id="text_19">
    <!-- Human rating comparison -->
    <g style="fill: #ffffff" transform="translate(316.978594 704.566766) scale(0.13 -0.13)">
     <defs>
      <path id="DejaVuSerif-Bold-48" d="M 300 0 
L 300 378 
L 897 378 
L 897 4288 
L 300 4288 
L 300 4666 
L 2700 4666 
L 2700 4288 
L 2100 4288 
L 2100 2719 
L 3956 2719 
L 3956 4288 
L 3359 4288 
L 3359 4666 
L 5759 4666 
L 5759 4288 
L 5159 4288 
L 5159 378 
L 5759 378 
L 5759 0 
L 3359 0 
L 3359 378 
L 3956 378 
L 3956 2291 
L 2100 2291 
L 2100 378 
L 2700 378 
L 2700 0 
L 300 0 
z
" transform="scale(0.015625)"/>
     </defs>
     <use xlink:href="#DejaVuSerif-Bold-48"/>
     <use xlink:href="#DejaVuSerif-Bold-75" x="94.482422"/>
     <use xlink:href="#DejaVuSerif-Bold-6d" x="167.1875"/>
     <use xlink:href="#DejaVuSerif-Bold-61" x="272.998047"/>
     <use xlink:href="#DejaVuSerif-Bold-6e" x="337.792969"/>
     <use xlink:href="#DejaVuSerif-Bold-20" x="410.498047"/>
     <use xlink:href="#DejaVuSerif-Bold-72" x="445.3125"/>
     <use xlink:href="#DejaVuSerif-Bold-61" x="497.998047"/>
     <use xlink:href="#DejaVuSerif-Bold-74" x="562.792969"/>
     <use xlink:href="#DejaVuSerif-Bold-69" x="608.984375"/>
     <use xlink:href="#DejaVuSerif-Bold-6e" x="646.972656"/>
     <use xlink:href="#DejaVuSerif-Bold-67" x="719.677734"/>
     <use xlink:href="#DejaVuSerif-Bold-20" x="789.599609"/>
     <use xlink:href="#DejaVuSerif-Bold-63" x="824.414062"/>
     <use xlink:href="#DejaVuSerif-Bold-6f" x="885.302734"/>
     <use xlink:href="#DejaVuSerif-Bold-6d" x="952.001953"/>
     <use xlink:href="#DejaVuSerif-Bold-70" x="1057.8125"/>
     <use xlink:href="#DejaVuSerif-Bold-61" x="1127.734375"/>
     <use xlink:href="#DejaVuSerif-Bold-72" x="1192.529297"/>
     <use xlink:href="#DejaVuSerif-Bold-69" x="1245.214844"/>
     <use xlink:href="#DejaVuSerif-Bold-73" x="1283.203125"/>
     <use xlink:href="#DejaVuSerif-Bold-6f" x="1339.501953"/>
     <use xlink:href="#DejaVuSerif-Bold-6e" x="1406.201172"/>
    </g>
   </g>
   <g id="text_20">
    <!-- Auditability checks -->
    <g style="fill: #ffffff" transform="translate(542.170391 704.566766) scale(0.13 -0.13)">
     <use xlink:href="#DejaVuSerif-Bold-41"/>
     <use xlink:href="#DejaVuSerif-Bold-75" x="77.587891"/>
     <use xlink:href="#DejaVuSerif-Bold-64" x="150.292969"/>
     <use xlink:href="#DejaVuSerif-Bold-69" x="220.214844"/>
     <use xlink:href="#DejaVuSerif-Bold-74" x="258.203125"/>
     <use xlink:href="#DejaVuSerif-Bold-61" x="304.394531"/>
     <use xlink:href="#DejaVuSerif-Bold-62" x="369.189453"/>
     <use xlink:href="#DejaVuSerif-Bold-69" x="439.111328"/>
     <use xlink:href="#DejaVuSerif-Bold-6c" x="477.099609"/>
     <use xlink:href="#DejaVuSerif-Bold-69" x="515.087891"/>
     <use xlink:href="#DejaVuSerif-Bold-74" x="553.076172"/>
     <use xlink:href="#DejaVuSerif-Bold-79" x="599.267578"/>
     <use xlink:href="#DejaVuSerif-Bold-20" x="657.373047"/>
     <use xlink:href="#DejaVuSerif-Bold-63" x="692.1875"/>
     <use xlink:href="#DejaVuSerif-Bold-68" x="753.076172"/>
     <use xlink:href="#DejaVuSerif-Bold-65" x="825.78125"/>
     <use xlink:href="#DejaVuSerif-Bold-63" x="889.404297"/>
     <use xlink:href="#DejaVuSerif-Bold-6b" x="950.292969"/>
     <use xlink:href="#DejaVuSerif-Bold-73" x="1019.580078"/>
    </g>
   </g>
   <g id="patch_27">
    <path d="M 413.1075 786.231979 
Q 413.1075 762.810822 413.1075 741.625732 
" style="fill: none; stroke: #666666; stroke-width: 2; stroke-linecap: round"/>
    <path d="M 410.3075 747.225732 
L 413.1075 741.625732 
L 415.9075 747.225732 
" style="fill: none; stroke: #666666; stroke-width: 2; stroke-linecap: round"/>
   </g>
   <g id="text_21">
    <!-- Benchmarking -->
    <g style="fill: #808080" transform="translate(372.367109 791.190709) scale(0.11 -0.11)">
     <defs>
      <path id="DejaVuSerif-Italic-42" d="M 1194 331 
L 2128 331 
Q 2691 331 2998 575 
Q 3306 819 3409 1350 
Q 3513 1878 3302 2120 
Q 3091 2363 2525 2363 
L 1591 2363 
L 1194 331 
z
M 1653 2694 
L 2447 2694 
Q 2959 2694 3234 2891 
Q 3509 3088 3591 3513 
Q 3675 3941 3476 4136 
Q 3278 4331 2766 4331 
L 1972 4331 
L 1653 2694 
z
M -97 0 
L -34 331 
L 559 331 
L 1338 4331 
L 744 4331 
L 809 4666 
L 3113 4666 
Q 3819 4666 4120 4377 
Q 4422 4088 4309 3513 
Q 4231 3097 3934 2850 
Q 3638 2603 3147 2547 
Q 3728 2472 3976 2167 
Q 4225 1863 4125 1350 
Q 3991 656 3489 328 
Q 2988 0 2059 0 
L -97 0 
z
" transform="scale(0.015625)"/>
      <path id="DejaVuSerif-Italic-68" d="M 309 0 
L 1191 4531 
L 641 4531 
L 703 4863 
L 1828 4863 
L 1416 2731 
Q 1641 3069 1928 3241 
Q 2216 3413 2553 3413 
Q 3103 3413 3300 3097 
Q 3422 2906 3422 2588 
Q 3422 2378 3369 2113 
L 3022 331 
L 3534 331 
L 3472 0 
L 2381 0 
L 2756 1931 
Q 2819 2253 2819 2469 
Q 2819 2659 2769 2763 
Q 2666 2988 2284 2988 
Q 1884 2988 1617 2697 
Q 1350 2406 1244 1850 
L 884 0 
L 309 0 
z
" transform="scale(0.015625)"/>
      <path id="DejaVuSerif-Italic-6b" d="M 2113 2075 
L 3034 331 
L 3513 331 
L 3450 0 
L 2528 0 
L 1622 1697 
L 1088 1275 
L 841 0 
L 266 0 
L 1147 4531 
L 594 4531 
L 656 4863 
L 1784 4863 
L 1169 1697 
L 2822 2988 
L 2344 2988 
L 2406 3322 
L 3341 3322 
L 3278 2988 
L 2113 2075 
z
" transform="scale(0.015625)"/>
     </defs>
     <use xlink:href="#DejaVuSerif-Italic-42"/>
     <use xlink:href="#DejaVuSerif-Italic-65" x="73.486328"/>
     <use xlink:href="#DejaVuSerif-Italic-6e" x="132.666016"/>
     <use xlink:href="#DejaVuSerif-Italic-63" x="197.070312"/>
     <use xlink:href="#DejaVuSerif-Italic-68" x="253.076172"/>
     <use xlink:href="#DejaVuSerif-Italic-6d" x="317.480469"/>
     <use xlink:href="#DejaVuSerif-Italic-61" x="412.304688"/>
     <use xlink:href="#DejaVuSerif-Italic-72" x="471.923828"/>
     <use xlink:href="#DejaVuSerif-Italic-6b" x="519.726562"/>
     <use xlink:href="#DejaVuSerif-Italic-69" x="580.322266"/>
     <use xlink:href="#DejaVuSerif-Italic-6e" x="612.304688"/>
     <use xlink:href="#DejaVuSerif-Italic-67" x="676.708984"/>
    </g>
   </g>
   <g id="text_22">
    <!-- Keyword/rule-based scoring -->
    <g style="fill: #ffffff" transform="translate(112.493359 849.836099) scale(0.13 -0.13)">
     <defs>
      <path id="DejaVuSerif-Bold-4b" d="M 300 0 
L 300 378 
L 897 378 
L 897 4288 
L 300 4288 
L 300 4666 
L 2700 4666 
L 2700 4288 
L 2100 4288 
L 2100 2584 
L 4078 4288 
L 3578 4288 
L 3578 4666 
L 5319 4666 
L 5319 4288 
L 4697 4288 
L 3022 2847 
L 5300 378 
L 5759 378 
L 5759 0 
L 4178 0 
L 2100 2266 
L 2100 378 
L 2700 378 
L 2700 0 
L 300 0 
z
" transform="scale(0.015625)"/>
     </defs>
     <use xlink:href="#DejaVuSerif-Bold-4b"/>
     <use xlink:href="#DejaVuSerif-Bold-65" x="84.664062"/>
     <use xlink:href="#DejaVuSerif-Bold-79" x="148.287109"/>
     <use xlink:href="#DejaVuSerif-Bold-77" x="206.392578"/>
     <use xlink:href="#DejaVuSerif-Bold-6f" x="292.476562"/>
     <use xlink:href="#DejaVuSerif-Bold-72" x="359.175781"/>
     <use xlink:href="#DejaVuSerif-Bold-64" x="411.861328"/>
     <use xlink:href="#DejaVuSerif-Bold-2f" x="481.783203"/>
     <use xlink:href="#DejaVuSerif-Bold-72" x="518.306641"/>
     <use xlink:href="#DejaVuSerif-Bold-75" x="570.992188"/>
     <use xlink:href="#DejaVuSerif-Bold-6c" x="643.697266"/>
     <use xlink:href="#DejaVuSerif-Bold-65" x="681.685547"/>
     <use xlink:href="#DejaVuSerif-Bold-2d" x="745.308594"/>
     <use xlink:href="#DejaVuSerif-Bold-62" x="786.8125"/>
     <use xlink:href="#DejaVuSerif-Bold-61" x="856.734375"/>
     <use xlink:href="#DejaVuSerif-Bold-73" x="921.529297"/>
     <use xlink:href="#DejaVuSerif-Bold-65" x="977.828125"/>
     <use xlink:href="#DejaVuSerif-Bold-64" x="1041.451172"/>
     <use xlink:href="#DejaVuSerif-Bold-20" x="1111.373047"/>
     <use xlink:href="#DejaVuSerif-Bold-73" x="1146.1875"/>
     <use xlink:href="#DejaVuSerif-Bold-63" x="1202.486328"/>
     <use xlink:href="#DejaVuSerif-Bold-6f" x="1263.375"/>
     <use xlink:href="#DejaVuSerif-Bold-72" x="1330.074219"/>
     <use xlink:href="#DejaVuSerif-Bold-69" x="1382.759766"/>
     <use xlink:href="#DejaVuSerif-Bold-6e" x="1420.748047"/>
     <use xlink:href="#DejaVuSerif-Bold-67" x="1493.453125"/>
    </g>
   </g>
   <g id="text_23">
    <!-- Compare against traditional methods -->
    <g style="fill: #ffffff" transform="translate(276.643047 849.836099) scale(0.13 -0.13)">
     <use xlink:href="#DejaVuSerif-Bold-43"/>
     <use xlink:href="#DejaVuSerif-Bold-6f" x="79.589844"/>
     <use xlink:href="#DejaVuSerif-Bold-6d" x="146.289062"/>
     <use xlink:href="#DejaVuSerif-Bold-70" x="252.099609"/>
     <use xlink:href="#DejaVuSerif-Bold-61" x="322.021484"/>
     <use xlink:href="#DejaVuSerif-Bold-72" x="386.816406"/>
     <use xlink:href="#DejaVuSerif-Bold-65" x="439.501953"/>
     <use xlink:href="#DejaVuSerif-Bold-20" x="503.125"/>
     <use xlink:href="#DejaVuSerif-Bold-61" x="537.939453"/>
     <use xlink:href="#DejaVuSerif-Bold-67" x="602.734375"/>
     <use xlink:href="#DejaVuSerif-Bold-61" x="672.65625"/>
     <use xlink:href="#DejaVuSerif-Bold-69" x="737.451172"/>
     <use xlink:href="#DejaVuSerif-Bold-6e" x="775.439453"/>
     <use xlink:href="#DejaVuSerif-Bold-73" x="848.144531"/>
     <use xlink:href="#DejaVuSerif-Bold-74" x="904.443359"/>
     <use xlink:href="#DejaVuSerif-Bold-20" x="950.634766"/>
     <use xlink:href="#DejaVuSerif-Bold-74" x="985.449219"/>
     <use xlink:href="#DejaVuSerif-Bold-72" x="1031.640625"/>
     <use xlink:href="#DejaVuSerif-Bold-61" x="1084.326172"/>
     <use xlink:href="#DejaVuSerif-Bold-64" x="1149.121094"/>
     <use xlink:href="#DejaVuSerif-Bold-69" x="1219.042969"/>
     <use xlink:href="#DejaVuSerif-Bold-74" x="1257.03125"/>
     <use xlink:href="#DejaVuSerif-Bold-69" x="1303.222656"/>
     <use xlink:href="#DejaVuSerif-Bold-6f" x="1341.210938"/>
     <use xlink:href="#DejaVuSerif-Bold-6e" x="1407.910156"/>
     <use xlink:href="#DejaVuSerif-Bold-61" x="1480.615234"/>
     <use xlink:href="#DejaVuSerif-Bold-6c" x="1545.410156"/>
     <use xlink:href="#DejaVuSerif-Bold-20" x="1583.398438"/>
     <use xlink:href="#DejaVuSerif-Bold-6d" x="1618.212891"/>
     <use xlink:href="#DejaVuSerif-Bold-65" x="1724.023438"/>
     <use xlink:href="#DejaVuSerif-Bold-74" x="1787.646484"/>
     <use xlink:href="#DejaVuSerif-Bold-68" x="1833.837891"/>
     <use xlink:href="#DejaVuSerif-Bold-6f" x="1906.542969"/>
     <use xlink:href="#DejaVuSerif-Bold-64" x="1973.242188"/>
     <use xlink:href="#DejaVuSerif-Bold-73" x="2043.164062"/>
    </g>
   </g>
   <g id="text_24">
    <!-- Performance alignment analysis -->
    <g style="fill: #ffffff" transform="translate(494.487813 849.836099) scale(0.13 -0.13)">
     <defs>
      <path id="DejaVuSerif-Bold-50" d="M 300 0 
L 300 378 
L 897 378 
L 897 4288 
L 300 4288 
L 300 4666 
L 2956 4666 
Q 3734 4666 4193 4295 
Q 4653 3925 4653 3303 
Q 4653 2678 4192 2304 
Q 3731 1931 2956 1931 
L 2100 1931 
L 2100 378 
L 2853 378 
L 2853 0 
L 300 0 
z
M 2100 2309 
L 2450 2309 
Q 2856 2309 3098 2579 
Q 3341 2850 3341 3303 
Q 3341 3753 3100 4020 
Q 2859 4288 2450 4288 
L 2100 4288 
L 2100 2309 
z
" transform="scale(0.015625)"/>
     </defs>
     <use xlink:href="#DejaVuSerif-Bold-50"/>
     <use xlink:href="#DejaVuSerif-Bold-65" x="72.570312"/>
     <use xlink:href="#DejaVuSerif-Bold-72" x="136.193359"/>
     <use xlink:href="#DejaVuSerif-Bold-66" x="188.878906"/>
     <use xlink:href="#DejaVuSerif-Bold-6f" x="231.896484"/>
     <use xlink:href="#DejaVuSerif-Bold-72" x="298.595703"/>
     <use xlink:href="#DejaVuSerif-Bold-6d" x="351.28125"/>
     <use xlink:href="#DejaVuSerif-Bold-61" x="457.091797"/>
     <use xlink:href="#DejaVuSerif-Bold-6e" x="521.886719"/>
     <use xlink:href="#DejaVuSerif-Bold-63" x="594.591797"/>
     <use xlink:href="#DejaVuSerif-Bold-65" x="655.480469"/>
     <use xlink:href="#DejaVuSerif-Bold-20" x="719.103516"/>
     <use xlink:href="#DejaVuSerif-Bold-61" x="753.917969"/>
     <use xlink:href="#DejaVuSerif-Bold-6c" x="818.712891"/>
     <use xlink:href="#DejaVuSerif-Bold-69" x="856.701172"/>
     <use xlink:href="#DejaVuSerif-Bold-67" x="894.689453"/>
     <use xlink:href="#DejaVuSerif-Bold-6e" x="964.611328"/>
     <use xlink:href="#DejaVuSerif-Bold-6d" x="1037.316406"/>
     <use xlink:href="#DejaVuSerif-Bold-65" x="1143.126953"/>
     <use xlink:href="#DejaVuSerif-Bold-6e" x="1206.75"/>
     <use xlink:href="#DejaVuSerif-Bold-74" x="1279.455078"/>
     <use xlink:href="#DejaVuSerif-Bold-20" x="1325.646484"/>
     <use xlink:href="#DejaVuSerif-Bold-61" x="1360.460938"/>
     <use xlink:href="#DejaVuSerif-Bold-6e" x="1425.255859"/>
     <use xlink:href="#DejaVuSerif-Bold-61" x="1497.960938"/>
     <use xlink:href="#DejaVuSerif-Bold-6c" x="1562.755859"/>
     <use xlink:href="#DejaVuSerif-Bold-79" x="1600.744141"/>
     <use xlink:href="#DejaVuSerif-Bold-73" x="1658.849609"/>
     <use xlink:href="#DejaVuSerif-Bold-69" x="1715.148438"/>
     <use xlink:href="#DejaVuSerif-Bold-73" x="1753.136719"/>
    </g>
   </g>
   <g id="patch_28">
    <path d="M 413.1075 931.501313 
Q 413.1075 908.080155 413.1075 886.895065 
" style="fill: none; stroke: #666666; stroke-width: 2; stroke-linecap: round"/>
    <path d="M 410.3075 892.495065 
L 413.1075 886.895065 
L 415.9075 892.495065 
" style="fill: none; stroke: #666666; stroke-width: 2; stroke-linecap: round"/>
   </g>
   <g id="text_25">
    <!-- Firm-level analysis -->
    <g style="fill: #808080" transform="translate(360.573047 936.460043) scale(0.11 -0.11)">
     <defs>
      <path id="DejaVuSerif-Italic-46" d="M -97 0 
L -34 331 
L 559 331 
L 1338 4331 
L 744 4331 
L 809 4666 
L 4628 4666 
L 4428 3628 
L 4044 3628 
L 4169 4281 
L 1963 4281 
L 1659 2719 
L 3253 2719 
L 3366 3303 
L 3750 3303 
L 3450 1753 
L 3066 1753 
L 3178 2338 
L 1584 2338 
L 1194 331 
L 1941 331 
L 1878 0 
L -97 0 
z
" transform="scale(0.015625)"/>
      <path id="DejaVuSerif-Italic-79" d="M 3681 3294 
Q 3372 1506 2828 563 
Q 2031 -822 1391 -1238 
Q 1106 -1422 356 -1422 
Q 209 -1422 60 -1397 
Q -88 -1372 -238 -1325 
L -113 -691 
L 181 -691 
Q 175 -741 175 -788 
Q 175 -919 231 -994 
Q 309 -1100 513 -1100 
Q 1063 -1100 1541 -622 
L 756 2988 
L 378 2988 
L 444 3322 
L 1303 3322 
L 2041 25 
Q 2544 778 2666 1088 
Q 3059 2059 3138 2959 
L 2759 2959 
L 2825 3294 
L 3681 3294 
z
" transform="scale(0.015625)"/>
     </defs>
     <use xlink:href="#DejaVuSerif-Italic-46"/>
     <use xlink:href="#DejaVuSerif-Italic-69" x="69.384766"/>
     <use xlink:href="#DejaVuSerif-Italic-72" x="101.367188"/>
     <use xlink:href="#DejaVuSerif-Italic-6d" x="149.169922"/>
     <use xlink:href="#DejaVuSerif-Italic-2d" x="243.994141"/>
     <use xlink:href="#DejaVuSerif-Italic-6c" x="277.783203"/>
     <use xlink:href="#DejaVuSerif-Italic-65" x="309.765625"/>
     <use xlink:href="#DejaVuSerif-Italic-76" x="368.945312"/>
     <use xlink:href="#DejaVuSerif-Italic-65" x="425.439453"/>
     <use xlink:href="#DejaVuSerif-Italic-6c" x="484.619141"/>
     <use xlink:href="#DejaVuSerif-Italic-20" x="516.601562"/>
     <use xlink:href="#DejaVuSerif-Italic-61" x="548.388672"/>
     <use xlink:href="#DejaVuSerif-Italic-6e" x="608.007812"/>
     <use xlink:href="#DejaVuSerif-Italic-61" x="672.412109"/>
     <use xlink:href="#DejaVuSerif-Italic-6c" x="732.03125"/>
     <use xlink:href="#DejaVuSerif-Italic-79" x="764.013672"/>
     <use xlink:href="#DejaVuSerif-Italic-73" x="820.507812"/>
     <use xlink:href="#DejaVuSerif-Italic-69" x="871.826172"/>
     <use xlink:href="#DejaVuSerif-Italic-73" x="903.808594"/>
    </g>
   </g>
   <g id="text_26">
    <!-- Disclosure quality profiles -->
    <g style="fill: #ffffff" transform="translate(118.081328 995.105432) scale(0.13 -0.13)">
     <defs>
      <path id="DejaVuSerif-Bold-44" d="M 2100 378 
L 2534 378 
Q 3266 378 3605 847 
Q 3944 1316 3944 2338 
Q 3944 3353 3606 3820 
Q 3269 4288 2534 4288 
L 2100 4288 
L 2100 378 
z
M 300 0 
L 300 378 
L 897 378 
L 897 4288 
L 300 4288 
L 300 4666 
L 2694 4666 
Q 3950 4666 4615 4066 
Q 5281 3466 5281 2338 
Q 5281 1203 4614 601 
Q 3947 0 2694 0 
L 300 0 
z
" transform="scale(0.015625)"/>
      <path id="DejaVuSerif-Bold-71" d="M 3853 2944 
L 3853 -953 
L 4325 -953 
L 4325 -1331 
L 2234 -1331 
L 2234 -953 
L 2747 -953 
L 2747 422 
Q 2606 163 2367 36 
Q 2128 -91 1778 -91 
Q 1072 -91 667 378 
Q 263 847 263 1663 
Q 263 2481 667 2947 
Q 1072 3413 1778 3413 
Q 2128 3413 2367 3286 
Q 2606 3159 2747 2900 
L 2747 3322 
L 4325 3322 
L 4325 2944 
L 3853 2944 
z
M 2747 1825 
Q 2747 2406 2597 2665 
Q 2447 2925 2119 2925 
Q 1775 2925 1636 2651 
Q 1497 2378 1497 1663 
Q 1497 947 1637 672 
Q 1778 397 2119 397 
Q 2447 397 2597 656 
Q 2747 916 2747 1497 
L 2747 1825 
z
" transform="scale(0.015625)"/>
     </defs>
     <use xlink:href="#DejaVuSerif-Bold-44"/>
     <use xlink:href="#DejaVuSerif-Bold-69" x="86.71875"/>
     <use xlink:href="#DejaVuSerif-Bold-73" x="124.707031"/>
     <use xlink:href="#DejaVuSerif-Bold-63" x="181.005859"/>
     <use xlink:href="#DejaVuSerif-Bold-6c" x="241.894531"/>
     <use xlink:href="#DejaVuSerif-Bold-6f" x="279.882812"/>
     <use xlink:href="#DejaVuSerif-Bold-73" x="346.582031"/>
     <use xlink:href="#DejaVuSerif-Bold-75" x="402.880859"/>
     <use xlink:href="#DejaVuSerif-Bold-72" x="475.585938"/>
     <use xlink:href="#DejaVuSerif-Bold-65" x="528.271484"/>
     <use xlink:href="#DejaVuSerif-Bold-20" x="591.894531"/>
     <use xlink:href="#DejaVuSerif-Bold-71" x="626.708984"/>
     <use xlink:href="#DejaVuSerif-Bold-75" x="696.630859"/>
     <use xlink:href="#DejaVuSerif-Bold-61" x="769.335938"/>
     <use xlink:href="#DejaVuSerif-Bold-6c" x="834.130859"/>
     <use xlink:href="#DejaVuSerif-Bold-69" x="872.119141"/>
     <use xlink:href="#DejaVuSerif-Bold-74" x="910.107422"/>
     <use xlink:href="#DejaVuSerif-Bold-79" x="956.298828"/>
     <use xlink:href="#DejaVuSerif-Bold-20" x="1014.404297"/>
     <use xlink:href="#DejaVuSerif-Bold-70" x="1049.21875"/>
     <use xlink:href="#DejaVuSerif-Bold-72" x="1119.140625"/>
     <use xlink:href="#DejaVuSerif-Bold-6f" x="1171.826172"/>
     <use xlink:href="#DejaVuSerif-Bold-66" x="1238.525391"/>
     <use xlink:href="#DejaVuSerif-Bold-69" x="1281.542969"/>
     <use xlink:href="#DejaVuSerif-Bold-6c" x="1319.53125"/>
     <use xlink:href="#DejaVuSerif-Bold-65" x="1357.519531"/>
     <use xlink:href="#DejaVuSerif-Bold-73" x="1421.142578"/>
    </g>
   </g>
   <g id="text_27">
    <!-- Cross-firm ESG comparison -->
    <g style="fill: #ffffff" transform="translate(312.321953 995.197854) scale(0.13 -0.13)">
     <use xlink:href="#DejaVuSerif-Bold-43"/>
     <use xlink:href="#DejaVuSerif-Bold-72" x="79.589844"/>
     <use xlink:href="#DejaVuSerif-Bold-6f" x="132.275391"/>
     <use xlink:href="#DejaVuSerif-Bold-73" x="198.974609"/>
     <use xlink:href="#DejaVuSerif-Bold-73" x="255.273438"/>
     <use xlink:href="#DejaVuSerif-Bold-2d" x="311.572266"/>
     <use xlink:href="#DejaVuSerif-Bold-66" x="353.076172"/>
     <use xlink:href="#DejaVuSerif-Bold-69" x="396.09375"/>
     <use xlink:href="#DejaVuSerif-Bold-72" x="434.082031"/>
     <use xlink:href="#DejaVuSerif-Bold-6d" x="486.767578"/>
     <use xlink:href="#DejaVuSerif-Bold-20" x="592.578125"/>
     <use xlink:href="#DejaVuSerif-Bold-45" x="627.392578"/>
     <use xlink:href="#DejaVuSerif-Bold-53" x="703.613281"/>
     <use xlink:href="#DejaVuSerif-Bold-47" x="775.830078"/>
     <use xlink:href="#DejaVuSerif-Bold-20" x="861.230469"/>
     <use xlink:href="#DejaVuSerif-Bold-63" x="896.044922"/>
     <use xlink:href="#DejaVuSerif-Bold-6f" x="956.933594"/>
     <use xlink:href="#DejaVuSerif-Bold-6d" x="1023.632812"/>
     <use xlink:href="#DejaVuSerif-Bold-70" x="1129.443359"/>
     <use xlink:href="#DejaVuSerif-Bold-61" x="1199.365234"/>
     <use xlink:href="#DejaVuSerif-Bold-72" x="1264.160156"/>
     <use xlink:href="#DejaVuSerif-Bold-69" x="1316.845703"/>
     <use xlink:href="#DejaVuSerif-Bold-73" x="1354.833984"/>
     <use xlink:href="#DejaVuSerif-Bold-6f" x="1411.132812"/>
     <use xlink:href="#DejaVuSerif-Bold-6e" x="1477.832031"/>
    </g>
   </g>
   <g id="text_28">
    <!-- Empirical analysis and implications -->
    <g style="fill: #ffffff" transform="translate(482.077891 995.105432) scale(0.13 -0.13)">
     <use xlink:href="#DejaVuSerif-Bold-45"/>
     <use xlink:href="#DejaVuSerif-Bold-6d" x="76.220703"/>
     <use xlink:href="#DejaVuSerif-Bold-70" x="182.03125"/>
     <use xlink:href="#DejaVuSerif-Bold-69" x="251.953125"/>
     <use xlink:href="#DejaVuSerif-Bold-72" x="289.941406"/>
     <use xlink:href="#DejaVuSerif-Bold-69" x="342.626953"/>
     <use xlink:href="#DejaVuSerif-Bold-63" x="380.615234"/>
     <use xlink:href="#DejaVuSerif-Bold-61" x="441.503906"/>
     <use xlink:href="#DejaVuSerif-Bold-6c" x="506.298828"/>
     <use xlink:href="#DejaVuSerif-Bold-20" x="544.287109"/>
     <use xlink:href="#DejaVuSerif-Bold-61" x="579.101562"/>
     <use xlink:href="#DejaVuSerif-Bold-6e" x="643.896484"/>
     <use xlink:href="#DejaVuSerif-Bold-61" x="716.601562"/>
     <use xlink:href="#DejaVuSerif-Bold-6c" x="781.396484"/>
     <use xlink:href="#DejaVuSerif-Bold-79" x="819.384766"/>
     <use xlink:href="#DejaVuSerif-Bold-73" x="877.490234"/>
     <use xlink:href="#DejaVuSerif-Bold-69" x="933.789062"/>
     <use xlink:href="#DejaVuSerif-Bold-73" x="971.777344"/>
     <use xlink:href="#DejaVuSerif-Bold-20" x="1028.076172"/>
     <use xlink:href="#DejaVuSerif-Bold-61" x="1062.890625"/>
     <use xlink:href="#DejaVuSerif-Bold-6e" x="1127.685547"/>
     <use xlink:href="#DejaVuSerif-Bold-64" x="1200.390625"/>
     <use xlink:href="#DejaVuSerif-Bold-20" x="1270.3125"/>
     <use xlink:href="#DejaVuSerif-Bold-69" x="1305.126953"/>
     <use xlink:href="#DejaVuSerif-Bold-6d" x="1343.115234"/>
     <use xlink:href="#DejaVuSerif-Bold-70" x="1448.925781"/>
     <use xlink:href="#DejaVuSerif-Bold-6c" x="1518.847656"/>
     <use xlink:href="#DejaVuSerif-Bold-69" x="1556.835938"/>
     <use xlink:href="#DejaVuSerif-Bold-63" x="1594.824219"/>
     <use xlink:href="#DejaVuSerif-Bold-61" x="1655.712891"/>
     <use xlink:href="#DejaVuSerif-Bold-74" x="1720.507812"/>
     <use xlink:href="#DejaVuSerif-Bold-69" x="1766.699219"/>
     <use xlink:href="#DejaVuSerif-Bold-6f" x="1804.6875"/>
     <use xlink:href="#DejaVuSerif-Bold-6e" x="1871.386719"/>
     <use xlink:href="#DejaVuSerif-Bold-73" x="1944.091797"/>
    </g>
   </g>
   <g id="text_29">
    <!-- LLM-Assisted ESG Disclosure Assessment Workflow -->
    <g transform="translate(180.8375 27.36) scale(0.16 -0.16)">
     <defs>
      <path id="DejaVuSerif-Bold-57" d="M 5453 0 
L 4647 0 
L 3591 3397 
L 2534 0 
L 1728 0 
L 397 4288 
L -56 4288 
L -56 4666 
L 2156 4666 
L 2156 4288 
L 1656 4288 
L 2547 1422 
L 3553 4666 
L 4441 4666 
L 5466 1369 
L 6375 4288 
L 5819 4288 
L 5819 4666 
L 7263 4666 
L 7263 4288 
L 6784 4288 
L 5453 0 
z
" transform="scale(0.015625)"/>
     </defs>
     <use xlink:href="#DejaVuSerif-Bold-4c"/>
     <use xlink:href="#DejaVuSerif-Bold-4c" x="70.3125"/>
     <use xlink:href="#DejaVuSerif-Bold-4d" x="140.625"/>
     <use xlink:href="#DejaVuSerif-Bold-2d" x="251.318359"/>
     <use xlink:href="#DejaVuSerif-Bold-41" x="292.822266"/>
     <use xlink:href="#DejaVuSerif-Bold-73" x="370.410156"/>
     <use xlink:href="#DejaVuSerif-Bold-73" x="426.708984"/>
     <use xlink:href="#DejaVuSerif-Bold-69" x="483.007812"/>
     <use xlink:href="#DejaVuSerif-Bold-73" x="520.996094"/>
     <use xlink:href="#DejaVuSerif-Bold-74" x="577.294922"/>
     <use xlink:href="#DejaVuSerif-Bold-65" x="623.486328"/>
     <use xlink:href="#DejaVuSerif-Bold-64" x="687.109375"/>
     <use xlink:href="#DejaVuSerif-Bold-20" x="757.03125"/>
     <use xlink:href="#DejaVuSerif-Bold-45" x="791.845703"/>
     <use xlink:href="#DejaVuSerif-Bold-53" x="868.066406"/>
     <use xlink:href="#DejaVuSerif-Bold-47" x="940.283203"/>
     <use xlink:href="#DejaVuSerif-Bold-20" x="1025.683594"/>
     <use xlink:href="#DejaVuSerif-Bold-44" x="1060.498047"/>
     <use xlink:href="#DejaVuSerif-Bold-69" x="1147.216797"/>
     <use xlink:href="#DejaVuSerif-Bold-73" x="1185.205078"/>
     <use xlink:href="#DejaVuSerif-Bold-63" x="1241.503906"/>
     <use xlink:href="#DejaVuSerif-Bold-6c" x="1302.392578"/>
     <use xlink:href="#DejaVuSerif-Bold-6f" x="1340.380859"/>
     <use xlink:href="#DejaVuSerif-Bold-73" x="1407.080078"/>
     <use xlink:href="#DejaVuSerif-Bold-75" x="1463.378906"/>
     <use xlink:href="#DejaVuSerif-Bold-72" x="1536.083984"/>
     <use xlink:href="#DejaVuSerif-Bold-65" x="1588.769531"/>
     <use xlink:href="#DejaVuSerif-Bold-20" x="1652.392578"/>
     <use xlink:href="#DejaVuSerif-Bold-41" x="1687.207031"/>
     <use xlink:href="#DejaVuSerif-Bold-73" x="1764.794922"/>
     <use xlink:href="#DejaVuSerif-Bold-73" x="1821.09375"/>
     <use xlink:href="#DejaVuSerif-Bold-65" x="1877.392578"/>
     <use xlink:href="#DejaVuSerif-Bold-73" x="1941.015625"/>
     <use xlink:href="#DejaVuSerif-Bold-73" x="1997.314453"/>
     <use xlink:href="#DejaVuSerif-Bold-6d" x="2053.613281"/>
     <use xlink:href="#DejaVuSerif-Bold-65" x="2159.423828"/>
     <use xlink:href="#DejaVuSerif-Bold-6e" x="2223.046875"/>
     <use xlink:href="#DejaVuSerif-Bold-74" x="2295.751953"/>
     <use xlink:href="#DejaVuSerif-Bold-20" x="2341.943359"/>
     <use xlink:href="#DejaVuSerif-Bold-57" x="2376.757812"/>
     <use xlink:href="#DejaVuSerif-Bold-6f" x="2480.9375"/>
     <use xlink:href="#DejaVuSerif-Bold-72" x="2547.636719"/>
     <use xlink:href="#DejaVuSerif-Bold-6b" x="2600.322266"/>
     <use xlink:href="#DejaVuSerif-Bold-66" x="2669.609375"/>
     <use xlink:href="#DejaVuSerif-Bold-6c" x="2712.626953"/>
     <use xlink:href="#DejaVuSerif-Bold-6f" x="2750.615234"/>
     <use xlink:href="#DejaVuSerif-Bold-77" x="2817.314453"/>
    </g>
   </g>
  </g>
 </g>
 <defs>
  <clipPath id="p2b83ee41cf">
   <rect x="15.12" y="47.36" width="795.975" height="1089.52"/>
  </clipPath>
 </defs>
</svg>
