<?xml version="1.0" encoding="utf-8" standalone="no"?>
<!DOCTYPE svg PUBLIC "-//W3C//DTD SVG 1.1//EN"
  "http://www.w3.org/Graphics/SVG/1.1/DTD/svg11.dtd">
<svg xmlns:xlink="http://www.w3.org/1999/xlink" width="864pt" height="864pt" viewBox="0 0 864 864" xmlns="http://www.w3.org/2000/svg" version="1.1">
 <metadata>
  <rdf:RDF xmlns:dc="http://purl.org/dc/elements/1.1/" xmlns:cc="http://creativecommons.org/ns#" xmlns:rdf="http://www.w3.org/1999/02/22-rdf-syntax-ns#">
   <cc:Work>
    <dc:type rdf:resource="http://purl.org/dc/dcmitype/StillImage"/>
    <dc:date>2026-03-27T16:17:17.899580</dc:date>
    <dc:format>image/svg+xml</dc:format>
    <dc:creator>
     <cc:Agent>
      <dc:title>Matplotlib v3.9.4, https://matplotlib.org/</dc:title>
     </cc:Agent>
    </dc:creator>
   </cc:Work>
  </rdf:RDF>
 </metadata>
 <defs>
  <style type="text/css">*{stroke-linejoin: round; stroke-linecap: butt}</style>
 </defs>
 <g id="figure_1">
  <g id="patch_1">
   <path d="M 0 864 
L 864 864 
L 864 0 
L 0 0 
z
" style="fill: #ffffff"/>
  </g>
  <g id="axes_1">
   <g id="patch_2">
    <path d="M 215.2224 156.658182 
L 365.2992 156.658182 
Q 373.6368 156.658182 373.6368 149.371636 
L 373.6368 98.365818 
Q 373.6368 91.079273 365.2992 91.079273 
L 215.2224 91.079273 
Q 206.8848 91.079273 206.8848 98.365818 
L 206.8848 149.371636 
Q 206.8848 156.658182 215.2224 156.658182 
z
" clip-path="url(#p5d933c2e2a)" style="fill: #4a90e2; stroke: #333333; stroke-width: 1.5; stroke-linejoin: miter"/>
   </g>
   <g id="patch_3">
    <path d="M 498.7008 156.658182 
L 648.7776 156.658182 
Q 657.1152 156.658182 657.1152 149.371636 
L 657.1152 98.365818 
Q 657.1152 91.079273 648.7776 91.079273 
L 498.7008 91.079273 
Q 490.3632 91.079273 490.3632 98.365818 
L 490.3632 149.371636 
Q 490.3632 156.658182 498.7008 156.658182 
z
" clip-path="url(#p5d933c2e2a)" style="fill: #4a90e2; stroke: #333333; stroke-width: 1.5; stroke-linejoin: miter"/>
   </g>
   <g id="patch_4">
    <path d="M 215.2224 302.389091 
L 365.2992 302.389091 
Q 373.6368 302.389091 373.6368 295.102545 
L 373.6368 244.096727 
Q 373.6368 236.810182 365.2992 236.810182 
L 215.2224 236.810182 
Q 206.8848 236.810182 206.8848 244.096727 
L 206.8848 295.102545 
Q 206.8848 302.389091 215.2224 302.389091 
z
" clip-path="url(#p5d933c2e2a)" style="fill: #50e3c2; stroke: #333333; stroke-width: 1.5; stroke-linejoin: miter"/>
   </g>
   <g id="patch_5">
    <path d="M 498.7008 302.389091 
L 648.7776 302.389091 
Q 657.1152 302.389091 657.1152 295.102545 
L 657.1152 244.096727 
Q 657.1152 236.810182 648.7776 236.810182 
L 498.7008 236.810182 
Q 490.3632 236.810182 490.3632 244.096727 
L 490.3632 295.102545 
Q 490.3632 302.389091 498.7008 302.389091 
z
" clip-path="url(#p5d933c2e2a)" style="fill: #9013fe; stroke: #333333; stroke-width: 1.5; stroke-linejoin: miter"/>
   </g>
   <g id="patch_6">
    <path d="M 356.9616 448.12 
L 507.0384 448.12 
Q 515.376 448.12 515.376 440.833455 
L 515.376 389.827636 
Q 515.376 382.541091 507.0384 382.541091 
L 356.9616 382.541091 
Q 348.624 382.541091 348.624 389.827636 
L 348.624 440.833455 
Q 348.624 448.12 356.9616 448.12 
z
" clip-path="url(#p5d933c2e2a)" style="fill: #f5a623; stroke: #333333; stroke-width: 1.5; stroke-linejoin: miter"/>
   </g>
   <g id="patch_7">
    <path d="M 356.9616 593.850909 
L 507.0384 593.850909 
Q 515.376 593.850909 515.376 586.564364 
L 515.376 535.558545 
Q 515.376 528.272 507.0384 528.272 
L 356.9616 528.272 
Q 348.624 528.272 348.624 535.558545 
L 348.624 586.564364 
Q 348.624 593.850909 356.9616 593.850909 
z
" clip-path="url(#p5d933c2e2a)" style="fill: #d0021b; stroke: #333333; stroke-width: 1.5; stroke-linejoin: miter"/>
   </g>
   <g id="patch_8">
    <path d="M 356.9616 739.581818 
L 507.0384 739.581818 
Q 515.376 739.581818 515.376 732.295273 
L 515.376 681.289455 
Q 515.376 674.002909 507.0384 674.002909 
L 356.9616 674.002909 
Q 348.624 674.002909 348.624 681.289455 
L 348.624 732.295273 
Q 348.624 739.581818 356.9616 739.581818 
z
" clip-path="url(#p5d933c2e2a)" style="fill: #7ed321; stroke: #333333; stroke-width: 1.5; stroke-linejoin: miter"/>
   </g>
   <g id="text_1">
    <!-- Input Data -->
    <g style="fill: #808080" transform="translate(402.085156 64.968403) scale(0.11 -0.11)">
     <defs>
      <path id="DejaVuSerif-Italic-49" d="M 1194 331 
L 1788 331 
L 1725 0 
L -97 0 
L -34 331 
L 559 331 
L 1338 4331 
L 744 4331 
L 809 4666 
L 2631 4666 
L 2566 4331 
L 1972 4331 
L 1194 331 
z
" transform="scale(0.015625)"/>
      <path id="DejaVuSerif-Italic-6e" d="M 450 0 
L 1031 2988 
L 481 2988 
L 544 3322 
L 1669 3322 
L 1556 2731 
Q 1781 3069 2068 3241 
Q 2356 3413 2694 3413 
Q 3244 3413 3444 3097 
Q 3563 2906 3563 2588 
Q 3563 2378 3509 2113 
L 3163 331 
L 3675 331 
L 3613 0 
L 2522 0 
L 2897 1931 
Q 2959 2253 2959 2469 
Q 2959 2659 2909 2769 
Q 2803 2994 2425 2994 
Q 2025 2994 1759 2701 
Q 1494 2409 1384 1850 
L 1025 0 
L 450 0 
z
" transform="scale(0.015625)"/>
      <path id="DejaVuSerif-Italic-70" d="M 1466 1825 
L 1400 1497 
Q 1353 1250 1353 1053 
Q 1353 769 1453 581 
Q 1622 269 2059 269 
Q 2500 269 2795 622 
Q 3091 975 3225 1663 
Q 3284 1978 3284 2225 
Q 3284 2513 3200 2703 
Q 3041 3053 2600 3053 
Q 2163 3053 1872 2737 
Q 1581 2422 1466 1825 
z
M 1116 2988 
L 563 2988 
L 628 3322 
L 1756 3322 
L 1656 2803 
Q 1884 3116 2175 3264 
Q 2466 3413 2850 3413 
Q 3463 3413 3753 2928 
Q 3947 2609 3947 2163 
Q 3947 1928 3897 1663 
Q 3744 881 3262 395 
Q 2781 -91 2169 -91 
Q 1784 -91 1551 57 
Q 1319 206 1213 519 
L 850 -1331 
L 275 -1331 
L 1116 2988 
z
" transform="scale(0.015625)"/>
      <path id="DejaVuSerif-Italic-75" d="M 3097 3322 
L 3672 3322 
L 3091 331 
L 3634 331 
L 3572 0 
L 2453 0 
L 2566 588 
Q 2341 256 2055 82 
Q 1769 -91 1434 -91 
Q 881 -91 681 225 
Q 559 413 559 734 
Q 559 944 613 1209 
L 956 2988 
L 438 2988 
L 503 3322 
L 1600 3322 
L 1225 1388 
Q 1163 1066 1163 853 
Q 1163 663 1213 556 
Q 1316 331 1697 331 
Q 2097 331 2364 625 
Q 2631 919 2738 1478 
L 3097 3322 
z
" transform="scale(0.015625)"/>
      <path id="DejaVuSerif-Italic-74" d="M 856 2988 
L 350 2988 
L 416 3322 
L 922 3322 
L 1122 4353 
L 1700 4353 
L 1500 3322 
L 2581 3322 
L 2516 2988 
L 1434 2988 
L 1025 878 
Q 978 631 978 488 
Q 978 388 1000 338 
Q 1059 219 1278 219 
Q 1503 219 1633 351 
Q 1763 484 1825 781 
L 2259 781 
Q 2147 328 1884 118 
Q 1622 -91 1169 -91 
Q 672 -91 506 131 
Q 406 266 406 516 
Q 406 675 447 878 
L 856 2988 
z
" transform="scale(0.015625)"/>
      <path id="DejaVuSerif-Italic-20" transform="scale(0.015625)"/>
      <path id="DejaVuSerif-Italic-44" d="M 1194 331 
L 1775 331 
Q 2684 331 3271 850 
Q 3859 1369 4048 2337 
Q 4238 3306 3852 3818 
Q 3466 4331 2553 4331 
L 1972 4331 
L 1194 331 
z
M -97 0 
L -34 331 
L 559 331 
L 1338 4331 
L 744 4331 
L 809 4666 
L 2666 4666 
Q 3872 4666 4426 4050 
Q 4981 3434 4766 2338 
Q 4553 1238 3758 619 
Q 2963 0 1759 0 
L -97 0 
z
" transform="scale(0.015625)"/>
      <path id="DejaVuSerif-Italic-61" d="M 2325 519 
Q 1909 -91 1238 -91 
Q 688 -91 409 281 
Q 216 544 216 919 
Q 216 1078 250 1256 
Q 463 2359 1231 2928 
Q 1884 3413 2675 3413 
Q 3206 3413 3388 3322 
L 2806 331 
L 3300 331 
L 3238 0 
L 2225 0 
L 2325 519 
z
M 822 938 
Q 822 269 1469 269 
Q 1863 269 2130 583 
Q 2397 897 2516 1497 
L 2806 3003 
L 2806 3003 
Q 2806 3094 2556 3094 
Q 1956 3094 1491 2625 
Q 1028 2153 863 1297 
Q 822 1097 822 938 
z
" transform="scale(0.015625)"/>
     </defs>
     <use xlink:href="#DejaVuSerif-Italic-49"/>
     <use xlink:href="#DejaVuSerif-Italic-6e" x="39.501953"/>
     <use xlink:href="#DejaVuSerif-Italic-70" x="103.90625"/>
     <use xlink:href="#DejaVuSerif-Italic-75" x="167.919922"/>
     <use xlink:href="#DejaVuSerif-Italic-74" x="232.324219"/>
     <use xlink:href="#DejaVuSerif-Italic-20" x="272.509766"/>
     <use xlink:href="#DejaVuSerif-Italic-44" x="304.296875"/>
     <use xlink:href="#DejaVuSerif-Italic-61" x="384.472656"/>
     <use xlink:href="#DejaVuSerif-Italic-74" x="444.091797"/>
     <use xlink:href="#DejaVuSerif-Italic-61" x="484.277344"/>
    </g>
   </g>
   <g id="text_2">
    <!-- Mandarin ESG Documents -->
    <g style="fill: #ffffff" transform="translate(193.970409 123.812642) scale(0.13 -0.13)">
     <defs>
      <path id="DejaVuSerif-Bold-4d" d="M 269 0 
L 269 378 
L 863 378 
L 863 4288 
L 269 4288 
L 269 4666 
L 2194 4666 
L 3525 1672 
L 4863 4666 
L 6784 4666 
L 6784 4288 
L 6188 4288 
L 6188 378 
L 6784 378 
L 6784 0 
L 4384 0 
L 4384 378 
L 4978 378 
L 4978 3938 
L 3531 684 
L 2741 684 
L 1300 3938 
L 1300 378 
L 1894 378 
L 1894 0 
L 269 0 
z
" transform="scale(0.015625)"/>
      <path id="DejaVuSerif-Bold-61" d="M 3525 2041 
L 3525 378 
L 4000 378 
L 4000 0 
L 2419 0 
L 2419 422 
Q 2200 159 1931 34 
Q 1663 -91 1319 -91 
Q 809 -91 536 182 
Q 263 456 263 966 
Q 263 1525 655 1803 
Q 1047 2081 1838 2081 
L 2419 2081 
L 2419 2278 
Q 2419 2681 2228 2873 
Q 2038 3066 1638 3066 
Q 1306 3066 1126 2930 
Q 947 2794 872 2484 
L 519 2484 
L 519 3200 
Q 816 3306 1134 3359 
Q 1453 3413 1806 3413 
Q 2697 3413 3111 3081 
Q 3525 2750 3525 2041 
z
M 2419 1044 
L 2419 1709 
L 2003 1709 
Q 1694 1709 1528 1540 
Q 1363 1372 1363 1056 
Q 1363 741 1483 584 
Q 1603 428 1850 428 
Q 2106 428 2262 597 
Q 2419 766 2419 1044 
z
" transform="scale(0.015625)"/>
      <path id="DejaVuSerif-Bold-6e" d="M 219 0 
L 219 378 
L 691 378 
L 691 2944 
L 219 2944 
L 219 3322 
L 1797 3322 
L 1797 2853 
Q 1997 3150 2253 3281 
Q 2509 3413 2900 3413 
Q 3459 3413 3745 3083 
Q 4031 2753 4031 2113 
L 4031 378 
L 4506 378 
L 4506 0 
L 2522 0 
L 2522 378 
L 2925 378 
L 2925 2144 
Q 2925 2566 2817 2730 
Q 2709 2894 2444 2894 
Q 2109 2894 1953 2648 
Q 1797 2403 1797 1869 
L 1797 378 
L 2203 378 
L 2203 0 
L 219 0 
z
" transform="scale(0.015625)"/>
      <path id="DejaVuSerif-Bold-64" d="M 2747 1497 
L 2747 1825 
Q 2747 2406 2597 2665 
Q 2447 2925 2119 2925 
Q 1775 2925 1636 2651 
Q 1497 2378 1497 1663 
Q 1497 947 1637 672 
Q 1778 397 2119 397 
Q 2447 397 2597 656 
Q 2747 916 2747 1497 
z
M 3853 378 
L 4325 378 
L 4325 0 
L 2747 0 
L 2747 422 
Q 2606 163 2367 36 
Q 2128 -91 1778 -91 
Q 1072 -91 667 378 
Q 263 847 263 1663 
Q 263 2481 667 2947 
Q 1072 3413 1778 3413 
Q 2128 3413 2367 3286 
Q 2606 3159 2747 2900 
L 2747 4488 
L 2272 4488 
L 2272 4863 
L 3853 4863 
L 3853 378 
z
" transform="scale(0.015625)"/>
      <path id="DejaVuSerif-Bold-72" d="M 3438 3359 
L 3438 2369 
L 3084 2369 
Q 3066 2634 2941 2764 
Q 2816 2894 2578 2894 
Q 2216 2894 2006 2575 
Q 1797 2256 1797 1691 
L 1797 378 
L 2400 378 
L 2400 0 
L 219 0 
L 219 378 
L 691 378 
L 691 2944 
L 184 2944 
L 184 3322 
L 1797 3322 
L 1797 2731 
Q 1959 3078 2226 3245 
Q 2494 3413 2881 3413 
Q 2978 3413 3117 3398 
Q 3256 3384 3438 3359 
z
" transform="scale(0.015625)"/>
      <path id="DejaVuSerif-Bold-69" d="M 588 4263 
Q 588 4516 763 4689 
Q 938 4863 1191 4863 
Q 1438 4863 1611 4689 
Q 1784 4516 1784 4263 
Q 1784 4016 1611 3842 
Q 1438 3669 1191 3669 
Q 938 3669 763 3841 
Q 588 4013 588 4263 
z
M 1797 378 
L 2272 378 
L 2272 0 
L 219 0 
L 219 378 
L 691 378 
L 691 2944 
L 219 2944 
L 219 3322 
L 1797 3322 
L 1797 378 
z
" transform="scale(0.015625)"/>
      <path id="DejaVuSerif-Bold-20" transform="scale(0.015625)"/>
      <path id="DejaVuSerif-Bold-45" d="M 300 0 
L 300 378 
L 897 378 
L 897 4288 
L 300 4288 
L 300 4666 
L 4494 4666 
L 4494 3566 
L 4063 3566 
L 4063 4238 
L 2100 4238 
L 2100 2741 
L 3322 2741 
L 3322 3334 
L 3750 3334 
L 3750 1722 
L 3322 1722 
L 3322 2316 
L 2100 2316 
L 2100 428 
L 4122 428 
L 4122 1100 
L 4550 1100 
L 4550 0 
L 300 0 
z
" transform="scale(0.015625)"/>
      <path id="DejaVuSerif-Bold-53" d="M 494 225 
L 494 1331 
L 891 1331 
Q 981 806 1318 547 
Q 1656 288 2253 288 
Q 2738 288 2991 472 
Q 3244 656 3244 1013 
Q 3244 1294 3072 1450 
Q 2900 1606 2363 1741 
L 1663 1913 
Q 978 2088 700 2398 
Q 422 2709 422 3284 
Q 422 3978 883 4364 
Q 1344 4750 2175 4750 
Q 2584 4750 3026 4681 
Q 3469 4613 3944 4475 
L 3944 3444 
L 3547 3444 
Q 3456 3925 3150 4148 
Q 2844 4372 2278 4372 
Q 1816 4372 1580 4211 
Q 1344 4050 1344 3731 
Q 1344 3441 1506 3289 
Q 1669 3138 2303 2975 
L 3003 2803 
Q 3653 2641 3945 2297 
Q 4238 1953 4238 1350 
Q 4238 644 3750 276 
Q 3263 -91 2316 -91 
Q 1859 -91 1409 -12 
Q 959 66 494 225 
z
" transform="scale(0.015625)"/>
      <path id="DejaVuSerif-Bold-47" d="M 4403 3200 
Q 4263 3819 3934 4095 
Q 3606 4372 3009 4372 
Q 2284 4372 1945 3880 
Q 1606 3388 1606 2328 
Q 1606 1278 1931 783 
Q 2256 288 2944 288 
Q 3206 288 3431 347 
Q 3656 406 3841 525 
L 3841 1806 
L 3278 1806 
L 3278 2181 
L 4959 2181 
L 4959 391 
Q 4434 147 3911 28 
Q 3388 -91 2841 -91 
Q 1641 -91 955 556 
Q 269 1203 269 2328 
Q 269 3456 955 4103 
Q 1641 4750 2841 4750 
Q 3341 4750 3825 4650 
Q 4309 4550 4800 4347 
L 4800 3200 
L 4403 3200 
z
" transform="scale(0.015625)"/>
      <path id="DejaVuSerif-Bold-44" d="M 2100 378 
L 2534 378 
Q 3266 378 3605 847 
Q 3944 1316 3944 2338 
Q 3944 3353 3606 3820 
Q 3269 4288 2534 4288 
L 2100 4288 
L 2100 378 
z
M 300 0 
L 300 378 
L 897 378 
L 897 4288 
L 300 4288 
L 300 4666 
L 2694 4666 
Q 3950 4666 4615 4066 
Q 5281 3466 5281 2338 
Q 5281 1203 4614 601 
Q 3947 0 2694 0 
L 300 0 
z
" transform="scale(0.015625)"/>
      <path id="DejaVuSerif-Bold-6f" d="M 2138 263 
Q 2488 263 2630 563 
Q 2772 863 2772 1663 
Q 2772 2463 2631 2761 
Q 2491 3059 2138 3059 
Q 1784 3059 1640 2757 
Q 1497 2456 1497 1663 
Q 1497 869 1640 566 
Q 1784 263 2138 263 
z
M 2138 -91 
Q 1259 -91 761 376 
Q 263 844 263 1663 
Q 263 2484 761 2948 
Q 1259 3413 2138 3413 
Q 3019 3413 3516 2948 
Q 4013 2484 4013 1663 
Q 4013 844 3514 376 
Q 3016 -91 2138 -91 
z
" transform="scale(0.015625)"/>
      <path id="DejaVuSerif-Bold-63" d="M 3609 1038 
Q 3491 469 3123 189 
Q 2756 -91 2125 -91 
Q 1238 -91 750 368 
Q 263 828 263 1663 
Q 263 2488 744 2950 
Q 1225 3413 2081 3413 
Q 2428 3413 2781 3347 
Q 3134 3281 3500 3150 
L 3500 2228 
L 3150 2228 
Q 3100 2650 2903 2854 
Q 2706 3059 2350 3059 
Q 1888 3059 1692 2746 
Q 1497 2434 1497 1663 
Q 1497 909 1687 586 
Q 1878 263 2309 263 
Q 2644 263 2845 463 
Q 3047 663 3091 1038 
L 3609 1038 
z
" transform="scale(0.015625)"/>
      <path id="DejaVuSerif-Bold-75" d="M 3963 3322 
L 3963 378 
L 4434 378 
L 4434 0 
L 2853 0 
L 2853 469 
Q 2656 172 2400 40 
Q 2144 -91 1753 -91 
Q 1194 -91 908 239 
Q 622 569 622 1209 
L 622 2944 
L 147 2944 
L 147 3322 
L 1728 3322 
L 1728 1381 
Q 1728 763 1831 595 
Q 1934 428 2209 428 
Q 2544 428 2698 675 
Q 2853 922 2853 1459 
L 2853 2944 
L 2450 2944 
L 2450 3322 
L 3963 3322 
z
" transform="scale(0.015625)"/>
      <path id="DejaVuSerif-Bold-6d" d="M 3884 2778 
Q 4116 3109 4384 3261 
Q 4653 3413 5013 3413 
Q 5584 3413 5867 3089 
Q 6150 2766 6150 2113 
L 6150 378 
L 6625 378 
L 6625 0 
L 4647 0 
L 4647 378 
L 5044 378 
L 5044 1947 
Q 5044 2569 4948 2731 
Q 4853 2894 4594 2894 
Q 4300 2894 4137 2667 
Q 3975 2441 3975 2022 
L 3975 378 
L 4372 378 
L 4372 0 
L 2472 0 
L 2472 378 
L 2869 378 
L 2869 1947 
Q 2869 2569 2772 2731 
Q 2675 2894 2419 2894 
Q 2122 2894 1959 2667 
Q 1797 2441 1797 2022 
L 1797 378 
L 2194 378 
L 2194 0 
L 219 0 
L 219 378 
L 691 378 
L 691 2944 
L 219 2944 
L 219 3322 
L 1797 3322 
L 1797 2853 
Q 1991 3144 2241 3278 
Q 2491 3413 2834 3413 
Q 3241 3413 3494 3258 
Q 3747 3103 3884 2778 
z
" transform="scale(0.015625)"/>
      <path id="DejaVuSerif-Bold-65" d="M 2566 1875 
Q 2566 2531 2444 2795 
Q 2322 3059 2028 3059 
Q 1744 3059 1620 2800 
Q 1497 2541 1497 1931 
L 1497 1875 
L 2566 1875 
z
M 3781 1503 
L 1497 1503 
L 1497 1478 
Q 1497 834 1690 548 
Q 1884 263 2316 263 
Q 2675 263 2897 453 
Q 3119 644 3181 1006 
L 3700 1006 
Q 3566 441 3166 175 
Q 2766 -91 2047 -91 
Q 1184 -91 723 364 
Q 263 819 263 1663 
Q 263 2488 734 2950 
Q 1206 3413 2047 3413 
Q 2872 3413 3312 2927 
Q 3753 2441 3781 1503 
z
" transform="scale(0.015625)"/>
      <path id="DejaVuSerif-Bold-74" d="M 634 2944 
L 153 2944 
L 153 3322 
L 634 3322 
L 634 4353 
L 1741 4353 
L 1741 3322 
L 2663 3322 
L 2663 2944 
L 1741 2944 
L 1741 909 
Q 1741 475 1809 369 
Q 1878 263 2059 263 
Q 2259 263 2356 397 
Q 2453 531 2459 813 
L 2925 813 
Q 2897 313 2651 111 
Q 2406 -91 1806 -91 
Q 1122 -91 878 123 
Q 634 338 634 909 
L 634 2944 
z
" transform="scale(0.015625)"/>
      <path id="DejaVuSerif-Bold-73" d="M 300 97 
L 300 1025 
L 653 1025 
Q 697 653 931 458 
Q 1166 263 1569 263 
Q 1906 263 2086 380 
Q 2266 497 2266 716 
Q 2266 916 2152 1025 
Q 2038 1134 1709 1216 
L 1253 1331 
Q 738 1459 506 1698 
Q 275 1938 275 2344 
Q 275 2884 650 3148 
Q 1025 3413 1806 3413 
Q 2100 3413 2433 3364 
Q 2766 3316 3169 3213 
L 3169 2375 
L 2816 2375 
Q 2788 2716 2573 2887 
Q 2359 3059 1959 3059 
Q 1622 3059 1448 2951 
Q 1275 2844 1275 2638 
Q 1275 2469 1375 2372 
Q 1475 2275 1734 2209 
L 2188 2094 
Q 2841 1928 3091 1684 
Q 3341 1441 3341 1006 
Q 3341 444 2939 176 
Q 2538 -91 1691 -91 
Q 1381 -91 1034 -44 
Q 688 3 300 97 
z
" transform="scale(0.015625)"/>
     </defs>
     <use xlink:href="#DejaVuSerif-Bold-4d"/>
     <use xlink:href="#DejaVuSerif-Bold-61" x="110.693359"/>
     <use xlink:href="#DejaVuSerif-Bold-6e" x="175.488281"/>
     <use xlink:href="#DejaVuSerif-Bold-64" x="248.193359"/>
     <use xlink:href="#DejaVuSerif-Bold-61" x="318.115234"/>
     <use xlink:href="#DejaVuSerif-Bold-72" x="382.910156"/>
     <use xlink:href="#DejaVuSerif-Bold-69" x="435.595703"/>
     <use xlink:href="#DejaVuSerif-Bold-6e" x="473.583984"/>
     <use xlink:href="#DejaVuSerif-Bold-20" x="546.289062"/>
     <use xlink:href="#DejaVuSerif-Bold-45" x="581.103516"/>
     <use xlink:href="#DejaVuSerif-Bold-53" x="657.324219"/>
     <use xlink:href="#DejaVuSerif-Bold-47" x="729.541016"/>
     <use xlink:href="#DejaVuSerif-Bold-20" x="814.941406"/>
     <use xlink:href="#DejaVuSerif-Bold-44" x="849.755859"/>
     <use xlink:href="#DejaVuSerif-Bold-6f" x="936.474609"/>
     <use xlink:href="#DejaVuSerif-Bold-63" x="1003.173828"/>
     <use xlink:href="#DejaVuSerif-Bold-75" x="1064.0625"/>
     <use xlink:href="#DejaVuSerif-Bold-6d" x="1136.767578"/>
     <use xlink:href="#DejaVuSerif-Bold-65" x="1242.578125"/>
     <use xlink:href="#DejaVuSerif-Bold-6e" x="1306.201172"/>
     <use xlink:href="#DejaVuSerif-Bold-74" x="1378.90625"/>
     <use xlink:href="#DejaVuSerif-Bold-73" x="1425.097656"/>
    </g>
   </g>
   <g id="text_3">
    <!-- English ESG Documents -->
    <g style="fill: #ffffff" transform="translate(485.409278 123.72022) scale(0.13 -0.13)">
     <defs>
      <path id="DejaVuSerif-Bold-67" d="M 3853 2944 
L 3853 44 
Q 3853 -656 3354 -1039 
Q 2856 -1422 1947 -1422 
Q 1616 -1422 1275 -1370 
Q 934 -1319 575 -1216 
L 575 -422 
L 928 -422 
Q 975 -750 1192 -909 
Q 1409 -1069 1813 -1069 
Q 2325 -1069 2536 -823 
Q 2747 -578 2747 44 
L 2747 422 
Q 2606 163 2367 36 
Q 2128 -91 1778 -91 
Q 1072 -91 667 378 
Q 263 847 263 1663 
Q 263 2481 667 2947 
Q 1072 3413 1778 3413 
Q 2128 3413 2367 3286 
Q 2606 3159 2747 2900 
L 2747 3322 
L 4325 3322 
L 4325 2944 
L 3853 2944 
z
M 2747 1825 
Q 2747 2406 2597 2665 
Q 2447 2925 2119 2925 
Q 1775 2925 1636 2651 
Q 1497 2378 1497 1663 
Q 1497 947 1637 672 
Q 1778 397 2119 397 
Q 2447 397 2597 656 
Q 2747 916 2747 1497 
L 2747 1825 
z
" transform="scale(0.015625)"/>
      <path id="DejaVuSerif-Bold-6c" d="M 1797 378 
L 2272 378 
L 2272 0 
L 219 0 
L 219 378 
L 691 378 
L 691 4488 
L 219 4488 
L 219 4863 
L 1797 4863 
L 1797 378 
z
" transform="scale(0.015625)"/>
      <path id="DejaVuSerif-Bold-68" d="M 219 0 
L 219 378 
L 691 378 
L 691 4488 
L 197 4488 
L 197 4863 
L 1797 4863 
L 1797 2853 
Q 1997 3150 2253 3281 
Q 2509 3413 2900 3413 
Q 3459 3413 3745 3083 
Q 4031 2753 4031 2113 
L 4031 378 
L 4506 378 
L 4506 0 
L 2522 0 
L 2522 378 
L 2925 378 
L 2925 2144 
Q 2925 2566 2817 2730 
Q 2709 2894 2444 2894 
Q 2109 2894 1953 2648 
Q 1797 2403 1797 1869 
L 1797 378 
L 2203 378 
L 2203 0 
L 219 0 
z
" transform="scale(0.015625)"/>
     </defs>
     <use xlink:href="#DejaVuSerif-Bold-45"/>
     <use xlink:href="#DejaVuSerif-Bold-6e" x="76.220703"/>
     <use xlink:href="#DejaVuSerif-Bold-67" x="148.925781"/>
     <use xlink:href="#DejaVuSerif-Bold-6c" x="218.847656"/>
     <use xlink:href="#DejaVuSerif-Bold-69" x="256.835938"/>
     <use xlink:href="#DejaVuSerif-Bold-73" x="294.824219"/>
     <use xlink:href="#DejaVuSerif-Bold-68" x="351.123047"/>
     <use xlink:href="#DejaVuSerif-Bold-20" x="423.828125"/>
     <use xlink:href="#DejaVuSerif-Bold-45" x="458.642578"/>
     <use xlink:href="#DejaVuSerif-Bold-53" x="534.863281"/>
     <use xlink:href="#DejaVuSerif-Bold-47" x="607.080078"/>
     <use xlink:href="#DejaVuSerif-Bold-20" x="692.480469"/>
     <use xlink:href="#DejaVuSerif-Bold-44" x="727.294922"/>
     <use xlink:href="#DejaVuSerif-Bold-6f" x="814.013672"/>
     <use xlink:href="#DejaVuSerif-Bold-63" x="880.712891"/>
     <use xlink:href="#DejaVuSerif-Bold-75" x="941.601562"/>
     <use xlink:href="#DejaVuSerif-Bold-6d" x="1014.306641"/>
     <use xlink:href="#DejaVuSerif-Bold-65" x="1120.117188"/>
     <use xlink:href="#DejaVuSerif-Bold-6e" x="1183.740234"/>
     <use xlink:href="#DejaVuSerif-Bold-74" x="1256.445312"/>
     <use xlink:href="#DejaVuSerif-Bold-73" x="1302.636719"/>
    </g>
   </g>
   <g id="patch_9">
    <path d="M 432 205.662246 
Q 432 182.160694 432 160.895209 
" style="fill: none; stroke: #666666; stroke-width: 2; stroke-linecap: round"/>
    <path d="M 429.2 166.495209 
L 432 160.895209 
L 434.8 166.495209 
" style="fill: none; stroke: #666666; stroke-width: 2; stroke-linecap: round"/>
   </g>
   <g id="text_4">
    <!-- Preprocessing &amp; Fine-tuning -->
    <g style="fill: #808080" transform="translate(351.41125 210.542906) scale(0.11 -0.11)">
     <defs>
      <path id="DejaVuSerif-Italic-50" d="M 1594 2375 
L 2419 2375 
Q 2884 2375 3176 2626 
Q 3469 2878 3559 3353 
Q 3653 3831 3458 4081 
Q 3263 4331 2797 4331 
L 1972 4331 
L 1594 2375 
z
M -97 0 
L -34 331 
L 559 331 
L 1338 4331 
L 744 4331 
L 809 4666 
L 3016 4666 
Q 3716 4666 4056 4311 
Q 4397 3956 4278 3353 
Q 4163 2753 3684 2397 
Q 3206 2041 2506 2041 
L 1528 2041 
L 1194 331 
L 1916 331 
L 1853 0 
L -97 0 
z
" transform="scale(0.015625)"/>
      <path id="DejaVuSerif-Italic-72" d="M 3375 3328 
L 3213 2497 
L 2881 2497 
Q 2891 2559 2891 2613 
Q 2891 2775 2816 2866 
Q 2719 2988 2484 2988 
Q 2059 2988 1775 2694 
Q 1491 2400 1384 1850 
L 1025 0 
L 450 0 
L 1031 2994 
L 481 2994 
L 544 3322 
L 1669 3322 
L 1556 2731 
Q 1791 3078 2089 3245 
Q 2388 3413 2769 3413 
Q 2909 3413 3059 3391 
Q 3209 3369 3375 3328 
z
" transform="scale(0.015625)"/>
      <path id="DejaVuSerif-Italic-65" d="M 938 1275 
Q 925 1156 925 1050 
Q 925 756 1031 563 
Q 1216 219 1709 219 
Q 2072 219 2250 328 
Q 2569 525 2644 778 
L 3066 778 
Q 2941 381 2475 103 
Q 2150 -91 1506 -91 
Q 863 -91 516 388 
Q 272 722 272 1206 
Q 272 1419 319 1659 
Q 472 2450 1000 2931 
Q 1528 3413 2278 3413 
Q 3500 3413 3500 2547 
Q 3500 1913 2859 1603 
Q 2206 1288 938 1275 
z
M 2541 1975 
Q 2891 2181 2891 2569 
Q 2891 3103 2181 3103 
Q 1763 3103 1472 2784 
Q 1181 2466 1003 1606 
Q 2006 1653 2541 1975 
z
" transform="scale(0.015625)"/>
      <path id="DejaVuSerif-Italic-6f" d="M 1644 219 
Q 2106 219 2414 584 
Q 2722 950 2859 1663 
Q 2922 1988 2922 2241 
Q 2922 2541 2834 2738 
Q 2669 3103 2206 3103 
Q 1744 3103 1436 2739 
Q 1128 2375 991 1663 
Q 928 1338 928 1088 
Q 928 784 1019 584 
Q 1184 219 1644 219 
z
M 1584 -91 
Q 859 -91 513 388 
Q 272 722 272 1203 
Q 272 1419 319 1663 
Q 472 2456 1005 2934 
Q 1538 3413 2266 3413 
Q 2994 3413 3341 2934 
Q 3578 2603 3578 2122 
Q 3578 1906 3531 1663 
Q 3378 869 2845 389 
Q 2313 -91 1584 -91 
z
" transform="scale(0.015625)"/>
      <path id="DejaVuSerif-Italic-63" d="M 3163 997 
Q 2938 466 2536 187 
Q 2134 -91 1584 -91 
Q 859 -91 513 388 
Q 272 722 272 1203 
Q 272 1419 319 1663 
Q 475 2459 1008 2936 
Q 1541 3413 2266 3413 
Q 2581 3413 2879 3339 
Q 3178 3266 3463 3116 
L 3300 2266 
L 2966 2266 
Q 2966 2309 2966 2347 
Q 2966 2722 2803 2903 
Q 2622 3103 2213 3103 
Q 1747 3103 1439 2742 
Q 1131 2381 991 1663 
Q 928 1334 928 1078 
Q 928 778 1016 581 
Q 1181 219 1650 219 
Q 2022 219 2281 412 
Q 2541 606 2700 997 
L 3163 997 
z
" transform="scale(0.015625)"/>
      <path id="DejaVuSerif-Italic-73" d="M 222 959 
L 553 959 
Q 541 869 541 788 
Q 541 219 1313 219 
Q 2088 219 2200 788 
Q 2209 844 2209 944 
Q 2209 1041 2103 1158 
Q 1997 1275 1550 1428 
L 1159 1569 
Q 759 1706 629 1882 
Q 500 2059 500 2263 
Q 500 2344 516 2438 
Q 606 2894 990 3153 
Q 1375 3413 1931 3413 
Q 2484 3413 3066 3144 
L 2925 2419 
L 2594 2419 
Q 2606 2491 2606 2553 
Q 2606 2781 2448 2942 
Q 2291 3103 1925 3103 
Q 1191 3103 1091 2591 
Q 1078 2538 1078 2444 
Q 1078 2347 1179 2237 
Q 1281 2128 1678 1997 
L 2106 1856 
Q 2550 1709 2716 1488 
Q 2831 1331 2831 1178 
Q 2831 522 2306 181 
Q 1894 -91 1262 -91 
Q 631 -91 72 184 
L 222 959 
z
" transform="scale(0.015625)"/>
      <path id="DejaVuSerif-Italic-69" d="M 1009 4353 
Q 1038 4497 1163 4603 
Q 1288 4709 1434 4709 
Q 1578 4709 1663 4603 
Q 1728 4522 1728 4422 
Q 1728 4388 1719 4353 
Q 1691 4206 1567 4103 
Q 1444 4000 1297 4000 
Q 1150 4000 1066 4103 
Q 1003 4181 1003 4281 
Q 1003 4316 1009 4353 
z
M 963 331 
L 1506 331 
L 1444 0 
L 325 0 
L 903 2988 
L 353 2988 
L 419 3322 
L 1544 3322 
L 963 331 
z
" transform="scale(0.015625)"/>
      <path id="DejaVuSerif-Italic-67" d="M 3822 3322 
L 3188 72 
Q 3044 -672 2581 -1031 
Q 2078 -1422 1381 -1422 
Q 1053 -1422 765 -1362 
Q 478 -1303 225 -1184 
L 363 -488 
L 663 -488 
Q 653 -813 834 -963 
Q 1016 -1113 1406 -1113 
Q 1913 -1113 2203 -825 
Q 2494 -544 2613 72 
L 2700 519 
Q 2472 206 2181 57 
Q 1891 -91 1525 -91 
Q 975 -91 697 281 
Q 522 516 503 841 
Q 491 1031 534 1256 
Q 750 2359 1516 2928 
Q 2169 3409 2931 3413 
Q 3631 3416 3822 3322 
z
M 3184 2988 
Q 3181 3094 2844 3094 
Q 2234 3094 1775 2625 
Q 1316 2153 1147 1297 
Q 1100 1044 1113 853 
Q 1125 659 1203 528 
Q 1356 269 1756 269 
Q 2194 269 2484 583 
Q 2775 897 2891 1497 
L 2953 1825 
L 3184 2988 
z
" transform="scale(0.015625)"/>
      <path id="DejaVuSerif-Italic-26" d="M 3144 722 
L 1697 2638 
Q 1378 2394 1187 2111 
Q 997 1828 934 1509 
Q 909 1375 909 1253 
Q 909 900 1125 638 
Q 1416 288 1953 288 
Q 2272 288 2576 398 
Q 2881 509 3144 722 
z
M 4941 0 
L 3688 0 
L 3347 453 
Q 2966 178 2567 43 
Q 2169 -91 1738 -91 
Q 931 -91 541 322 
Q 250 628 250 1094 
Q 250 1256 288 1441 
Q 369 1856 676 2217 
Q 984 2578 1531 2894 
Q 1409 3084 1372 3275 
Q 1353 3366 1353 3463 
Q 1353 3563 1372 3669 
Q 1469 4166 1884 4458 
Q 2300 4750 2916 4750 
Q 3125 4750 3394 4697 
Q 3663 4644 4000 4538 
L 3844 3731 
L 3491 3731 
Q 3494 3769 3494 3806 
Q 3494 4084 3347 4241 
Q 3181 4416 2838 4416 
Q 2516 4416 2281 4239 
Q 2047 4063 1991 3781 
Q 1978 3716 1978 3650 
Q 1978 3525 2025 3400 
Q 2091 3219 2363 2859 
L 3644 1159 
Q 3909 1409 4089 1698 
Q 4269 1988 4363 2316 
L 4428 2650 
L 5344 2650 
L 5278 2316 
L 4741 2316 
Q 4609 1909 4386 1556 
Q 4163 1203 3844 903 
L 4272 331 
L 5006 331 
L 4941 0 
z
" transform="scale(0.015625)"/>
      <path id="DejaVuSerif-Italic-46" d="M -97 0 
L -34 331 
L 559 331 
L 1338 4331 
L 744 4331 
L 809 4666 
L 4628 4666 
L 4428 3628 
L 4044 3628 
L 4169 4281 
L 1963 4281 
L 1659 2719 
L 3253 2719 
L 3366 3303 
L 3750 3303 
L 3450 1753 
L 3066 1753 
L 3178 2338 
L 1584 2338 
L 1194 331 
L 1941 331 
L 1878 0 
L -97 0 
z
" transform="scale(0.015625)"/>
      <path id="DejaVuSerif-Italic-2d" d="M 328 1959 
L 1928 1959 
L 1834 1472 
L 234 1472 
L 328 1959 
z
" transform="scale(0.015625)"/>
     </defs>
     <use xlink:href="#DejaVuSerif-Italic-50"/>
     <use xlink:href="#DejaVuSerif-Italic-72" x="67.285156"/>
     <use xlink:href="#DejaVuSerif-Italic-65" x="115.087891"/>
     <use xlink:href="#DejaVuSerif-Italic-70" x="174.267578"/>
     <use xlink:href="#DejaVuSerif-Italic-72" x="238.28125"/>
     <use xlink:href="#DejaVuSerif-Italic-6f" x="286.083984"/>
     <use xlink:href="#DejaVuSerif-Italic-63" x="346.289062"/>
     <use xlink:href="#DejaVuSerif-Italic-65" x="402.294922"/>
     <use xlink:href="#DejaVuSerif-Italic-73" x="461.474609"/>
     <use xlink:href="#DejaVuSerif-Italic-73" x="512.792969"/>
     <use xlink:href="#DejaVuSerif-Italic-69" x="564.111328"/>
     <use xlink:href="#DejaVuSerif-Italic-6e" x="596.09375"/>
     <use xlink:href="#DejaVuSerif-Italic-67" x="660.498047"/>
     <use xlink:href="#DejaVuSerif-Italic-20" x="724.511719"/>
     <use xlink:href="#DejaVuSerif-Italic-26" x="756.298828"/>
     <use xlink:href="#DejaVuSerif-Italic-20" x="845.3125"/>
     <use xlink:href="#DejaVuSerif-Italic-46" x="877.099609"/>
     <use xlink:href="#DejaVuSerif-Italic-69" x="946.484375"/>
     <use xlink:href="#DejaVuSerif-Italic-6e" x="978.466797"/>
     <use xlink:href="#DejaVuSerif-Italic-65" x="1042.871094"/>
     <use xlink:href="#DejaVuSerif-Italic-2d" x="1102.050781"/>
     <use xlink:href="#DejaVuSerif-Italic-74" x="1135.839844"/>
     <use xlink:href="#DejaVuSerif-Italic-75" x="1176.025391"/>
     <use xlink:href="#DejaVuSerif-Italic-6e" x="1240.429688"/>
     <use xlink:href="#DejaVuSerif-Italic-69" x="1304.833984"/>
     <use xlink:href="#DejaVuSerif-Italic-6e" x="1336.816406"/>
     <use xlink:href="#DejaVuSerif-Italic-67" x="1401.220703"/>
    </g>
   </g>
   <g id="text_5">
    <!-- Multilingual Baseline Model -->
    <g style="fill: #ffffff" transform="translate(186.280097 269.451129) scale(0.13 -0.13)">
     <defs>
      <path id="DejaVuSerif-Bold-42" d="M 300 0 
L 300 378 
L 897 378 
L 897 4288 
L 300 4288 
L 300 4666 
L 3066 4666 
Q 3919 4666 4347 4378 
Q 4775 4091 4775 3513 
Q 4775 3097 4479 2853 
Q 4184 2609 3603 2547 
Q 4306 2481 4681 2172 
Q 5056 1863 5056 1350 
Q 5056 656 4532 328 
Q 4009 0 2894 0 
L 300 0 
z
M 2100 2719 
L 2509 2719 
Q 3047 2719 3306 2914 
Q 3566 3109 3566 3513 
Q 3566 3919 3314 4103 
Q 3063 4288 2509 4288 
L 2100 4288 
L 2100 2719 
z
M 2100 378 
L 2547 378 
Q 3144 378 3431 615 
Q 3719 853 3719 1350 
Q 3719 1850 3428 2097 
Q 3138 2344 2547 2344 
L 2100 2344 
L 2100 378 
z
" transform="scale(0.015625)"/>
     </defs>
     <use xlink:href="#DejaVuSerif-Bold-4d"/>
     <use xlink:href="#DejaVuSerif-Bold-75" x="110.693359"/>
     <use xlink:href="#DejaVuSerif-Bold-6c" x="183.398438"/>
     <use xlink:href="#DejaVuSerif-Bold-74" x="221.386719"/>
     <use xlink:href="#DejaVuSerif-Bold-69" x="267.578125"/>
     <use xlink:href="#DejaVuSerif-Bold-6c" x="305.566406"/>
     <use xlink:href="#DejaVuSerif-Bold-69" x="343.554688"/>
     <use xlink:href="#DejaVuSerif-Bold-6e" x="381.542969"/>
     <use xlink:href="#DejaVuSerif-Bold-67" x="454.248047"/>
     <use xlink:href="#DejaVuSerif-Bold-75" x="524.169922"/>
     <use xlink:href="#DejaVuSerif-Bold-61" x="596.875"/>
     <use xlink:href="#DejaVuSerif-Bold-6c" x="661.669922"/>
     <use xlink:href="#DejaVuSerif-Bold-20" x="699.658203"/>
     <use xlink:href="#DejaVuSerif-Bold-42" x="734.472656"/>
     <use xlink:href="#DejaVuSerif-Bold-61" x="818.994141"/>
     <use xlink:href="#DejaVuSerif-Bold-73" x="883.789062"/>
     <use xlink:href="#DejaVuSerif-Bold-65" x="940.087891"/>
     <use xlink:href="#DejaVuSerif-Bold-6c" x="1003.710938"/>
     <use xlink:href="#DejaVuSerif-Bold-69" x="1041.699219"/>
     <use xlink:href="#DejaVuSerif-Bold-6e" x="1079.6875"/>
     <use xlink:href="#DejaVuSerif-Bold-65" x="1152.392578"/>
     <use xlink:href="#DejaVuSerif-Bold-20" x="1216.015625"/>
     <use xlink:href="#DejaVuSerif-Bold-4d" x="1250.830078"/>
     <use xlink:href="#DejaVuSerif-Bold-6f" x="1361.523438"/>
     <use xlink:href="#DejaVuSerif-Bold-64" x="1428.222656"/>
     <use xlink:href="#DejaVuSerif-Bold-65" x="1498.144531"/>
     <use xlink:href="#DejaVuSerif-Bold-6c" x="1561.767578"/>
    </g>
   </g>
   <g id="text_6">
    <!-- Taiwan-specific Fine-tuning -->
    <g style="fill: #ffffff" transform="translate(472.528106 269.451129) scale(0.13 -0.13)">
     <defs>
      <path id="DejaVuSerif-Bold-54" d="M 1159 0 
L 1159 378 
L 1778 378 
L 1778 4238 
L 500 4238 
L 500 3500 
L 72 3500 
L 72 4666 
L 4697 4666 
L 4697 3500 
L 4275 3500 
L 4275 4238 
L 2988 4238 
L 2988 378 
L 3609 378 
L 3609 0 
L 1159 0 
z
" transform="scale(0.015625)"/>
      <path id="DejaVuSerif-Bold-77" d="M 3450 3322 
L 4206 1106 
L 4831 2944 
L 4397 2944 
L 4397 3322 
L 5638 3322 
L 5638 2944 
L 5247 2944 
L 4244 0 
L 3481 0 
L 2778 2081 
L 2069 0 
L 1313 0 
L 306 2944 
L -56 2944 
L -56 3322 
L 1825 3322 
L 1825 2944 
L 1434 2944 
L 2047 1147 
L 2791 3322 
L 3450 3322 
z
" transform="scale(0.015625)"/>
      <path id="DejaVuSerif-Bold-2d" d="M 347 2138 
L 2309 2138 
L 2309 1294 
L 347 1294 
L 347 2138 
z
" transform="scale(0.015625)"/>
      <path id="DejaVuSerif-Bold-70" d="M 1728 1825 
L 1728 1497 
Q 1728 916 1876 656 
Q 2025 397 2356 397 
Q 2697 397 2836 672 
Q 2975 947 2975 1663 
Q 2975 2378 2836 2651 
Q 2697 2925 2356 2925 
Q 2025 2925 1876 2665 
Q 1728 2406 1728 1825 
z
M 622 2944 
L 147 2944 
L 147 3322 
L 1728 3322 
L 1728 2900 
Q 1869 3159 2106 3286 
Q 2344 3413 2694 3413 
Q 3403 3413 3811 2945 
Q 4219 2478 4219 1663 
Q 4219 847 3811 378 
Q 3403 -91 2694 -91 
Q 2344 -91 2106 36 
Q 1869 163 1728 422 
L 1728 -953 
L 2241 -953 
L 2241 -1331 
L 147 -1331 
L 147 -953 
L 622 -953 
L 622 2944 
z
" transform="scale(0.015625)"/>
      <path id="DejaVuSerif-Bold-66" d="M 3097 4031 
L 2747 4031 
Q 2722 4275 2605 4394 
Q 2488 4513 2272 4513 
Q 2022 4513 1909 4333 
Q 1797 4153 1797 3750 
L 1797 3322 
L 2631 3322 
L 2631 2944 
L 1797 2944 
L 1797 378 
L 2438 378 
L 2438 0 
L 219 0 
L 219 378 
L 691 378 
L 691 2944 
L 197 2944 
L 197 3322 
L 691 3322 
L 691 3738 
Q 691 4291 1044 4577 
Q 1397 4863 2081 4863 
Q 2347 4863 2600 4833 
Q 2853 4803 3097 4744 
L 3097 4031 
z
" transform="scale(0.015625)"/>
      <path id="DejaVuSerif-Bold-46" d="M 300 0 
L 300 378 
L 897 378 
L 897 4288 
L 300 4288 
L 300 4666 
L 4459 4666 
L 4459 3566 
L 4031 3566 
L 4031 4238 
L 2106 4238 
L 2106 2741 
L 3291 2741 
L 3291 3334 
L 3719 3334 
L 3719 1722 
L 3291 1722 
L 3291 2316 
L 2106 2316 
L 2106 378 
L 2841 378 
L 2841 0 
L 300 0 
z
" transform="scale(0.015625)"/>
     </defs>
     <use xlink:href="#DejaVuSerif-Bold-54"/>
     <use xlink:href="#DejaVuSerif-Bold-61" x="64.789062"/>
     <use xlink:href="#DejaVuSerif-Bold-69" x="129.583984"/>
     <use xlink:href="#DejaVuSerif-Bold-77" x="167.572266"/>
     <use xlink:href="#DejaVuSerif-Bold-61" x="253.65625"/>
     <use xlink:href="#DejaVuSerif-Bold-6e" x="318.451172"/>
     <use xlink:href="#DejaVuSerif-Bold-2d" x="391.15625"/>
     <use xlink:href="#DejaVuSerif-Bold-73" x="432.660156"/>
     <use xlink:href="#DejaVuSerif-Bold-70" x="488.958984"/>
     <use xlink:href="#DejaVuSerif-Bold-65" x="558.880859"/>
     <use xlink:href="#DejaVuSerif-Bold-63" x="622.503906"/>
     <use xlink:href="#DejaVuSerif-Bold-69" x="683.392578"/>
     <use xlink:href="#DejaVuSerif-Bold-66" x="721.380859"/>
     <use xlink:href="#DejaVuSerif-Bold-69" x="764.398438"/>
     <use xlink:href="#DejaVuSerif-Bold-63" x="802.386719"/>
     <use xlink:href="#DejaVuSerif-Bold-20" x="863.275391"/>
     <use xlink:href="#DejaVuSerif-Bold-46" x="898.089844"/>
     <use xlink:href="#DejaVuSerif-Bold-69" x="969.085938"/>
     <use xlink:href="#DejaVuSerif-Bold-6e" x="1007.074219"/>
     <use xlink:href="#DejaVuSerif-Bold-65" x="1079.779297"/>
     <use xlink:href="#DejaVuSerif-Bold-2d" x="1143.402344"/>
     <use xlink:href="#DejaVuSerif-Bold-74" x="1184.90625"/>
     <use xlink:href="#DejaVuSerif-Bold-75" x="1231.097656"/>
     <use xlink:href="#DejaVuSerif-Bold-6e" x="1303.802734"/>
     <use xlink:href="#DejaVuSerif-Bold-69" x="1376.507812"/>
     <use xlink:href="#DejaVuSerif-Bold-6e" x="1414.496094"/>
     <use xlink:href="#DejaVuSerif-Bold-67" x="1487.201172"/>
    </g>
   </g>
   <g id="patch_10">
    <path d="M 432 351.393155 
Q 432 327.891603 432 306.626118 
" style="fill: none; stroke: #666666; stroke-width: 2; stroke-linecap: round"/>
    <path d="M 429.2 312.226118 
L 432 306.626118 
L 434.8 312.226118 
" style="fill: none; stroke: #666666; stroke-width: 2; stroke-linecap: round"/>
   </g>
   <g id="text_7">
    <!-- Model Inference -->
    <g style="fill: #808080" transform="translate(386.00625 356.430222) scale(0.11 -0.11)">
     <defs>
      <path id="DejaVuSerif-Italic-4d" d="M -97 0 
L -34 331 
L 559 331 
L 1338 4331 
L 709 4331 
L 775 4666 
L 2134 4666 
L 3125 1344 
L 5409 4666 
L 6684 4666 
L 6619 4331 
L 5997 4331 
L 5222 331 
L 5816 331 
L 5753 0 
L 3928 0 
L 3991 331 
L 4584 331 
L 5288 3938 
L 3053 684 
L 2613 684 
L 1647 3938 
L 944 331 
L 1538 331 
L 1475 0 
L -97 0 
z
" transform="scale(0.015625)"/>
      <path id="DejaVuSerif-Italic-64" d="M 3841 4863 
L 2897 0 
L 2322 0 
L 2422 519 
Q 2191 206 1902 57 
Q 1613 -91 1228 -91 
Q 616 -91 322 394 
Q 125 716 125 1166 
Q 125 1397 178 1663 
Q 331 2444 812 2928 
Q 1294 3413 1909 3413 
Q 2294 3413 2525 3264 
Q 2756 3116 2866 2803 
L 3200 4531 
L 2656 4531 
L 2722 4863 
L 3841 4863 
z
M 2613 1497 
L 2675 1825 
Q 2722 2069 2722 2266 
Q 2722 2550 2622 2738 
Q 2456 3053 2019 3053 
Q 1575 3053 1279 2703 
Q 984 2353 850 1663 
Q 788 1347 788 1103 
Q 788 813 875 622 
Q 1031 269 1475 269 
Q 1913 269 2203 583 
Q 2494 897 2613 1497 
z
" transform="scale(0.015625)"/>
      <path id="DejaVuSerif-Italic-6c" d="M 903 331 
L 1447 331 
L 1384 0 
L 266 0 
L 1147 4531 
L 594 4531 
L 656 4863 
L 1784 4863 
L 903 331 
z
" transform="scale(0.015625)"/>
      <path id="DejaVuSerif-Italic-66" d="M 3191 4078 
L 2888 4078 
Q 2900 4144 2900 4203 
Q 2900 4347 2825 4434 
Q 2719 4556 2472 4556 
Q 2150 4556 1984 4379 
Q 1819 4203 1731 3750 
L 1647 3322 
L 2575 3322 
L 2509 2988 
L 1581 2988 
L 963 -206 
Q 853 -763 509 -1047 
Q 166 -1331 -394 -1331 
L -356 -1025 
Q -28 -1025 131 -850 
Q 297 -663 388 -206 
L 1006 2988 
L 456 2988 
L 522 3322 
L 1072 3322 
L 1153 3738 
Q 1263 4297 1606 4578 
Q 1950 4863 2509 4863 
Q 2719 4863 2920 4825 
Q 3122 4788 3316 4709 
L 3191 4078 
z
" transform="scale(0.015625)"/>
     </defs>
     <use xlink:href="#DejaVuSerif-Italic-4d"/>
     <use xlink:href="#DejaVuSerif-Italic-6f" x="102.392578"/>
     <use xlink:href="#DejaVuSerif-Italic-64" x="162.597656"/>
     <use xlink:href="#DejaVuSerif-Italic-65" x="226.611328"/>
     <use xlink:href="#DejaVuSerif-Italic-6c" x="285.791016"/>
     <use xlink:href="#DejaVuSerif-Italic-20" x="317.773438"/>
     <use xlink:href="#DejaVuSerif-Italic-49" x="349.560547"/>
     <use xlink:href="#DejaVuSerif-Italic-6e" x="389.0625"/>
     <use xlink:href="#DejaVuSerif-Italic-66" x="453.466797"/>
     <use xlink:href="#DejaVuSerif-Italic-65" x="490.478516"/>
     <use xlink:href="#DejaVuSerif-Italic-72" x="549.658203"/>
     <use xlink:href="#DejaVuSerif-Italic-65" x="597.460938"/>
     <use xlink:href="#DejaVuSerif-Italic-6e" x="656.640625"/>
     <use xlink:href="#DejaVuSerif-Italic-63" x="721.044922"/>
     <use xlink:href="#DejaVuSerif-Italic-65" x="777.050781"/>
    </g>
   </g>
   <g id="text_8">
    <!-- LLM ESG Assessment Outputs -->
    <g style="fill: #ffffff" transform="translate(321.796562 415.27446) scale(0.13 -0.13)">
     <defs>
      <path id="DejaVuSerif-Bold-4c" d="M 300 0 
L 300 378 
L 897 378 
L 897 4288 
L 300 4288 
L 300 4666 
L 2700 4666 
L 2700 4288 
L 2100 4288 
L 2100 428 
L 3938 428 
L 3938 1166 
L 4359 1166 
L 4359 0 
L 300 0 
z
" transform="scale(0.015625)"/>
      <path id="DejaVuSerif-Bold-41" d="M -50 0 
L -50 378 
L 331 378 
L 2088 4666 
L 2834 4666 
L 4594 378 
L 5038 378 
L 5038 0 
L 2853 0 
L 2853 378 
L 3309 378 
L 2925 1331 
L 1172 1331 
L 781 378 
L 1338 378 
L 1338 0 
L -50 0 
z
M 1325 1709 
L 2772 1709 
L 2053 3494 
L 1325 1709 
z
" transform="scale(0.015625)"/>
      <path id="DejaVuSerif-Bold-4f" d="M 2784 288 
Q 3381 288 3672 791 
Q 3963 1294 3963 2328 
Q 3963 3366 3672 3869 
Q 3381 4372 2784 4372 
Q 2191 4372 1898 3864 
Q 1606 3356 1606 2328 
Q 1606 1303 1898 795 
Q 2191 288 2784 288 
z
M 2784 -91 
Q 1606 -91 937 553 
Q 269 1197 269 2328 
Q 269 3459 939 4104 
Q 1609 4750 2784 4750 
Q 3963 4750 4631 4106 
Q 5300 3463 5300 2328 
Q 5300 1197 4629 553 
Q 3959 -91 2784 -91 
z
" transform="scale(0.015625)"/>
     </defs>
     <use xlink:href="#DejaVuSerif-Bold-4c"/>
     <use xlink:href="#DejaVuSerif-Bold-4c" x="70.3125"/>
     <use xlink:href="#DejaVuSerif-Bold-4d" x="140.625"/>
     <use xlink:href="#DejaVuSerif-Bold-20" x="251.318359"/>
     <use xlink:href="#DejaVuSerif-Bold-45" x="286.132812"/>
     <use xlink:href="#DejaVuSerif-Bold-53" x="362.353516"/>
     <use xlink:href="#DejaVuSerif-Bold-47" x="434.570312"/>
     <use xlink:href="#DejaVuSerif-Bold-20" x="519.970703"/>
     <use xlink:href="#DejaVuSerif-Bold-41" x="554.785156"/>
     <use xlink:href="#DejaVuSerif-Bold-73" x="632.373047"/>
     <use xlink:href="#DejaVuSerif-Bold-73" x="688.671875"/>
     <use xlink:href="#DejaVuSerif-Bold-65" x="744.970703"/>
     <use xlink:href="#DejaVuSerif-Bold-73" x="808.59375"/>
     <use xlink:href="#DejaVuSerif-Bold-73" x="864.892578"/>
     <use xlink:href="#DejaVuSerif-Bold-6d" x="921.191406"/>
     <use xlink:href="#DejaVuSerif-Bold-65" x="1027.001953"/>
     <use xlink:href="#DejaVuSerif-Bold-6e" x="1090.625"/>
     <use xlink:href="#DejaVuSerif-Bold-74" x="1163.330078"/>
     <use xlink:href="#DejaVuSerif-Bold-20" x="1209.521484"/>
     <use xlink:href="#DejaVuSerif-Bold-4f" x="1244.335938"/>
     <use xlink:href="#DejaVuSerif-Bold-75" x="1331.445312"/>
     <use xlink:href="#DejaVuSerif-Bold-74" x="1404.150391"/>
     <use xlink:href="#DejaVuSerif-Bold-70" x="1450.341797"/>
     <use xlink:href="#DejaVuSerif-Bold-75" x="1520.263672"/>
     <use xlink:href="#DejaVuSerif-Bold-74" x="1592.96875"/>
     <use xlink:href="#DejaVuSerif-Bold-73" x="1639.160156"/>
    </g>
   </g>
   <g id="patch_11">
    <path d="M 432 497.124064 
Q 432 473.622512 432 452.357027 
" style="fill: none; stroke: #666666; stroke-width: 2; stroke-linecap: round"/>
    <path d="M 429.2 457.957027 
L 432 452.357027 
L 434.8 457.957027 
" style="fill: none; stroke: #666666; stroke-width: 2; stroke-linecap: round"/>
   </g>
   <g id="text_9">
    <!-- Human Evaluation -->
    <g style="fill: #808080" transform="translate(380.070547 502.161131) scale(0.11 -0.11)">
     <defs>
      <path id="DejaVuSerif-Italic-48" d="M -97 0 
L -34 331 
L 559 331 
L 1338 4331 
L 744 4331 
L 809 4666 
L 2631 4666 
L 2566 4331 
L 1972 4331 
L 1659 2719 
L 4078 2719 
L 4391 4331 
L 3797 4331 
L 3863 4666 
L 5684 4666 
L 5619 4331 
L 5025 4331 
L 4247 331 
L 4841 331 
L 4778 0 
L 2956 0 
L 3019 331 
L 3616 331 
L 4003 2338 
L 1584 2338 
L 1194 331 
L 1788 331 
L 1725 0 
L -97 0 
z
" transform="scale(0.015625)"/>
      <path id="DejaVuSerif-Italic-6d" d="M 3503 2675 
Q 3741 3041 4034 3227 
Q 4328 3413 4672 3413 
Q 5194 3413 5388 3088 
Q 5503 2894 5503 2578 
Q 5503 2372 5453 2113 
L 5106 331 
L 5625 331 
L 5563 0 
L 4469 0 
L 4866 2047 
Q 4913 2291 4913 2466 
Q 4913 2659 4856 2772 
Q 4750 2988 4403 2988 
Q 4019 2988 3761 2697 
Q 3503 2406 3394 1850 
L 3034 0 
L 2459 0 
L 2863 2069 
Q 2906 2303 2906 2472 
Q 2906 2666 2850 2775 
Q 2741 2988 2394 2988 
Q 2009 2988 1751 2697 
Q 1494 2406 1384 1850 
L 1025 0 
L 450 0 
L 1031 2994 
L 481 2994 
L 544 3322 
L 1669 3322 
L 1556 2731 
Q 1778 3063 2059 3238 
Q 2341 3413 2653 3413 
Q 3041 3413 3262 3220 
Q 3484 3028 3503 2675 
z
" transform="scale(0.015625)"/>
      <path id="DejaVuSerif-Italic-45" d="M -97 0 
L -34 331 
L 559 331 
L 1338 4331 
L 744 4331 
L 809 4666 
L 4566 4666 
L 4366 3628 
L 3981 3628 
L 4106 4281 
L 1963 4281 
L 1659 2719 
L 3188 2719 
L 3300 3303 
L 3684 3303 
L 3384 1753 
L 3000 1753 
L 3113 2338 
L 1584 2338 
L 1206 384 
L 3400 384 
L 3525 1038 
L 3909 1038 
L 3709 0 
L -97 0 
z
" transform="scale(0.015625)"/>
      <path id="DejaVuSerif-Italic-76" d="M 1681 0 
L 1259 0 
L 619 2988 
L 241 2988 
L 303 3322 
L 1163 3322 
L 1725 703 
Q 2084 1016 2325 1413 
Q 2825 2238 3003 2988 
L 2622 2988 
L 2688 3322 
L 3547 3322 
Q 3206 2034 2775 1313 
Q 2400 688 1681 0 
z
" transform="scale(0.015625)"/>
     </defs>
     <use xlink:href="#DejaVuSerif-Italic-48"/>
     <use xlink:href="#DejaVuSerif-Italic-75" x="87.207031"/>
     <use xlink:href="#DejaVuSerif-Italic-6d" x="151.611328"/>
     <use xlink:href="#DejaVuSerif-Italic-61" x="246.435547"/>
     <use xlink:href="#DejaVuSerif-Italic-6e" x="306.054688"/>
     <use xlink:href="#DejaVuSerif-Italic-20" x="370.458984"/>
     <use xlink:href="#DejaVuSerif-Italic-45" x="402.246094"/>
     <use xlink:href="#DejaVuSerif-Italic-76" x="475.244141"/>
     <use xlink:href="#DejaVuSerif-Italic-61" x="531.738281"/>
     <use xlink:href="#DejaVuSerif-Italic-6c" x="591.357422"/>
     <use xlink:href="#DejaVuSerif-Italic-75" x="623.339844"/>
     <use xlink:href="#DejaVuSerif-Italic-61" x="687.744141"/>
     <use xlink:href="#DejaVuSerif-Italic-74" x="747.363281"/>
     <use xlink:href="#DejaVuSerif-Italic-69" x="787.548828"/>
     <use xlink:href="#DejaVuSerif-Italic-6f" x="819.53125"/>
     <use xlink:href="#DejaVuSerif-Italic-6e" x="879.736328"/>
    </g>
   </g>
   <g id="text_10">
    <!-- Expert Human Assessment -->
    <g style="fill: #ffffff" transform="translate(334.296875 561.005369) scale(0.13 -0.13)">
     <defs>
      <path id="DejaVuSerif-Bold-78" d="M 2247 2119 
L 2834 2944 
L 2425 2944 
L 2425 3322 
L 3719 3322 
L 3719 2944 
L 3278 2944 
L 2431 1759 
L 3419 378 
L 3859 378 
L 3859 0 
L 1747 0 
L 1747 378 
L 2175 378 
L 1550 1253 
L 922 378 
L 1369 378 
L 1369 0 
L 0 0 
L 0 378 
L 475 378 
L 1356 1619 
L 403 2944 
L 31 2944 
L 31 3322 
L 2059 3322 
L 2059 2944 
L 1656 2944 
L 2247 2119 
z
" transform="scale(0.015625)"/>
      <path id="DejaVuSerif-Bold-48" d="M 300 0 
L 300 378 
L 897 378 
L 897 4288 
L 300 4288 
L 300 4666 
L 2700 4666 
L 2700 4288 
L 2100 4288 
L 2100 2719 
L 3956 2719 
L 3956 4288 
L 3359 4288 
L 3359 4666 
L 5759 4666 
L 5759 4288 
L 5159 4288 
L 5159 378 
L 5759 378 
L 5759 0 
L 3359 0 
L 3359 378 
L 3956 378 
L 3956 2291 
L 2100 2291 
L 2100 378 
L 2700 378 
L 2700 0 
L 300 0 
z
" transform="scale(0.015625)"/>
     </defs>
     <use xlink:href="#DejaVuSerif-Bold-45"/>
     <use xlink:href="#DejaVuSerif-Bold-78" x="76.220703"/>
     <use xlink:href="#DejaVuSerif-Bold-70" x="135.839844"/>
     <use xlink:href="#DejaVuSerif-Bold-65" x="205.761719"/>
     <use xlink:href="#DejaVuSerif-Bold-72" x="269.384766"/>
     <use xlink:href="#DejaVuSerif-Bold-74" x="322.070312"/>
     <use xlink:href="#DejaVuSerif-Bold-20" x="368.261719"/>
     <use xlink:href="#DejaVuSerif-Bold-48" x="403.076172"/>
     <use xlink:href="#DejaVuSerif-Bold-75" x="497.558594"/>
     <use xlink:href="#DejaVuSerif-Bold-6d" x="570.263672"/>
     <use xlink:href="#DejaVuSerif-Bold-61" x="676.074219"/>
     <use xlink:href="#DejaVuSerif-Bold-6e" x="740.869141"/>
     <use xlink:href="#DejaVuSerif-Bold-20" x="813.574219"/>
     <use xlink:href="#DejaVuSerif-Bold-41" x="848.388672"/>
     <use xlink:href="#DejaVuSerif-Bold-73" x="925.976562"/>
     <use xlink:href="#DejaVuSerif-Bold-73" x="982.275391"/>
     <use xlink:href="#DejaVuSerif-Bold-65" x="1038.574219"/>
     <use xlink:href="#DejaVuSerif-Bold-73" x="1102.197266"/>
     <use xlink:href="#DejaVuSerif-Bold-73" x="1158.496094"/>
     <use xlink:href="#DejaVuSerif-Bold-6d" x="1214.794922"/>
     <use xlink:href="#DejaVuSerif-Bold-65" x="1320.605469"/>
     <use xlink:href="#DejaVuSerif-Bold-6e" x="1384.228516"/>
     <use xlink:href="#DejaVuSerif-Bold-74" x="1456.933594"/>
    </g>
   </g>
   <g id="patch_12">
    <path d="M 432 642.854973 
Q 432 619.353421 432 598.087936 
" style="fill: none; stroke: #666666; stroke-width: 2; stroke-linecap: round"/>
    <path d="M 429.2 603.687936 
L 432 598.087936 
L 434.8 603.687936 
" style="fill: none; stroke: #666666; stroke-width: 2; stroke-linecap: round"/>
   </g>
   <g id="text_11">
    <!-- Quantitative Evaluation -->
    <g style="fill: #808080" transform="translate(365.781719 647.89204) scale(0.11 -0.11)">
     <defs>
      <path id="DejaVuSerif-Italic-51" d="M 2322 -91 
Q 1250 -91 741 569 
Q 388 1028 388 1713 
Q 388 2000 450 2328 
Q 559 2894 817 3339 
Q 1075 3784 1491 4134 
Q 1856 4441 2281 4595 
Q 2706 4750 3188 4750 
Q 4203 4750 4697 4084 
Q 5044 3619 5044 2944 
Q 5044 2656 4981 2328 
Q 4800 1403 4209 773 
Q 3619 144 2759 -38 
Q 2888 -247 3109 -347 
Q 3331 -447 3672 -447 
L 4453 -447 
L 4341 -1025 
L 3975 -1025 
Q 3147 -1025 2803 -769 
Q 2466 -513 2322 -91 
z
M 2309 244 
Q 3075 244 3569 770 
Q 4063 1297 4263 2328 
Q 4344 2753 4344 3094 
Q 4344 3578 4175 3888 
Q 3888 4416 3122 4416 
Q 2353 4416 1859 3889 
Q 1366 3363 1166 2328 
Q 1084 1906 1084 1566 
Q 1084 1081 1253 769 
Q 1541 244 2309 244 
z
" transform="scale(0.015625)"/>
     </defs>
     <use xlink:href="#DejaVuSerif-Italic-51"/>
     <use xlink:href="#DejaVuSerif-Italic-75" x="81.982422"/>
     <use xlink:href="#DejaVuSerif-Italic-61" x="146.386719"/>
     <use xlink:href="#DejaVuSerif-Italic-6e" x="206.005859"/>
     <use xlink:href="#DejaVuSerif-Italic-74" x="270.410156"/>
     <use xlink:href="#DejaVuSerif-Italic-69" x="310.595703"/>
     <use xlink:href="#DejaVuSerif-Italic-74" x="342.578125"/>
     <use xlink:href="#DejaVuSerif-Italic-61" x="382.763672"/>
     <use xlink:href="#DejaVuSerif-Italic-74" x="442.382812"/>
     <use xlink:href="#DejaVuSerif-Italic-69" x="482.568359"/>
     <use xlink:href="#DejaVuSerif-Italic-76" x="514.550781"/>
     <use xlink:href="#DejaVuSerif-Italic-65" x="571.044922"/>
     <use xlink:href="#DejaVuSerif-Italic-20" x="630.224609"/>
     <use xlink:href="#DejaVuSerif-Italic-45" x="662.011719"/>
     <use xlink:href="#DejaVuSerif-Italic-76" x="735.009766"/>
     <use xlink:href="#DejaVuSerif-Italic-61" x="791.503906"/>
     <use xlink:href="#DejaVuSerif-Italic-6c" x="851.123047"/>
     <use xlink:href="#DejaVuSerif-Italic-75" x="883.105469"/>
     <use xlink:href="#DejaVuSerif-Italic-61" x="947.509766"/>
     <use xlink:href="#DejaVuSerif-Italic-74" x="1007.128906"/>
     <use xlink:href="#DejaVuSerif-Italic-69" x="1047.314453"/>
     <use xlink:href="#DejaVuSerif-Italic-6f" x="1079.296875"/>
     <use xlink:href="#DejaVuSerif-Italic-6e" x="1139.501953"/>
    </g>
   </g>
   <g id="text_12">
    <!-- Comparison &amp; Metrics -->
    <g style="fill: #ffffff" transform="translate(350.004531 706.736278) scale(0.13 -0.13)">
     <defs>
      <path id="DejaVuSerif-Bold-43" d="M 4769 1331 
Q 4584 609 4106 259 
Q 3628 -91 2822 -91 
Q 1641 -91 955 561 
Q 269 1213 269 2328 
Q 269 3447 955 4098 
Q 1641 4750 2822 4750 
Q 3238 4750 3688 4650 
Q 4138 4550 4641 4347 
L 4641 3200 
L 4244 3200 
Q 4122 3788 3800 4080 
Q 3478 4372 2950 4372 
Q 2269 4372 1937 3870 
Q 1606 3369 1606 2328 
Q 1606 1288 1937 788 
Q 2269 288 2956 288 
Q 3422 288 3717 547 
Q 4013 806 4147 1331 
L 4769 1331 
z
" transform="scale(0.015625)"/>
      <path id="DejaVuSerif-Bold-26" d="M 5663 0 
L 4166 0 
L 3769 409 
Q 3456 159 3078 34 
Q 2700 -91 2253 -91 
Q 1316 -91 786 309 
Q 256 709 256 1409 
Q 256 1919 526 2280 
Q 797 2641 1375 2900 
Q 1216 3109 1136 3300 
Q 1056 3491 1056 3669 
Q 1056 4181 1486 4465 
Q 1916 4750 2694 4750 
Q 2925 4750 3233 4712 
Q 3541 4675 3928 4603 
L 3928 3628 
L 3525 3628 
Q 3469 4016 3287 4194 
Q 3106 4372 2772 4372 
Q 2456 4372 2275 4222 
Q 2094 4072 2094 3816 
Q 2094 3528 2653 2959 
Q 2716 2897 2747 2869 
L 4184 1363 
Q 4372 1575 4478 1853 
Q 4584 2131 4613 2484 
L 4044 2484 
L 4044 2859 
L 5606 2859 
L 5606 2484 
L 5056 2484 
Q 5003 2028 4861 1675 
Q 4719 1322 4488 1050 
L 5131 378 
L 5663 378 
L 5663 0 
z
M 3475 716 
L 1709 2553 
Q 1538 2344 1450 2108 
Q 1363 1872 1363 1613 
Q 1363 1084 1695 743 
Q 2028 403 2541 403 
Q 2784 403 3014 479 
Q 3244 556 3475 716 
z
" transform="scale(0.015625)"/>
     </defs>
     <use xlink:href="#DejaVuSerif-Bold-43"/>
     <use xlink:href="#DejaVuSerif-Bold-6f" x="79.589844"/>
     <use xlink:href="#DejaVuSerif-Bold-6d" x="146.289062"/>
     <use xlink:href="#DejaVuSerif-Bold-70" x="252.099609"/>
     <use xlink:href="#DejaVuSerif-Bold-61" x="322.021484"/>
     <use xlink:href="#DejaVuSerif-Bold-72" x="386.816406"/>
     <use xlink:href="#DejaVuSerif-Bold-69" x="439.501953"/>
     <use xlink:href="#DejaVuSerif-Bold-73" x="477.490234"/>
     <use xlink:href="#DejaVuSerif-Bold-6f" x="533.789062"/>
     <use xlink:href="#DejaVuSerif-Bold-6e" x="600.488281"/>
     <use xlink:href="#DejaVuSerif-Bold-20" x="673.193359"/>
     <use xlink:href="#DejaVuSerif-Bold-26" x="708.007812"/>
     <use xlink:href="#DejaVuSerif-Bold-20" x="798.291016"/>
     <use xlink:href="#DejaVuSerif-Bold-4d" x="833.105469"/>
     <use xlink:href="#DejaVuSerif-Bold-65" x="943.798828"/>
     <use xlink:href="#DejaVuSerif-Bold-74" x="1007.421875"/>
     <use xlink:href="#DejaVuSerif-Bold-72" x="1053.613281"/>
     <use xlink:href="#DejaVuSerif-Bold-69" x="1106.298828"/>
     <use xlink:href="#DejaVuSerif-Bold-63" x="1144.287109"/>
     <use xlink:href="#DejaVuSerif-Bold-73" x="1205.175781"/>
    </g>
   </g>
   <g id="text_13">
    <!-- Architecture of LLM-Assisted ESG Disclosure Assessment Framework -->
    <g transform="translate(120.41875 27.36) scale(0.16 -0.16)">
     <defs>
      <path id="DejaVuSerif-Bold-6b" d="M 2216 0 
L 219 0 
L 219 378 
L 691 378 
L 691 4488 
L 219 4488 
L 219 4863 
L 1797 4863 
L 1797 1741 
L 3138 2944 
L 2741 2944 
L 2741 3322 
L 4256 3322 
L 4256 2944 
L 3641 2944 
L 2784 2175 
L 4184 378 
L 4544 378 
L 4544 0 
L 2638 0 
L 2638 378 
L 3028 378 
L 2106 1563 
L 1797 1288 
L 1797 378 
L 2216 378 
L 2216 0 
z
" transform="scale(0.015625)"/>
     </defs>
     <use xlink:href="#DejaVuSerif-Bold-41"/>
     <use xlink:href="#DejaVuSerif-Bold-72" x="77.587891"/>
     <use xlink:href="#DejaVuSerif-Bold-63" x="130.273438"/>
     <use xlink:href="#DejaVuSerif-Bold-68" x="191.162109"/>
     <use xlink:href="#DejaVuSerif-Bold-69" x="263.867188"/>
     <use xlink:href="#DejaVuSerif-Bold-74" x="301.855469"/>
     <use xlink:href="#DejaVuSerif-Bold-65" x="348.046875"/>
     <use xlink:href="#DejaVuSerif-Bold-63" x="411.669922"/>
     <use xlink:href="#DejaVuSerif-Bold-74" x="472.558594"/>
     <use xlink:href="#DejaVuSerif-Bold-75" x="518.75"/>
     <use xlink:href="#DejaVuSerif-Bold-72" x="591.455078"/>
     <use xlink:href="#DejaVuSerif-Bold-65" x="644.140625"/>
     <use xlink:href="#DejaVuSerif-Bold-20" x="707.763672"/>
     <use xlink:href="#DejaVuSerif-Bold-6f" x="742.578125"/>
     <use xlink:href="#DejaVuSerif-Bold-66" x="809.277344"/>
     <use xlink:href="#DejaVuSerif-Bold-20" x="852.294922"/>
     <use xlink:href="#DejaVuSerif-Bold-4c" x="887.109375"/>
     <use xlink:href="#DejaVuSerif-Bold-4c" x="957.421875"/>
     <use xlink:href="#DejaVuSerif-Bold-4d" x="1027.734375"/>
     <use xlink:href="#DejaVuSerif-Bold-2d" x="1138.427734"/>
     <use xlink:href="#DejaVuSerif-Bold-41" x="1179.931641"/>
     <use xlink:href="#DejaVuSerif-Bold-73" x="1257.519531"/>
     <use xlink:href="#DejaVuSerif-Bold-73" x="1313.818359"/>
     <use xlink:href="#DejaVuSerif-Bold-69" x="1370.117188"/>
     <use xlink:href="#DejaVuSerif-Bold-73" x="1408.105469"/>
     <use xlink:href="#DejaVuSerif-Bold-74" x="1464.404297"/>
     <use xlink:href="#DejaVuSerif-Bold-65" x="1510.595703"/>
     <use xlink:href="#DejaVuSerif-Bold-64" x="1574.21875"/>
     <use xlink:href="#DejaVuSerif-Bold-20" x="1644.140625"/>
     <use xlink:href="#DejaVuSerif-Bold-45" x="1678.955078"/>
     <use xlink:href="#DejaVuSerif-Bold-53" x="1755.175781"/>
     <use xlink:href="#DejaVuSerif-Bold-47" x="1827.392578"/>
     <use xlink:href="#DejaVuSerif-Bold-20" x="1912.792969"/>
     <use xlink:href="#DejaVuSerif-Bold-44" x="1947.607422"/>
     <use xlink:href="#DejaVuSerif-Bold-69" x="2034.326172"/>
     <use xlink:href="#DejaVuSerif-Bold-73" x="2072.314453"/>
     <use xlink:href="#DejaVuSerif-Bold-63" x="2128.613281"/>
     <use xlink:href="#DejaVuSerif-Bold-6c" x="2189.501953"/>
     <use xlink:href="#DejaVuSerif-Bold-6f" x="2227.490234"/>
     <use xlink:href="#DejaVuSerif-Bold-73" x="2294.189453"/>
     <use xlink:href="#DejaVuSerif-Bold-75" x="2350.488281"/>
     <use xlink:href="#DejaVuSerif-Bold-72" x="2423.193359"/>
     <use xlink:href="#DejaVuSerif-Bold-65" x="2475.878906"/>
     <use xlink:href="#DejaVuSerif-Bold-20" x="2539.501953"/>
     <use xlink:href="#DejaVuSerif-Bold-41" x="2574.316406"/>
     <use xlink:href="#DejaVuSerif-Bold-73" x="2651.904297"/>
     <use xlink:href="#DejaVuSerif-Bold-73" x="2708.203125"/>
     <use xlink:href="#DejaVuSerif-Bold-65" x="2764.501953"/>
     <use xlink:href="#DejaVuSerif-Bold-73" x="2828.125"/>
     <use xlink:href="#DejaVuSerif-Bold-73" x="2884.423828"/>
     <use xlink:href="#DejaVuSerif-Bold-6d" x="2940.722656"/>
     <use xlink:href="#DejaVuSerif-Bold-65" x="3046.533203"/>
     <use xlink:href="#DejaVuSerif-Bold-6e" x="3110.15625"/>
     <use xlink:href="#DejaVuSerif-Bold-74" x="3182.861328"/>
     <use xlink:href="#DejaVuSerif-Bold-20" x="3229.052734"/>
     <use xlink:href="#DejaVuSerif-Bold-46" x="3263.867188"/>
     <use xlink:href="#DejaVuSerif-Bold-72" x="3333.113281"/>
     <use xlink:href="#DejaVuSerif-Bold-61" x="3385.798828"/>
     <use xlink:href="#DejaVuSerif-Bold-6d" x="3450.59375"/>
     <use xlink:href="#DejaVuSerif-Bold-65" x="3556.404297"/>
     <use xlink:href="#DejaVuSerif-Bold-77" x="3620.027344"/>
     <use xlink:href="#DejaVuSerif-Bold-6f" x="3706.111328"/>
     <use xlink:href="#DejaVuSerif-Bold-72" x="3772.810547"/>
     <use xlink:href="#DejaVuSerif-Bold-6b" x="3825.496094"/>
    </g>
   </g>
  </g>
 </g>
 <defs>
  <clipPath id="p5d933c2e2a">
   <rect x="15.12" y="47.36" width="833.76" height="801.52"/>
  </clipPath>
 </defs>
</svg>
